M48
; DRILL file {KiCad 8.0.7} date 2025-02-19T13:31:17-0500
; FORMAT={-:-/ absolute / inch / decimal}
; #@! TF.CreationDate,2025-02-19T13:31:17-05:00
; #@! TF.GenerationSoftware,Kicad,Pcbnew,8.0.7
; #@! TF.FileFunction,Plated,1,2,PTH
FMAT,2
INCH
; #@! TA.AperFunction,Plated,PTH,ViaDrill
T1C0.0118
; #@! TA.AperFunction,Plated,PTH,ComponentDrill
T2C0.0295
; #@! TA.AperFunction,Plated,PTH,ComponentDrill
T3C0.0315
; #@! TA.AperFunction,Plated,PTH,ComponentDrill
T4C0.0354
; #@! TA.AperFunction,Plated,PTH,ComponentDrill
T5C0.0394
; #@! TA.AperFunction,Plated,PTH,ComponentDrill
T6C0.0433
; #@! TA.AperFunction,Plated,PTH,ComponentDrill
T7C0.0492
; #@! TA.AperFunction,Plated,PTH,ComponentDrill
T8C0.0551
%
G90
G05
T1
X7.1063Y-2.4213
X7.3622Y-2.4213
X7.3819Y-2.5787
T2
X7.8634Y-3.4504
X7.9134Y-3.4504
X7.9634Y-3.4504
T3
X6.8256Y-2.6969
X6.8256Y-2.8937
X6.8504Y-3.9732
X6.8504Y-4.3732
X6.9437Y-2.6969
X6.9437Y-2.8937
X7.063Y-2.6969
X7.063Y-2.8937
X7.1799Y-2.6969
X7.1799Y-2.8937
X7.2949Y-2.7421
X7.2949Y-2.8602
X7.2949Y-2.9783
X7.6949Y-2.7421
X7.6949Y-2.8602
X7.6949Y-2.9783
X7.8051Y-2.6476
X7.8051Y-2.7476
X7.8051Y-2.8476
X7.8051Y-2.9476
X7.8051Y-3.622
X7.8051Y-3.8189
X7.9134Y-3.9961
X7.9134Y-4.1339
X8.0217Y-3.622
X8.0217Y-3.8189
X8.1051Y-2.6476
X8.1051Y-2.7476
X8.1051Y-2.8476
X8.1051Y-2.9476
X8.1988Y-2.5953
X8.1988Y-2.9953
X8.3039Y-2.6181
X8.3039Y-2.9724
X8.3071Y-2.8543
X8.3079Y-2.7362
X8.7039Y-2.6181
X8.7039Y-2.9724
X8.7071Y-2.8543
X8.7079Y-2.7362
X8.7992Y-2.7362
X8.7992Y-2.8563
X8.802Y-2.6201
X8.802Y-2.9744
X8.9764Y-3.9764
X8.9764Y-4.3764
X8.9961Y-2.7362
X8.9961Y-2.8563
X8.9988Y-2.6201
X8.9988Y-2.9744
T4
X7.1431Y-4.1142
X7.2431Y-4.1142
X8.5024Y-4.1142
X8.6024Y-4.1142
T5
X6.8307Y-2.4311
X6.8307Y-2.5311
X7.1441Y-4.3701
X7.2441Y-4.3701
X7.4213Y-2.3031
X7.5213Y-2.3031
X8.2967Y-2.3031
X8.3967Y-2.3031
X8.5039Y-4.3701
X8.6039Y-4.3701
T6
X6.9839Y-2.4925
X6.9839Y-3.0925
X7.0839Y-2.4925
X7.0839Y-3.0925
X7.1839Y-2.4925
X7.1839Y-3.0925
X7.2839Y-2.4925
X7.2839Y-3.0925
X7.2949Y-2.6201
X7.3839Y-2.4925
X7.3839Y-3.0925
X7.4839Y-2.4925
X7.4839Y-3.0925
X7.5839Y-2.4925
X7.5839Y-3.0925
X7.6839Y-2.4925
X7.6839Y-3.0925
X7.6949Y-2.6201
X7.7839Y-2.4925
X7.7839Y-3.0925
X7.8839Y-2.4925
X7.8839Y-3.0925
X7.9839Y-2.4925
X7.9839Y-3.0925
X8.0839Y-2.4925
X8.0839Y-3.0925
X8.1839Y-2.4925
X8.1839Y-3.0925
X8.2839Y-2.4925
X8.2839Y-3.0925
X8.3839Y-2.4925
X8.3839Y-3.0925
X8.4839Y-2.4925
X8.4839Y-3.0925
X8.5839Y-2.4925
X8.5839Y-3.0925
X8.6839Y-2.4925
X8.6839Y-3.0925
X8.7839Y-2.4925
X8.7839Y-3.0925
X8.8839Y-2.4925
X8.8839Y-3.0925
T7
X6.8307Y-2.3031
X6.8307Y-3.2874
X7.0276Y-2.3031
X7.0276Y-3.2874
X7.2244Y-2.3031
X7.2244Y-3.2874
X7.7165Y-2.3031
X7.7165Y-3.2874
X7.9134Y-2.3031
X7.9134Y-3.2874
X8.1102Y-2.3031
X8.1102Y-3.2874
X8.6024Y-2.3031
X8.6024Y-3.2874
X8.7992Y-2.3031
X8.7992Y-3.2874
X8.9961Y-2.3031
X8.9961Y-3.2874
T8
X7.0276Y-3.4882
X7.0276Y-3.6732
X7.0276Y-3.8583
X7.6181Y-3.4882
X7.6181Y-3.6732
X7.6181Y-3.8583
X8.2087Y-3.4882
X8.2087Y-3.6732
X8.2087Y-3.8583
X8.7992Y-3.4882
X8.7992Y-3.6732
X8.7992Y-3.8583
M30
