%TF.GenerationSoftware,KiCad,Pcbnew,8.0.7*%
%TF.CreationDate,2025-02-19T13:31:19-05:00*%
%TF.ProjectId,OD1,4f44312e-6b69-4636-9164-5f7063625858,rev?*%
%TF.SameCoordinates,Original*%
%TF.FileFunction,Legend,Top*%
%TF.FilePolarity,Positive*%
%FSLAX46Y46*%
G04 Gerber Fmt 4.6, Leading zero omitted, Abs format (unit mm)*
G04 Created by KiCad (PCBNEW 8.0.7) date 2025-02-19 13:31:19*
%MOMM*%
%LPD*%
G01*
G04 APERTURE LIST*
%ADD10C,0.100000*%
%ADD11C,0.000000*%
%ADD12C,0.150000*%
%ADD13C,0.120000*%
%ADD14C,0.090000*%
G04 APERTURE END LIST*
D10*
X187756265Y-112324800D02*
X187899122Y-112372419D01*
X187899122Y-112372419D02*
X188137217Y-112372419D01*
X188137217Y-112372419D02*
X188232455Y-112324800D01*
X188232455Y-112324800D02*
X188280074Y-112277180D01*
X188280074Y-112277180D02*
X188327693Y-112181942D01*
X188327693Y-112181942D02*
X188327693Y-112086704D01*
X188327693Y-112086704D02*
X188280074Y-111991466D01*
X188280074Y-111991466D02*
X188232455Y-111943847D01*
X188232455Y-111943847D02*
X188137217Y-111896228D01*
X188137217Y-111896228D02*
X187946741Y-111848609D01*
X187946741Y-111848609D02*
X187851503Y-111800990D01*
X187851503Y-111800990D02*
X187803884Y-111753371D01*
X187803884Y-111753371D02*
X187756265Y-111658133D01*
X187756265Y-111658133D02*
X187756265Y-111562895D01*
X187756265Y-111562895D02*
X187803884Y-111467657D01*
X187803884Y-111467657D02*
X187851503Y-111420038D01*
X187851503Y-111420038D02*
X187946741Y-111372419D01*
X187946741Y-111372419D02*
X188184836Y-111372419D01*
X188184836Y-111372419D02*
X188327693Y-111420038D01*
X189137217Y-112324800D02*
X189041979Y-112372419D01*
X189041979Y-112372419D02*
X188851503Y-112372419D01*
X188851503Y-112372419D02*
X188756265Y-112324800D01*
X188756265Y-112324800D02*
X188708646Y-112229561D01*
X188708646Y-112229561D02*
X188708646Y-111848609D01*
X188708646Y-111848609D02*
X188756265Y-111753371D01*
X188756265Y-111753371D02*
X188851503Y-111705752D01*
X188851503Y-111705752D02*
X189041979Y-111705752D01*
X189041979Y-111705752D02*
X189137217Y-111753371D01*
X189137217Y-111753371D02*
X189184836Y-111848609D01*
X189184836Y-111848609D02*
X189184836Y-111943847D01*
X189184836Y-111943847D02*
X188708646Y-112039085D01*
X189994360Y-112324800D02*
X189899122Y-112372419D01*
X189899122Y-112372419D02*
X189708646Y-112372419D01*
X189708646Y-112372419D02*
X189613408Y-112324800D01*
X189613408Y-112324800D02*
X189565789Y-112229561D01*
X189565789Y-112229561D02*
X189565789Y-111848609D01*
X189565789Y-111848609D02*
X189613408Y-111753371D01*
X189613408Y-111753371D02*
X189708646Y-111705752D01*
X189708646Y-111705752D02*
X189899122Y-111705752D01*
X189899122Y-111705752D02*
X189994360Y-111753371D01*
X189994360Y-111753371D02*
X190041979Y-111848609D01*
X190041979Y-111848609D02*
X190041979Y-111943847D01*
X190041979Y-111943847D02*
X189565789Y-112039085D01*
X190899122Y-112372419D02*
X190899122Y-111372419D01*
X190899122Y-112324800D02*
X190803884Y-112372419D01*
X190803884Y-112372419D02*
X190613408Y-112372419D01*
X190613408Y-112372419D02*
X190518170Y-112324800D01*
X190518170Y-112324800D02*
X190470551Y-112277180D01*
X190470551Y-112277180D02*
X190422932Y-112181942D01*
X190422932Y-112181942D02*
X190422932Y-111896228D01*
X190422932Y-111896228D02*
X190470551Y-111800990D01*
X190470551Y-111800990D02*
X190518170Y-111753371D01*
X190518170Y-111753371D02*
X190613408Y-111705752D01*
X190613408Y-111705752D02*
X190803884Y-111705752D01*
X190803884Y-111705752D02*
X190899122Y-111753371D01*
X191994361Y-111372419D02*
X192327694Y-112372419D01*
X192327694Y-112372419D02*
X192661027Y-111372419D01*
X193518170Y-112372419D02*
X192946742Y-112372419D01*
X193232456Y-112372419D02*
X193232456Y-111372419D01*
X193232456Y-111372419D02*
X193137218Y-111515276D01*
X193137218Y-111515276D02*
X193041980Y-111610514D01*
X193041980Y-111610514D02*
X192946742Y-111658133D01*
D11*
G36*
X197358838Y-110069417D02*
G01*
X197364324Y-110069691D01*
X197369776Y-110070145D01*
X197375191Y-110070777D01*
X197380564Y-110071585D01*
X197385892Y-110072566D01*
X197391172Y-110073719D01*
X197396399Y-110075040D01*
X197401570Y-110076529D01*
X197406680Y-110078183D01*
X197411727Y-110079999D01*
X197416706Y-110081976D01*
X197421614Y-110084111D01*
X197426447Y-110086402D01*
X197431200Y-110088848D01*
X197435872Y-110091445D01*
X197440456Y-110094191D01*
X197444951Y-110097086D01*
X197449352Y-110100125D01*
X197453654Y-110103308D01*
X197457856Y-110106632D01*
X197461952Y-110110094D01*
X197465940Y-110113693D01*
X197469814Y-110117427D01*
X197473572Y-110121293D01*
X197477210Y-110125289D01*
X197480724Y-110129412D01*
X197484110Y-110133662D01*
X197487365Y-110138036D01*
X197490485Y-110142530D01*
X197493465Y-110147144D01*
X197496302Y-110151875D01*
X197501487Y-110161586D01*
X197505980Y-110171541D01*
X197509781Y-110181703D01*
X197512892Y-110192039D01*
X197515311Y-110202514D01*
X197517039Y-110213093D01*
X197518076Y-110223742D01*
X197518422Y-110234425D01*
X197518076Y-110245109D01*
X197517039Y-110255757D01*
X197515311Y-110266337D01*
X197512892Y-110276812D01*
X197509781Y-110287148D01*
X197505980Y-110297310D01*
X197501487Y-110307264D01*
X197496302Y-110316975D01*
X197490485Y-110326321D01*
X197484110Y-110335189D01*
X197477210Y-110343562D01*
X197469814Y-110351424D01*
X197461952Y-110358757D01*
X197453654Y-110365543D01*
X197444951Y-110371765D01*
X197435872Y-110377406D01*
X197426447Y-110382449D01*
X197416706Y-110386875D01*
X197406680Y-110390668D01*
X197396399Y-110393810D01*
X197385892Y-110396285D01*
X197375191Y-110398073D01*
X197364324Y-110399160D01*
X197353322Y-110399525D01*
X197293552Y-110399525D01*
X197288036Y-110399434D01*
X197282550Y-110399160D01*
X197277098Y-110398705D01*
X197271683Y-110398074D01*
X197266310Y-110397266D01*
X197260981Y-110396285D01*
X197255702Y-110395132D01*
X197250475Y-110393810D01*
X197245304Y-110392322D01*
X197240193Y-110390668D01*
X197235147Y-110388852D01*
X197230168Y-110386875D01*
X197225260Y-110384740D01*
X197220427Y-110382449D01*
X197215673Y-110380003D01*
X197211002Y-110377406D01*
X197206418Y-110374659D01*
X197201923Y-110371765D01*
X197197522Y-110368726D01*
X197193219Y-110365543D01*
X197189018Y-110362219D01*
X197184922Y-110358757D01*
X197180934Y-110355158D01*
X197177060Y-110351424D01*
X197173301Y-110347558D01*
X197169663Y-110343562D01*
X197166150Y-110339438D01*
X197162763Y-110335189D01*
X197159509Y-110330815D01*
X197156389Y-110326321D01*
X197153409Y-110321707D01*
X197150571Y-110316975D01*
X197145387Y-110307264D01*
X197140894Y-110297310D01*
X197137093Y-110287148D01*
X197133982Y-110276812D01*
X197131563Y-110266337D01*
X197129835Y-110255757D01*
X197128798Y-110245109D01*
X197128452Y-110234425D01*
X197128798Y-110223742D01*
X197129835Y-110213093D01*
X197131563Y-110202514D01*
X197133982Y-110192039D01*
X197137093Y-110181703D01*
X197140894Y-110171541D01*
X197145387Y-110161586D01*
X197150571Y-110151875D01*
X197156389Y-110142530D01*
X197162763Y-110133662D01*
X197169663Y-110125289D01*
X197177060Y-110117427D01*
X197184922Y-110110094D01*
X197193219Y-110103308D01*
X197201923Y-110097086D01*
X197211002Y-110091445D01*
X197220427Y-110086402D01*
X197230168Y-110081976D01*
X197240193Y-110078183D01*
X197250475Y-110075040D01*
X197260981Y-110072566D01*
X197271683Y-110070777D01*
X197282550Y-110069691D01*
X197293552Y-110069325D01*
X197353322Y-110069325D01*
X197358838Y-110069417D01*
G37*
G36*
X197809410Y-112005996D02*
G01*
X197536201Y-112005996D01*
X197536201Y-112698860D01*
X197338558Y-112698860D01*
X197338558Y-112005996D01*
X197065349Y-112005996D01*
X197065349Y-111844944D01*
X197809410Y-111844944D01*
X197809410Y-112005996D01*
G37*
G36*
X196763962Y-112363025D02*
G01*
X196763962Y-111844944D01*
X196959145Y-111844944D01*
X196959145Y-112698860D01*
X196795712Y-112698860D01*
X196371215Y-112180859D01*
X196371215Y-112698860D01*
X196176032Y-112698860D01*
X196176032Y-111844944D01*
X196339544Y-111844944D01*
X196763962Y-112363025D01*
G37*
G36*
X196002835Y-112003535D02*
G01*
X195553970Y-112003535D01*
X195553970Y-112187765D01*
X195950368Y-112187765D01*
X195950368Y-112342705D01*
X195553970Y-112342705D01*
X195553970Y-112540269D01*
X196018710Y-112540269D01*
X196018710Y-112698860D01*
X195357596Y-112698860D01*
X195357596Y-111844944D01*
X196002835Y-111844944D01*
X196002835Y-112003535D01*
G37*
G36*
X201994815Y-109598044D02*
G01*
X202011185Y-109599025D01*
X202027428Y-109600600D01*
X202043532Y-109602760D01*
X202059481Y-109605495D01*
X202075265Y-109608798D01*
X202090869Y-109612659D01*
X202106280Y-109617071D01*
X202121485Y-109622023D01*
X202136471Y-109627508D01*
X202151225Y-109633517D01*
X202165734Y-109640041D01*
X202179984Y-109647071D01*
X202193962Y-109654599D01*
X202207656Y-109662617D01*
X202221052Y-109671115D01*
X202234136Y-109680084D01*
X202246896Y-109689517D01*
X202259318Y-109699404D01*
X202271390Y-109709736D01*
X202283098Y-109720506D01*
X202294429Y-109731704D01*
X202305370Y-109743321D01*
X202315907Y-109755350D01*
X202326028Y-109767781D01*
X202335720Y-109780605D01*
X202344968Y-109793815D01*
X202353761Y-109807400D01*
X202362084Y-109821354D01*
X202369926Y-109835666D01*
X202377271Y-109850328D01*
X202384108Y-109865332D01*
X202808844Y-110849582D01*
X202813820Y-110860542D01*
X202819538Y-110870999D01*
X202825958Y-110880925D01*
X202833042Y-110890295D01*
X202840751Y-110899081D01*
X202849045Y-110907257D01*
X202857887Y-110914798D01*
X202867237Y-110921676D01*
X202877057Y-110927865D01*
X202887308Y-110933338D01*
X202897951Y-110938070D01*
X202908947Y-110942033D01*
X202920257Y-110945201D01*
X202931843Y-110947549D01*
X202943666Y-110949048D01*
X202955688Y-110949674D01*
X202961696Y-110949816D01*
X202967672Y-110949733D01*
X202973610Y-110949428D01*
X202979506Y-110948903D01*
X202985353Y-110948161D01*
X202991148Y-110947207D01*
X202996884Y-110946043D01*
X203002557Y-110944672D01*
X203008162Y-110943096D01*
X203013694Y-110941321D01*
X203019147Y-110939347D01*
X203024516Y-110937179D01*
X203029797Y-110934820D01*
X203034984Y-110932272D01*
X203040072Y-110929539D01*
X203045056Y-110926624D01*
X203049931Y-110923530D01*
X203054692Y-110920261D01*
X203059334Y-110916818D01*
X203063851Y-110913206D01*
X203068238Y-110909427D01*
X203072492Y-110905485D01*
X203076605Y-110901382D01*
X203080574Y-110897123D01*
X203084393Y-110892709D01*
X203088056Y-110888144D01*
X203091560Y-110883431D01*
X203094899Y-110878574D01*
X203098067Y-110873574D01*
X203101060Y-110868436D01*
X203103873Y-110863163D01*
X203106500Y-110857757D01*
X203274458Y-110510015D01*
X203300102Y-110461399D01*
X203328873Y-110415156D01*
X203360604Y-110371392D01*
X203395127Y-110330210D01*
X203432274Y-110291718D01*
X203471877Y-110256020D01*
X203513767Y-110223222D01*
X203557779Y-110193429D01*
X203603742Y-110166747D01*
X203651490Y-110143280D01*
X203700855Y-110123134D01*
X203751668Y-110106416D01*
X203803762Y-110093229D01*
X203856970Y-110083679D01*
X203911122Y-110077872D01*
X203966052Y-110075914D01*
X204088528Y-110075914D01*
X204097007Y-110076131D01*
X204105424Y-110076779D01*
X204113765Y-110077851D01*
X204122014Y-110079342D01*
X204130157Y-110081244D01*
X204138178Y-110083552D01*
X204146063Y-110086259D01*
X204153797Y-110089358D01*
X204161365Y-110092843D01*
X204168752Y-110096708D01*
X204175942Y-110100946D01*
X204182922Y-110105551D01*
X204189676Y-110110516D01*
X204196190Y-110115836D01*
X204202448Y-110121503D01*
X204208435Y-110127510D01*
X204214106Y-110133818D01*
X204219422Y-110140376D01*
X204224377Y-110147171D01*
X204228965Y-110154187D01*
X204233181Y-110161408D01*
X204237019Y-110168820D01*
X204240474Y-110176407D01*
X204243540Y-110184155D01*
X204246211Y-110192047D01*
X204248482Y-110200068D01*
X204250347Y-110208204D01*
X204251801Y-110216438D01*
X204252838Y-110224757D01*
X204253452Y-110233144D01*
X204253638Y-110241584D01*
X204253391Y-110250062D01*
X204252733Y-110258360D01*
X204251645Y-110266519D01*
X204250140Y-110274532D01*
X204248229Y-110282390D01*
X204245925Y-110290084D01*
X204243240Y-110297608D01*
X204240185Y-110304952D01*
X204236773Y-110312109D01*
X204233016Y-110319069D01*
X204228927Y-110325826D01*
X204224516Y-110332371D01*
X204219797Y-110338695D01*
X204214782Y-110344791D01*
X204209482Y-110350649D01*
X204203909Y-110356263D01*
X204198077Y-110361624D01*
X204191996Y-110366723D01*
X204185679Y-110371553D01*
X204179139Y-110376105D01*
X204172386Y-110380371D01*
X204165434Y-110384342D01*
X204158294Y-110388012D01*
X204150979Y-110391371D01*
X204143500Y-110394411D01*
X204135870Y-110397124D01*
X204128101Y-110399502D01*
X204120205Y-110401536D01*
X204112194Y-110403219D01*
X204104080Y-110404543D01*
X204095876Y-110405498D01*
X204087593Y-110406077D01*
X204079243Y-110406272D01*
X203966053Y-110406272D01*
X203950346Y-110406552D01*
X203934737Y-110407387D01*
X203919240Y-110408770D01*
X203903865Y-110410695D01*
X203888624Y-110413152D01*
X203873531Y-110416136D01*
X203858595Y-110419637D01*
X203843831Y-110423650D01*
X203829248Y-110428166D01*
X203814861Y-110433177D01*
X203800679Y-110438677D01*
X203786716Y-110444658D01*
X203772983Y-110451112D01*
X203759492Y-110458032D01*
X203746256Y-110465410D01*
X203733286Y-110473239D01*
X203720594Y-110481511D01*
X203708192Y-110490219D01*
X203696092Y-110499355D01*
X203684306Y-110508912D01*
X203672845Y-110518882D01*
X203661723Y-110529258D01*
X203650951Y-110540032D01*
X203640541Y-110551197D01*
X203630504Y-110562746D01*
X203620853Y-110574670D01*
X203611600Y-110586962D01*
X203602757Y-110599615D01*
X203594335Y-110612621D01*
X203586346Y-110625973D01*
X203578804Y-110639663D01*
X203571719Y-110653684D01*
X203403760Y-111001585D01*
X203386753Y-111033844D01*
X203367739Y-111064438D01*
X203346819Y-111093298D01*
X203324096Y-111120357D01*
X203299673Y-111145547D01*
X203273650Y-111168801D01*
X203246132Y-111190051D01*
X203217219Y-111209230D01*
X203187014Y-111226269D01*
X203155619Y-111241100D01*
X203123137Y-111253657D01*
X203089670Y-111263872D01*
X203055319Y-111271676D01*
X203020187Y-111277003D01*
X202984376Y-111279785D01*
X202947989Y-111279953D01*
X202929865Y-111279306D01*
X202911875Y-111277998D01*
X202894033Y-111276039D01*
X202876353Y-111273439D01*
X202858850Y-111270206D01*
X202841538Y-111266352D01*
X202824432Y-111261885D01*
X202807546Y-111256816D01*
X202790894Y-111251154D01*
X202774490Y-111244909D01*
X202758350Y-111238090D01*
X202742488Y-111230708D01*
X202726917Y-111222773D01*
X202711652Y-111214293D01*
X202696708Y-111205279D01*
X202682098Y-111195741D01*
X202667839Y-111185688D01*
X202653942Y-111175130D01*
X202640424Y-111164076D01*
X202627298Y-111152538D01*
X202614580Y-111140523D01*
X202602282Y-111128043D01*
X202590420Y-111115106D01*
X202579007Y-111101723D01*
X202568059Y-111087903D01*
X202557590Y-111073656D01*
X202547614Y-111058992D01*
X202538145Y-111043921D01*
X202529198Y-111028452D01*
X202520788Y-111012595D01*
X202512927Y-110996360D01*
X202505632Y-110979757D01*
X202081214Y-109996539D01*
X202077726Y-109988801D01*
X202073703Y-109981429D01*
X202069172Y-109974443D01*
X202064162Y-109967862D01*
X202058704Y-109961705D01*
X202052825Y-109955991D01*
X202046555Y-109950740D01*
X202039924Y-109945971D01*
X202032958Y-109941703D01*
X202025689Y-109937955D01*
X202018145Y-109934748D01*
X202010354Y-109932099D01*
X202002347Y-109930029D01*
X201994151Y-109928557D01*
X201985797Y-109927701D01*
X201977312Y-109927482D01*
X201967405Y-109928305D01*
X201961538Y-109929027D01*
X201955178Y-109930062D01*
X201948412Y-109931487D01*
X201941329Y-109933381D01*
X201934017Y-109935824D01*
X201926562Y-109938892D01*
X201922808Y-109940686D01*
X201919051Y-109942666D01*
X201915303Y-109944842D01*
X201911574Y-109947224D01*
X201907875Y-109949821D01*
X201904217Y-109952643D01*
X201900611Y-109955701D01*
X201897068Y-109959004D01*
X201893598Y-109962562D01*
X201890213Y-109966384D01*
X201886925Y-109970481D01*
X201883742Y-109974862D01*
X201880678Y-109979538D01*
X201877742Y-109984517D01*
X201874945Y-109989810D01*
X201872299Y-109995427D01*
X201528367Y-110771159D01*
X201500513Y-110827883D01*
X201468897Y-110881895D01*
X201433721Y-110933063D01*
X201395185Y-110981258D01*
X201353492Y-111026348D01*
X201308842Y-111068203D01*
X201261436Y-111106692D01*
X201211476Y-111141686D01*
X201159162Y-111173053D01*
X201104697Y-111200663D01*
X201048281Y-111224385D01*
X200990116Y-111244089D01*
X200930402Y-111259644D01*
X200869341Y-111270920D01*
X200807135Y-111277786D01*
X200743983Y-111280112D01*
X200161053Y-111280112D01*
X200135348Y-111279489D01*
X200109767Y-111277627D01*
X200084369Y-111274530D01*
X200059213Y-111270206D01*
X200034357Y-111264660D01*
X200009860Y-111257898D01*
X199985781Y-111249926D01*
X199962179Y-111240751D01*
X199939113Y-111230380D01*
X199916642Y-111218817D01*
X199894824Y-111206069D01*
X199873718Y-111192143D01*
X199853384Y-111177044D01*
X199833879Y-111160779D01*
X199815263Y-111143354D01*
X199797595Y-111124775D01*
X199780961Y-111105288D01*
X199765488Y-111085036D01*
X199751193Y-111064069D01*
X199738093Y-111042441D01*
X199726204Y-111020203D01*
X199715542Y-110997408D01*
X199706123Y-110974108D01*
X199697965Y-110950355D01*
X199691083Y-110926201D01*
X199685493Y-110901699D01*
X199681213Y-110876900D01*
X199678259Y-110851857D01*
X199676646Y-110826622D01*
X199676392Y-110801248D01*
X199677512Y-110775786D01*
X199680024Y-110750289D01*
X199683915Y-110724965D01*
X199689146Y-110700021D01*
X199695686Y-110675503D01*
X199703508Y-110651457D01*
X199712582Y-110627930D01*
X199722880Y-110604968D01*
X199734373Y-110582618D01*
X199747031Y-110560926D01*
X199760827Y-110539939D01*
X199775730Y-110519703D01*
X199791714Y-110500265D01*
X199808748Y-110481671D01*
X199826803Y-110463969D01*
X199845852Y-110447203D01*
X199865865Y-110431422D01*
X199886813Y-110416670D01*
X199901418Y-110407277D01*
X199916326Y-110398454D01*
X199931520Y-110390209D01*
X199946983Y-110382546D01*
X199962698Y-110375470D01*
X199978648Y-110368986D01*
X199994815Y-110363099D01*
X200011184Y-110357815D01*
X200027736Y-110353138D01*
X200044455Y-110349075D01*
X200061324Y-110345629D01*
X200078326Y-110342807D01*
X200095444Y-110340613D01*
X200112660Y-110339052D01*
X200129958Y-110338130D01*
X200147321Y-110337851D01*
X200698501Y-110337851D01*
X200694693Y-110311980D01*
X200689443Y-110286488D01*
X200682773Y-110261424D01*
X200674702Y-110236836D01*
X200665253Y-110212773D01*
X200654446Y-110189283D01*
X200642301Y-110166415D01*
X200628840Y-110144216D01*
X200614083Y-110122735D01*
X200598051Y-110102020D01*
X200580765Y-110082121D01*
X200562246Y-110063085D01*
X200542514Y-110044960D01*
X200521591Y-110027795D01*
X200499496Y-110011638D01*
X200476252Y-109996539D01*
X200462897Y-109988901D01*
X200449314Y-109981745D01*
X200435518Y-109975074D01*
X200421520Y-109968891D01*
X200407334Y-109963200D01*
X200392974Y-109958005D01*
X200378452Y-109953308D01*
X200363781Y-109949114D01*
X200348975Y-109945426D01*
X200334047Y-109942247D01*
X200319010Y-109939582D01*
X200303878Y-109937432D01*
X200288662Y-109935803D01*
X200273377Y-109934697D01*
X200258036Y-109934118D01*
X200242651Y-109934070D01*
X200219360Y-109934518D01*
X200196232Y-109935829D01*
X200173284Y-109937990D01*
X200150536Y-109940988D01*
X200128007Y-109944812D01*
X200105716Y-109949447D01*
X200083682Y-109954882D01*
X200061925Y-109961104D01*
X200040462Y-109968101D01*
X200019314Y-109975858D01*
X199998499Y-109984365D01*
X199978037Y-109993608D01*
X199957945Y-110003574D01*
X199938245Y-110014252D01*
X199918953Y-110025627D01*
X199900090Y-110037688D01*
X199881675Y-110050422D01*
X199863726Y-110063816D01*
X199846263Y-110077858D01*
X199829305Y-110092535D01*
X199812871Y-110107833D01*
X199796979Y-110123742D01*
X199781649Y-110140247D01*
X199766900Y-110157336D01*
X199752750Y-110174997D01*
X199739220Y-110193217D01*
X199726328Y-110211983D01*
X199714093Y-110231282D01*
X199702534Y-110251103D01*
X199691670Y-110271431D01*
X199681520Y-110292255D01*
X199672103Y-110313562D01*
X199669722Y-110319039D01*
X199365081Y-110975708D01*
X199349618Y-111008199D01*
X199332010Y-111039188D01*
X199312368Y-111068598D01*
X199290805Y-111096356D01*
X199267432Y-111122387D01*
X199242359Y-111146614D01*
X199215700Y-111168964D01*
X199187565Y-111189361D01*
X199158066Y-111207731D01*
X199127315Y-111223997D01*
X199095423Y-111238085D01*
X199062501Y-111249921D01*
X199028662Y-111259428D01*
X198994017Y-111266532D01*
X198958677Y-111271159D01*
X198922754Y-111273232D01*
X198904712Y-111273288D01*
X198886775Y-111272692D01*
X198868956Y-111271452D01*
X198851270Y-111269577D01*
X198833730Y-111267075D01*
X198816353Y-111263956D01*
X198799151Y-111260228D01*
X198782139Y-111255900D01*
X198765331Y-111250981D01*
X198748743Y-111245479D01*
X198732387Y-111239404D01*
X198716279Y-111232763D01*
X198700432Y-111225567D01*
X198684862Y-111217823D01*
X198669582Y-111209540D01*
X198654607Y-111200728D01*
X198639951Y-111191395D01*
X198625628Y-111181549D01*
X198611653Y-111171200D01*
X198598040Y-111160356D01*
X198584803Y-111149026D01*
X198571958Y-111137220D01*
X198559517Y-111124944D01*
X198547496Y-111112209D01*
X198535908Y-111099024D01*
X198524768Y-111085396D01*
X198514091Y-111071335D01*
X198503891Y-111056849D01*
X198494181Y-111041948D01*
X198484978Y-111026640D01*
X198476293Y-111010934D01*
X198468143Y-110994838D01*
X198299789Y-110646778D01*
X198285156Y-110619084D01*
X198268742Y-110592741D01*
X198250643Y-110567811D01*
X198230956Y-110544354D01*
X198209774Y-110522429D01*
X198187195Y-110502095D01*
X198163313Y-110483415D01*
X198138224Y-110466446D01*
X198112024Y-110451249D01*
X198084808Y-110437885D01*
X198056671Y-110426412D01*
X198027711Y-110416891D01*
X197998021Y-110409382D01*
X197967698Y-110403945D01*
X197936837Y-110400639D01*
X197905534Y-110399525D01*
X197783375Y-110399525D01*
X197774907Y-110399300D01*
X197766501Y-110398645D01*
X197758171Y-110397567D01*
X197749933Y-110396071D01*
X197741802Y-110394165D01*
X197733792Y-110391855D01*
X197725918Y-110389146D01*
X197718195Y-110386047D01*
X197710638Y-110382562D01*
X197703262Y-110378698D01*
X197696081Y-110374463D01*
X197689111Y-110369861D01*
X197682367Y-110364900D01*
X197675862Y-110359586D01*
X197669613Y-110353926D01*
X197663633Y-110347925D01*
X197657969Y-110341626D01*
X197652660Y-110335076D01*
X197647710Y-110328290D01*
X197643126Y-110321283D01*
X197638914Y-110314072D01*
X197635078Y-110306670D01*
X197631624Y-110299093D01*
X197628559Y-110291357D01*
X197625887Y-110283476D01*
X197623614Y-110275465D01*
X197621746Y-110267340D01*
X197620289Y-110259117D01*
X197619247Y-110250809D01*
X197618626Y-110242433D01*
X197618433Y-110234003D01*
X197618672Y-110225535D01*
X197619330Y-110217238D01*
X197620418Y-110209079D01*
X197621923Y-110201066D01*
X197623834Y-110193208D01*
X197626138Y-110185513D01*
X197628823Y-110177990D01*
X197631878Y-110170646D01*
X197635290Y-110163489D01*
X197639047Y-110156528D01*
X197643136Y-110149771D01*
X197647547Y-110143227D01*
X197652266Y-110136903D01*
X197657281Y-110130807D01*
X197662581Y-110124948D01*
X197668154Y-110119334D01*
X197673987Y-110113974D01*
X197680067Y-110108875D01*
X197686384Y-110104045D01*
X197692925Y-110099493D01*
X197699677Y-110095227D01*
X197706629Y-110091255D01*
X197713769Y-110087586D01*
X197721084Y-110084227D01*
X197728563Y-110081187D01*
X197736193Y-110078474D01*
X197743962Y-110076096D01*
X197751858Y-110074061D01*
X197759869Y-110072378D01*
X197767983Y-110071055D01*
X197776188Y-110070100D01*
X197784471Y-110069520D01*
X197792821Y-110069325D01*
X197905613Y-110069325D01*
X197933146Y-110069825D01*
X197960506Y-110071298D01*
X197987672Y-110073732D01*
X198014623Y-110077113D01*
X198041338Y-110081428D01*
X198067796Y-110086663D01*
X198093976Y-110092807D01*
X198119857Y-110099845D01*
X198145419Y-110107765D01*
X198170640Y-110116553D01*
X198195500Y-110126197D01*
X198219977Y-110136683D01*
X198244051Y-110147998D01*
X198267700Y-110160128D01*
X198290905Y-110173062D01*
X198313643Y-110186785D01*
X198335894Y-110201284D01*
X198357636Y-110216547D01*
X198378850Y-110232561D01*
X198399514Y-110249311D01*
X198419607Y-110266785D01*
X198439109Y-110284970D01*
X198457997Y-110303853D01*
X198476252Y-110323421D01*
X198493853Y-110343660D01*
X198510778Y-110364557D01*
X198527006Y-110386100D01*
X198542517Y-110408274D01*
X198557290Y-110431068D01*
X198571303Y-110454467D01*
X198584537Y-110478459D01*
X198596969Y-110503030D01*
X198765323Y-110851169D01*
X198769430Y-110859143D01*
X198773760Y-110866643D01*
X198778294Y-110873685D01*
X198783016Y-110880282D01*
X198787905Y-110886448D01*
X198792945Y-110892199D01*
X198798115Y-110897549D01*
X198803398Y-110902512D01*
X198808776Y-110907103D01*
X198814230Y-110911336D01*
X198819741Y-110915226D01*
X198825292Y-110918786D01*
X198830863Y-110922033D01*
X198836436Y-110924979D01*
X198841993Y-110927639D01*
X198847516Y-110930028D01*
X198858384Y-110934051D01*
X198868892Y-110937162D01*
X198878893Y-110939478D01*
X198888240Y-110941113D01*
X198896785Y-110942184D01*
X198904381Y-110942806D01*
X198916136Y-110943165D01*
X198922141Y-110942966D01*
X198928102Y-110942548D01*
X198934014Y-110941912D01*
X198939872Y-110941063D01*
X198945672Y-110940003D01*
X198951409Y-110938736D01*
X198957077Y-110937266D01*
X198962673Y-110935595D01*
X198968190Y-110933726D01*
X198973625Y-110931664D01*
X198978973Y-110929410D01*
X198984229Y-110926969D01*
X198989387Y-110924344D01*
X198994444Y-110921538D01*
X198999394Y-110918554D01*
X199004233Y-110915395D01*
X199008956Y-110912065D01*
X199013558Y-110908568D01*
X199018033Y-110904905D01*
X199022378Y-110901081D01*
X199026588Y-110897099D01*
X199030658Y-110892962D01*
X199034582Y-110888673D01*
X199038357Y-110884236D01*
X199041977Y-110879654D01*
X199045437Y-110874930D01*
X199048734Y-110870067D01*
X199051861Y-110865069D01*
X199054814Y-110859938D01*
X199057589Y-110854679D01*
X199060180Y-110849294D01*
X199062583Y-110843787D01*
X199064726Y-110838945D01*
X199369209Y-110182673D01*
X199399388Y-110118316D01*
X199433918Y-110056999D01*
X199472567Y-109998875D01*
X199515101Y-109944099D01*
X199561289Y-109892824D01*
X199610898Y-109845204D01*
X199663695Y-109801393D01*
X199719448Y-109761545D01*
X199777925Y-109725813D01*
X199838893Y-109694352D01*
X199902120Y-109667314D01*
X199967373Y-109644855D01*
X200034420Y-109627127D01*
X200103029Y-109614284D01*
X200172966Y-109606481D01*
X200244000Y-109603870D01*
X200273320Y-109604227D01*
X200302531Y-109605689D01*
X200331603Y-109608250D01*
X200360507Y-109611898D01*
X200389214Y-109616627D01*
X200417692Y-109622425D01*
X200445914Y-109629285D01*
X200473848Y-109637198D01*
X200501466Y-109646154D01*
X200528737Y-109656144D01*
X200555631Y-109667159D01*
X200582120Y-109679191D01*
X200608173Y-109692230D01*
X200633760Y-109706267D01*
X200658853Y-109721293D01*
X200683420Y-109737300D01*
X200724230Y-109767210D01*
X200762693Y-109799099D01*
X200798768Y-109832863D01*
X200832412Y-109868401D01*
X200863583Y-109905612D01*
X200892241Y-109944392D01*
X200918342Y-109984640D01*
X200941845Y-110026255D01*
X200962708Y-110069133D01*
X200980890Y-110113174D01*
X200996348Y-110158275D01*
X201009041Y-110204334D01*
X201018926Y-110251249D01*
X201025963Y-110298919D01*
X201030108Y-110347240D01*
X201031321Y-110396112D01*
X201030606Y-110558752D01*
X201030438Y-110564427D01*
X201029989Y-110570026D01*
X201029266Y-110575544D01*
X201028275Y-110580972D01*
X201027023Y-110586304D01*
X201025517Y-110591534D01*
X201023765Y-110596654D01*
X201021772Y-110601657D01*
X201019547Y-110606536D01*
X201017095Y-110611285D01*
X201014424Y-110615897D01*
X201011541Y-110620365D01*
X201008453Y-110624682D01*
X201005166Y-110628840D01*
X201001688Y-110632834D01*
X200998025Y-110636656D01*
X200994184Y-110640300D01*
X200990173Y-110643758D01*
X200985998Y-110647024D01*
X200981666Y-110650091D01*
X200977184Y-110652951D01*
X200972558Y-110655599D01*
X200967797Y-110658026D01*
X200962906Y-110660227D01*
X200957893Y-110662194D01*
X200952765Y-110663921D01*
X200947528Y-110665400D01*
X200942189Y-110666625D01*
X200936756Y-110667589D01*
X200931235Y-110668285D01*
X200925633Y-110668706D01*
X200919957Y-110668845D01*
X200146844Y-110668289D01*
X200141711Y-110668370D01*
X200136597Y-110668643D01*
X200131508Y-110669104D01*
X200126448Y-110669753D01*
X200121422Y-110670588D01*
X200116435Y-110671608D01*
X200111493Y-110672811D01*
X200106601Y-110674196D01*
X200101763Y-110675760D01*
X200096985Y-110677503D01*
X200092271Y-110679424D01*
X200087628Y-110681519D01*
X200083058Y-110683789D01*
X200078569Y-110686231D01*
X200074165Y-110688843D01*
X200069851Y-110691625D01*
X200065496Y-110694604D01*
X200061263Y-110697733D01*
X200057158Y-110701010D01*
X200053182Y-110704429D01*
X200049339Y-110707987D01*
X200045632Y-110711680D01*
X200042066Y-110715504D01*
X200038643Y-110719454D01*
X200035367Y-110723527D01*
X200032241Y-110727718D01*
X200029269Y-110732024D01*
X200026453Y-110736440D01*
X200023798Y-110740962D01*
X200021306Y-110745586D01*
X200018982Y-110750309D01*
X200016828Y-110755125D01*
X200013736Y-110763017D01*
X200011150Y-110771030D01*
X200009067Y-110779139D01*
X200007485Y-110787324D01*
X200006404Y-110795560D01*
X200005821Y-110803826D01*
X200005734Y-110812098D01*
X200006142Y-110820354D01*
X200007042Y-110828570D01*
X200008433Y-110836725D01*
X200010314Y-110844795D01*
X200012681Y-110852757D01*
X200015534Y-110860590D01*
X200018871Y-110868269D01*
X200022690Y-110875773D01*
X200026988Y-110883078D01*
X200032301Y-110890932D01*
X200038126Y-110898328D01*
X200044430Y-110905258D01*
X200051181Y-110911716D01*
X200058345Y-110917696D01*
X200065891Y-110923190D01*
X200073786Y-110928193D01*
X200081996Y-110932697D01*
X200090488Y-110936696D01*
X200099231Y-110940184D01*
X200108191Y-110943153D01*
X200117335Y-110945597D01*
X200126631Y-110947509D01*
X200136045Y-110948884D01*
X200145546Y-110949713D01*
X200155100Y-110949991D01*
X200743586Y-110949991D01*
X200763075Y-110949634D01*
X200782434Y-110948569D01*
X200801649Y-110946806D01*
X200820703Y-110944356D01*
X200839580Y-110941227D01*
X200858267Y-110937430D01*
X200876746Y-110932975D01*
X200895004Y-110927872D01*
X200913023Y-110922132D01*
X200930789Y-110915763D01*
X200948287Y-110908777D01*
X200965500Y-110901183D01*
X200982413Y-110892991D01*
X200999012Y-110884211D01*
X201015280Y-110874853D01*
X201031201Y-110864928D01*
X201046762Y-110854445D01*
X201061945Y-110843415D01*
X201076736Y-110831846D01*
X201091119Y-110819750D01*
X201105078Y-110807137D01*
X201118599Y-110794016D01*
X201131665Y-110780397D01*
X201144262Y-110766291D01*
X201156373Y-110751708D01*
X201167983Y-110736657D01*
X201179078Y-110721148D01*
X201189640Y-110705192D01*
X201199656Y-110688799D01*
X201209109Y-110671978D01*
X201217984Y-110654740D01*
X201226266Y-110637095D01*
X201570119Y-109861601D01*
X201584573Y-109832066D01*
X201600996Y-109803950D01*
X201619282Y-109777322D01*
X201639325Y-109752249D01*
X201661019Y-109728801D01*
X201684259Y-109707045D01*
X201708937Y-109687051D01*
X201734949Y-109668887D01*
X201762188Y-109652621D01*
X201790549Y-109638321D01*
X201819925Y-109626057D01*
X201850211Y-109615897D01*
X201881301Y-109607909D01*
X201913088Y-109602162D01*
X201945467Y-109598724D01*
X201978332Y-109597664D01*
X201994815Y-109598044D01*
G37*
G36*
X203207069Y-112698860D02*
G01*
X202999742Y-112698860D01*
X202923621Y-112515901D01*
X202528096Y-112515901D01*
X202452054Y-112698860D01*
X202249489Y-112698860D01*
X202397438Y-112365882D01*
X202590484Y-112365882D01*
X202861232Y-112365882D01*
X202725898Y-112040445D01*
X202590484Y-112365882D01*
X202397438Y-112365882D01*
X202628902Y-111844944D01*
X202824084Y-111844944D01*
X203207069Y-112698860D01*
G37*
G36*
X204596964Y-110069417D02*
G01*
X204602450Y-110069691D01*
X204607902Y-110070145D01*
X204613317Y-110070777D01*
X204618690Y-110071585D01*
X204624018Y-110072566D01*
X204629298Y-110073719D01*
X204634525Y-110075040D01*
X204639696Y-110076529D01*
X204644806Y-110078183D01*
X204649853Y-110079999D01*
X204654832Y-110081976D01*
X204659740Y-110084111D01*
X204664573Y-110086402D01*
X204669327Y-110088848D01*
X204673998Y-110091445D01*
X204678582Y-110094191D01*
X204683077Y-110097086D01*
X204687478Y-110100125D01*
X204691781Y-110103308D01*
X204695982Y-110106632D01*
X204700078Y-110110094D01*
X204704066Y-110113693D01*
X204707940Y-110117427D01*
X204711698Y-110121293D01*
X204715336Y-110125289D01*
X204718850Y-110129412D01*
X204722236Y-110133662D01*
X204725491Y-110138036D01*
X204728610Y-110142530D01*
X204731591Y-110147144D01*
X204734428Y-110151875D01*
X204739612Y-110161586D01*
X204744105Y-110171541D01*
X204747907Y-110181703D01*
X204751018Y-110192039D01*
X204753437Y-110202514D01*
X204755165Y-110213093D01*
X204756202Y-110223742D01*
X204756548Y-110234425D01*
X204756202Y-110245109D01*
X204755165Y-110255757D01*
X204753437Y-110266337D01*
X204751018Y-110276812D01*
X204747907Y-110287148D01*
X204744105Y-110297310D01*
X204739612Y-110307264D01*
X204734428Y-110316975D01*
X204728610Y-110326321D01*
X204722236Y-110335189D01*
X204715336Y-110343562D01*
X204707940Y-110351424D01*
X204700078Y-110358757D01*
X204691781Y-110365543D01*
X204683077Y-110371765D01*
X204673998Y-110377406D01*
X204664573Y-110382449D01*
X204654832Y-110386875D01*
X204644806Y-110390668D01*
X204634525Y-110393810D01*
X204624018Y-110396285D01*
X204613317Y-110398073D01*
X204602450Y-110399160D01*
X204591448Y-110399525D01*
X204531678Y-110399525D01*
X204526162Y-110399434D01*
X204520676Y-110399160D01*
X204515224Y-110398705D01*
X204509809Y-110398074D01*
X204504436Y-110397266D01*
X204499107Y-110396285D01*
X204493828Y-110395132D01*
X204488601Y-110393810D01*
X204483430Y-110392322D01*
X204478319Y-110390668D01*
X204473273Y-110388852D01*
X204468293Y-110386875D01*
X204463386Y-110384740D01*
X204458553Y-110382449D01*
X204453799Y-110380003D01*
X204449128Y-110377406D01*
X204444543Y-110374659D01*
X204440049Y-110371765D01*
X204435648Y-110368726D01*
X204431345Y-110365543D01*
X204427144Y-110362219D01*
X204423047Y-110358757D01*
X204419060Y-110355158D01*
X204415185Y-110351424D01*
X204411427Y-110347558D01*
X204407789Y-110343562D01*
X204404276Y-110339438D01*
X204400889Y-110335189D01*
X204397635Y-110330815D01*
X204394515Y-110326321D01*
X204391535Y-110321707D01*
X204388698Y-110316975D01*
X204383513Y-110307264D01*
X204379020Y-110297310D01*
X204375218Y-110287148D01*
X204372108Y-110276812D01*
X204369689Y-110266337D01*
X204367960Y-110255757D01*
X204366924Y-110245109D01*
X204366578Y-110234425D01*
X204366924Y-110223742D01*
X204367960Y-110213093D01*
X204369689Y-110202514D01*
X204372108Y-110192039D01*
X204375218Y-110181703D01*
X204379020Y-110171541D01*
X204383513Y-110161586D01*
X204388698Y-110151875D01*
X204394515Y-110142530D01*
X204400889Y-110133662D01*
X204407789Y-110125289D01*
X204415185Y-110117427D01*
X204423047Y-110110094D01*
X204431345Y-110103308D01*
X204440049Y-110097086D01*
X204449128Y-110091445D01*
X204458553Y-110086402D01*
X204468293Y-110081976D01*
X204478319Y-110078183D01*
X204488601Y-110075040D01*
X204499107Y-110072566D01*
X204509809Y-110070777D01*
X204520676Y-110069691D01*
X204531678Y-110069325D01*
X204591448Y-110069325D01*
X204596964Y-110069417D01*
G37*
G36*
X203469322Y-112317067D02*
G01*
X203469518Y-112331850D01*
X203470104Y-112346118D01*
X203471080Y-112359870D01*
X203472448Y-112373105D01*
X203474206Y-112385825D01*
X203476355Y-112398029D01*
X203478894Y-112409717D01*
X203481824Y-112420889D01*
X203485145Y-112431545D01*
X203488856Y-112441685D01*
X203492958Y-112451310D01*
X203497451Y-112460418D01*
X203502335Y-112469010D01*
X203507609Y-112477087D01*
X203513274Y-112484647D01*
X203519329Y-112491692D01*
X203525733Y-112498266D01*
X203532441Y-112504416D01*
X203539455Y-112510143D01*
X203546773Y-112515445D01*
X203554397Y-112520322D01*
X203562326Y-112524776D01*
X203570560Y-112528806D01*
X203579099Y-112532411D01*
X203587943Y-112535592D01*
X203597092Y-112538349D01*
X203606547Y-112540682D01*
X203616306Y-112542591D01*
X203626370Y-112544075D01*
X203636740Y-112545136D01*
X203647415Y-112545772D01*
X203658394Y-112545984D01*
X203669528Y-112545726D01*
X203680346Y-112545049D01*
X203690850Y-112543954D01*
X203701038Y-112542442D01*
X203710912Y-112540512D01*
X203720470Y-112538163D01*
X203729714Y-112535397D01*
X203738642Y-112532213D01*
X203747256Y-112528610D01*
X203755554Y-112524590D01*
X203763538Y-112520152D01*
X203771206Y-112515296D01*
X203778560Y-112510022D01*
X203785598Y-112504330D01*
X203792322Y-112498220D01*
X203798730Y-112491692D01*
X203804785Y-112484693D01*
X203810450Y-112477173D01*
X203815724Y-112469131D01*
X203820608Y-112460567D01*
X203825101Y-112451480D01*
X203829203Y-112441871D01*
X203832914Y-112431740D01*
X203836235Y-112421087D01*
X203839165Y-112409912D01*
X203841704Y-112398215D01*
X203843853Y-112385996D01*
X203845611Y-112373254D01*
X203846978Y-112359990D01*
X203847955Y-112346205D01*
X203848541Y-112331897D01*
X203848736Y-112317067D01*
X203848735Y-111844944D01*
X204042649Y-111844944D01*
X204042649Y-112322226D01*
X204042239Y-112345479D01*
X204041030Y-112368048D01*
X204039020Y-112389933D01*
X204036210Y-112411136D01*
X204032600Y-112431655D01*
X204028191Y-112451490D01*
X204022981Y-112470643D01*
X204016972Y-112489112D01*
X204010162Y-112506897D01*
X204002553Y-112523999D01*
X203994143Y-112540418D01*
X203984934Y-112556154D01*
X203974925Y-112571206D01*
X203964116Y-112585575D01*
X203952506Y-112599260D01*
X203940097Y-112612262D01*
X203926983Y-112624527D01*
X203913260Y-112636000D01*
X203898927Y-112646682D01*
X203883984Y-112656573D01*
X203868432Y-112665673D01*
X203852270Y-112673981D01*
X203835499Y-112681498D01*
X203818118Y-112688224D01*
X203800127Y-112694159D01*
X203781527Y-112699302D01*
X203762317Y-112703654D01*
X203742498Y-112707214D01*
X203722069Y-112709984D01*
X203701031Y-112711962D01*
X203679383Y-112713149D01*
X203657125Y-112713545D01*
X203634771Y-112713187D01*
X203613033Y-112712037D01*
X203591911Y-112710092D01*
X203571404Y-112707354D01*
X203551514Y-112703821D01*
X203532239Y-112699495D01*
X203513579Y-112694376D01*
X203495536Y-112688462D01*
X203478109Y-112681755D01*
X203461297Y-112674254D01*
X203445101Y-112665960D01*
X203429521Y-112656871D01*
X203414556Y-112646989D01*
X203400208Y-112636313D01*
X203386475Y-112624843D01*
X203373358Y-112612580D01*
X203360949Y-112599577D01*
X203349341Y-112585887D01*
X203338533Y-112571513D01*
X203328526Y-112556452D01*
X203319320Y-112540705D01*
X203310914Y-112524273D01*
X203303308Y-112507154D01*
X203296503Y-112489350D01*
X203290499Y-112470860D01*
X203285296Y-112451684D01*
X203280892Y-112431822D01*
X203277290Y-112411275D01*
X203274488Y-112390041D01*
X203272487Y-112368122D01*
X203271286Y-112345517D01*
X203270885Y-112322226D01*
X203270885Y-111844944D01*
X203469322Y-111844944D01*
X203469322Y-112317067D01*
G37*
G36*
X198299308Y-111845019D02*
G01*
X198313265Y-111845464D01*
X198326975Y-111846198D01*
X198340439Y-111847221D01*
X198353655Y-111848534D01*
X198366625Y-111850137D01*
X198379348Y-111852029D01*
X198391824Y-111854211D01*
X198404054Y-111856683D01*
X198416036Y-111859444D01*
X198427772Y-111862494D01*
X198439261Y-111865835D01*
X198450503Y-111869464D01*
X198461498Y-111873384D01*
X198472246Y-111877593D01*
X198482748Y-111882092D01*
X198492453Y-111886437D01*
X198501970Y-111891125D01*
X198511290Y-111896147D01*
X198520405Y-111901498D01*
X198529307Y-111907170D01*
X198537989Y-111913158D01*
X198546441Y-111919453D01*
X198554656Y-111926049D01*
X198562625Y-111932940D01*
X198570341Y-111940118D01*
X198577796Y-111947577D01*
X198584981Y-111955311D01*
X198591887Y-111963312D01*
X198598508Y-111971573D01*
X198604835Y-111980089D01*
X198610860Y-111988851D01*
X198616310Y-111997513D01*
X198621409Y-112006393D01*
X198626157Y-112015491D01*
X198630555Y-112024808D01*
X198634601Y-112034343D01*
X198638296Y-112044096D01*
X198641640Y-112054067D01*
X198644634Y-112064257D01*
X198647276Y-112074665D01*
X198649567Y-112085291D01*
X198651508Y-112096136D01*
X198653097Y-112107199D01*
X198654335Y-112118480D01*
X198655223Y-112129979D01*
X198655759Y-112141697D01*
X198655945Y-112153633D01*
X198655778Y-112165571D01*
X198655257Y-112177294D01*
X198654384Y-112188803D01*
X198653157Y-112200097D01*
X198651576Y-112211177D01*
X198649642Y-112222042D01*
X198647354Y-112232693D01*
X198644713Y-112243129D01*
X198641718Y-112253350D01*
X198638370Y-112263357D01*
X198634669Y-112273149D01*
X198630614Y-112282727D01*
X198626206Y-112292090D01*
X198621444Y-112301239D01*
X198616328Y-112310173D01*
X198610860Y-112318892D01*
X198604835Y-112327572D01*
X198598506Y-112336000D01*
X198591883Y-112344171D01*
X198584973Y-112352078D01*
X198577785Y-112359713D01*
X198570327Y-112367070D01*
X198562608Y-112374141D01*
X198554636Y-112380921D01*
X198546419Y-112387402D01*
X198537965Y-112393577D01*
X198529284Y-112399440D01*
X198520382Y-112404983D01*
X198511270Y-112410200D01*
X198501954Y-112415084D01*
X198492444Y-112419628D01*
X198482748Y-112423826D01*
X198481319Y-112424223D01*
X198671820Y-112698860D01*
X198459571Y-112698860D01*
X198293677Y-112459386D01*
X198292586Y-112459517D01*
X198291512Y-112459615D01*
X198290448Y-112459686D01*
X198289391Y-112459733D01*
X198288333Y-112459762D01*
X198287270Y-112459776D01*
X198285105Y-112459783D01*
X198114369Y-112459783D01*
X198114369Y-112698860D01*
X197915535Y-112698860D01*
X197915535Y-112302382D01*
X197915535Y-112005996D01*
X198114369Y-112005996D01*
X198114369Y-112302382D01*
X198273833Y-112302382D01*
X198284943Y-112302239D01*
X198295710Y-112301791D01*
X198306134Y-112301036D01*
X198316215Y-112299976D01*
X198325953Y-112298610D01*
X198335348Y-112296939D01*
X198344400Y-112294962D01*
X198353109Y-112292679D01*
X198361475Y-112290090D01*
X198369499Y-112287196D01*
X198377179Y-112283995D01*
X198384517Y-112280490D01*
X198391511Y-112276678D01*
X198398163Y-112272561D01*
X198404472Y-112268138D01*
X198410438Y-112263409D01*
X198416042Y-112258404D01*
X198421285Y-112253151D01*
X198426167Y-112247651D01*
X198430688Y-112241903D01*
X198434849Y-112235908D01*
X198438648Y-112229666D01*
X198442086Y-112223176D01*
X198445164Y-112216439D01*
X198447881Y-112209454D01*
X198450237Y-112202222D01*
X198452232Y-112194743D01*
X198453866Y-112187016D01*
X198455139Y-112179041D01*
X198456051Y-112170819D01*
X198456602Y-112162350D01*
X198456793Y-112153633D01*
X198456621Y-112144919D01*
X198456086Y-112136456D01*
X198455187Y-112128245D01*
X198453925Y-112120286D01*
X198452300Y-112112579D01*
X198450311Y-112105123D01*
X198447959Y-112097919D01*
X198445244Y-112090967D01*
X198442165Y-112084267D01*
X198438723Y-112077818D01*
X198434917Y-112071621D01*
X198430748Y-112065676D01*
X198426215Y-112059983D01*
X198421320Y-112054541D01*
X198416060Y-112049351D01*
X198410438Y-112044413D01*
X198404510Y-112039761D01*
X198398238Y-112035409D01*
X198391619Y-112031358D01*
X198384656Y-112027606D01*
X198377347Y-112024154D01*
X198369692Y-112021003D01*
X198361692Y-112018152D01*
X198353347Y-112015600D01*
X198344657Y-112013349D01*
X198335621Y-112011398D01*
X198326239Y-112009748D01*
X198316512Y-112008397D01*
X198306440Y-112007347D01*
X198296022Y-112006596D01*
X198285259Y-112006146D01*
X198274151Y-112005996D01*
X198114369Y-112005996D01*
X197915535Y-112005996D01*
X197915535Y-111844865D01*
X198285105Y-111844865D01*
X198299308Y-111845019D01*
G37*
G36*
X199237517Y-111830123D02*
G01*
X199249400Y-111830416D01*
X199261264Y-111830981D01*
X199273105Y-111831816D01*
X199284917Y-111832921D01*
X199296696Y-111834295D01*
X199308438Y-111835937D01*
X199320138Y-111837846D01*
X199331791Y-111840022D01*
X199343393Y-111842463D01*
X199354939Y-111845169D01*
X199366425Y-111848140D01*
X199377846Y-111851373D01*
X199389198Y-111854869D01*
X199400475Y-111858626D01*
X199411674Y-111862645D01*
X199421930Y-111866641D01*
X199432072Y-111870885D01*
X199442098Y-111875373D01*
X199452003Y-111880104D01*
X199461783Y-111885074D01*
X199471433Y-111890281D01*
X199480949Y-111895722D01*
X199490326Y-111901395D01*
X199499562Y-111907297D01*
X199508651Y-111913425D01*
X199517589Y-111919777D01*
X199526372Y-111926350D01*
X199534995Y-111933141D01*
X199543455Y-111940148D01*
X199551747Y-111947368D01*
X199559867Y-111954799D01*
X199567644Y-111962286D01*
X199575216Y-111969962D01*
X199582581Y-111977822D01*
X199589735Y-111985863D01*
X199596676Y-111994080D01*
X199603400Y-112002468D01*
X199609905Y-112011023D01*
X199616186Y-112019741D01*
X199622242Y-112028617D01*
X199628069Y-112037647D01*
X199633664Y-112046827D01*
X199639025Y-112056152D01*
X199644147Y-112065617D01*
X199649028Y-112075220D01*
X199653664Y-112084954D01*
X199658054Y-112094817D01*
X199666202Y-112116186D01*
X199673264Y-112137836D01*
X199679239Y-112159727D01*
X199684128Y-112181818D01*
X199687930Y-112204070D01*
X199690646Y-112226442D01*
X199692276Y-112248894D01*
X199692819Y-112271386D01*
X199692276Y-112293879D01*
X199690646Y-112316331D01*
X199687930Y-112338703D01*
X199684128Y-112360954D01*
X199679239Y-112383046D01*
X199673264Y-112404936D01*
X199666202Y-112426587D01*
X199658054Y-112447956D01*
X199653689Y-112457880D01*
X199649073Y-112467676D01*
X199644210Y-112477340D01*
X199639102Y-112486866D01*
X199633753Y-112496250D01*
X199628166Y-112505488D01*
X199622343Y-112514576D01*
X199616288Y-112523508D01*
X199610004Y-112532281D01*
X199603494Y-112540889D01*
X199596762Y-112549330D01*
X199589810Y-112557597D01*
X199582641Y-112565687D01*
X199575259Y-112573594D01*
X199567667Y-112581316D01*
X199559867Y-112588847D01*
X199551750Y-112596278D01*
X199543461Y-112603497D01*
X199535003Y-112610503D01*
X199526381Y-112617293D01*
X199517599Y-112623864D01*
X199508662Y-112630213D01*
X199499573Y-112636337D01*
X199490337Y-112642234D01*
X199480959Y-112647902D01*
X199471442Y-112653338D01*
X199461791Y-112658538D01*
X199452011Y-112663501D01*
X199442104Y-112668223D01*
X199432076Y-112672702D01*
X199421932Y-112676936D01*
X199411674Y-112680922D01*
X199389034Y-112688548D01*
X199366160Y-112695152D01*
X199343085Y-112700733D01*
X199319843Y-112705292D01*
X199296468Y-112708829D01*
X199272993Y-112711344D01*
X199249453Y-112712837D01*
X199225881Y-112713308D01*
X199202310Y-112712756D01*
X199178775Y-112711183D01*
X199155309Y-112708588D01*
X199131946Y-112704971D01*
X199108720Y-112700332D01*
X199085664Y-112694672D01*
X199062813Y-112687990D01*
X199040199Y-112680287D01*
X199029901Y-112676256D01*
X199019717Y-112671977D01*
X199009650Y-112667454D01*
X198999704Y-112662689D01*
X198989884Y-112657684D01*
X198980194Y-112652442D01*
X198970638Y-112646966D01*
X198961221Y-112641259D01*
X198951946Y-112635322D01*
X198942818Y-112629160D01*
X198933841Y-112622773D01*
X198925019Y-112616165D01*
X198916357Y-112609339D01*
X198907859Y-112602298D01*
X198899529Y-112595043D01*
X198891371Y-112587577D01*
X198883591Y-112580076D01*
X198876016Y-112572385D01*
X198868648Y-112564510D01*
X198861492Y-112556455D01*
X198854549Y-112548224D01*
X198847824Y-112539821D01*
X198841318Y-112531251D01*
X198835036Y-112522518D01*
X198828981Y-112513627D01*
X198823154Y-112504582D01*
X198817560Y-112495387D01*
X198812202Y-112486047D01*
X198807082Y-112476566D01*
X198802204Y-112466948D01*
X198797570Y-112457198D01*
X198793184Y-112447321D01*
X198785035Y-112426034D01*
X198777973Y-112404465D01*
X198771997Y-112382654D01*
X198767108Y-112360642D01*
X198763305Y-112338469D01*
X198760589Y-112316175D01*
X198758959Y-112293801D01*
X198758428Y-112271902D01*
X198958523Y-112271902D01*
X198958838Y-112285930D01*
X198959783Y-112299936D01*
X198961358Y-112313899D01*
X198963563Y-112327798D01*
X198966398Y-112341610D01*
X198969863Y-112355314D01*
X198973958Y-112368889D01*
X198978683Y-112382313D01*
X198981182Y-112388320D01*
X198983823Y-112394259D01*
X198986604Y-112400127D01*
X198989523Y-112405922D01*
X198992579Y-112411642D01*
X198995771Y-112417284D01*
X198999097Y-112422846D01*
X199002555Y-112428326D01*
X199006144Y-112433721D01*
X199009862Y-112439028D01*
X199013708Y-112444247D01*
X199017680Y-112449373D01*
X199021778Y-112454405D01*
X199025998Y-112459340D01*
X199030340Y-112464176D01*
X199034802Y-112468911D01*
X199039350Y-112473500D01*
X199044011Y-112477963D01*
X199048782Y-112482298D01*
X199053660Y-112486505D01*
X199058643Y-112490580D01*
X199063727Y-112494521D01*
X199068911Y-112498328D01*
X199074191Y-112501999D01*
X199079564Y-112505531D01*
X199085029Y-112508922D01*
X199090582Y-112512171D01*
X199096220Y-112515276D01*
X199101941Y-112518236D01*
X199107742Y-112521047D01*
X199113621Y-112523709D01*
X199119574Y-112526220D01*
X199125918Y-112528707D01*
X199132315Y-112531033D01*
X199138761Y-112533198D01*
X199145255Y-112535201D01*
X199151791Y-112537041D01*
X199158369Y-112538717D01*
X199164984Y-112540230D01*
X199171633Y-112541579D01*
X199178314Y-112542763D01*
X199185023Y-112543781D01*
X199191757Y-112544633D01*
X199198514Y-112545319D01*
X199205289Y-112545837D01*
X199212080Y-112546187D01*
X199218884Y-112546369D01*
X199225698Y-112546381D01*
X199232474Y-112546374D01*
X199239240Y-112546197D01*
X199245993Y-112545850D01*
X199252731Y-112545335D01*
X199259449Y-112544652D01*
X199266144Y-112543802D01*
X199272814Y-112542785D01*
X199279456Y-112541601D01*
X199286066Y-112540252D01*
X199292641Y-112538738D01*
X199299179Y-112537059D01*
X199305675Y-112535217D01*
X199312127Y-112533211D01*
X199318532Y-112531042D01*
X199324886Y-112528712D01*
X199331187Y-112526220D01*
X199337111Y-112523672D01*
X199342962Y-112520978D01*
X199348737Y-112518140D01*
X199354434Y-112515159D01*
X199360051Y-112512038D01*
X199365585Y-112508778D01*
X199371034Y-112505380D01*
X199376394Y-112501847D01*
X199381664Y-112498180D01*
X199386840Y-112494382D01*
X199391921Y-112490452D01*
X199396904Y-112486395D01*
X199401786Y-112482210D01*
X199406564Y-112477900D01*
X199411237Y-112473466D01*
X199415801Y-112468911D01*
X199420327Y-112464203D01*
X199424731Y-112459389D01*
X199429010Y-112454473D01*
X199433162Y-112449455D01*
X199437187Y-112444340D01*
X199441082Y-112439129D01*
X199444847Y-112433825D01*
X199448478Y-112428430D01*
X199451975Y-112422947D01*
X199455336Y-112417379D01*
X199458560Y-112411728D01*
X199461644Y-112405996D01*
X199464587Y-112400186D01*
X199467388Y-112394300D01*
X199470044Y-112388342D01*
X199472555Y-112382313D01*
X199472714Y-112382313D01*
X199477439Y-112368889D01*
X199481534Y-112355314D01*
X199484998Y-112341610D01*
X199487833Y-112327798D01*
X199490038Y-112313899D01*
X199491613Y-112299936D01*
X199492558Y-112285930D01*
X199492873Y-112271902D01*
X199492558Y-112257874D01*
X199491613Y-112243868D01*
X199490038Y-112229905D01*
X199487833Y-112216007D01*
X199484998Y-112202194D01*
X199481534Y-112188490D01*
X199477439Y-112174915D01*
X199472714Y-112161491D01*
X199470196Y-112155466D01*
X199467534Y-112149511D01*
X199464728Y-112143628D01*
X199461781Y-112137821D01*
X199458694Y-112132091D01*
X199455469Y-112126441D01*
X199452107Y-112120874D01*
X199448609Y-112115392D01*
X199444978Y-112109998D01*
X199441216Y-112104693D01*
X199437322Y-112099481D01*
X199433301Y-112094364D01*
X199429152Y-112089344D01*
X199424878Y-112084424D01*
X199420480Y-112079606D01*
X199415960Y-112074893D01*
X199411383Y-112070339D01*
X199406698Y-112065907D01*
X199401908Y-112061598D01*
X199397015Y-112057415D01*
X199392021Y-112053358D01*
X199386930Y-112049429D01*
X199381743Y-112045631D01*
X199376463Y-112041964D01*
X199371094Y-112038431D01*
X199365636Y-112035034D01*
X199360093Y-112031773D01*
X199354467Y-112028651D01*
X199348761Y-112025670D01*
X199342977Y-112022830D01*
X199337119Y-112020135D01*
X199331187Y-112017585D01*
X199324885Y-112015098D01*
X199318529Y-112012772D01*
X199312123Y-112010607D01*
X199305671Y-112008605D01*
X199299174Y-112006764D01*
X199292637Y-112005088D01*
X199286061Y-112003574D01*
X199279452Y-112002226D01*
X199272810Y-112001042D01*
X199266140Y-112000023D01*
X199259445Y-111999171D01*
X199252728Y-111998486D01*
X199245991Y-111997968D01*
X199239239Y-111997617D01*
X199232473Y-111997436D01*
X199225698Y-111997423D01*
X199218885Y-111997442D01*
X199212081Y-111997630D01*
X199205291Y-111997985D01*
X199198516Y-111998507D01*
X199191761Y-111999195D01*
X199185027Y-112000050D01*
X199178319Y-112001069D01*
X199171638Y-112002253D01*
X199164989Y-112003601D01*
X199158374Y-112005113D01*
X199151797Y-112006788D01*
X199145259Y-112008625D01*
X199138765Y-112010624D01*
X199132318Y-112012784D01*
X199125920Y-112015104D01*
X199119574Y-112017585D01*
X199113624Y-112020100D01*
X199107748Y-112022767D01*
X199101949Y-112025582D01*
X199096229Y-112028544D01*
X199090593Y-112031651D01*
X199085041Y-112034902D01*
X199079578Y-112038294D01*
X199074204Y-112041826D01*
X199068924Y-112045496D01*
X199063740Y-112049302D01*
X199058655Y-112053242D01*
X199053671Y-112057315D01*
X199048791Y-112061518D01*
X199044017Y-112065850D01*
X199039353Y-112070309D01*
X199034801Y-112074893D01*
X199030346Y-112079633D01*
X199026009Y-112084473D01*
X199021794Y-112089411D01*
X199017700Y-112094446D01*
X199013731Y-112099574D01*
X199009887Y-112104793D01*
X199006171Y-112110102D01*
X199002582Y-112115496D01*
X198999124Y-112120976D01*
X198995797Y-112126537D01*
X198992603Y-112132177D01*
X198989544Y-112137895D01*
X198986621Y-112143688D01*
X198983836Y-112149553D01*
X198981189Y-112155488D01*
X198978683Y-112161491D01*
X198973958Y-112174915D01*
X198969863Y-112188490D01*
X198966398Y-112202195D01*
X198963563Y-112216007D01*
X198961358Y-112229905D01*
X198959783Y-112243868D01*
X198958838Y-112257874D01*
X198958523Y-112271902D01*
X198758428Y-112271902D01*
X198758416Y-112271386D01*
X198758959Y-112248972D01*
X198760589Y-112226597D01*
X198763305Y-112204304D01*
X198767108Y-112182131D01*
X198771997Y-112160119D01*
X198777973Y-112138308D01*
X198785035Y-112116739D01*
X198793184Y-112095452D01*
X198797593Y-112085618D01*
X198802246Y-112075911D01*
X198807140Y-112066336D01*
X198812273Y-112056896D01*
X198817641Y-112047596D01*
X198823242Y-112038440D01*
X198829072Y-112029432D01*
X198835129Y-112020577D01*
X198841409Y-112011880D01*
X198847909Y-112003343D01*
X198854627Y-111994972D01*
X198861559Y-111986771D01*
X198868703Y-111978744D01*
X198876054Y-111970896D01*
X198883612Y-111963230D01*
X198891371Y-111955751D01*
X198899507Y-111948309D01*
X198907813Y-111941074D01*
X198916286Y-111934050D01*
X198924919Y-111927238D01*
X198933711Y-111920642D01*
X198942656Y-111914264D01*
X198951750Y-111908107D01*
X198960990Y-111902172D01*
X198970371Y-111896464D01*
X198979889Y-111890984D01*
X198989540Y-111885734D01*
X198999320Y-111880719D01*
X199009224Y-111875939D01*
X199019249Y-111871398D01*
X199029390Y-111867098D01*
X199039643Y-111863042D01*
X199050822Y-111858957D01*
X199062082Y-111855139D01*
X199073419Y-111851587D01*
X199084828Y-111848304D01*
X199096304Y-111845289D01*
X199107843Y-111842544D01*
X199119440Y-111840069D01*
X199131089Y-111837865D01*
X199142787Y-111835933D01*
X199154528Y-111834275D01*
X199166308Y-111832890D01*
X199178121Y-111831779D01*
X199189964Y-111830944D01*
X199201831Y-111830386D01*
X199213718Y-111830104D01*
X199225619Y-111830101D01*
X199237517Y-111830123D01*
G37*
G36*
X201566112Y-111831346D02*
G01*
X201590502Y-111833388D01*
X201614798Y-111836532D01*
X201638963Y-111840777D01*
X201662959Y-111846122D01*
X201686747Y-111852568D01*
X201710291Y-111860113D01*
X201733551Y-111868756D01*
X201744511Y-111873551D01*
X201755302Y-111878671D01*
X201765916Y-111884109D01*
X201776347Y-111889863D01*
X201786589Y-111895925D01*
X201796635Y-111902293D01*
X201806478Y-111908960D01*
X201816112Y-111915922D01*
X201825529Y-111923173D01*
X201834724Y-111930709D01*
X201843689Y-111938525D01*
X201852418Y-111946616D01*
X201860904Y-111954977D01*
X201869141Y-111963602D01*
X201877122Y-111972488D01*
X201884840Y-111981628D01*
X201756729Y-112098706D01*
X201751673Y-112092805D01*
X201746469Y-112087048D01*
X201741118Y-112081439D01*
X201735624Y-112075979D01*
X201729990Y-112070671D01*
X201724220Y-112065518D01*
X201718317Y-112060523D01*
X201712283Y-112055687D01*
X201706124Y-112051014D01*
X201699840Y-112046505D01*
X201693437Y-112042165D01*
X201686917Y-112037994D01*
X201680283Y-112033996D01*
X201673539Y-112030172D01*
X201666688Y-112026527D01*
X201659733Y-112023062D01*
X201652787Y-112019932D01*
X201645767Y-112017002D01*
X201638676Y-112014271D01*
X201631518Y-112011742D01*
X201624299Y-112009415D01*
X201617021Y-112007291D01*
X201609691Y-112005371D01*
X201602311Y-112003656D01*
X201594886Y-112002147D01*
X201587420Y-112000844D01*
X201579919Y-111999749D01*
X201572385Y-111998863D01*
X201564824Y-111998186D01*
X201557240Y-111997720D01*
X201549637Y-111997465D01*
X201542019Y-111997423D01*
X201534982Y-111997430D01*
X201527955Y-111997607D01*
X201520940Y-111997954D01*
X201513941Y-111998468D01*
X201506960Y-111999151D01*
X201500000Y-112000000D01*
X201493065Y-112001017D01*
X201486157Y-112002200D01*
X201479280Y-112003549D01*
X201472436Y-112005063D01*
X201465629Y-112006741D01*
X201458861Y-112008584D01*
X201452135Y-112010590D01*
X201445455Y-112012760D01*
X201438824Y-112015091D01*
X201432243Y-112017585D01*
X201426196Y-112020062D01*
X201420221Y-112022689D01*
X201414321Y-112025466D01*
X201408498Y-112028390D01*
X201402756Y-112031459D01*
X201397096Y-112034673D01*
X201391522Y-112038029D01*
X201386037Y-112041525D01*
X201380642Y-112045159D01*
X201375340Y-112048931D01*
X201370135Y-112052838D01*
X201365029Y-112056878D01*
X201360024Y-112061050D01*
X201355123Y-112065352D01*
X201350330Y-112069781D01*
X201345645Y-112074338D01*
X201341087Y-112079010D01*
X201336655Y-112083791D01*
X201332350Y-112088679D01*
X201328174Y-112093670D01*
X201324128Y-112098762D01*
X201320214Y-112103953D01*
X201316435Y-112109239D01*
X201312791Y-112114619D01*
X201309284Y-112120089D01*
X201305917Y-112125648D01*
X201302691Y-112131291D01*
X201299607Y-112137018D01*
X201296668Y-112142824D01*
X201293875Y-112148708D01*
X201291230Y-112154667D01*
X201288734Y-112160698D01*
X201284017Y-112174215D01*
X201279929Y-112187881D01*
X201276470Y-112201676D01*
X201273640Y-112215577D01*
X201271439Y-112229564D01*
X201269867Y-112243614D01*
X201268923Y-112257708D01*
X201268609Y-112271823D01*
X201268924Y-112285938D01*
X201269867Y-112300031D01*
X201271439Y-112314082D01*
X201273640Y-112328069D01*
X201276471Y-112341970D01*
X201279930Y-112355764D01*
X201284018Y-112369431D01*
X201288734Y-112382948D01*
X201293873Y-112395086D01*
X201299606Y-112406885D01*
X201305915Y-112418327D01*
X201312783Y-112429392D01*
X201320191Y-112440064D01*
X201328120Y-112450323D01*
X201336553Y-112460152D01*
X201345470Y-112469531D01*
X201354855Y-112478444D01*
X201364688Y-112486871D01*
X201374952Y-112494795D01*
X201385627Y-112502197D01*
X201396697Y-112509058D01*
X201408142Y-112515361D01*
X201419944Y-112521088D01*
X201432085Y-112526219D01*
X201438663Y-112528719D01*
X201445293Y-112531056D01*
X201451973Y-112533230D01*
X201458697Y-112535241D01*
X201465465Y-112537086D01*
X201472272Y-112538767D01*
X201479116Y-112540282D01*
X201485994Y-112541632D01*
X201492902Y-112542814D01*
X201499837Y-112543830D01*
X201506798Y-112544678D01*
X201513780Y-112545357D01*
X201520780Y-112545868D01*
X201527796Y-112546209D01*
X201534824Y-112546380D01*
X201541861Y-112546381D01*
X201549492Y-112546339D01*
X201557108Y-112546080D01*
X201564703Y-112545603D01*
X201572275Y-112544910D01*
X201579817Y-112544002D01*
X201587326Y-112542880D01*
X201594797Y-112541545D01*
X201602225Y-112539998D01*
X201609606Y-112538240D01*
X201616936Y-112536272D01*
X201624209Y-112534094D01*
X201631422Y-112531709D01*
X201638569Y-112529117D01*
X201645647Y-112526318D01*
X201652650Y-112523315D01*
X201659574Y-112520108D01*
X201666518Y-112516580D01*
X201673359Y-112512877D01*
X201680094Y-112509000D01*
X201686720Y-112504951D01*
X201693233Y-112500734D01*
X201699631Y-112496351D01*
X201705910Y-112491803D01*
X201712068Y-112487094D01*
X201718101Y-112482227D01*
X201724005Y-112477202D01*
X201729779Y-112472024D01*
X201735418Y-112466694D01*
X201740920Y-112461215D01*
X201746281Y-112455589D01*
X201751499Y-112449819D01*
X201756570Y-112443908D01*
X201884682Y-112560986D01*
X201876950Y-112570141D01*
X201868958Y-112579044D01*
X201860713Y-112587690D01*
X201852220Y-112596074D01*
X201843487Y-112604192D01*
X201834519Y-112612038D01*
X201825324Y-112619608D01*
X201815908Y-112626896D01*
X201806277Y-112633898D01*
X201796437Y-112640609D01*
X201786396Y-112647025D01*
X201776160Y-112653139D01*
X201765735Y-112658948D01*
X201755128Y-112664446D01*
X201744345Y-112669629D01*
X201733393Y-112674492D01*
X201721318Y-112679352D01*
X201709136Y-112683896D01*
X201696854Y-112688121D01*
X201684478Y-112692027D01*
X201672015Y-112695612D01*
X201659469Y-112698876D01*
X201646848Y-112701816D01*
X201634158Y-112704433D01*
X201621406Y-112706723D01*
X201608597Y-112708687D01*
X201595737Y-112710324D01*
X201582834Y-112711631D01*
X201569893Y-112712608D01*
X201556921Y-112713253D01*
X201543923Y-112713566D01*
X201530907Y-112713545D01*
X201519163Y-112713510D01*
X201507434Y-112713206D01*
X201495724Y-112712635D01*
X201484038Y-112711795D01*
X201472381Y-112710690D01*
X201460756Y-112709318D01*
X201449168Y-112707681D01*
X201437623Y-112705781D01*
X201426124Y-112703617D01*
X201414676Y-112701190D01*
X201403284Y-112698501D01*
X201391951Y-112695552D01*
X201380683Y-112692342D01*
X201369485Y-112688873D01*
X201358360Y-112685145D01*
X201347313Y-112681160D01*
X201326999Y-112673025D01*
X201307220Y-112663905D01*
X201288006Y-112653827D01*
X201269388Y-112642821D01*
X201251397Y-112630916D01*
X201234062Y-112618139D01*
X201217414Y-112604521D01*
X201201482Y-112590090D01*
X201186298Y-112574874D01*
X201171891Y-112558903D01*
X201158292Y-112542206D01*
X201145531Y-112524810D01*
X201133638Y-112506746D01*
X201122644Y-112488042D01*
X201112579Y-112468727D01*
X201103472Y-112448829D01*
X201095342Y-112427416D01*
X201088295Y-112405724D01*
X201082332Y-112383792D01*
X201077454Y-112361661D01*
X201073659Y-112339371D01*
X201070949Y-112316961D01*
X201069323Y-112294471D01*
X201068781Y-112271942D01*
X201069323Y-112249412D01*
X201070949Y-112226923D01*
X201073659Y-112204513D01*
X201077454Y-112182223D01*
X201082332Y-112160092D01*
X201088295Y-112138160D01*
X201095342Y-112116468D01*
X201103472Y-112095055D01*
X201107849Y-112085198D01*
X201112469Y-112075468D01*
X201117330Y-112065866D01*
X201122430Y-112056399D01*
X201127764Y-112047071D01*
X201133330Y-112037884D01*
X201139126Y-112028845D01*
X201145147Y-112019957D01*
X201151392Y-112011223D01*
X201157857Y-112002650D01*
X201164539Y-111994240D01*
X201171435Y-111985999D01*
X201178543Y-111977930D01*
X201185859Y-111970037D01*
X201193380Y-111962326D01*
X201201104Y-111954799D01*
X201209167Y-111947353D01*
X201217405Y-111940119D01*
X201225813Y-111933099D01*
X201234388Y-111926298D01*
X201243125Y-111919716D01*
X201252019Y-111913358D01*
X201261066Y-111907226D01*
X201270262Y-111901322D01*
X201279602Y-111895650D01*
X201289082Y-111890211D01*
X201298698Y-111885009D01*
X201308445Y-111880046D01*
X201318320Y-111875326D01*
X201328317Y-111870850D01*
X201338432Y-111866622D01*
X201348662Y-111862645D01*
X201372185Y-111854744D01*
X201395956Y-111847950D01*
X201419937Y-111842263D01*
X201444091Y-111837682D01*
X201468378Y-111834207D01*
X201492762Y-111831836D01*
X201517204Y-111830569D01*
X201541667Y-111830406D01*
X201566112Y-111831346D01*
G37*
G36*
X204644192Y-111845151D02*
G01*
X204661197Y-111845774D01*
X204677943Y-111846811D01*
X204694431Y-111848263D01*
X204710661Y-111850130D01*
X204726632Y-111852411D01*
X204742344Y-111855108D01*
X204757798Y-111858220D01*
X204772993Y-111861746D01*
X204787929Y-111865687D01*
X204802607Y-111870043D01*
X204817027Y-111874814D01*
X204831187Y-111880000D01*
X204845089Y-111885600D01*
X204858733Y-111891616D01*
X204872118Y-111898046D01*
X204872116Y-111898046D01*
X204884788Y-111904453D01*
X204897199Y-111911287D01*
X204909341Y-111918538D01*
X204921204Y-111926198D01*
X204932777Y-111934259D01*
X204944052Y-111942711D01*
X204955019Y-111951547D01*
X204965667Y-111960757D01*
X204975988Y-111970332D01*
X204985972Y-111980265D01*
X204995609Y-111990546D01*
X205004889Y-112001166D01*
X205013802Y-112012118D01*
X205022340Y-112023393D01*
X205030493Y-112034981D01*
X205038250Y-112046874D01*
X205045487Y-112058952D01*
X205052258Y-112071293D01*
X205058562Y-112083898D01*
X205064399Y-112096766D01*
X205069769Y-112109898D01*
X205074672Y-112123294D01*
X205079108Y-112136953D01*
X205083077Y-112150875D01*
X205086579Y-112165061D01*
X205089615Y-112179511D01*
X205092183Y-112194224D01*
X205094284Y-112209201D01*
X205095918Y-112224441D01*
X205097086Y-112239945D01*
X205097786Y-112255713D01*
X205098020Y-112271744D01*
X205097786Y-112287775D01*
X205097086Y-112303546D01*
X205095918Y-112319054D01*
X205094284Y-112334301D01*
X205092183Y-112349286D01*
X205089615Y-112364009D01*
X205086579Y-112378471D01*
X205083077Y-112392671D01*
X205079108Y-112406610D01*
X205074672Y-112420286D01*
X205069769Y-112433701D01*
X205064399Y-112446855D01*
X205058562Y-112459746D01*
X205052258Y-112472376D01*
X205045487Y-112484745D01*
X205038250Y-112496851D01*
X205030500Y-112508754D01*
X205022354Y-112520352D01*
X205013821Y-112531635D01*
X205004911Y-112542596D01*
X204995634Y-112553224D01*
X204986000Y-112563513D01*
X204976017Y-112573452D01*
X204965696Y-112583033D01*
X204955047Y-112592248D01*
X204944078Y-112601087D01*
X204932801Y-112609543D01*
X204921224Y-112617606D01*
X204909358Y-112625268D01*
X204897212Y-112632520D01*
X204884795Y-112639353D01*
X204872118Y-112645759D01*
X204858724Y-112652189D01*
X204845072Y-112658204D01*
X204831163Y-112663805D01*
X204816997Y-112668991D01*
X204802573Y-112673761D01*
X204787892Y-112678117D01*
X204772954Y-112682059D01*
X204757758Y-112685585D01*
X204742305Y-112688696D01*
X204726595Y-112691393D01*
X204710627Y-112693675D01*
X204694402Y-112695542D01*
X204677920Y-112696994D01*
X204661180Y-112698031D01*
X204644182Y-112698653D01*
X204626928Y-112698860D01*
X204239023Y-112698860D01*
X204239023Y-112537808D01*
X204437856Y-112537808D01*
X204617163Y-112537808D01*
X204626775Y-112537904D01*
X204636371Y-112537712D01*
X204645944Y-112537233D01*
X204655488Y-112536467D01*
X204664996Y-112535418D01*
X204674462Y-112534086D01*
X204683880Y-112532472D01*
X204693244Y-112530578D01*
X204702547Y-112528405D01*
X204711782Y-112525954D01*
X204720945Y-112523228D01*
X204730028Y-112520227D01*
X204739025Y-112516952D01*
X204747929Y-112513406D01*
X204756736Y-112509589D01*
X204765437Y-112505503D01*
X204773026Y-112501495D01*
X204780445Y-112497222D01*
X204787687Y-112492689D01*
X204794748Y-112487902D01*
X204801619Y-112482867D01*
X204808296Y-112477590D01*
X204814772Y-112472077D01*
X204821041Y-112466333D01*
X204827097Y-112460364D01*
X204832932Y-112454177D01*
X204838543Y-112447777D01*
X204843921Y-112441170D01*
X204849061Y-112434363D01*
X204853956Y-112427360D01*
X204858601Y-112420168D01*
X204862989Y-112412793D01*
X204863388Y-112412793D01*
X204871536Y-112396020D01*
X204878597Y-112378895D01*
X204884572Y-112361470D01*
X204889461Y-112343794D01*
X204893264Y-112325917D01*
X204895980Y-112307890D01*
X204897609Y-112289763D01*
X204898152Y-112271585D01*
X204897609Y-112253407D01*
X204895980Y-112235280D01*
X204893264Y-112217253D01*
X204889461Y-112199376D01*
X204884572Y-112181700D01*
X204878597Y-112164275D01*
X204871536Y-112147150D01*
X204863388Y-112130377D01*
X204858966Y-112123059D01*
X204854294Y-112115922D01*
X204849375Y-112108973D01*
X204844217Y-112102218D01*
X204838826Y-112095661D01*
X204833207Y-112089309D01*
X204827366Y-112083167D01*
X204821310Y-112077242D01*
X204815045Y-112071538D01*
X204808577Y-112066062D01*
X204801911Y-112060819D01*
X204795054Y-112055815D01*
X204788012Y-112051055D01*
X204780791Y-112046546D01*
X204773397Y-112042293D01*
X204765836Y-112038302D01*
X204757133Y-112034222D01*
X204748325Y-112030411D01*
X204739419Y-112026870D01*
X204730421Y-112023599D01*
X204721338Y-112020602D01*
X204712175Y-112017878D01*
X204702940Y-112015429D01*
X204693637Y-112013256D01*
X204684274Y-112011362D01*
X204674857Y-112009747D01*
X204665391Y-112008412D01*
X204655884Y-112007359D01*
X204646341Y-112006590D01*
X204636769Y-112006106D01*
X204627174Y-112005907D01*
X204617562Y-112005996D01*
X204437856Y-112005996D01*
X204437856Y-112537808D01*
X204239023Y-112537808D01*
X204239023Y-112005996D01*
X204239023Y-111844944D01*
X204626928Y-111844944D01*
X204644192Y-111845151D01*
G37*
G36*
X206072099Y-111830344D02*
G01*
X206083980Y-111830621D01*
X206095842Y-111831170D01*
X206107681Y-111831989D01*
X206119492Y-111833079D01*
X206131271Y-111834437D01*
X206143012Y-111836064D01*
X206154712Y-111837958D01*
X206166365Y-111840119D01*
X206177968Y-111842545D01*
X206189515Y-111845237D01*
X206201002Y-111848193D01*
X206212424Y-111851413D01*
X206223777Y-111854895D01*
X206235057Y-111858639D01*
X206246258Y-111862645D01*
X206256513Y-111866641D01*
X206266656Y-111870885D01*
X206276682Y-111875373D01*
X206286587Y-111880104D01*
X206296366Y-111885074D01*
X206306016Y-111890281D01*
X206315532Y-111895722D01*
X206324910Y-111901395D01*
X206334145Y-111907297D01*
X206343234Y-111913425D01*
X206352172Y-111919777D01*
X206360955Y-111926350D01*
X206369578Y-111933141D01*
X206378038Y-111940148D01*
X206386330Y-111947368D01*
X206394450Y-111954799D01*
X206402231Y-111962299D01*
X206409808Y-111969988D01*
X206417176Y-111977863D01*
X206424334Y-111985917D01*
X206431277Y-111994148D01*
X206438003Y-112002551D01*
X206444508Y-112011121D01*
X206450791Y-112019854D01*
X206456846Y-112028745D01*
X206462673Y-112037790D01*
X206468266Y-112046986D01*
X206473624Y-112056326D01*
X206478743Y-112065808D01*
X206483621Y-112075426D01*
X206488253Y-112085177D01*
X206492638Y-112095055D01*
X206492638Y-112095054D01*
X206500786Y-112116424D01*
X206507848Y-112138074D01*
X206513823Y-112159965D01*
X206518712Y-112182056D01*
X206522514Y-112204308D01*
X206525230Y-112226680D01*
X206526860Y-112249132D01*
X206527403Y-112271624D01*
X206526860Y-112294116D01*
X206525230Y-112316569D01*
X206522514Y-112338941D01*
X206518711Y-112361192D01*
X206513822Y-112383284D01*
X206507847Y-112405174D01*
X206500785Y-112426825D01*
X206492637Y-112448194D01*
X206488272Y-112458118D01*
X206483657Y-112467914D01*
X206478794Y-112477578D01*
X206473686Y-112487104D01*
X206468337Y-112496488D01*
X206462749Y-112505726D01*
X206456926Y-112514813D01*
X206450871Y-112523746D01*
X206444588Y-112532519D01*
X206438078Y-112541127D01*
X206431346Y-112549568D01*
X206424393Y-112557835D01*
X206417225Y-112565925D01*
X206409843Y-112573832D01*
X206402251Y-112581554D01*
X206394451Y-112589085D01*
X206386334Y-112596516D01*
X206378044Y-112603735D01*
X206369586Y-112610741D01*
X206360964Y-112617531D01*
X206352182Y-112624102D01*
X206343245Y-112630450D01*
X206334156Y-112636575D01*
X206324921Y-112642472D01*
X206315542Y-112648140D01*
X206306026Y-112653575D01*
X206296375Y-112658776D01*
X206286594Y-112663738D01*
X206276688Y-112668461D01*
X206266660Y-112672940D01*
X206256515Y-112677174D01*
X206246258Y-112681159D01*
X206223618Y-112688786D01*
X206200744Y-112695389D01*
X206177669Y-112700971D01*
X206154427Y-112705530D01*
X206131052Y-112709067D01*
X206107577Y-112711582D01*
X206084037Y-112713075D01*
X206060464Y-112713545D01*
X206036894Y-112712994D01*
X206013359Y-112711421D01*
X205989893Y-112708826D01*
X205966530Y-112705209D01*
X205943304Y-112700570D01*
X205920248Y-112694910D01*
X205897396Y-112688228D01*
X205874782Y-112680524D01*
X205864488Y-112676496D01*
X205854306Y-112672220D01*
X205844242Y-112667699D01*
X205834300Y-112662936D01*
X205824484Y-112657932D01*
X205814798Y-112652691D01*
X205805246Y-112647216D01*
X205795833Y-112641508D01*
X205786563Y-112635572D01*
X205777441Y-112629408D01*
X205768470Y-112623021D01*
X205759654Y-112616412D01*
X205750998Y-112609584D01*
X205742507Y-112602540D01*
X205734184Y-112595283D01*
X205726033Y-112587815D01*
X205718248Y-112580314D01*
X205710669Y-112572624D01*
X205703297Y-112564750D01*
X205696135Y-112556695D01*
X205689188Y-112548464D01*
X205682458Y-112540061D01*
X205675948Y-112531491D01*
X205669661Y-112522759D01*
X205663600Y-112513867D01*
X205657769Y-112504822D01*
X205652170Y-112495627D01*
X205646806Y-112486287D01*
X205641681Y-112476805D01*
X205636797Y-112467187D01*
X205632158Y-112457437D01*
X205627767Y-112447559D01*
X205619638Y-112426268D01*
X205612592Y-112404697D01*
X205606631Y-112382886D01*
X205601753Y-112360874D01*
X205597960Y-112338702D01*
X205595250Y-112316409D01*
X205593624Y-112294037D01*
X205593089Y-112271902D01*
X205793103Y-112271902D01*
X205793417Y-112285928D01*
X205794358Y-112299933D01*
X205795927Y-112313895D01*
X205798124Y-112327793D01*
X205800948Y-112341605D01*
X205804400Y-112355310D01*
X205808480Y-112368886D01*
X205813187Y-112382313D01*
X205815686Y-112388320D01*
X205818327Y-112394259D01*
X205821107Y-112400127D01*
X205824027Y-112405922D01*
X205827083Y-112411642D01*
X205830275Y-112417284D01*
X205833600Y-112422846D01*
X205837058Y-112428326D01*
X205840647Y-112433721D01*
X205844365Y-112439029D01*
X205848211Y-112444247D01*
X205852184Y-112449373D01*
X205856281Y-112454405D01*
X205860501Y-112459340D01*
X205864843Y-112464177D01*
X205869305Y-112468911D01*
X205873853Y-112473500D01*
X205878514Y-112477963D01*
X205883285Y-112482299D01*
X205888163Y-112486505D01*
X205893146Y-112490580D01*
X205898230Y-112494522D01*
X205903414Y-112498329D01*
X205908694Y-112501999D01*
X205914068Y-112505531D01*
X205919532Y-112508922D01*
X205925085Y-112512171D01*
X205930724Y-112515277D01*
X205936445Y-112518236D01*
X205942247Y-112521047D01*
X205948126Y-112523709D01*
X205954079Y-112526220D01*
X205960423Y-112528706D01*
X205966820Y-112531031D01*
X205973267Y-112533195D01*
X205979760Y-112535197D01*
X205986297Y-112537036D01*
X205992875Y-112538713D01*
X205999490Y-112540226D01*
X206006139Y-112541574D01*
X206012820Y-112542758D01*
X206019529Y-112543777D01*
X206026263Y-112544629D01*
X206033019Y-112545315D01*
X206039794Y-112545834D01*
X206046585Y-112546185D01*
X206053389Y-112546367D01*
X206060202Y-112546381D01*
X206066983Y-112546376D01*
X206073754Y-112546200D01*
X206080513Y-112545855D01*
X206087255Y-112545341D01*
X206093978Y-112544659D01*
X206100678Y-112543809D01*
X206107353Y-112542792D01*
X206114000Y-112541609D01*
X206120615Y-112540260D01*
X206127195Y-112538745D01*
X206133737Y-112537066D01*
X206140239Y-112535222D01*
X206146696Y-112533216D01*
X206153105Y-112531046D01*
X206159464Y-112528714D01*
X206165770Y-112526220D01*
X206171701Y-112523668D01*
X206177559Y-112520971D01*
X206183342Y-112518131D01*
X206189047Y-112515148D01*
X206194672Y-112512026D01*
X206200215Y-112508765D01*
X206205673Y-112505367D01*
X206211043Y-112501834D01*
X206216322Y-112498168D01*
X206221509Y-112494370D01*
X206226601Y-112490442D01*
X206231595Y-112486385D01*
X206236489Y-112482202D01*
X206241281Y-112477895D01*
X206245967Y-112473464D01*
X206250545Y-112468911D01*
X206255062Y-112464199D01*
X206259457Y-112459382D01*
X206263728Y-112454462D01*
X206267873Y-112449442D01*
X206271890Y-112444325D01*
X206275779Y-112439113D01*
X206279537Y-112433809D01*
X206283163Y-112428414D01*
X206286655Y-112422932D01*
X206290012Y-112417364D01*
X206293232Y-112411714D01*
X206296313Y-112405984D01*
X206299254Y-112400177D01*
X206302053Y-112394294D01*
X206304708Y-112388338D01*
X206307218Y-112382313D01*
X206311943Y-112368889D01*
X206316038Y-112355314D01*
X206319503Y-112341610D01*
X206322338Y-112327798D01*
X206324543Y-112313899D01*
X206326118Y-112299936D01*
X206327063Y-112285930D01*
X206327378Y-112271902D01*
X206327063Y-112257874D01*
X206326118Y-112243868D01*
X206324543Y-112229905D01*
X206322338Y-112216007D01*
X206319503Y-112202195D01*
X206316038Y-112188490D01*
X206311943Y-112174915D01*
X206307218Y-112161491D01*
X206304701Y-112155469D01*
X206302040Y-112149517D01*
X206299236Y-112143637D01*
X206296291Y-112137832D01*
X206293207Y-112132104D01*
X206289985Y-112126456D01*
X206286627Y-112120890D01*
X206283135Y-112115408D01*
X206279509Y-112110014D01*
X206275753Y-112104709D01*
X206271866Y-112099495D01*
X206267851Y-112094376D01*
X206263710Y-112089354D01*
X206259444Y-112084431D01*
X206255054Y-112079610D01*
X206250543Y-112074893D01*
X206245961Y-112070345D01*
X206241273Y-112065919D01*
X206236479Y-112061615D01*
X206231583Y-112057435D01*
X206226588Y-112053381D01*
X206221495Y-112049455D01*
X206216308Y-112045658D01*
X206211028Y-112041992D01*
X206205659Y-112038459D01*
X206200202Y-112035060D01*
X206194661Y-112031797D01*
X206189037Y-112028673D01*
X206183334Y-112025687D01*
X206177554Y-112022843D01*
X206171698Y-112020141D01*
X206165771Y-112017585D01*
X206159463Y-112015098D01*
X206153102Y-112012772D01*
X206146692Y-112010607D01*
X206140234Y-112008604D01*
X206133732Y-112006764D01*
X206127190Y-112005087D01*
X206120609Y-112003574D01*
X206113995Y-112002225D01*
X206107348Y-112001042D01*
X206100674Y-112000023D01*
X206093974Y-111999171D01*
X206087252Y-111998486D01*
X206080510Y-111997968D01*
X206073753Y-111997617D01*
X206066983Y-111997436D01*
X206060202Y-111997423D01*
X206053389Y-111997444D01*
X206046586Y-111997633D01*
X206039796Y-111997989D01*
X206033021Y-111998512D01*
X206026266Y-111999201D01*
X206019532Y-112000055D01*
X206012824Y-112001075D01*
X206006143Y-112002259D01*
X205999494Y-112003608D01*
X205992879Y-112005119D01*
X205986301Y-112006793D01*
X205979764Y-112008629D01*
X205973269Y-112010627D01*
X205966821Y-112012786D01*
X205960423Y-112015105D01*
X205954076Y-112017585D01*
X205948126Y-112020100D01*
X205942250Y-112022766D01*
X205936451Y-112025581D01*
X205930732Y-112028544D01*
X205925095Y-112031651D01*
X205919544Y-112034901D01*
X205914080Y-112038294D01*
X205908707Y-112041826D01*
X205903427Y-112045496D01*
X205898243Y-112049301D01*
X205893158Y-112053242D01*
X205888174Y-112057314D01*
X205883294Y-112061518D01*
X205878520Y-112065850D01*
X205873857Y-112070309D01*
X205869305Y-112074893D01*
X205864849Y-112079633D01*
X205860513Y-112084473D01*
X205856297Y-112089411D01*
X205852204Y-112094446D01*
X205848235Y-112099574D01*
X205844391Y-112104793D01*
X205840674Y-112110102D01*
X205837086Y-112115496D01*
X205833627Y-112120976D01*
X205830301Y-112126537D01*
X205827107Y-112132177D01*
X205824048Y-112137895D01*
X205821125Y-112143688D01*
X205818339Y-112149553D01*
X205815693Y-112155488D01*
X205813187Y-112161491D01*
X205808480Y-112174918D01*
X205804400Y-112188495D01*
X205800948Y-112202200D01*
X205798124Y-112216012D01*
X205795927Y-112229910D01*
X205794358Y-112243871D01*
X205793417Y-112257876D01*
X205793103Y-112271902D01*
X205593089Y-112271902D01*
X205593082Y-112271624D01*
X205593624Y-112249212D01*
X205595250Y-112226839D01*
X205597960Y-112204547D01*
X205601754Y-112182375D01*
X205606631Y-112160363D01*
X205612593Y-112138551D01*
X205619638Y-112116980D01*
X205627768Y-112095689D01*
X205632182Y-112085855D01*
X205636840Y-112076148D01*
X205641740Y-112066572D01*
X205646878Y-112057131D01*
X205652252Y-112047831D01*
X205657858Y-112038675D01*
X205663693Y-112029667D01*
X205669754Y-112020813D01*
X205676039Y-112012115D01*
X205682545Y-112003579D01*
X205689267Y-111995208D01*
X205696204Y-111987007D01*
X205703352Y-111978981D01*
X205710708Y-111971133D01*
X205718269Y-111963468D01*
X205726033Y-111955989D01*
X205734164Y-111948547D01*
X205742464Y-111941312D01*
X205750931Y-111934287D01*
X205759559Y-111927476D01*
X205768346Y-111920879D01*
X205777286Y-111914501D01*
X205786375Y-111908344D01*
X205795610Y-111902409D01*
X205804986Y-111896701D01*
X205814499Y-111891221D01*
X205824146Y-111885971D01*
X205833921Y-111880956D01*
X205843820Y-111876176D01*
X205853841Y-111871635D01*
X205863978Y-111867335D01*
X205874227Y-111863280D01*
X205885405Y-111859195D01*
X205896665Y-111855377D01*
X205908002Y-111851825D01*
X205919411Y-111848542D01*
X205930888Y-111845527D01*
X205942426Y-111842781D01*
X205954023Y-111840306D01*
X205965672Y-111838103D01*
X205977370Y-111836171D01*
X205989111Y-111834512D01*
X206000891Y-111833128D01*
X206012705Y-111832017D01*
X206024548Y-111831182D01*
X206036415Y-111830624D01*
X206048302Y-111830342D01*
X206060203Y-111830339D01*
X206072099Y-111830344D01*
G37*
G36*
X200921148Y-112698860D02*
G01*
X200722314Y-112698860D01*
X200722314Y-111844944D01*
X200921148Y-111844944D01*
X200921148Y-112698860D01*
G37*
G36*
X200225422Y-111845099D02*
G01*
X200239379Y-111845543D01*
X200253089Y-111846277D01*
X200266553Y-111847301D01*
X200279769Y-111848614D01*
X200292739Y-111850216D01*
X200305462Y-111852109D01*
X200317938Y-111854290D01*
X200330167Y-111856762D01*
X200342150Y-111859523D01*
X200353886Y-111862574D01*
X200365375Y-111865914D01*
X200376617Y-111869544D01*
X200387612Y-111873463D01*
X200398361Y-111877672D01*
X200408862Y-111882171D01*
X200418561Y-111886520D01*
X200428071Y-111891210D01*
X200437385Y-111896233D01*
X200446496Y-111901584D01*
X200455394Y-111907254D01*
X200464073Y-111913239D01*
X200472523Y-111919530D01*
X200480736Y-111926121D01*
X200488706Y-111933006D01*
X200496423Y-111940177D01*
X200503879Y-111947629D01*
X200511067Y-111955354D01*
X200517979Y-111963345D01*
X200524606Y-111971596D01*
X200530940Y-111980100D01*
X200536973Y-111988851D01*
X200542423Y-111997513D01*
X200547522Y-112006393D01*
X200552271Y-112015491D01*
X200556668Y-112024808D01*
X200560714Y-112034343D01*
X200564410Y-112044096D01*
X200567754Y-112054067D01*
X200570747Y-112064257D01*
X200573390Y-112074665D01*
X200575681Y-112085292D01*
X200577622Y-112096136D01*
X200579211Y-112107199D01*
X200580449Y-112118480D01*
X200581337Y-112129980D01*
X200581873Y-112141697D01*
X200582058Y-112153633D01*
X200581892Y-112165571D01*
X200581371Y-112177295D01*
X200580498Y-112188803D01*
X200579270Y-112200098D01*
X200577690Y-112211177D01*
X200575756Y-112222042D01*
X200573468Y-112232693D01*
X200570827Y-112243129D01*
X200567832Y-112253350D01*
X200564484Y-112263357D01*
X200560783Y-112273149D01*
X200556728Y-112282727D01*
X200552319Y-112292090D01*
X200547558Y-112301239D01*
X200542442Y-112310173D01*
X200536973Y-112318892D01*
X200530906Y-112327611D01*
X200524543Y-112336087D01*
X200517893Y-112344312D01*
X200510964Y-112352282D01*
X200503763Y-112359989D01*
X200496299Y-112367427D01*
X200488578Y-112374589D01*
X200480610Y-112381469D01*
X200472401Y-112388061D01*
X200463959Y-112394357D01*
X200455292Y-112400351D01*
X200446409Y-112406038D01*
X200437317Y-112411410D01*
X200428023Y-112416460D01*
X200418535Y-112421183D01*
X200408862Y-112425572D01*
X200398370Y-112430157D01*
X200387629Y-112434446D01*
X200376641Y-112438439D01*
X200365404Y-112442137D01*
X200353920Y-112445538D01*
X200342187Y-112448644D01*
X200330207Y-112451454D01*
X200317978Y-112453969D01*
X200305501Y-112456187D01*
X200292776Y-112458110D01*
X200279803Y-112459737D01*
X200266582Y-112461068D01*
X200253113Y-112462103D01*
X200239396Y-112462843D01*
X200225431Y-112463286D01*
X200211218Y-112463434D01*
X200040482Y-112463434D01*
X200040482Y-112698860D01*
X199841648Y-112698860D01*
X199841648Y-112302144D01*
X199841648Y-112005996D01*
X200040482Y-112005996D01*
X200040482Y-112302144D01*
X200200264Y-112302144D01*
X200211374Y-112302001D01*
X200222141Y-112301553D01*
X200232565Y-112300798D01*
X200242646Y-112299738D01*
X200252384Y-112298372D01*
X200261779Y-112296701D01*
X200270831Y-112294723D01*
X200279540Y-112292440D01*
X200287906Y-112289852D01*
X200295930Y-112286957D01*
X200303610Y-112283757D01*
X200310948Y-112280251D01*
X200317942Y-112276440D01*
X200324594Y-112272323D01*
X200330903Y-112267900D01*
X200336869Y-112263171D01*
X200336869Y-112263409D01*
X200342482Y-112258404D01*
X200347733Y-112253151D01*
X200352622Y-112247651D01*
X200357149Y-112241903D01*
X200361314Y-112235908D01*
X200365116Y-112229666D01*
X200368557Y-112223176D01*
X200371635Y-112216439D01*
X200374351Y-112209454D01*
X200376705Y-112202222D01*
X200378697Y-112194743D01*
X200380327Y-112187016D01*
X200381594Y-112179041D01*
X200382500Y-112170819D01*
X200383043Y-112162350D01*
X200383224Y-112153633D01*
X200383043Y-112144910D01*
X200382500Y-112136439D01*
X200381595Y-112128221D01*
X200380327Y-112120256D01*
X200378697Y-112112544D01*
X200376706Y-112105086D01*
X200374352Y-112097880D01*
X200371635Y-112090927D01*
X200368557Y-112084227D01*
X200365117Y-112077781D01*
X200361314Y-112071587D01*
X200357149Y-112065646D01*
X200352622Y-112059958D01*
X200347733Y-112054524D01*
X200342482Y-112049342D01*
X200336869Y-112044413D01*
X200330903Y-112039761D01*
X200324594Y-112035409D01*
X200317942Y-112031358D01*
X200310948Y-112027606D01*
X200303610Y-112024154D01*
X200295930Y-112021003D01*
X200287906Y-112018152D01*
X200279540Y-112015600D01*
X200270831Y-112013349D01*
X200261779Y-112011398D01*
X200252384Y-112009748D01*
X200242646Y-112008397D01*
X200232565Y-112007347D01*
X200222141Y-112006596D01*
X200211374Y-112006146D01*
X200200264Y-112005996D01*
X200040482Y-112005996D01*
X199841648Y-112005996D01*
X199841648Y-111844944D01*
X200211218Y-111844944D01*
X200225422Y-111845099D01*
G37*
G36*
X205445444Y-112698860D02*
G01*
X205246609Y-112698860D01*
X205246609Y-111844944D01*
X205445444Y-111844944D01*
X205445444Y-112698860D01*
G37*
D12*
X189631905Y-66954819D02*
X189631905Y-65954819D01*
X189631905Y-65954819D02*
X189870000Y-65954819D01*
X189870000Y-65954819D02*
X190012857Y-66002438D01*
X190012857Y-66002438D02*
X190108095Y-66097676D01*
X190108095Y-66097676D02*
X190155714Y-66192914D01*
X190155714Y-66192914D02*
X190203333Y-66383390D01*
X190203333Y-66383390D02*
X190203333Y-66526247D01*
X190203333Y-66526247D02*
X190155714Y-66716723D01*
X190155714Y-66716723D02*
X190108095Y-66811961D01*
X190108095Y-66811961D02*
X190012857Y-66907200D01*
X190012857Y-66907200D02*
X189870000Y-66954819D01*
X189870000Y-66954819D02*
X189631905Y-66954819D01*
X191155714Y-66954819D02*
X190584286Y-66954819D01*
X190870000Y-66954819D02*
X190870000Y-65954819D01*
X190870000Y-65954819D02*
X190774762Y-66097676D01*
X190774762Y-66097676D02*
X190679524Y-66192914D01*
X190679524Y-66192914D02*
X190584286Y-66240533D01*
X215437142Y-73024819D02*
X215103809Y-72548628D01*
X214865714Y-73024819D02*
X214865714Y-72024819D01*
X214865714Y-72024819D02*
X215246666Y-72024819D01*
X215246666Y-72024819D02*
X215341904Y-72072438D01*
X215341904Y-72072438D02*
X215389523Y-72120057D01*
X215389523Y-72120057D02*
X215437142Y-72215295D01*
X215437142Y-72215295D02*
X215437142Y-72358152D01*
X215437142Y-72358152D02*
X215389523Y-72453390D01*
X215389523Y-72453390D02*
X215341904Y-72501009D01*
X215341904Y-72501009D02*
X215246666Y-72548628D01*
X215246666Y-72548628D02*
X214865714Y-72548628D01*
X216389523Y-73024819D02*
X215818095Y-73024819D01*
X216103809Y-73024819D02*
X216103809Y-72024819D01*
X216103809Y-72024819D02*
X216008571Y-72167676D01*
X216008571Y-72167676D02*
X215913333Y-72262914D01*
X215913333Y-72262914D02*
X215818095Y-72310533D01*
X217341904Y-73024819D02*
X216770476Y-73024819D01*
X217056190Y-73024819D02*
X217056190Y-72024819D01*
X217056190Y-72024819D02*
X216960952Y-72167676D01*
X216960952Y-72167676D02*
X216865714Y-72262914D01*
X216865714Y-72262914D02*
X216770476Y-72310533D01*
X198609580Y-95142857D02*
X198657200Y-95190476D01*
X198657200Y-95190476D02*
X198704819Y-95333333D01*
X198704819Y-95333333D02*
X198704819Y-95428571D01*
X198704819Y-95428571D02*
X198657200Y-95571428D01*
X198657200Y-95571428D02*
X198561961Y-95666666D01*
X198561961Y-95666666D02*
X198466723Y-95714285D01*
X198466723Y-95714285D02*
X198276247Y-95761904D01*
X198276247Y-95761904D02*
X198133390Y-95761904D01*
X198133390Y-95761904D02*
X197942914Y-95714285D01*
X197942914Y-95714285D02*
X197847676Y-95666666D01*
X197847676Y-95666666D02*
X197752438Y-95571428D01*
X197752438Y-95571428D02*
X197704819Y-95428571D01*
X197704819Y-95428571D02*
X197704819Y-95333333D01*
X197704819Y-95333333D02*
X197752438Y-95190476D01*
X197752438Y-95190476D02*
X197800057Y-95142857D01*
X198704819Y-94190476D02*
X198704819Y-94761904D01*
X198704819Y-94476190D02*
X197704819Y-94476190D01*
X197704819Y-94476190D02*
X197847676Y-94571428D01*
X197847676Y-94571428D02*
X197942914Y-94666666D01*
X197942914Y-94666666D02*
X197990533Y-94761904D01*
X197704819Y-93285714D02*
X197704819Y-93761904D01*
X197704819Y-93761904D02*
X198181009Y-93809523D01*
X198181009Y-93809523D02*
X198133390Y-93761904D01*
X198133390Y-93761904D02*
X198085771Y-93666666D01*
X198085771Y-93666666D02*
X198085771Y-93428571D01*
X198085771Y-93428571D02*
X198133390Y-93333333D01*
X198133390Y-93333333D02*
X198181009Y-93285714D01*
X198181009Y-93285714D02*
X198276247Y-93238095D01*
X198276247Y-93238095D02*
X198514342Y-93238095D01*
X198514342Y-93238095D02*
X198609580Y-93285714D01*
X198609580Y-93285714D02*
X198657200Y-93333333D01*
X198657200Y-93333333D02*
X198704819Y-93428571D01*
X198704819Y-93428571D02*
X198704819Y-93666666D01*
X198704819Y-93666666D02*
X198657200Y-93761904D01*
X198657200Y-93761904D02*
X198609580Y-93809523D01*
X200357142Y-108859580D02*
X200309523Y-108907200D01*
X200309523Y-108907200D02*
X200166666Y-108954819D01*
X200166666Y-108954819D02*
X200071428Y-108954819D01*
X200071428Y-108954819D02*
X199928571Y-108907200D01*
X199928571Y-108907200D02*
X199833333Y-108811961D01*
X199833333Y-108811961D02*
X199785714Y-108716723D01*
X199785714Y-108716723D02*
X199738095Y-108526247D01*
X199738095Y-108526247D02*
X199738095Y-108383390D01*
X199738095Y-108383390D02*
X199785714Y-108192914D01*
X199785714Y-108192914D02*
X199833333Y-108097676D01*
X199833333Y-108097676D02*
X199928571Y-108002438D01*
X199928571Y-108002438D02*
X200071428Y-107954819D01*
X200071428Y-107954819D02*
X200166666Y-107954819D01*
X200166666Y-107954819D02*
X200309523Y-108002438D01*
X200309523Y-108002438D02*
X200357142Y-108050057D01*
X201309523Y-108954819D02*
X200738095Y-108954819D01*
X201023809Y-108954819D02*
X201023809Y-107954819D01*
X201023809Y-107954819D02*
X200928571Y-108097676D01*
X200928571Y-108097676D02*
X200833333Y-108192914D01*
X200833333Y-108192914D02*
X200738095Y-108240533D01*
X201642857Y-107954819D02*
X202261904Y-107954819D01*
X202261904Y-107954819D02*
X201928571Y-108335771D01*
X201928571Y-108335771D02*
X202071428Y-108335771D01*
X202071428Y-108335771D02*
X202166666Y-108383390D01*
X202166666Y-108383390D02*
X202214285Y-108431009D01*
X202214285Y-108431009D02*
X202261904Y-108526247D01*
X202261904Y-108526247D02*
X202261904Y-108764342D01*
X202261904Y-108764342D02*
X202214285Y-108859580D01*
X202214285Y-108859580D02*
X202166666Y-108907200D01*
X202166666Y-108907200D02*
X202071428Y-108954819D01*
X202071428Y-108954819D02*
X201785714Y-108954819D01*
X201785714Y-108954819D02*
X201690476Y-108907200D01*
X201690476Y-108907200D02*
X201642857Y-108859580D01*
X225833333Y-72859580D02*
X225785714Y-72907200D01*
X225785714Y-72907200D02*
X225642857Y-72954819D01*
X225642857Y-72954819D02*
X225547619Y-72954819D01*
X225547619Y-72954819D02*
X225404762Y-72907200D01*
X225404762Y-72907200D02*
X225309524Y-72811961D01*
X225309524Y-72811961D02*
X225261905Y-72716723D01*
X225261905Y-72716723D02*
X225214286Y-72526247D01*
X225214286Y-72526247D02*
X225214286Y-72383390D01*
X225214286Y-72383390D02*
X225261905Y-72192914D01*
X225261905Y-72192914D02*
X225309524Y-72097676D01*
X225309524Y-72097676D02*
X225404762Y-72002438D01*
X225404762Y-72002438D02*
X225547619Y-71954819D01*
X225547619Y-71954819D02*
X225642857Y-71954819D01*
X225642857Y-71954819D02*
X225785714Y-72002438D01*
X225785714Y-72002438D02*
X225833333Y-72050057D01*
X226404762Y-72383390D02*
X226309524Y-72335771D01*
X226309524Y-72335771D02*
X226261905Y-72288152D01*
X226261905Y-72288152D02*
X226214286Y-72192914D01*
X226214286Y-72192914D02*
X226214286Y-72145295D01*
X226214286Y-72145295D02*
X226261905Y-72050057D01*
X226261905Y-72050057D02*
X226309524Y-72002438D01*
X226309524Y-72002438D02*
X226404762Y-71954819D01*
X226404762Y-71954819D02*
X226595238Y-71954819D01*
X226595238Y-71954819D02*
X226690476Y-72002438D01*
X226690476Y-72002438D02*
X226738095Y-72050057D01*
X226738095Y-72050057D02*
X226785714Y-72145295D01*
X226785714Y-72145295D02*
X226785714Y-72192914D01*
X226785714Y-72192914D02*
X226738095Y-72288152D01*
X226738095Y-72288152D02*
X226690476Y-72335771D01*
X226690476Y-72335771D02*
X226595238Y-72383390D01*
X226595238Y-72383390D02*
X226404762Y-72383390D01*
X226404762Y-72383390D02*
X226309524Y-72431009D01*
X226309524Y-72431009D02*
X226261905Y-72478628D01*
X226261905Y-72478628D02*
X226214286Y-72573866D01*
X226214286Y-72573866D02*
X226214286Y-72764342D01*
X226214286Y-72764342D02*
X226261905Y-72859580D01*
X226261905Y-72859580D02*
X226309524Y-72907200D01*
X226309524Y-72907200D02*
X226404762Y-72954819D01*
X226404762Y-72954819D02*
X226595238Y-72954819D01*
X226595238Y-72954819D02*
X226690476Y-72907200D01*
X226690476Y-72907200D02*
X226738095Y-72859580D01*
X226738095Y-72859580D02*
X226785714Y-72764342D01*
X226785714Y-72764342D02*
X226785714Y-72573866D01*
X226785714Y-72573866D02*
X226738095Y-72478628D01*
X226738095Y-72478628D02*
X226690476Y-72431009D01*
X226690476Y-72431009D02*
X226595238Y-72383390D01*
X225833333Y-69909580D02*
X225785714Y-69957200D01*
X225785714Y-69957200D02*
X225642857Y-70004819D01*
X225642857Y-70004819D02*
X225547619Y-70004819D01*
X225547619Y-70004819D02*
X225404762Y-69957200D01*
X225404762Y-69957200D02*
X225309524Y-69861961D01*
X225309524Y-69861961D02*
X225261905Y-69766723D01*
X225261905Y-69766723D02*
X225214286Y-69576247D01*
X225214286Y-69576247D02*
X225214286Y-69433390D01*
X225214286Y-69433390D02*
X225261905Y-69242914D01*
X225261905Y-69242914D02*
X225309524Y-69147676D01*
X225309524Y-69147676D02*
X225404762Y-69052438D01*
X225404762Y-69052438D02*
X225547619Y-69004819D01*
X225547619Y-69004819D02*
X225642857Y-69004819D01*
X225642857Y-69004819D02*
X225785714Y-69052438D01*
X225785714Y-69052438D02*
X225833333Y-69100057D01*
X226166667Y-69004819D02*
X226833333Y-69004819D01*
X226833333Y-69004819D02*
X226404762Y-70004819D01*
X225903333Y-66859580D02*
X225855714Y-66907200D01*
X225855714Y-66907200D02*
X225712857Y-66954819D01*
X225712857Y-66954819D02*
X225617619Y-66954819D01*
X225617619Y-66954819D02*
X225474762Y-66907200D01*
X225474762Y-66907200D02*
X225379524Y-66811961D01*
X225379524Y-66811961D02*
X225331905Y-66716723D01*
X225331905Y-66716723D02*
X225284286Y-66526247D01*
X225284286Y-66526247D02*
X225284286Y-66383390D01*
X225284286Y-66383390D02*
X225331905Y-66192914D01*
X225331905Y-66192914D02*
X225379524Y-66097676D01*
X225379524Y-66097676D02*
X225474762Y-66002438D01*
X225474762Y-66002438D02*
X225617619Y-65954819D01*
X225617619Y-65954819D02*
X225712857Y-65954819D01*
X225712857Y-65954819D02*
X225855714Y-66002438D01*
X225855714Y-66002438D02*
X225903333Y-66050057D01*
X226379524Y-66954819D02*
X226570000Y-66954819D01*
X226570000Y-66954819D02*
X226665238Y-66907200D01*
X226665238Y-66907200D02*
X226712857Y-66859580D01*
X226712857Y-66859580D02*
X226808095Y-66716723D01*
X226808095Y-66716723D02*
X226855714Y-66526247D01*
X226855714Y-66526247D02*
X226855714Y-66145295D01*
X226855714Y-66145295D02*
X226808095Y-66050057D01*
X226808095Y-66050057D02*
X226760476Y-66002438D01*
X226760476Y-66002438D02*
X226665238Y-65954819D01*
X226665238Y-65954819D02*
X226474762Y-65954819D01*
X226474762Y-65954819D02*
X226379524Y-66002438D01*
X226379524Y-66002438D02*
X226331905Y-66050057D01*
X226331905Y-66050057D02*
X226284286Y-66145295D01*
X226284286Y-66145295D02*
X226284286Y-66383390D01*
X226284286Y-66383390D02*
X226331905Y-66478628D01*
X226331905Y-66478628D02*
X226379524Y-66526247D01*
X226379524Y-66526247D02*
X226474762Y-66573866D01*
X226474762Y-66573866D02*
X226665238Y-66573866D01*
X226665238Y-66573866D02*
X226760476Y-66526247D01*
X226760476Y-66526247D02*
X226808095Y-66478628D01*
X226808095Y-66478628D02*
X226855714Y-66383390D01*
X200238095Y-88954819D02*
X200238095Y-89764342D01*
X200238095Y-89764342D02*
X200285714Y-89859580D01*
X200285714Y-89859580D02*
X200333333Y-89907200D01*
X200333333Y-89907200D02*
X200428571Y-89954819D01*
X200428571Y-89954819D02*
X200619047Y-89954819D01*
X200619047Y-89954819D02*
X200714285Y-89907200D01*
X200714285Y-89907200D02*
X200761904Y-89859580D01*
X200761904Y-89859580D02*
X200809523Y-89764342D01*
X200809523Y-89764342D02*
X200809523Y-88954819D01*
X201238095Y-89050057D02*
X201285714Y-89002438D01*
X201285714Y-89002438D02*
X201380952Y-88954819D01*
X201380952Y-88954819D02*
X201619047Y-88954819D01*
X201619047Y-88954819D02*
X201714285Y-89002438D01*
X201714285Y-89002438D02*
X201761904Y-89050057D01*
X201761904Y-89050057D02*
X201809523Y-89145295D01*
X201809523Y-89145295D02*
X201809523Y-89240533D01*
X201809523Y-89240533D02*
X201761904Y-89383390D01*
X201761904Y-89383390D02*
X201190476Y-89954819D01*
X201190476Y-89954819D02*
X201809523Y-89954819D01*
X209857142Y-60454819D02*
X209857142Y-61169104D01*
X209857142Y-61169104D02*
X209809523Y-61311961D01*
X209809523Y-61311961D02*
X209714285Y-61407200D01*
X209714285Y-61407200D02*
X209571428Y-61454819D01*
X209571428Y-61454819D02*
X209476190Y-61454819D01*
X210095238Y-61550057D02*
X210857142Y-61550057D01*
X211285714Y-60454819D02*
X211476190Y-60454819D01*
X211476190Y-60454819D02*
X211571428Y-60502438D01*
X211571428Y-60502438D02*
X211666666Y-60597676D01*
X211666666Y-60597676D02*
X211714285Y-60788152D01*
X211714285Y-60788152D02*
X211714285Y-61121485D01*
X211714285Y-61121485D02*
X211666666Y-61311961D01*
X211666666Y-61311961D02*
X211571428Y-61407200D01*
X211571428Y-61407200D02*
X211476190Y-61454819D01*
X211476190Y-61454819D02*
X211285714Y-61454819D01*
X211285714Y-61454819D02*
X211190476Y-61407200D01*
X211190476Y-61407200D02*
X211095238Y-61311961D01*
X211095238Y-61311961D02*
X211047619Y-61121485D01*
X211047619Y-61121485D02*
X211047619Y-60788152D01*
X211047619Y-60788152D02*
X211095238Y-60597676D01*
X211095238Y-60597676D02*
X211190476Y-60502438D01*
X211190476Y-60502438D02*
X211285714Y-60454819D01*
X212142857Y-60454819D02*
X212142857Y-61264342D01*
X212142857Y-61264342D02*
X212190476Y-61359580D01*
X212190476Y-61359580D02*
X212238095Y-61407200D01*
X212238095Y-61407200D02*
X212333333Y-61454819D01*
X212333333Y-61454819D02*
X212523809Y-61454819D01*
X212523809Y-61454819D02*
X212619047Y-61407200D01*
X212619047Y-61407200D02*
X212666666Y-61359580D01*
X212666666Y-61359580D02*
X212714285Y-61264342D01*
X212714285Y-61264342D02*
X212714285Y-60454819D01*
X213047619Y-60454819D02*
X213619047Y-60454819D01*
X213333333Y-61454819D02*
X213333333Y-60454819D01*
X214476190Y-61454819D02*
X213904762Y-61454819D01*
X214190476Y-61454819D02*
X214190476Y-60454819D01*
X214190476Y-60454819D02*
X214095238Y-60597676D01*
X214095238Y-60597676D02*
X214000000Y-60692914D01*
X214000000Y-60692914D02*
X213904762Y-60740533D01*
X174454819Y-106166666D02*
X173978628Y-106499999D01*
X174454819Y-106738094D02*
X173454819Y-106738094D01*
X173454819Y-106738094D02*
X173454819Y-106357142D01*
X173454819Y-106357142D02*
X173502438Y-106261904D01*
X173502438Y-106261904D02*
X173550057Y-106214285D01*
X173550057Y-106214285D02*
X173645295Y-106166666D01*
X173645295Y-106166666D02*
X173788152Y-106166666D01*
X173788152Y-106166666D02*
X173883390Y-106214285D01*
X173883390Y-106214285D02*
X173931009Y-106261904D01*
X173931009Y-106261904D02*
X173978628Y-106357142D01*
X173978628Y-106357142D02*
X173978628Y-106738094D01*
X174454819Y-105214285D02*
X174454819Y-105785713D01*
X174454819Y-105499999D02*
X173454819Y-105499999D01*
X173454819Y-105499999D02*
X173597676Y-105595237D01*
X173597676Y-105595237D02*
X173692914Y-105690475D01*
X173692914Y-105690475D02*
X173740533Y-105785713D01*
X190203333Y-69954819D02*
X189870000Y-69478628D01*
X189631905Y-69954819D02*
X189631905Y-68954819D01*
X189631905Y-68954819D02*
X190012857Y-68954819D01*
X190012857Y-68954819D02*
X190108095Y-69002438D01*
X190108095Y-69002438D02*
X190155714Y-69050057D01*
X190155714Y-69050057D02*
X190203333Y-69145295D01*
X190203333Y-69145295D02*
X190203333Y-69288152D01*
X190203333Y-69288152D02*
X190155714Y-69383390D01*
X190155714Y-69383390D02*
X190108095Y-69431009D01*
X190108095Y-69431009D02*
X190012857Y-69478628D01*
X190012857Y-69478628D02*
X189631905Y-69478628D01*
X190536667Y-68954819D02*
X191155714Y-68954819D01*
X191155714Y-68954819D02*
X190822381Y-69335771D01*
X190822381Y-69335771D02*
X190965238Y-69335771D01*
X190965238Y-69335771D02*
X191060476Y-69383390D01*
X191060476Y-69383390D02*
X191108095Y-69431009D01*
X191108095Y-69431009D02*
X191155714Y-69526247D01*
X191155714Y-69526247D02*
X191155714Y-69764342D01*
X191155714Y-69764342D02*
X191108095Y-69859580D01*
X191108095Y-69859580D02*
X191060476Y-69907200D01*
X191060476Y-69907200D02*
X190965238Y-69954819D01*
X190965238Y-69954819D02*
X190679524Y-69954819D01*
X190679524Y-69954819D02*
X190584286Y-69907200D01*
X190584286Y-69907200D02*
X190536667Y-69859580D01*
X182859580Y-71166666D02*
X182907200Y-71214285D01*
X182907200Y-71214285D02*
X182954819Y-71357142D01*
X182954819Y-71357142D02*
X182954819Y-71452380D01*
X182954819Y-71452380D02*
X182907200Y-71595237D01*
X182907200Y-71595237D02*
X182811961Y-71690475D01*
X182811961Y-71690475D02*
X182716723Y-71738094D01*
X182716723Y-71738094D02*
X182526247Y-71785713D01*
X182526247Y-71785713D02*
X182383390Y-71785713D01*
X182383390Y-71785713D02*
X182192914Y-71738094D01*
X182192914Y-71738094D02*
X182097676Y-71690475D01*
X182097676Y-71690475D02*
X182002438Y-71595237D01*
X182002438Y-71595237D02*
X181954819Y-71452380D01*
X181954819Y-71452380D02*
X181954819Y-71357142D01*
X181954819Y-71357142D02*
X182002438Y-71214285D01*
X182002438Y-71214285D02*
X182050057Y-71166666D01*
X181954819Y-70833332D02*
X181954819Y-70214285D01*
X181954819Y-70214285D02*
X182335771Y-70547618D01*
X182335771Y-70547618D02*
X182335771Y-70404761D01*
X182335771Y-70404761D02*
X182383390Y-70309523D01*
X182383390Y-70309523D02*
X182431009Y-70261904D01*
X182431009Y-70261904D02*
X182526247Y-70214285D01*
X182526247Y-70214285D02*
X182764342Y-70214285D01*
X182764342Y-70214285D02*
X182859580Y-70261904D01*
X182859580Y-70261904D02*
X182907200Y-70309523D01*
X182907200Y-70309523D02*
X182954819Y-70404761D01*
X182954819Y-70404761D02*
X182954819Y-70690475D01*
X182954819Y-70690475D02*
X182907200Y-70785713D01*
X182907200Y-70785713D02*
X182859580Y-70833332D01*
X181690476Y-108431009D02*
X181357143Y-108431009D01*
X181357143Y-108954819D02*
X181357143Y-107954819D01*
X181357143Y-107954819D02*
X181833333Y-107954819D01*
X182166667Y-108907200D02*
X182309524Y-108954819D01*
X182309524Y-108954819D02*
X182547619Y-108954819D01*
X182547619Y-108954819D02*
X182642857Y-108907200D01*
X182642857Y-108907200D02*
X182690476Y-108859580D01*
X182690476Y-108859580D02*
X182738095Y-108764342D01*
X182738095Y-108764342D02*
X182738095Y-108669104D01*
X182738095Y-108669104D02*
X182690476Y-108573866D01*
X182690476Y-108573866D02*
X182642857Y-108526247D01*
X182642857Y-108526247D02*
X182547619Y-108478628D01*
X182547619Y-108478628D02*
X182357143Y-108431009D01*
X182357143Y-108431009D02*
X182261905Y-108383390D01*
X182261905Y-108383390D02*
X182214286Y-108335771D01*
X182214286Y-108335771D02*
X182166667Y-108240533D01*
X182166667Y-108240533D02*
X182166667Y-108145295D01*
X182166667Y-108145295D02*
X182214286Y-108050057D01*
X182214286Y-108050057D02*
X182261905Y-108002438D01*
X182261905Y-108002438D02*
X182357143Y-107954819D01*
X182357143Y-107954819D02*
X182595238Y-107954819D01*
X182595238Y-107954819D02*
X182738095Y-108002438D01*
X183690476Y-108954819D02*
X183119048Y-108954819D01*
X183404762Y-108954819D02*
X183404762Y-107954819D01*
X183404762Y-107954819D02*
X183309524Y-108097676D01*
X183309524Y-108097676D02*
X183214286Y-108192914D01*
X183214286Y-108192914D02*
X183119048Y-108240533D01*
X204109580Y-95142857D02*
X204157200Y-95190476D01*
X204157200Y-95190476D02*
X204204819Y-95333333D01*
X204204819Y-95333333D02*
X204204819Y-95428571D01*
X204204819Y-95428571D02*
X204157200Y-95571428D01*
X204157200Y-95571428D02*
X204061961Y-95666666D01*
X204061961Y-95666666D02*
X203966723Y-95714285D01*
X203966723Y-95714285D02*
X203776247Y-95761904D01*
X203776247Y-95761904D02*
X203633390Y-95761904D01*
X203633390Y-95761904D02*
X203442914Y-95714285D01*
X203442914Y-95714285D02*
X203347676Y-95666666D01*
X203347676Y-95666666D02*
X203252438Y-95571428D01*
X203252438Y-95571428D02*
X203204819Y-95428571D01*
X203204819Y-95428571D02*
X203204819Y-95333333D01*
X203204819Y-95333333D02*
X203252438Y-95190476D01*
X203252438Y-95190476D02*
X203300057Y-95142857D01*
X204204819Y-94190476D02*
X204204819Y-94761904D01*
X204204819Y-94476190D02*
X203204819Y-94476190D01*
X203204819Y-94476190D02*
X203347676Y-94571428D01*
X203347676Y-94571428D02*
X203442914Y-94666666D01*
X203442914Y-94666666D02*
X203490533Y-94761904D01*
X203204819Y-93333333D02*
X203204819Y-93523809D01*
X203204819Y-93523809D02*
X203252438Y-93619047D01*
X203252438Y-93619047D02*
X203300057Y-93666666D01*
X203300057Y-93666666D02*
X203442914Y-93761904D01*
X203442914Y-93761904D02*
X203633390Y-93809523D01*
X203633390Y-93809523D02*
X204014342Y-93809523D01*
X204014342Y-93809523D02*
X204109580Y-93761904D01*
X204109580Y-93761904D02*
X204157200Y-93714285D01*
X204157200Y-93714285D02*
X204204819Y-93619047D01*
X204204819Y-93619047D02*
X204204819Y-93428571D01*
X204204819Y-93428571D02*
X204157200Y-93333333D01*
X204157200Y-93333333D02*
X204109580Y-93285714D01*
X204109580Y-93285714D02*
X204014342Y-93238095D01*
X204014342Y-93238095D02*
X203776247Y-93238095D01*
X203776247Y-93238095D02*
X203681009Y-93285714D01*
X203681009Y-93285714D02*
X203633390Y-93333333D01*
X203633390Y-93333333D02*
X203585771Y-93428571D01*
X203585771Y-93428571D02*
X203585771Y-93619047D01*
X203585771Y-93619047D02*
X203633390Y-93714285D01*
X203633390Y-93714285D02*
X203681009Y-93761904D01*
X203681009Y-93761904D02*
X203776247Y-93809523D01*
X215407142Y-66884819D02*
X215073809Y-66408628D01*
X214835714Y-66884819D02*
X214835714Y-65884819D01*
X214835714Y-65884819D02*
X215216666Y-65884819D01*
X215216666Y-65884819D02*
X215311904Y-65932438D01*
X215311904Y-65932438D02*
X215359523Y-65980057D01*
X215359523Y-65980057D02*
X215407142Y-66075295D01*
X215407142Y-66075295D02*
X215407142Y-66218152D01*
X215407142Y-66218152D02*
X215359523Y-66313390D01*
X215359523Y-66313390D02*
X215311904Y-66361009D01*
X215311904Y-66361009D02*
X215216666Y-66408628D01*
X215216666Y-66408628D02*
X214835714Y-66408628D01*
X216359523Y-66884819D02*
X215788095Y-66884819D01*
X216073809Y-66884819D02*
X216073809Y-65884819D01*
X216073809Y-65884819D02*
X215978571Y-66027676D01*
X215978571Y-66027676D02*
X215883333Y-66122914D01*
X215883333Y-66122914D02*
X215788095Y-66170533D01*
X216740476Y-65980057D02*
X216788095Y-65932438D01*
X216788095Y-65932438D02*
X216883333Y-65884819D01*
X216883333Y-65884819D02*
X217121428Y-65884819D01*
X217121428Y-65884819D02*
X217216666Y-65932438D01*
X217216666Y-65932438D02*
X217264285Y-65980057D01*
X217264285Y-65980057D02*
X217311904Y-66075295D01*
X217311904Y-66075295D02*
X217311904Y-66170533D01*
X217311904Y-66170533D02*
X217264285Y-66313390D01*
X217264285Y-66313390D02*
X216692857Y-66884819D01*
X216692857Y-66884819D02*
X217311904Y-66884819D01*
X216110952Y-100994819D02*
X215634762Y-100994819D01*
X215634762Y-100994819D02*
X215634762Y-99994819D01*
X216444286Y-100471009D02*
X216777619Y-100471009D01*
X216920476Y-100994819D02*
X216444286Y-100994819D01*
X216444286Y-100994819D02*
X216444286Y-99994819D01*
X216444286Y-99994819D02*
X216920476Y-99994819D01*
X217349048Y-100994819D02*
X217349048Y-99994819D01*
X217349048Y-99994819D02*
X217587143Y-99994819D01*
X217587143Y-99994819D02*
X217730000Y-100042438D01*
X217730000Y-100042438D02*
X217825238Y-100137676D01*
X217825238Y-100137676D02*
X217872857Y-100232914D01*
X217872857Y-100232914D02*
X217920476Y-100423390D01*
X217920476Y-100423390D02*
X217920476Y-100566247D01*
X217920476Y-100566247D02*
X217872857Y-100756723D01*
X217872857Y-100756723D02*
X217825238Y-100851961D01*
X217825238Y-100851961D02*
X217730000Y-100947200D01*
X217730000Y-100947200D02*
X217587143Y-100994819D01*
X217587143Y-100994819D02*
X217349048Y-100994819D01*
X218301429Y-100090057D02*
X218349048Y-100042438D01*
X218349048Y-100042438D02*
X218444286Y-99994819D01*
X218444286Y-99994819D02*
X218682381Y-99994819D01*
X218682381Y-99994819D02*
X218777619Y-100042438D01*
X218777619Y-100042438D02*
X218825238Y-100090057D01*
X218825238Y-100090057D02*
X218872857Y-100185295D01*
X218872857Y-100185295D02*
X218872857Y-100280533D01*
X218872857Y-100280533D02*
X218825238Y-100423390D01*
X218825238Y-100423390D02*
X218253810Y-100994819D01*
X218253810Y-100994819D02*
X218872857Y-100994819D01*
X173859580Y-71642857D02*
X173907200Y-71690476D01*
X173907200Y-71690476D02*
X173954819Y-71833333D01*
X173954819Y-71833333D02*
X173954819Y-71928571D01*
X173954819Y-71928571D02*
X173907200Y-72071428D01*
X173907200Y-72071428D02*
X173811961Y-72166666D01*
X173811961Y-72166666D02*
X173716723Y-72214285D01*
X173716723Y-72214285D02*
X173526247Y-72261904D01*
X173526247Y-72261904D02*
X173383390Y-72261904D01*
X173383390Y-72261904D02*
X173192914Y-72214285D01*
X173192914Y-72214285D02*
X173097676Y-72166666D01*
X173097676Y-72166666D02*
X173002438Y-72071428D01*
X173002438Y-72071428D02*
X172954819Y-71928571D01*
X172954819Y-71928571D02*
X172954819Y-71833333D01*
X172954819Y-71833333D02*
X173002438Y-71690476D01*
X173002438Y-71690476D02*
X173050057Y-71642857D01*
X173954819Y-70690476D02*
X173954819Y-71261904D01*
X173954819Y-70976190D02*
X172954819Y-70976190D01*
X172954819Y-70976190D02*
X173097676Y-71071428D01*
X173097676Y-71071428D02*
X173192914Y-71166666D01*
X173192914Y-71166666D02*
X173240533Y-71261904D01*
X173288152Y-69833333D02*
X173954819Y-69833333D01*
X172907200Y-70071428D02*
X173621485Y-70309523D01*
X173621485Y-70309523D02*
X173621485Y-69690476D01*
X181585952Y-100954819D02*
X181109762Y-100954819D01*
X181109762Y-100954819D02*
X181109762Y-99954819D01*
X181919286Y-100431009D02*
X182252619Y-100431009D01*
X182395476Y-100954819D02*
X181919286Y-100954819D01*
X181919286Y-100954819D02*
X181919286Y-99954819D01*
X181919286Y-99954819D02*
X182395476Y-99954819D01*
X182824048Y-100954819D02*
X182824048Y-99954819D01*
X182824048Y-99954819D02*
X183062143Y-99954819D01*
X183062143Y-99954819D02*
X183205000Y-100002438D01*
X183205000Y-100002438D02*
X183300238Y-100097676D01*
X183300238Y-100097676D02*
X183347857Y-100192914D01*
X183347857Y-100192914D02*
X183395476Y-100383390D01*
X183395476Y-100383390D02*
X183395476Y-100526247D01*
X183395476Y-100526247D02*
X183347857Y-100716723D01*
X183347857Y-100716723D02*
X183300238Y-100811961D01*
X183300238Y-100811961D02*
X183205000Y-100907200D01*
X183205000Y-100907200D02*
X183062143Y-100954819D01*
X183062143Y-100954819D02*
X182824048Y-100954819D01*
X184347857Y-100954819D02*
X183776429Y-100954819D01*
X184062143Y-100954819D02*
X184062143Y-99954819D01*
X184062143Y-99954819D02*
X183966905Y-100097676D01*
X183966905Y-100097676D02*
X183871667Y-100192914D01*
X183871667Y-100192914D02*
X183776429Y-100240533D01*
X176859580Y-71166666D02*
X176907200Y-71214285D01*
X176907200Y-71214285D02*
X176954819Y-71357142D01*
X176954819Y-71357142D02*
X176954819Y-71452380D01*
X176954819Y-71452380D02*
X176907200Y-71595237D01*
X176907200Y-71595237D02*
X176811961Y-71690475D01*
X176811961Y-71690475D02*
X176716723Y-71738094D01*
X176716723Y-71738094D02*
X176526247Y-71785713D01*
X176526247Y-71785713D02*
X176383390Y-71785713D01*
X176383390Y-71785713D02*
X176192914Y-71738094D01*
X176192914Y-71738094D02*
X176097676Y-71690475D01*
X176097676Y-71690475D02*
X176002438Y-71595237D01*
X176002438Y-71595237D02*
X175954819Y-71452380D01*
X175954819Y-71452380D02*
X175954819Y-71357142D01*
X175954819Y-71357142D02*
X176002438Y-71214285D01*
X176002438Y-71214285D02*
X176050057Y-71166666D01*
X176954819Y-70214285D02*
X176954819Y-70785713D01*
X176954819Y-70499999D02*
X175954819Y-70499999D01*
X175954819Y-70499999D02*
X176097676Y-70595237D01*
X176097676Y-70595237D02*
X176192914Y-70690475D01*
X176192914Y-70690475D02*
X176240533Y-70785713D01*
X216190476Y-108431009D02*
X215857143Y-108431009D01*
X215857143Y-108954819D02*
X215857143Y-107954819D01*
X215857143Y-107954819D02*
X216333333Y-107954819D01*
X216666667Y-108907200D02*
X216809524Y-108954819D01*
X216809524Y-108954819D02*
X217047619Y-108954819D01*
X217047619Y-108954819D02*
X217142857Y-108907200D01*
X217142857Y-108907200D02*
X217190476Y-108859580D01*
X217190476Y-108859580D02*
X217238095Y-108764342D01*
X217238095Y-108764342D02*
X217238095Y-108669104D01*
X217238095Y-108669104D02*
X217190476Y-108573866D01*
X217190476Y-108573866D02*
X217142857Y-108526247D01*
X217142857Y-108526247D02*
X217047619Y-108478628D01*
X217047619Y-108478628D02*
X216857143Y-108431009D01*
X216857143Y-108431009D02*
X216761905Y-108383390D01*
X216761905Y-108383390D02*
X216714286Y-108335771D01*
X216714286Y-108335771D02*
X216666667Y-108240533D01*
X216666667Y-108240533D02*
X216666667Y-108145295D01*
X216666667Y-108145295D02*
X216714286Y-108050057D01*
X216714286Y-108050057D02*
X216761905Y-108002438D01*
X216761905Y-108002438D02*
X216857143Y-107954819D01*
X216857143Y-107954819D02*
X217095238Y-107954819D01*
X217095238Y-107954819D02*
X217238095Y-108002438D01*
X217619048Y-108050057D02*
X217666667Y-108002438D01*
X217666667Y-108002438D02*
X217761905Y-107954819D01*
X217761905Y-107954819D02*
X218000000Y-107954819D01*
X218000000Y-107954819D02*
X218095238Y-108002438D01*
X218095238Y-108002438D02*
X218142857Y-108050057D01*
X218142857Y-108050057D02*
X218190476Y-108145295D01*
X218190476Y-108145295D02*
X218190476Y-108240533D01*
X218190476Y-108240533D02*
X218142857Y-108383390D01*
X218142857Y-108383390D02*
X217571429Y-108954819D01*
X217571429Y-108954819D02*
X218190476Y-108954819D01*
X179889580Y-71166666D02*
X179937200Y-71214285D01*
X179937200Y-71214285D02*
X179984819Y-71357142D01*
X179984819Y-71357142D02*
X179984819Y-71452380D01*
X179984819Y-71452380D02*
X179937200Y-71595237D01*
X179937200Y-71595237D02*
X179841961Y-71690475D01*
X179841961Y-71690475D02*
X179746723Y-71738094D01*
X179746723Y-71738094D02*
X179556247Y-71785713D01*
X179556247Y-71785713D02*
X179413390Y-71785713D01*
X179413390Y-71785713D02*
X179222914Y-71738094D01*
X179222914Y-71738094D02*
X179127676Y-71690475D01*
X179127676Y-71690475D02*
X179032438Y-71595237D01*
X179032438Y-71595237D02*
X178984819Y-71452380D01*
X178984819Y-71452380D02*
X178984819Y-71357142D01*
X178984819Y-71357142D02*
X179032438Y-71214285D01*
X179032438Y-71214285D02*
X179080057Y-71166666D01*
X179080057Y-70785713D02*
X179032438Y-70738094D01*
X179032438Y-70738094D02*
X178984819Y-70642856D01*
X178984819Y-70642856D02*
X178984819Y-70404761D01*
X178984819Y-70404761D02*
X179032438Y-70309523D01*
X179032438Y-70309523D02*
X179080057Y-70261904D01*
X179080057Y-70261904D02*
X179175295Y-70214285D01*
X179175295Y-70214285D02*
X179270533Y-70214285D01*
X179270533Y-70214285D02*
X179413390Y-70261904D01*
X179413390Y-70261904D02*
X179984819Y-70833332D01*
X179984819Y-70833332D02*
X179984819Y-70214285D01*
X171690476Y-66954819D02*
X171690476Y-65954819D01*
X171690476Y-65954819D02*
X172071428Y-65954819D01*
X172071428Y-65954819D02*
X172166666Y-66002438D01*
X172166666Y-66002438D02*
X172214285Y-66050057D01*
X172214285Y-66050057D02*
X172261904Y-66145295D01*
X172261904Y-66145295D02*
X172261904Y-66288152D01*
X172261904Y-66288152D02*
X172214285Y-66383390D01*
X172214285Y-66383390D02*
X172166666Y-66431009D01*
X172166666Y-66431009D02*
X172071428Y-66478628D01*
X172071428Y-66478628D02*
X171690476Y-66478628D01*
X172595238Y-65954819D02*
X172833333Y-66954819D01*
X172833333Y-66954819D02*
X173023809Y-66240533D01*
X173023809Y-66240533D02*
X173214285Y-66954819D01*
X173214285Y-66954819D02*
X173452381Y-65954819D01*
X174404761Y-66954819D02*
X174071428Y-66478628D01*
X173833333Y-66954819D02*
X173833333Y-65954819D01*
X173833333Y-65954819D02*
X174214285Y-65954819D01*
X174214285Y-65954819D02*
X174309523Y-66002438D01*
X174309523Y-66002438D02*
X174357142Y-66050057D01*
X174357142Y-66050057D02*
X174404761Y-66145295D01*
X174404761Y-66145295D02*
X174404761Y-66288152D01*
X174404761Y-66288152D02*
X174357142Y-66383390D01*
X174357142Y-66383390D02*
X174309523Y-66431009D01*
X174309523Y-66431009D02*
X174214285Y-66478628D01*
X174214285Y-66478628D02*
X173833333Y-66478628D01*
X175357142Y-66954819D02*
X174785714Y-66954819D01*
X175071428Y-66954819D02*
X175071428Y-65954819D01*
X175071428Y-65954819D02*
X174976190Y-66097676D01*
X174976190Y-66097676D02*
X174880952Y-66192914D01*
X174880952Y-66192914D02*
X174785714Y-66240533D01*
X201298095Y-70954819D02*
X201298095Y-71764342D01*
X201298095Y-71764342D02*
X201345714Y-71859580D01*
X201345714Y-71859580D02*
X201393333Y-71907200D01*
X201393333Y-71907200D02*
X201488571Y-71954819D01*
X201488571Y-71954819D02*
X201679047Y-71954819D01*
X201679047Y-71954819D02*
X201774285Y-71907200D01*
X201774285Y-71907200D02*
X201821904Y-71859580D01*
X201821904Y-71859580D02*
X201869523Y-71764342D01*
X201869523Y-71764342D02*
X201869523Y-70954819D01*
X202869523Y-71954819D02*
X202298095Y-71954819D01*
X202583809Y-71954819D02*
X202583809Y-70954819D01*
X202583809Y-70954819D02*
X202488571Y-71097676D01*
X202488571Y-71097676D02*
X202393333Y-71192914D01*
X202393333Y-71192914D02*
X202298095Y-71240533D01*
X225427142Y-75859580D02*
X225379523Y-75907200D01*
X225379523Y-75907200D02*
X225236666Y-75954819D01*
X225236666Y-75954819D02*
X225141428Y-75954819D01*
X225141428Y-75954819D02*
X224998571Y-75907200D01*
X224998571Y-75907200D02*
X224903333Y-75811961D01*
X224903333Y-75811961D02*
X224855714Y-75716723D01*
X224855714Y-75716723D02*
X224808095Y-75526247D01*
X224808095Y-75526247D02*
X224808095Y-75383390D01*
X224808095Y-75383390D02*
X224855714Y-75192914D01*
X224855714Y-75192914D02*
X224903333Y-75097676D01*
X224903333Y-75097676D02*
X224998571Y-75002438D01*
X224998571Y-75002438D02*
X225141428Y-74954819D01*
X225141428Y-74954819D02*
X225236666Y-74954819D01*
X225236666Y-74954819D02*
X225379523Y-75002438D01*
X225379523Y-75002438D02*
X225427142Y-75050057D01*
X226379523Y-75954819D02*
X225808095Y-75954819D01*
X226093809Y-75954819D02*
X226093809Y-74954819D01*
X226093809Y-74954819D02*
X225998571Y-75097676D01*
X225998571Y-75097676D02*
X225903333Y-75192914D01*
X225903333Y-75192914D02*
X225808095Y-75240533D01*
X226712857Y-74954819D02*
X227379523Y-74954819D01*
X227379523Y-74954819D02*
X226950952Y-75954819D01*
X188523809Y-60454819D02*
X188523809Y-61169104D01*
X188523809Y-61169104D02*
X188476190Y-61311961D01*
X188476190Y-61311961D02*
X188380952Y-61407200D01*
X188380952Y-61407200D02*
X188238095Y-61454819D01*
X188238095Y-61454819D02*
X188142857Y-61454819D01*
X188761905Y-61550057D02*
X189523809Y-61550057D01*
X189761905Y-61454819D02*
X189761905Y-60454819D01*
X190238095Y-61454819D02*
X190238095Y-60454819D01*
X190238095Y-60454819D02*
X190809523Y-61454819D01*
X190809523Y-61454819D02*
X190809523Y-60454819D01*
X191809523Y-61454819D02*
X191238095Y-61454819D01*
X191523809Y-61454819D02*
X191523809Y-60454819D01*
X191523809Y-60454819D02*
X191428571Y-60597676D01*
X191428571Y-60597676D02*
X191333333Y-60692914D01*
X191333333Y-60692914D02*
X191238095Y-60740533D01*
X190203333Y-72954819D02*
X189870000Y-72478628D01*
X189631905Y-72954819D02*
X189631905Y-71954819D01*
X189631905Y-71954819D02*
X190012857Y-71954819D01*
X190012857Y-71954819D02*
X190108095Y-72002438D01*
X190108095Y-72002438D02*
X190155714Y-72050057D01*
X190155714Y-72050057D02*
X190203333Y-72145295D01*
X190203333Y-72145295D02*
X190203333Y-72288152D01*
X190203333Y-72288152D02*
X190155714Y-72383390D01*
X190155714Y-72383390D02*
X190108095Y-72431009D01*
X190108095Y-72431009D02*
X190012857Y-72478628D01*
X190012857Y-72478628D02*
X189631905Y-72478628D01*
X191060476Y-72288152D02*
X191060476Y-72954819D01*
X190822381Y-71907200D02*
X190584286Y-72621485D01*
X190584286Y-72621485D02*
X191203333Y-72621485D01*
X208634819Y-71592857D02*
X208158628Y-71926190D01*
X208634819Y-72164285D02*
X207634819Y-72164285D01*
X207634819Y-72164285D02*
X207634819Y-71783333D01*
X207634819Y-71783333D02*
X207682438Y-71688095D01*
X207682438Y-71688095D02*
X207730057Y-71640476D01*
X207730057Y-71640476D02*
X207825295Y-71592857D01*
X207825295Y-71592857D02*
X207968152Y-71592857D01*
X207968152Y-71592857D02*
X208063390Y-71640476D01*
X208063390Y-71640476D02*
X208111009Y-71688095D01*
X208111009Y-71688095D02*
X208158628Y-71783333D01*
X208158628Y-71783333D02*
X208158628Y-72164285D01*
X208634819Y-70640476D02*
X208634819Y-71211904D01*
X208634819Y-70926190D02*
X207634819Y-70926190D01*
X207634819Y-70926190D02*
X207777676Y-71021428D01*
X207777676Y-71021428D02*
X207872914Y-71116666D01*
X207872914Y-71116666D02*
X207920533Y-71211904D01*
X207634819Y-70307142D02*
X207634819Y-69688095D01*
X207634819Y-69688095D02*
X208015771Y-70021428D01*
X208015771Y-70021428D02*
X208015771Y-69878571D01*
X208015771Y-69878571D02*
X208063390Y-69783333D01*
X208063390Y-69783333D02*
X208111009Y-69735714D01*
X208111009Y-69735714D02*
X208206247Y-69688095D01*
X208206247Y-69688095D02*
X208444342Y-69688095D01*
X208444342Y-69688095D02*
X208539580Y-69735714D01*
X208539580Y-69735714D02*
X208587200Y-69783333D01*
X208587200Y-69783333D02*
X208634819Y-69878571D01*
X208634819Y-69878571D02*
X208634819Y-70164285D01*
X208634819Y-70164285D02*
X208587200Y-70259523D01*
X208587200Y-70259523D02*
X208539580Y-70307142D01*
X226084819Y-106246666D02*
X225608628Y-106579999D01*
X226084819Y-106818094D02*
X225084819Y-106818094D01*
X225084819Y-106818094D02*
X225084819Y-106437142D01*
X225084819Y-106437142D02*
X225132438Y-106341904D01*
X225132438Y-106341904D02*
X225180057Y-106294285D01*
X225180057Y-106294285D02*
X225275295Y-106246666D01*
X225275295Y-106246666D02*
X225418152Y-106246666D01*
X225418152Y-106246666D02*
X225513390Y-106294285D01*
X225513390Y-106294285D02*
X225561009Y-106341904D01*
X225561009Y-106341904D02*
X225608628Y-106437142D01*
X225608628Y-106437142D02*
X225608628Y-106818094D01*
X225180057Y-105865713D02*
X225132438Y-105818094D01*
X225132438Y-105818094D02*
X225084819Y-105722856D01*
X225084819Y-105722856D02*
X225084819Y-105484761D01*
X225084819Y-105484761D02*
X225132438Y-105389523D01*
X225132438Y-105389523D02*
X225180057Y-105341904D01*
X225180057Y-105341904D02*
X225275295Y-105294285D01*
X225275295Y-105294285D02*
X225370533Y-105294285D01*
X225370533Y-105294285D02*
X225513390Y-105341904D01*
X225513390Y-105341904D02*
X226084819Y-105913332D01*
X226084819Y-105913332D02*
X226084819Y-105294285D01*
X215883333Y-70024819D02*
X215550000Y-69548628D01*
X215311905Y-70024819D02*
X215311905Y-69024819D01*
X215311905Y-69024819D02*
X215692857Y-69024819D01*
X215692857Y-69024819D02*
X215788095Y-69072438D01*
X215788095Y-69072438D02*
X215835714Y-69120057D01*
X215835714Y-69120057D02*
X215883333Y-69215295D01*
X215883333Y-69215295D02*
X215883333Y-69358152D01*
X215883333Y-69358152D02*
X215835714Y-69453390D01*
X215835714Y-69453390D02*
X215788095Y-69501009D01*
X215788095Y-69501009D02*
X215692857Y-69548628D01*
X215692857Y-69548628D02*
X215311905Y-69548628D01*
X216359524Y-70024819D02*
X216550000Y-70024819D01*
X216550000Y-70024819D02*
X216645238Y-69977200D01*
X216645238Y-69977200D02*
X216692857Y-69929580D01*
X216692857Y-69929580D02*
X216788095Y-69786723D01*
X216788095Y-69786723D02*
X216835714Y-69596247D01*
X216835714Y-69596247D02*
X216835714Y-69215295D01*
X216835714Y-69215295D02*
X216788095Y-69120057D01*
X216788095Y-69120057D02*
X216740476Y-69072438D01*
X216740476Y-69072438D02*
X216645238Y-69024819D01*
X216645238Y-69024819D02*
X216454762Y-69024819D01*
X216454762Y-69024819D02*
X216359524Y-69072438D01*
X216359524Y-69072438D02*
X216311905Y-69120057D01*
X216311905Y-69120057D02*
X216264286Y-69215295D01*
X216264286Y-69215295D02*
X216264286Y-69453390D01*
X216264286Y-69453390D02*
X216311905Y-69548628D01*
X216311905Y-69548628D02*
X216359524Y-69596247D01*
X216359524Y-69596247D02*
X216454762Y-69643866D01*
X216454762Y-69643866D02*
X216645238Y-69643866D01*
X216645238Y-69643866D02*
X216740476Y-69596247D01*
X216740476Y-69596247D02*
X216788095Y-69548628D01*
X216788095Y-69548628D02*
X216835714Y-69453390D01*
X215357142Y-76024819D02*
X215023809Y-75548628D01*
X214785714Y-76024819D02*
X214785714Y-75024819D01*
X214785714Y-75024819D02*
X215166666Y-75024819D01*
X215166666Y-75024819D02*
X215261904Y-75072438D01*
X215261904Y-75072438D02*
X215309523Y-75120057D01*
X215309523Y-75120057D02*
X215357142Y-75215295D01*
X215357142Y-75215295D02*
X215357142Y-75358152D01*
X215357142Y-75358152D02*
X215309523Y-75453390D01*
X215309523Y-75453390D02*
X215261904Y-75501009D01*
X215261904Y-75501009D02*
X215166666Y-75548628D01*
X215166666Y-75548628D02*
X214785714Y-75548628D01*
X216309523Y-76024819D02*
X215738095Y-76024819D01*
X216023809Y-76024819D02*
X216023809Y-75024819D01*
X216023809Y-75024819D02*
X215928571Y-75167676D01*
X215928571Y-75167676D02*
X215833333Y-75262914D01*
X215833333Y-75262914D02*
X215738095Y-75310533D01*
X216928571Y-75024819D02*
X217023809Y-75024819D01*
X217023809Y-75024819D02*
X217119047Y-75072438D01*
X217119047Y-75072438D02*
X217166666Y-75120057D01*
X217166666Y-75120057D02*
X217214285Y-75215295D01*
X217214285Y-75215295D02*
X217261904Y-75405771D01*
X217261904Y-75405771D02*
X217261904Y-75643866D01*
X217261904Y-75643866D02*
X217214285Y-75834342D01*
X217214285Y-75834342D02*
X217166666Y-75929580D01*
X217166666Y-75929580D02*
X217119047Y-75977200D01*
X217119047Y-75977200D02*
X217023809Y-76024819D01*
X217023809Y-76024819D02*
X216928571Y-76024819D01*
X216928571Y-76024819D02*
X216833333Y-75977200D01*
X216833333Y-75977200D02*
X216785714Y-75929580D01*
X216785714Y-75929580D02*
X216738095Y-75834342D01*
X216738095Y-75834342D02*
X216690476Y-75643866D01*
X216690476Y-75643866D02*
X216690476Y-75405771D01*
X216690476Y-75405771D02*
X216738095Y-75215295D01*
X216738095Y-75215295D02*
X216785714Y-75120057D01*
X216785714Y-75120057D02*
X216833333Y-75072438D01*
X216833333Y-75072438D02*
X216928571Y-75024819D01*
X190203333Y-75954819D02*
X189870000Y-75478628D01*
X189631905Y-75954819D02*
X189631905Y-74954819D01*
X189631905Y-74954819D02*
X190012857Y-74954819D01*
X190012857Y-74954819D02*
X190108095Y-75002438D01*
X190108095Y-75002438D02*
X190155714Y-75050057D01*
X190155714Y-75050057D02*
X190203333Y-75145295D01*
X190203333Y-75145295D02*
X190203333Y-75288152D01*
X190203333Y-75288152D02*
X190155714Y-75383390D01*
X190155714Y-75383390D02*
X190108095Y-75431009D01*
X190108095Y-75431009D02*
X190012857Y-75478628D01*
X190012857Y-75478628D02*
X189631905Y-75478628D01*
X191108095Y-74954819D02*
X190631905Y-74954819D01*
X190631905Y-74954819D02*
X190584286Y-75431009D01*
X190584286Y-75431009D02*
X190631905Y-75383390D01*
X190631905Y-75383390D02*
X190727143Y-75335771D01*
X190727143Y-75335771D02*
X190965238Y-75335771D01*
X190965238Y-75335771D02*
X191060476Y-75383390D01*
X191060476Y-75383390D02*
X191108095Y-75431009D01*
X191108095Y-75431009D02*
X191155714Y-75526247D01*
X191155714Y-75526247D02*
X191155714Y-75764342D01*
X191155714Y-75764342D02*
X191108095Y-75859580D01*
X191108095Y-75859580D02*
X191060476Y-75907200D01*
X191060476Y-75907200D02*
X190965238Y-75954819D01*
X190965238Y-75954819D02*
X190727143Y-75954819D01*
X190727143Y-75954819D02*
X190631905Y-75907200D01*
X190631905Y-75907200D02*
X190584286Y-75859580D01*
D13*
%TO.C,D1*%
X186630000Y-66550000D02*
X187650000Y-66550000D01*
X187650000Y-65080000D02*
X187650000Y-68020000D01*
X187650000Y-68020000D02*
X193090000Y-68020000D01*
X188430000Y-65080000D02*
X188430000Y-68020000D01*
X188550000Y-65080000D02*
X188550000Y-68020000D01*
X188670000Y-65080000D02*
X188670000Y-68020000D01*
X193090000Y-65080000D02*
X187650000Y-65080000D01*
X193090000Y-68020000D02*
X193090000Y-65080000D01*
X194110000Y-66550000D02*
X193090000Y-66550000D01*
%TO.C,R11*%
X212810000Y-73870000D02*
X219350000Y-73870000D01*
X219350000Y-73870000D02*
X219350000Y-71130000D01*
X212040000Y-72500000D02*
X212810000Y-72500000D01*
X220120000Y-72500000D02*
X219350000Y-72500000D01*
X212810000Y-71130000D02*
X212810000Y-73870000D01*
X219350000Y-71130000D02*
X212810000Y-71130000D01*
%TO.C,C15*%
X196880000Y-90780000D02*
X199620000Y-90780000D01*
X196880000Y-98220000D02*
X196880000Y-90780000D01*
X196880000Y-98220000D02*
X199620000Y-98220000D01*
X199620000Y-98220000D02*
X199620000Y-90780000D01*
%TO.C,C13*%
X199960000Y-103971000D02*
X196983000Y-103971000D01*
X199960000Y-104011000D02*
X196990000Y-104011000D01*
X199960000Y-104051000D02*
X196998000Y-104051000D01*
X199960000Y-104091000D02*
X197006000Y-104091000D01*
X199960000Y-104131000D02*
X197015000Y-104131000D01*
X199960000Y-104171000D02*
X197024000Y-104171000D01*
X199960000Y-104211000D02*
X197033000Y-104211000D01*
X199960000Y-104251000D02*
X197043000Y-104251000D01*
X199960000Y-104291000D02*
X197053000Y-104291000D01*
X199960000Y-104331000D02*
X197064000Y-104331000D01*
X199960000Y-104371000D02*
X197075000Y-104371000D01*
X199960000Y-104411000D02*
X197086000Y-104411000D01*
X199960000Y-104451000D02*
X197098000Y-104451000D01*
X199960000Y-104491000D02*
X197111000Y-104491000D01*
X199960000Y-104531000D02*
X197123000Y-104531000D01*
X199960000Y-104571000D02*
X197137000Y-104571000D01*
X199960000Y-104611000D02*
X197150000Y-104611000D01*
X199960000Y-104651000D02*
X197165000Y-104651000D01*
X199960000Y-104691000D02*
X197179000Y-104691000D01*
X199960000Y-104731000D02*
X197195000Y-104731000D01*
X199960000Y-104771000D02*
X197210000Y-104771000D01*
X199960000Y-104811000D02*
X197226000Y-104811000D01*
X199960000Y-104851000D02*
X197243000Y-104851000D01*
X199960000Y-104891000D02*
X197260000Y-104891000D01*
X199960000Y-104931000D02*
X197278000Y-104931000D01*
X199960000Y-104971000D02*
X197296000Y-104971000D01*
X199960000Y-105011000D02*
X197314000Y-105011000D01*
X199960000Y-105051000D02*
X197334000Y-105051000D01*
X199960000Y-105091000D02*
X197353000Y-105091000D01*
X199960000Y-105131000D02*
X197373000Y-105131000D01*
X199960000Y-105171000D02*
X197394000Y-105171000D01*
X199960000Y-105211000D02*
X197416000Y-105211000D01*
X199960000Y-105251000D02*
X197438000Y-105251000D01*
X199960000Y-105291000D02*
X197460000Y-105291000D01*
X199960000Y-105331000D02*
X197483000Y-105331000D01*
X199960000Y-105371000D02*
X197507000Y-105371000D01*
X199960000Y-105411000D02*
X197531000Y-105411000D01*
X199960000Y-105451000D02*
X197556000Y-105451000D01*
X199960000Y-105491000D02*
X197582000Y-105491000D01*
X199960000Y-105531000D02*
X197608000Y-105531000D01*
X199960000Y-105571000D02*
X197635000Y-105571000D01*
X199960000Y-105611000D02*
X197662000Y-105611000D01*
X199960000Y-105651000D02*
X197691000Y-105651000D01*
X199960000Y-105691000D02*
X197720000Y-105691000D01*
X199960000Y-105731000D02*
X197750000Y-105731000D01*
X199960000Y-105771000D02*
X197780000Y-105771000D01*
X199960000Y-105811000D02*
X197811000Y-105811000D01*
X199960000Y-105851000D02*
X197844000Y-105851000D01*
X199960000Y-105891000D02*
X197876000Y-105891000D01*
X199960000Y-105931000D02*
X197910000Y-105931000D01*
X199960000Y-105971000D02*
X197945000Y-105971000D01*
X199960000Y-106011000D02*
X197981000Y-106011000D01*
X201533000Y-107331000D02*
X200467000Y-107331000D01*
X201768000Y-107291000D02*
X200232000Y-107291000D01*
X201948000Y-107251000D02*
X200052000Y-107251000D01*
X202098000Y-107211000D02*
X199902000Y-107211000D01*
X202229000Y-107171000D02*
X199771000Y-107171000D01*
X202346000Y-107131000D02*
X199654000Y-107131000D01*
X202453000Y-107091000D02*
X199547000Y-107091000D01*
X202552000Y-107051000D02*
X199448000Y-107051000D01*
X202645000Y-107011000D02*
X199355000Y-107011000D01*
X202731000Y-106971000D02*
X199269000Y-106971000D01*
X202813000Y-106931000D02*
X199187000Y-106931000D01*
X202890000Y-106891000D02*
X199110000Y-106891000D01*
X202964000Y-106851000D02*
X199036000Y-106851000D01*
X203034000Y-106811000D02*
X198966000Y-106811000D01*
X203102000Y-106771000D02*
X198898000Y-106771000D01*
X203166000Y-106731000D02*
X198834000Y-106731000D01*
X203228000Y-106691000D02*
X198772000Y-106691000D01*
X203287000Y-106651000D02*
X198713000Y-106651000D01*
X203315000Y-98840302D02*
X203315000Y-99640302D01*
X203345000Y-106611000D02*
X198655000Y-106611000D01*
X203400000Y-106571000D02*
X198600000Y-106571000D01*
X203454000Y-106531000D02*
X198546000Y-106531000D01*
X203505000Y-106491000D02*
X198495000Y-106491000D01*
X203556000Y-106451000D02*
X198444000Y-106451000D01*
X203604000Y-106411000D02*
X198396000Y-106411000D01*
X203651000Y-106371000D02*
X198349000Y-106371000D01*
X203697000Y-106331000D02*
X198303000Y-106331000D01*
X203715000Y-99240302D02*
X202915000Y-99240302D01*
X203741000Y-106291000D02*
X198259000Y-106291000D01*
X203784000Y-106251000D02*
X198216000Y-106251000D01*
X203826000Y-106211000D02*
X198174000Y-106211000D01*
X203867000Y-106171000D02*
X198133000Y-106171000D01*
X203907000Y-106131000D02*
X198093000Y-106131000D01*
X203945000Y-106091000D02*
X198055000Y-106091000D01*
X203983000Y-106051000D02*
X198017000Y-106051000D01*
X204019000Y-106011000D02*
X202040000Y-106011000D01*
X204055000Y-105971000D02*
X202040000Y-105971000D01*
X204090000Y-105931000D02*
X202040000Y-105931000D01*
X204124000Y-105891000D02*
X202040000Y-105891000D01*
X204156000Y-105851000D02*
X202040000Y-105851000D01*
X204189000Y-105811000D02*
X202040000Y-105811000D01*
X204220000Y-105771000D02*
X202040000Y-105771000D01*
X204250000Y-105731000D02*
X202040000Y-105731000D01*
X204280000Y-105691000D02*
X202040000Y-105691000D01*
X204309000Y-105651000D02*
X202040000Y-105651000D01*
X204338000Y-105611000D02*
X202040000Y-105611000D01*
X204365000Y-105571000D02*
X202040000Y-105571000D01*
X204392000Y-105531000D02*
X202040000Y-105531000D01*
X204418000Y-105491000D02*
X202040000Y-105491000D01*
X204444000Y-105451000D02*
X202040000Y-105451000D01*
X204469000Y-105411000D02*
X202040000Y-105411000D01*
X204493000Y-105371000D02*
X202040000Y-105371000D01*
X204517000Y-105331000D02*
X202040000Y-105331000D01*
X204540000Y-105291000D02*
X202040000Y-105291000D01*
X204562000Y-105251000D02*
X202040000Y-105251000D01*
X204584000Y-105211000D02*
X202040000Y-105211000D01*
X204606000Y-105171000D02*
X202040000Y-105171000D01*
X204627000Y-105131000D02*
X202040000Y-105131000D01*
X204647000Y-105091000D02*
X202040000Y-105091000D01*
X204666000Y-105051000D02*
X202040000Y-105051000D01*
X204686000Y-105011000D02*
X202040000Y-105011000D01*
X204704000Y-104971000D02*
X202040000Y-104971000D01*
X204722000Y-104931000D02*
X202040000Y-104931000D01*
X204740000Y-104891000D02*
X202040000Y-104891000D01*
X204757000Y-104851000D02*
X202040000Y-104851000D01*
X204774000Y-104811000D02*
X202040000Y-104811000D01*
X204790000Y-104771000D02*
X202040000Y-104771000D01*
X204805000Y-104731000D02*
X202040000Y-104731000D01*
X204821000Y-104691000D02*
X202040000Y-104691000D01*
X204835000Y-104651000D02*
X202040000Y-104651000D01*
X204850000Y-104611000D02*
X202040000Y-104611000D01*
X204863000Y-104571000D02*
X202040000Y-104571000D01*
X204877000Y-104531000D02*
X202040000Y-104531000D01*
X204889000Y-104491000D02*
X202040000Y-104491000D01*
X204902000Y-104451000D02*
X202040000Y-104451000D01*
X204914000Y-104411000D02*
X202040000Y-104411000D01*
X204925000Y-104371000D02*
X202040000Y-104371000D01*
X204936000Y-104331000D02*
X202040000Y-104331000D01*
X204947000Y-104291000D02*
X202040000Y-104291000D01*
X204957000Y-104251000D02*
X202040000Y-104251000D01*
X204967000Y-104211000D02*
X202040000Y-104211000D01*
X204976000Y-104171000D02*
X202040000Y-104171000D01*
X204985000Y-104131000D02*
X202040000Y-104131000D01*
X204994000Y-104091000D02*
X202040000Y-104091000D01*
X205002000Y-104051000D02*
X202040000Y-104051000D01*
X205010000Y-104011000D02*
X202040000Y-104011000D01*
X205017000Y-103971000D02*
X202040000Y-103971000D01*
X205024000Y-103930000D02*
X196976000Y-103930000D01*
X205030000Y-103890000D02*
X196970000Y-103890000D01*
X205037000Y-103850000D02*
X196963000Y-103850000D01*
X205042000Y-103810000D02*
X196958000Y-103810000D01*
X205048000Y-103770000D02*
X196952000Y-103770000D01*
X205052000Y-103730000D02*
X196948000Y-103730000D01*
X205057000Y-103690000D02*
X196943000Y-103690000D01*
X205061000Y-103650000D02*
X196939000Y-103650000D01*
X205065000Y-103610000D02*
X196935000Y-103610000D01*
X205068000Y-103570000D02*
X196932000Y-103570000D01*
X205071000Y-103530000D02*
X196929000Y-103530000D01*
X205074000Y-103490000D02*
X196926000Y-103490000D01*
X205076000Y-103450000D02*
X196924000Y-103450000D01*
X205077000Y-103410000D02*
X196923000Y-103410000D01*
X205079000Y-103370000D02*
X196921000Y-103370000D01*
X205080000Y-103250000D02*
X196920000Y-103250000D01*
X205080000Y-103290000D02*
X196920000Y-103290000D01*
X205080000Y-103330000D02*
X196920000Y-103330000D01*
X205120000Y-103250000D02*
G75*
G02*
X196880000Y-103250000I-4120000J0D01*
G01*
X196880000Y-103250000D02*
G75*
G02*
X205120000Y-103250000I4120000J0D01*
G01*
%TO.C,C8*%
X222280000Y-73920000D02*
X222280000Y-71180000D01*
X229720000Y-71180000D02*
X222280000Y-71180000D01*
X229720000Y-73920000D02*
X222280000Y-73920000D01*
X229720000Y-73920000D02*
X229720000Y-71180000D01*
%TO.C,C7*%
X229720000Y-68130000D02*
X229720000Y-70870000D01*
X222280000Y-70870000D02*
X229720000Y-70870000D01*
X222280000Y-68130000D02*
X229720000Y-68130000D01*
X222280000Y-68130000D02*
X222280000Y-70870000D01*
%TO.C,C9*%
X222350000Y-65180000D02*
X222350000Y-67920000D01*
X222350000Y-65180000D02*
X229790000Y-65180000D01*
X222350000Y-67920000D02*
X229790000Y-67920000D01*
X229790000Y-65180000D02*
X229790000Y-67920000D01*
%TO.C,U2*%
X202800000Y-85790000D02*
X199200000Y-85790000D01*
X201000000Y-90240000D02*
G75*
G02*
X199161522Y-85801522I0J2600000D01*
G01*
X202838478Y-85801522D02*
G75*
G02*
X201000000Y-90240001I-1838478J-1838478D01*
G01*
%TO.C,J_OUT1*%
X209405000Y-57170000D02*
X209405000Y-59830000D01*
X212005000Y-57170000D02*
X209405000Y-57170000D01*
X212005000Y-57170000D02*
X212005000Y-59830000D01*
X212005000Y-59830000D02*
X209405000Y-59830000D01*
X213275000Y-57170000D02*
X214605000Y-57170000D01*
X214605000Y-57170000D02*
X214605000Y-58500000D01*
%TO.C,A1*%
X175690000Y-77830000D02*
X175690000Y-80130000D01*
X175690000Y-80130000D02*
X178090000Y-80130000D01*
X175990000Y-62030000D02*
X226990000Y-62030000D01*
D10*
X175990000Y-64550000D02*
X175990000Y-62030000D01*
D13*
X175990000Y-64550000D02*
X226990000Y-64550000D01*
D10*
X175990000Y-77350000D02*
X175990000Y-79830000D01*
D13*
X175990000Y-77350000D02*
X226990000Y-77350000D01*
D10*
X226990000Y-62030000D02*
X226990000Y-64550000D01*
D13*
X226990000Y-79830000D02*
X175990000Y-79830000D01*
D10*
X226990000Y-79830000D02*
X226990000Y-77350000D01*
D13*
%TO.C,R1*%
X172630000Y-102730000D02*
X172630000Y-109270000D01*
X172630000Y-109270000D02*
X175370000Y-109270000D01*
X174000000Y-101960000D02*
X174000000Y-102730000D01*
X174000000Y-110040000D02*
X174000000Y-109270000D01*
X175370000Y-102730000D02*
X172630000Y-102730000D01*
X175370000Y-109270000D02*
X175370000Y-102730000D01*
%TO.C,R3*%
X186330000Y-69650000D02*
X187100000Y-69650000D01*
X187100000Y-68280000D02*
X187100000Y-71020000D01*
X187100000Y-71020000D02*
X193640000Y-71020000D01*
X193640000Y-68280000D02*
X187100000Y-68280000D01*
X193640000Y-71020000D02*
X193640000Y-68280000D01*
X194410000Y-69650000D02*
X193640000Y-69650000D01*
%TO.C,C3*%
X181000000Y-67280000D02*
X183740000Y-67280000D01*
X181000000Y-74720000D02*
X181000000Y-67280000D01*
X181000000Y-74720000D02*
X183740000Y-74720000D01*
X183740000Y-74720000D02*
X183740000Y-67280000D01*
%TO.C,FS1*%
X180130000Y-109670000D02*
X180130000Y-112330000D01*
X182730000Y-109670000D02*
X180130000Y-109670000D01*
X182730000Y-109670000D02*
X182730000Y-112330000D01*
X182730000Y-112330000D02*
X180130000Y-112330000D01*
X184000000Y-109670000D02*
X185330000Y-109670000D01*
X185330000Y-109670000D02*
X185330000Y-111000000D01*
%TO.C,C16*%
X202380000Y-90780000D02*
X205120000Y-90780000D01*
X202380000Y-98220000D02*
X202380000Y-90780000D01*
X202380000Y-98220000D02*
X205120000Y-98220000D01*
X205120000Y-98220000D02*
X205120000Y-90780000D01*
D14*
%TO.C,REF\u002A\u002A*%
X168250000Y-141891543D02*
X168250000Y-29688458D01*
X170000000Y-33740000D02*
X170895559Y-34635559D01*
X170000000Y-33740000D02*
X173001200Y-33740000D01*
X170000000Y-137840000D02*
X170000000Y-33740000D01*
X170000000Y-137840000D02*
X170895559Y-136944442D01*
X170895559Y-34635559D02*
X170895559Y-136944442D01*
X170895559Y-136944442D02*
X173896758Y-136944442D01*
X172748458Y-25190000D02*
X229251543Y-25190000D01*
X173001200Y-33740000D02*
X173896758Y-34635559D01*
X173001200Y-137840000D02*
X170000000Y-137840000D01*
X173896758Y-34635559D02*
X170895559Y-34635559D01*
X173896758Y-136944442D02*
X173001200Y-137840000D01*
X176500000Y-26940000D02*
X177395559Y-27835559D01*
X176500000Y-26940000D02*
X225500000Y-26940000D01*
X176500000Y-30241200D02*
X176500000Y-26940000D01*
X176500000Y-141338801D02*
X177395559Y-140443243D01*
X176500000Y-144640000D02*
X176500000Y-141338801D01*
X176500000Y-144640000D02*
X177395559Y-143744442D01*
X177395559Y-27835559D02*
X177395559Y-31136758D01*
X177395559Y-31136758D02*
X176500000Y-30241200D01*
X177395559Y-140443243D02*
X177395559Y-143744442D01*
X177395559Y-143744442D02*
X224604442Y-143744442D01*
X224604442Y-27835559D02*
X177395559Y-27835559D01*
X224604442Y-31136758D02*
X224604442Y-27835559D01*
X224604442Y-140443243D02*
X225500000Y-141338801D01*
X224604442Y-143744442D02*
X224604442Y-140443243D01*
X225500000Y-26940000D02*
X224604442Y-27835559D01*
X225500000Y-26940000D02*
X225500000Y-30241200D01*
X225500000Y-30241200D02*
X224604442Y-31136758D01*
X225500000Y-141338801D02*
X225500000Y-144640000D01*
X225500000Y-144640000D02*
X176500000Y-144640000D01*
X225500000Y-144640000D02*
X224604442Y-143744442D01*
X228103243Y-34635559D02*
X228998801Y-33740000D01*
X228103243Y-136944442D02*
X231104442Y-136944442D01*
X228998801Y-33740000D02*
X232000000Y-33740000D01*
X228998801Y-137840000D02*
X228103243Y-136944442D01*
X229251543Y-146390000D02*
X172748458Y-146390000D01*
X231104442Y-34635559D02*
X228103243Y-34635559D01*
X231104442Y-136944442D02*
X231104442Y-34635559D01*
X232000000Y-33740000D02*
X231104442Y-34635559D01*
X232000000Y-33740000D02*
X232000000Y-137840000D01*
X232000000Y-137840000D02*
X228998801Y-137840000D01*
X232000000Y-137840000D02*
X231104442Y-136944442D01*
X233750000Y-29688458D02*
X233750000Y-141891543D01*
X175250000Y-30790000D02*
G75*
G02*
X171250000Y-30790000I-2000000J0D01*
G01*
X171250000Y-30790000D02*
G75*
G02*
X175250000Y-30790000I2000000J0D01*
G01*
X175002600Y-30790000D02*
G75*
G02*
X171497400Y-30790000I-1752600J0D01*
G01*
X171497400Y-30790000D02*
G75*
G02*
X175002600Y-30790000I1752600J0D01*
G01*
X174571000Y-30790000D02*
G75*
G02*
X171929000Y-30790000I-1321000J0D01*
G01*
X171929000Y-30790000D02*
G75*
G02*
X174571000Y-30790000I1321000J0D01*
G01*
X175250000Y-140790000D02*
G75*
G02*
X171250000Y-140790000I-2000000J0D01*
G01*
X171250000Y-140790000D02*
G75*
G02*
X175250000Y-140790000I2000000J0D01*
G01*
X175002600Y-140790000D02*
G75*
G02*
X171497400Y-140790000I-1752600J0D01*
G01*
X171497400Y-140790000D02*
G75*
G02*
X175002600Y-140790000I1752600J0D01*
G01*
X174571000Y-140790000D02*
G75*
G02*
X171929000Y-140790000I-1321000J0D01*
G01*
X171929000Y-140790000D02*
G75*
G02*
X174571000Y-140790000I1321000J0D01*
G01*
X230750000Y-30790000D02*
G75*
G02*
X226750000Y-30790000I-2000000J0D01*
G01*
X226750000Y-30790000D02*
G75*
G02*
X230750000Y-30790000I2000000J0D01*
G01*
X230502600Y-30790000D02*
G75*
G02*
X226997400Y-30790000I-1752600J0D01*
G01*
X226997400Y-30790000D02*
G75*
G02*
X230502600Y-30790000I1752600J0D01*
G01*
X230071000Y-30790000D02*
G75*
G02*
X227429000Y-30790000I-1321000J0D01*
G01*
X227429000Y-30790000D02*
G75*
G02*
X230071000Y-30790000I1321000J0D01*
G01*
X230750000Y-140790000D02*
G75*
G02*
X226750000Y-140790000I-2000000J0D01*
G01*
X226750000Y-140790000D02*
G75*
G02*
X230750000Y-140790000I2000000J0D01*
G01*
X230502600Y-140790000D02*
G75*
G02*
X226997400Y-140790000I-1752600J0D01*
G01*
X226997400Y-140790000D02*
G75*
G02*
X230502600Y-140790000I1752600J0D01*
G01*
X230071000Y-140790000D02*
G75*
G02*
X227429000Y-140790000I-1321000J0D01*
G01*
X227429000Y-140790000D02*
G75*
G02*
X230071000Y-140790000I1321000J0D01*
G01*
X168250000Y-141891543D02*
X168255851Y-142123076D01*
X168273219Y-142351566D01*
X168301820Y-142576728D01*
X168341372Y-142798282D01*
X168391592Y-143015943D01*
X168452199Y-143229431D01*
X168522909Y-143438463D01*
X168603441Y-143642755D01*
X168693511Y-143842027D01*
X168792839Y-144035995D01*
X168901140Y-144224378D01*
X169018134Y-144406892D01*
X169143537Y-144583255D01*
X169277068Y-144753186D01*
X169418443Y-144916401D01*
X169567381Y-145072619D01*
X169723598Y-145221557D01*
X169886814Y-145362932D01*
X170056744Y-145496462D01*
X170233108Y-145621865D01*
X170415622Y-145738859D01*
X170604005Y-145847160D01*
X170797973Y-145946488D01*
X170997244Y-146036559D01*
X171201537Y-146117090D01*
X171410569Y-146187801D01*
X171624056Y-146248407D01*
X171841718Y-146298627D01*
X172063272Y-146338179D01*
X172288434Y-146366780D01*
X172516924Y-146384148D01*
X172748458Y-146390000D01*
X172748458Y-25190000D02*
X172516924Y-25195851D01*
X172288434Y-25213219D01*
X172063272Y-25241820D01*
X171841718Y-25281372D01*
X171624056Y-25331592D01*
X171410569Y-25392199D01*
X171201537Y-25462909D01*
X170997244Y-25543441D01*
X170797973Y-25633511D01*
X170604005Y-25732839D01*
X170415622Y-25841140D01*
X170233108Y-25958134D01*
X170056744Y-26083537D01*
X169886814Y-26217068D01*
X169723598Y-26358443D01*
X169567381Y-26507381D01*
X169418443Y-26663598D01*
X169277068Y-26826814D01*
X169143537Y-26996744D01*
X169018134Y-27173108D01*
X168901140Y-27355622D01*
X168792839Y-27544005D01*
X168693511Y-27737973D01*
X168603441Y-27937244D01*
X168522909Y-28141537D01*
X168452199Y-28350569D01*
X168391592Y-28564056D01*
X168341372Y-28781718D01*
X168301820Y-29003272D01*
X168273219Y-29228434D01*
X168255851Y-29456924D01*
X168250000Y-29688458D01*
X173001200Y-33740000D02*
X173181281Y-33735448D01*
X173358995Y-33721940D01*
X173534122Y-33699695D01*
X173706441Y-33668932D01*
X173875734Y-33629872D01*
X174041780Y-33582734D01*
X174204360Y-33527737D01*
X174363254Y-33465101D01*
X174518243Y-33395046D01*
X174669107Y-33317791D01*
X174815627Y-33233557D01*
X174957582Y-33142562D01*
X175094754Y-33045026D01*
X175226922Y-32941169D01*
X175353868Y-32831211D01*
X175475370Y-32715370D01*
X175591211Y-32593868D01*
X175701169Y-32466922D01*
X175805026Y-32334754D01*
X175902562Y-32197582D01*
X175993557Y-32055627D01*
X176077791Y-31909107D01*
X176155046Y-31758243D01*
X176225101Y-31603254D01*
X176287737Y-31444360D01*
X176342734Y-31281780D01*
X176389872Y-31115734D01*
X176428932Y-30946441D01*
X176459695Y-30774122D01*
X176481940Y-30598995D01*
X176495448Y-30421281D01*
X176500000Y-30241200D01*
X173896758Y-34635559D02*
X174076839Y-34631007D01*
X174254553Y-34617499D01*
X174429680Y-34595254D01*
X174601999Y-34564491D01*
X174771292Y-34525431D01*
X174937338Y-34478293D01*
X175099918Y-34423296D01*
X175258812Y-34360660D01*
X175413801Y-34290605D01*
X175564666Y-34213350D01*
X175711185Y-34129115D01*
X175853141Y-34038120D01*
X175990312Y-33940585D01*
X176122481Y-33836728D01*
X176249426Y-33726769D01*
X176370929Y-33610929D01*
X176486769Y-33489426D01*
X176596728Y-33362481D01*
X176700585Y-33230312D01*
X176798120Y-33093141D01*
X176889115Y-32951185D01*
X176973350Y-32804666D01*
X177050605Y-32653801D01*
X177120660Y-32498812D01*
X177183296Y-32339918D01*
X177238293Y-32177338D01*
X177285431Y-32011292D01*
X177324491Y-31841999D01*
X177355254Y-31669680D01*
X177377499Y-31494553D01*
X177391007Y-31316839D01*
X177395559Y-31136758D01*
X176500000Y-141338801D02*
X176495448Y-141158719D01*
X176481940Y-140981005D01*
X176459695Y-140805878D01*
X176428932Y-140633559D01*
X176389872Y-140464266D01*
X176342734Y-140298220D01*
X176287737Y-140135640D01*
X176225101Y-139976746D01*
X176155046Y-139821757D01*
X176077791Y-139670892D01*
X175993557Y-139524373D01*
X175902562Y-139382417D01*
X175805026Y-139245246D01*
X175701169Y-139113077D01*
X175591211Y-138986132D01*
X175475370Y-138864629D01*
X175353868Y-138748789D01*
X175226922Y-138638830D01*
X175094754Y-138534973D01*
X174957582Y-138437438D01*
X174815627Y-138346443D01*
X174669107Y-138262208D01*
X174518243Y-138184953D01*
X174363254Y-138114898D01*
X174204360Y-138052262D01*
X174041780Y-137997265D01*
X173875734Y-137950127D01*
X173706441Y-137911067D01*
X173534122Y-137880304D01*
X173358995Y-137858059D01*
X173181281Y-137844551D01*
X173001200Y-137840000D01*
X177395559Y-140443243D02*
X177391007Y-140263161D01*
X177377499Y-140085447D01*
X177355254Y-139910320D01*
X177324491Y-139738001D01*
X177285431Y-139568708D01*
X177238293Y-139402662D01*
X177183296Y-139240082D01*
X177120660Y-139081188D01*
X177050605Y-138926199D01*
X176973350Y-138775334D01*
X176889115Y-138628815D01*
X176798120Y-138486859D01*
X176700585Y-138349688D01*
X176596728Y-138217519D01*
X176486769Y-138090574D01*
X176370929Y-137969071D01*
X176249426Y-137853231D01*
X176122481Y-137743272D01*
X175990312Y-137639415D01*
X175853141Y-137541880D01*
X175711185Y-137450885D01*
X175564666Y-137366650D01*
X175413801Y-137289395D01*
X175258812Y-137219340D01*
X175099918Y-137156704D01*
X174937338Y-137101707D01*
X174771292Y-137054569D01*
X174601999Y-137015509D01*
X174429680Y-136984746D01*
X174254553Y-136962501D01*
X174076839Y-136948993D01*
X173896758Y-136944442D01*
X224604442Y-31136758D02*
X224608993Y-31316839D01*
X224622501Y-31494553D01*
X224644746Y-31669680D01*
X224675509Y-31841999D01*
X224714569Y-32011292D01*
X224761707Y-32177338D01*
X224816704Y-32339918D01*
X224879340Y-32498812D01*
X224949395Y-32653801D01*
X225026650Y-32804666D01*
X225110885Y-32951185D01*
X225201880Y-33093141D01*
X225299415Y-33230312D01*
X225403272Y-33362481D01*
X225513231Y-33489426D01*
X225629071Y-33610929D01*
X225750574Y-33726769D01*
X225877519Y-33836728D01*
X226009688Y-33940585D01*
X226146859Y-34038120D01*
X226288815Y-34129115D01*
X226435334Y-34213350D01*
X226586199Y-34290605D01*
X226741188Y-34360660D01*
X226900082Y-34423296D01*
X227062662Y-34478293D01*
X227228708Y-34525431D01*
X227398001Y-34564491D01*
X227570320Y-34595254D01*
X227745447Y-34617499D01*
X227923161Y-34631007D01*
X228103243Y-34635559D01*
X225500000Y-30241200D02*
X225504551Y-30421281D01*
X225518059Y-30598995D01*
X225540304Y-30774122D01*
X225571067Y-30946441D01*
X225610127Y-31115734D01*
X225657265Y-31281780D01*
X225712262Y-31444360D01*
X225774898Y-31603254D01*
X225844953Y-31758243D01*
X225922208Y-31909107D01*
X226006443Y-32055627D01*
X226097438Y-32197582D01*
X226194973Y-32334754D01*
X226298830Y-32466922D01*
X226408789Y-32593868D01*
X226524629Y-32715370D01*
X226646132Y-32831211D01*
X226773077Y-32941169D01*
X226905246Y-33045026D01*
X227042417Y-33142562D01*
X227184373Y-33233557D01*
X227330892Y-33317791D01*
X227481757Y-33395046D01*
X227636746Y-33465101D01*
X227795640Y-33527737D01*
X227958220Y-33582734D01*
X228124266Y-33629872D01*
X228293559Y-33668932D01*
X228465878Y-33699695D01*
X228641005Y-33721940D01*
X228818719Y-33735448D01*
X228998801Y-33740000D01*
X228103243Y-136944442D02*
X227923161Y-136948993D01*
X227745447Y-136962501D01*
X227570320Y-136984746D01*
X227398001Y-137015509D01*
X227228708Y-137054569D01*
X227062662Y-137101707D01*
X226900082Y-137156704D01*
X226741188Y-137219340D01*
X226586199Y-137289395D01*
X226435334Y-137366650D01*
X226288815Y-137450885D01*
X226146859Y-137541880D01*
X226009688Y-137639415D01*
X225877519Y-137743272D01*
X225750574Y-137853231D01*
X225629071Y-137969071D01*
X225513231Y-138090574D01*
X225403272Y-138217519D01*
X225299415Y-138349688D01*
X225201880Y-138486859D01*
X225110885Y-138628815D01*
X225026650Y-138775334D01*
X224949395Y-138926199D01*
X224879340Y-139081188D01*
X224816704Y-139240082D01*
X224761707Y-139402662D01*
X224714569Y-139568708D01*
X224675509Y-139738001D01*
X224644746Y-139910320D01*
X224622501Y-140085447D01*
X224608993Y-140263161D01*
X224604442Y-140443243D01*
X228998801Y-137840000D02*
X228818719Y-137844551D01*
X228641005Y-137858059D01*
X228465878Y-137880304D01*
X228293559Y-137911067D01*
X228124266Y-137950127D01*
X227958220Y-137997265D01*
X227795640Y-138052262D01*
X227636746Y-138114898D01*
X227481757Y-138184953D01*
X227330892Y-138262208D01*
X227184373Y-138346443D01*
X227042417Y-138437438D01*
X226905246Y-138534973D01*
X226773077Y-138638830D01*
X226646132Y-138748789D01*
X226524629Y-138864629D01*
X226408789Y-138986132D01*
X226298830Y-139113077D01*
X226194973Y-139245246D01*
X226097438Y-139382417D01*
X226006443Y-139524373D01*
X225922208Y-139670892D01*
X225844953Y-139821757D01*
X225774898Y-139976746D01*
X225712262Y-140135640D01*
X225657265Y-140298220D01*
X225610127Y-140464266D01*
X225571067Y-140633559D01*
X225540304Y-140805878D01*
X225518059Y-140981005D01*
X225504551Y-141158719D01*
X225500000Y-141338801D01*
X229251543Y-146390000D02*
X229483076Y-146384148D01*
X229711566Y-146366780D01*
X229936728Y-146338179D01*
X230158282Y-146298627D01*
X230375943Y-146248407D01*
X230589431Y-146187801D01*
X230798463Y-146117090D01*
X231002755Y-146036559D01*
X231202027Y-145946488D01*
X231395995Y-145847160D01*
X231584378Y-145738859D01*
X231766892Y-145621865D01*
X231943255Y-145496462D01*
X232113186Y-145362932D01*
X232276401Y-145221557D01*
X232432619Y-145072619D01*
X232581557Y-144916401D01*
X232722932Y-144753186D01*
X232856462Y-144583255D01*
X232981865Y-144406892D01*
X233098859Y-144224378D01*
X233207160Y-144035995D01*
X233306488Y-143842027D01*
X233396559Y-143642755D01*
X233477090Y-143438463D01*
X233547801Y-143229431D01*
X233608407Y-143015943D01*
X233658627Y-142798282D01*
X233698179Y-142576728D01*
X233726780Y-142351566D01*
X233744148Y-142123076D01*
X233750000Y-141891543D01*
X233750000Y-29688458D02*
X233744148Y-29456924D01*
X233726780Y-29228434D01*
X233698179Y-29003272D01*
X233658627Y-28781718D01*
X233608407Y-28564056D01*
X233547801Y-28350569D01*
X233477090Y-28141537D01*
X233396559Y-27937244D01*
X233306488Y-27737973D01*
X233207160Y-27544005D01*
X233098859Y-27355622D01*
X232981865Y-27173108D01*
X232856462Y-26996744D01*
X232722932Y-26826814D01*
X232581557Y-26663598D01*
X232432619Y-26507381D01*
X232276401Y-26358443D01*
X232113186Y-26217068D01*
X231943255Y-26083537D01*
X231766892Y-25958134D01*
X231584378Y-25841140D01*
X231395995Y-25732839D01*
X231202027Y-25633511D01*
X231002755Y-25543441D01*
X230798463Y-25462909D01*
X230589431Y-25392199D01*
X230375943Y-25331592D01*
X230158282Y-25281372D01*
X229936728Y-25241820D01*
X229711566Y-25213219D01*
X229483076Y-25195851D01*
X229251543Y-25190000D01*
D13*
%TO.C,R12*%
X219270000Y-65130000D02*
X212730000Y-65130000D01*
X212730000Y-65130000D02*
X212730000Y-67870000D01*
X220040000Y-66500000D02*
X219270000Y-66500000D01*
X211960000Y-66500000D02*
X212730000Y-66500000D01*
X219270000Y-67870000D02*
X219270000Y-65130000D01*
X212730000Y-67870000D02*
X219270000Y-67870000D01*
%TO.C,LED2*%
X214670000Y-102955000D02*
X214670000Y-106045000D01*
X214670000Y-102955170D02*
G75*
G02*
X220220000Y-104499952I2560000J-1544830D01*
G01*
X220220000Y-104500048D02*
G75*
G02*
X214670000Y-106044830I-2990000J48D01*
G01*
X219730000Y-104500000D02*
G75*
G02*
X214730000Y-104500000I-2500000J0D01*
G01*
X214730000Y-104500000D02*
G75*
G02*
X219730000Y-104500000I2500000J0D01*
G01*
%TO.C,C14*%
X172000000Y-67280000D02*
X174740000Y-67280000D01*
X172000000Y-74720000D02*
X172000000Y-67280000D01*
X172000000Y-74720000D02*
X174740000Y-74720000D01*
X174740000Y-74720000D02*
X174740000Y-67280000D01*
%TO.C,LED1*%
X185265000Y-106045000D02*
X185265000Y-102955000D01*
X179715000Y-104499952D02*
G75*
G02*
X185265000Y-102955170I2990000J-48D01*
G01*
X185265000Y-106044830D02*
G75*
G02*
X179715000Y-104500048I-2560000J1544830D01*
G01*
X185205000Y-104500000D02*
G75*
G02*
X180205000Y-104500000I-2500000J0D01*
G01*
X180205000Y-104500000D02*
G75*
G02*
X185205000Y-104500000I2500000J0D01*
G01*
%TO.C,C1*%
X175000000Y-67280000D02*
X175000000Y-74720000D01*
X177740000Y-67280000D02*
X175000000Y-67280000D01*
X177740000Y-67280000D02*
X177740000Y-74720000D01*
X177740000Y-74720000D02*
X175000000Y-74720000D01*
%TO.C,FS2*%
X214670000Y-109670000D02*
X214670000Y-112330000D01*
X217270000Y-109670000D02*
X214670000Y-109670000D01*
X217270000Y-109670000D02*
X217270000Y-112330000D01*
X217270000Y-112330000D02*
X214670000Y-112330000D01*
X218540000Y-109670000D02*
X219870000Y-109670000D01*
X219870000Y-109670000D02*
X219870000Y-111000000D01*
%TO.C,C2*%
X178030000Y-67280000D02*
X178030000Y-74720000D01*
X180770000Y-67280000D02*
X178030000Y-67280000D01*
X180770000Y-67280000D02*
X180770000Y-74720000D01*
X180770000Y-74720000D02*
X178030000Y-74720000D01*
%TO.C,PWR1*%
X172170000Y-63020000D02*
X172170000Y-60420000D01*
X174830000Y-60420000D02*
X172170000Y-60420000D01*
X174830000Y-63020000D02*
X172170000Y-63020000D01*
X174830000Y-63020000D02*
X174830000Y-60420000D01*
X174830000Y-64290000D02*
X174830000Y-65620000D01*
X174830000Y-65620000D02*
X173500000Y-65620000D01*
%TO.C,U1*%
X199410000Y-65920000D02*
X199410000Y-76200000D01*
X199410000Y-76200000D02*
X204710000Y-76200000D01*
X201060000Y-65920000D02*
X199410000Y-65920000D01*
X204710000Y-65920000D02*
X203060000Y-65920000D01*
X204710000Y-76200000D02*
X204710000Y-65920000D01*
X203060000Y-65920000D02*
G75*
G02*
X201060000Y-65920000I-1000000J0D01*
G01*
%TO.C,C17*%
X222350000Y-76920000D02*
X222350000Y-74180000D01*
X229790000Y-74180000D02*
X222350000Y-74180000D01*
X229790000Y-76920000D02*
X222350000Y-76920000D01*
X229790000Y-76920000D02*
X229790000Y-74180000D01*
%TO.C,J_IN1*%
X187170000Y-59830000D02*
X187170000Y-58500000D01*
X188500000Y-59830000D02*
X187170000Y-59830000D01*
X189770000Y-57170000D02*
X192370000Y-57170000D01*
X189770000Y-59830000D02*
X189770000Y-57170000D01*
X189770000Y-59830000D02*
X192370000Y-59830000D01*
X192370000Y-59830000D02*
X192370000Y-57170000D01*
%TO.C,R4*%
X186330000Y-72650000D02*
X187100000Y-72650000D01*
X187100000Y-71280000D02*
X187100000Y-74020000D01*
X187100000Y-74020000D02*
X193640000Y-74020000D01*
X193640000Y-71280000D02*
X187100000Y-71280000D01*
X193640000Y-74020000D02*
X193640000Y-71280000D01*
X194410000Y-72650000D02*
X193640000Y-72650000D01*
%TO.C,R13*%
X209620000Y-74270000D02*
X209620000Y-67730000D01*
X209620000Y-67730000D02*
X206880000Y-67730000D01*
X208250000Y-75040000D02*
X208250000Y-74270000D01*
X208250000Y-66960000D02*
X208250000Y-67730000D01*
X206880000Y-74270000D02*
X209620000Y-74270000D01*
X206880000Y-67730000D02*
X206880000Y-74270000D01*
%TO.C,R2*%
X226630000Y-102810000D02*
X226630000Y-109350000D01*
X226630000Y-109350000D02*
X229370000Y-109350000D01*
X228000000Y-102040000D02*
X228000000Y-102810000D01*
X228000000Y-110120000D02*
X228000000Y-109350000D01*
X229370000Y-102810000D02*
X226630000Y-102810000D01*
X229370000Y-109350000D02*
X229370000Y-102810000D01*
%TO.C,R9*%
X212830000Y-70870000D02*
X219370000Y-70870000D01*
X219370000Y-70870000D02*
X219370000Y-68130000D01*
X212060000Y-69500000D02*
X212830000Y-69500000D01*
X220140000Y-69500000D02*
X219370000Y-69500000D01*
X212830000Y-68130000D02*
X212830000Y-70870000D01*
X219370000Y-68130000D02*
X212830000Y-68130000D01*
%TO.C,R10*%
X219270000Y-74130000D02*
X212730000Y-74130000D01*
X212730000Y-74130000D02*
X212730000Y-76870000D01*
X220040000Y-75500000D02*
X219270000Y-75500000D01*
X211960000Y-75500000D02*
X212730000Y-75500000D01*
X219270000Y-76870000D02*
X219270000Y-74130000D01*
X212730000Y-76870000D02*
X219270000Y-76870000D01*
%TO.C,R5*%
X186330000Y-75650000D02*
X187100000Y-75650000D01*
X187100000Y-74280000D02*
X187100000Y-77020000D01*
X187100000Y-77020000D02*
X193640000Y-77020000D01*
X193640000Y-74280000D02*
X187100000Y-74280000D01*
X193640000Y-77020000D02*
X193640000Y-74280000D01*
X194410000Y-75650000D02*
X193640000Y-75650000D01*
%TD*%
M02*
