%TF.GenerationSoftware,KiCad,Pcbnew,8.0.7*%
%TF.CreationDate,2025-02-19T13:31:19-05:00*%
%TF.ProjectId,OD1,4f44312e-6b69-4636-9164-5f7063625858,rev?*%
%TF.SameCoordinates,Original*%
%TF.FileFunction,Copper,L1,Top*%
%TF.FilePolarity,Positive*%
%FSLAX46Y46*%
G04 Gerber Fmt 4.6, Leading zero omitted, Abs format (unit mm)*
G04 Created by KiCad (PCBNEW 8.0.7) date 2025-02-19 13:31:19*
%MOMM*%
%LPD*%
G01*
G04 APERTURE LIST*
%TA.AperFunction,ComponentPad*%
%ADD10R,2.500000X2.500000*%
%TD*%
%TA.AperFunction,ComponentPad*%
%ADD11C,2.500000*%
%TD*%
%TA.AperFunction,ComponentPad*%
%ADD12C,2.200000*%
%TD*%
%TA.AperFunction,ComponentPad*%
%ADD13R,2.200000X2.200000*%
%TD*%
%TA.AperFunction,ComponentPad*%
%ADD14O,2.200000X2.200000*%
%TD*%
%TA.AperFunction,ComponentPad*%
%ADD15C,1.600000*%
%TD*%
%TA.AperFunction,ComponentPad*%
%ADD16O,1.600000X1.600000*%
%TD*%
%TA.AperFunction,ComponentPad*%
%ADD17R,1.600000X1.600000*%
%TD*%
%TA.AperFunction,ComponentPad*%
%ADD18R,1.050000X1.500000*%
%TD*%
%TA.AperFunction,ComponentPad*%
%ADD19O,1.050000X1.500000*%
%TD*%
%TA.AperFunction,ComponentPad*%
%ADD20R,1.700000X1.700000*%
%TD*%
%TA.AperFunction,ComponentPad*%
%ADD21O,1.700000X1.700000*%
%TD*%
%TA.AperFunction,ComponentPad*%
%ADD22C,1.700000*%
%TD*%
%TA.AperFunction,ComponentPad*%
%ADD23R,1.800000X1.800000*%
%TD*%
%TA.AperFunction,ComponentPad*%
%ADD24C,1.800000*%
%TD*%
%TA.AperFunction,ViaPad*%
%ADD25C,0.600000*%
%TD*%
%TA.AperFunction,Conductor*%
%ADD26C,0.200000*%
%TD*%
%TA.AperFunction,Conductor*%
%ADD27C,0.150000*%
%TD*%
G04 APERTURE END LIST*
D10*
%TO.P,RV1,1,1*%
%TO.N,GND*%
X183500000Y-58500000D03*
D11*
%TO.P,RV1,2,2*%
%TO.N,/P1*%
X178500000Y-58500000D03*
%TO.P,RV1,3,3*%
%TO.N,/3v3_A*%
X173500000Y-58500000D03*
%TD*%
D10*
%TO.P,RV3,1,1*%
%TO.N,GND*%
X228500000Y-58500000D03*
D11*
%TO.P,RV3,2,2*%
%TO.N,/P3*%
X223500000Y-58500000D03*
%TO.P,RV3,3,3*%
%TO.N,/3v3_A*%
X218500000Y-58500000D03*
%TD*%
D12*
%TO.P,SW3,1,A*%
%TO.N,unconnected-(SW3-A-Pad1)*%
X193500000Y-98000000D03*
%TO.P,SW3,2,B*%
%TO.N,/SW3A*%
X193500000Y-93300000D03*
%TO.P,SW3,3,C*%
%TO.N,GND*%
X193500000Y-88600000D03*
%TD*%
D10*
%TO.P,RV5,1,1*%
%TO.N,GND*%
X206000000Y-83500000D03*
D11*
%TO.P,RV5,2,2*%
%TO.N,/P5*%
X201000000Y-83500000D03*
%TO.P,RV5,3,3*%
%TO.N,/3v3_A*%
X196000000Y-83500000D03*
%TD*%
D12*
%TO.P,SW2,1,A*%
%TO.N,unconnected-(SW2-A-Pad1)*%
X208500000Y-98000000D03*
%TO.P,SW2,2,B*%
%TO.N,/SW2A*%
X208500000Y-93300000D03*
%TO.P,SW2,3,C*%
%TO.N,GND*%
X208500000Y-88600000D03*
%TD*%
D13*
%TO.P,D1,1,K*%
%TO.N,VCC*%
X185290000Y-66550000D03*
D14*
%TO.P,D1,2,A*%
%TO.N,Net-(D1-A)*%
X195450000Y-66550000D03*
%TD*%
D15*
%TO.P,R11,1*%
%TO.N,GND*%
X211000000Y-72500000D03*
D16*
%TO.P,R11,2*%
%TO.N,Net-(U1B-+)*%
X221160000Y-72500000D03*
%TD*%
D10*
%TO.P,RV6,1,1*%
%TO.N,GND*%
X228500000Y-83500000D03*
D11*
%TO.P,RV6,2,2*%
%TO.N,/P6*%
X223500000Y-83500000D03*
%TO.P,RV6,3,3*%
%TO.N,/3v3_A*%
X218500000Y-83500000D03*
%TD*%
D15*
%TO.P,C15,1*%
%TO.N,GND*%
X198250000Y-97000000D03*
%TO.P,C15,2*%
%TO.N,VCC*%
X198250000Y-92000000D03*
%TD*%
D17*
%TO.P,C13,1*%
%TO.N,VCC*%
X201000000Y-101500000D03*
D15*
%TO.P,C13,2*%
%TO.N,GND*%
X201000000Y-105000000D03*
%TD*%
%TO.P,C8,1*%
%TO.N,Net-(C7-Pad1)*%
X228500000Y-72550000D03*
%TO.P,C8,2*%
%TO.N,Net-(U1B-+)*%
X223500000Y-72550000D03*
%TD*%
D10*
%TO.P,RV2,1,1*%
%TO.N,GND*%
X206000000Y-58500000D03*
D11*
%TO.P,RV2,2,2*%
%TO.N,/P2*%
X201000000Y-58500000D03*
%TO.P,RV2,3,3*%
%TO.N,/3v3_A*%
X196000000Y-58500000D03*
%TD*%
D15*
%TO.P,C7,1*%
%TO.N,Net-(C7-Pad1)*%
X223500000Y-69500000D03*
%TO.P,C7,2*%
%TO.N,GND*%
X228500000Y-69500000D03*
%TD*%
%TO.P,C9,1*%
%TO.N,Net-(C9-Pad1)*%
X223570000Y-66550000D03*
%TO.P,C9,2*%
%TO.N,/OUT*%
X228570000Y-66550000D03*
%TD*%
D12*
%TO.P,SW4,1,A*%
%TO.N,unconnected-(SW4-A-Pad1)*%
X178500000Y-98000000D03*
%TO.P,SW4,2,B*%
%TO.N,/SW4A*%
X178500000Y-93300000D03*
%TO.P,SW4,3,C*%
%TO.N,GND*%
X178500000Y-88600000D03*
%TD*%
D18*
%TO.P,U2,1,VO*%
%TO.N,/+5V*%
X202270000Y-87640000D03*
D19*
%TO.P,U2,2,GND*%
%TO.N,GND*%
X201000000Y-87640000D03*
%TO.P,U2,3,VI*%
%TO.N,VCC*%
X199730000Y-87640000D03*
%TD*%
D20*
%TO.P,J_OUT1,1,Pin_1*%
%TO.N,/OUT*%
X213275000Y-58500000D03*
D21*
%TO.P,J_OUT1,2,Pin_2*%
%TO.N,GND*%
X210735000Y-58500000D03*
%TD*%
D20*
%TO.P,A1,1,USB_ID*%
%TO.N,unconnected-(A1-USB_ID-Pad1)*%
X177390000Y-78550000D03*
D22*
%TO.P,A1,2,SD_DATA_3*%
%TO.N,unconnected-(A1-SD_DATA_3-Pad2)*%
X179930000Y-78550000D03*
%TO.P,A1,3,SD_DATA_2*%
%TO.N,unconnected-(A1-SD_DATA_2-Pad3)*%
X182470000Y-78550000D03*
%TO.P,A1,4,SD_DATA_1*%
%TO.N,/FS1_L*%
X185010000Y-78550000D03*
%TO.P,A1,5,SD_DATA_0*%
%TO.N,/FS2_L*%
X187550000Y-78550000D03*
%TO.P,A1,6,SD_CMD*%
%TO.N,unconnected-(A1-SD_CMD-Pad6)*%
X190090000Y-78550000D03*
%TO.P,A1,7,SD_CLK*%
%TO.N,unconnected-(A1-SD_CLK-Pad7)*%
X192630000Y-78550000D03*
%TO.P,A1,8,SPI1_CS*%
%TO.N,/SW4A*%
X195170000Y-78550000D03*
%TO.P,A1,9,SPI1_SCK*%
%TO.N,/SW3A*%
X197710000Y-78550000D03*
%TO.P,A1,10,SPI1_POCI*%
%TO.N,/SW2A*%
X200250000Y-78550000D03*
%TO.P,A1,11,SPI1_PICO*%
%TO.N,/SW1A*%
X202790000Y-78550000D03*
%TO.P,A1,12,I2C1_SCL*%
%TO.N,unconnected-(A1-I2C1_SCL-Pad12)*%
X205330000Y-78550000D03*
%TO.P,A1,13,I2C1_SDA*%
%TO.N,unconnected-(A1-I2C1_SDA-Pad13)*%
X207870000Y-78550000D03*
%TO.P,A1,14,USART1_TX*%
%TO.N,unconnected-(A1-USART1_TX-Pad14)*%
X210410000Y-78550000D03*
%TO.P,A1,15,USART1_RX*%
%TO.N,unconnected-(A1-USART1_RX-Pad15)*%
X212950000Y-78550000D03*
%TO.P,A1,16,AUDIO_IN_1*%
%TO.N,/BUFFER_IN*%
X215490000Y-78550000D03*
%TO.P,A1,17,AUDIO_IN_2*%
%TO.N,unconnected-(A1-AUDIO_IN_2-Pad17)*%
X218030000Y-78550000D03*
%TO.P,A1,18,AUDIO_OUT_1*%
%TO.N,/BUFFER_OUT*%
X220570000Y-78550000D03*
%TO.P,A1,19,AUDIO_OUT_2*%
%TO.N,unconnected-(A1-AUDIO_OUT_2-Pad19)*%
X223110000Y-78550000D03*
%TO.P,A1,20,AGND*%
%TO.N,GND*%
X225650000Y-78550000D03*
%TO.P,A1,21,3V3_A*%
%TO.N,/3v3_A*%
X225650000Y-63310000D03*
%TO.P,A1,22,ADC_0*%
%TO.N,/P3*%
X223110000Y-63310000D03*
%TO.P,A1,23,ADC_1*%
%TO.N,/P2*%
X220570000Y-63310000D03*
%TO.P,A1,24,ADC_2*%
%TO.N,/P1*%
X218030000Y-63310000D03*
%TO.P,A1,25,ADC_3*%
%TO.N,/P6*%
X215490000Y-63310000D03*
%TO.P,A1,26,ADC_4*%
%TO.N,/P5*%
X212950000Y-63310000D03*
%TO.P,A1,27,ADC_5*%
%TO.N,/P4*%
X210410000Y-63310000D03*
%TO.P,A1,28,ADC_6*%
%TO.N,unconnected-(A1-ADC_6-Pad28)*%
X207870000Y-63310000D03*
%TO.P,A1,29,DAC_OUT2*%
%TO.N,/LED2*%
X205330000Y-63310000D03*
%TO.P,A1,30,DAC_OUT1*%
%TO.N,/LED1*%
X202790000Y-63310000D03*
%TO.P,A1,31,SAI2_MCLK*%
%TO.N,unconnected-(A1-SAI2_MCLK-Pad31)*%
X200250000Y-63310000D03*
%TO.P,A1,32,SAI2_SD_B*%
%TO.N,unconnected-(A1-SAI2_SD_B-Pad32)*%
X197710000Y-63310000D03*
%TO.P,A1,33,SAI2_SD_A*%
%TO.N,unconnected-(A1-SAI2_SD_A-Pad33)*%
X195170000Y-63310000D03*
%TO.P,A1,34,SAI2_FS*%
%TO.N,unconnected-(A1-SAI2_FS-Pad34)*%
X192630000Y-63310000D03*
%TO.P,A1,35,SAI2_SCK*%
%TO.N,unconnected-(A1-SAI2_SCK-Pad35)*%
X190090000Y-63310000D03*
%TO.P,A1,36,USB_D_-*%
%TO.N,unconnected-(A1-USB_D_--Pad36)*%
X187550000Y-63310000D03*
%TO.P,A1,37,USB_D_+*%
%TO.N,unconnected-(A1-USB_D_+-Pad37)*%
X185010000Y-63310000D03*
%TO.P,A1,38,3V3_D*%
%TO.N,unconnected-(A1-3V3_D-Pad38)*%
X182470000Y-63310000D03*
%TO.P,A1,39,VIN*%
%TO.N,VCC*%
X179930000Y-63310000D03*
%TO.P,A1,40,DGND*%
%TO.N,GND*%
X177390000Y-63310000D03*
%TD*%
D15*
%TO.P,R1,1*%
%TO.N,Net-(LED1-A)*%
X174000000Y-111080000D03*
D16*
%TO.P,R1,2*%
%TO.N,/LED1*%
X174000000Y-100920000D03*
%TD*%
D15*
%TO.P,R3,1*%
%TO.N,Net-(C2-Pad2)*%
X185290000Y-69650000D03*
D16*
%TO.P,R3,2*%
%TO.N,Net-(U1A-+)*%
X195450000Y-69650000D03*
%TD*%
D15*
%TO.P,C3,1*%
%TO.N,Net-(U1A-+)*%
X182370000Y-73500000D03*
%TO.P,C3,2*%
%TO.N,GND*%
X182370000Y-68500000D03*
%TD*%
D10*
%TO.P,RV4,1,1*%
%TO.N,GND*%
X183500000Y-83500000D03*
D11*
%TO.P,RV4,2,2*%
%TO.N,/P4*%
X178500000Y-83500000D03*
%TO.P,RV4,3,3*%
%TO.N,/3v3_A*%
X173500000Y-83500000D03*
%TD*%
D20*
%TO.P,FS1,1,1*%
%TO.N,/FS1_L*%
X184000000Y-111000000D03*
D21*
%TO.P,FS1,2,2*%
%TO.N,GND*%
X181460000Y-111000000D03*
%TD*%
D15*
%TO.P,C16,1*%
%TO.N,GND*%
X203750000Y-97000000D03*
%TO.P,C16,2*%
%TO.N,/+5V*%
X203750000Y-92000000D03*
%TD*%
%TO.P,R12,1*%
%TO.N,Net-(U1B--)*%
X210920000Y-66500000D03*
D16*
%TO.P,R12,2*%
%TO.N,Net-(C9-Pad1)*%
X221080000Y-66500000D03*
%TD*%
D23*
%TO.P,LED2,1,K*%
%TO.N,GND*%
X215960000Y-104500000D03*
D24*
%TO.P,LED2,2,A*%
%TO.N,Net-(LED2-A)*%
X218500000Y-104500000D03*
%TD*%
D15*
%TO.P,C14,1*%
%TO.N,GND*%
X173370000Y-73500000D03*
%TO.P,C14,2*%
%TO.N,VCC*%
X173370000Y-68500000D03*
%TD*%
D23*
%TO.P,LED1,1,K*%
%TO.N,GND*%
X183975000Y-104500000D03*
D24*
%TO.P,LED1,2,A*%
%TO.N,Net-(LED1-A)*%
X181435000Y-104500000D03*
%TD*%
D15*
%TO.P,C1,1*%
%TO.N,/IN*%
X176370000Y-68500000D03*
%TO.P,C1,2*%
%TO.N,GND*%
X176370000Y-73500000D03*
%TD*%
D20*
%TO.P,FS2,1,1*%
%TO.N,/FS2_L*%
X218540000Y-111000000D03*
D21*
%TO.P,FS2,2,2*%
%TO.N,GND*%
X216000000Y-111000000D03*
%TD*%
D15*
%TO.P,C2,1*%
%TO.N,/IN*%
X179400000Y-68500000D03*
%TO.P,C2,2*%
%TO.N,Net-(C2-Pad2)*%
X179400000Y-73500000D03*
%TD*%
D20*
%TO.P,PWR1,1*%
%TO.N,Net-(D1-A)*%
X173500000Y-64290000D03*
D21*
%TO.P,PWR1,2*%
%TO.N,GND*%
X173500000Y-61750000D03*
%TD*%
D17*
%TO.P,U1,1*%
%TO.N,/BUFFER_IN*%
X198250000Y-67250000D03*
D16*
%TO.P,U1,2,-*%
X198250000Y-69790000D03*
%TO.P,U1,3,+*%
%TO.N,Net-(U1A-+)*%
X198250000Y-72330000D03*
%TO.P,U1,4,V-*%
%TO.N,GND*%
X198250000Y-74870000D03*
%TO.P,U1,5,+*%
%TO.N,Net-(U1B-+)*%
X205870000Y-74870000D03*
%TO.P,U1,6,-*%
%TO.N,Net-(U1B--)*%
X205870000Y-72330000D03*
%TO.P,U1,7*%
X205870000Y-69790000D03*
%TO.P,U1,8,V+*%
%TO.N,/+5V*%
X205870000Y-67250000D03*
%TD*%
D15*
%TO.P,C17,1*%
%TO.N,GND*%
X228570000Y-75550000D03*
%TO.P,C17,2*%
%TO.N,/+5V*%
X223570000Y-75550000D03*
%TD*%
D20*
%TO.P,J_IN1,1,Pin_1*%
%TO.N,/IN*%
X188500000Y-58500000D03*
D21*
%TO.P,J_IN1,2,Pin_2*%
%TO.N,GND*%
X191040000Y-58500000D03*
%TD*%
D15*
%TO.P,R4,1*%
%TO.N,Net-(U1A-+)*%
X185290000Y-72650000D03*
D16*
%TO.P,R4,2*%
%TO.N,/+5V*%
X195450000Y-72650000D03*
%TD*%
%TO.P,R13,2*%
%TO.N,/OUT*%
X208250000Y-65920000D03*
D15*
%TO.P,R13,1*%
%TO.N,GND*%
X208250000Y-76080000D03*
%TD*%
%TO.P,R2,1*%
%TO.N,Net-(LED2-A)*%
X228000000Y-111160000D03*
D16*
%TO.P,R2,2*%
%TO.N,/LED2*%
X228000000Y-101000000D03*
%TD*%
D15*
%TO.P,R9,1*%
%TO.N,/BUFFER_OUT*%
X221180000Y-69500000D03*
D16*
%TO.P,R9,2*%
%TO.N,Net-(C7-Pad1)*%
X211020000Y-69500000D03*
%TD*%
D12*
%TO.P,SW1,1,A*%
%TO.N,unconnected-(SW1-A-Pad1)*%
X223500000Y-98000000D03*
%TO.P,SW1,2,B*%
%TO.N,/SW1A*%
X223500000Y-93300000D03*
%TO.P,SW1,3,C*%
%TO.N,GND*%
X223500000Y-88600000D03*
%TD*%
D16*
%TO.P,R10,2*%
%TO.N,/+5V*%
X210920000Y-75500000D03*
D15*
%TO.P,R10,1*%
%TO.N,Net-(U1B-+)*%
X221080000Y-75500000D03*
%TD*%
%TO.P,R5,1*%
%TO.N,GND*%
X185290000Y-75650000D03*
D16*
%TO.P,R5,2*%
%TO.N,Net-(U1A-+)*%
X195450000Y-75650000D03*
%TD*%
D25*
%TO.N,GND*%
X187500000Y-65500000D03*
X187000000Y-61500000D03*
X180500000Y-61500000D03*
%TD*%
D26*
%TO.N,GND*%
X192590000Y-60050000D02*
X191040000Y-58500000D01*
X209185000Y-60050000D02*
X192590000Y-60050000D01*
X210735000Y-58500000D02*
X209185000Y-60050000D01*
X181842032Y-57350000D02*
X177442032Y-61750000D01*
X177442032Y-61750000D02*
X173500000Y-61750000D01*
X189890000Y-57350000D02*
X181842032Y-57350000D01*
X191040000Y-58500000D02*
X189890000Y-57350000D01*
X179200000Y-61500000D02*
X177390000Y-63310000D01*
X180500000Y-61500000D02*
X179200000Y-61500000D01*
X186400000Y-64400000D02*
X187500000Y-65500000D01*
X186400000Y-62100000D02*
X186400000Y-64400000D01*
X187000000Y-61500000D02*
X186400000Y-62100000D01*
X229600000Y-74520000D02*
X228570000Y-75550000D01*
X229600000Y-70600000D02*
X229600000Y-74520000D01*
X228500000Y-69500000D02*
X229600000Y-70600000D01*
X229670000Y-68330000D02*
X228500000Y-69500000D01*
X229670000Y-59670000D02*
X229670000Y-68330000D01*
X228500000Y-58500000D02*
X229670000Y-59670000D01*
%TO.N,/+5V*%
X207794365Y-74980000D02*
X210400000Y-74980000D01*
X206774365Y-76000000D02*
X207794365Y-74980000D01*
X204770000Y-75325635D02*
X205444365Y-76000000D01*
X204770000Y-68350000D02*
X204770000Y-75325635D01*
X205444365Y-76000000D02*
X206774365Y-76000000D01*
X205870000Y-67250000D02*
X204770000Y-68350000D01*
X210400000Y-74980000D02*
X210920000Y-75500000D01*
%TO.N,/LED1*%
X201640000Y-64460000D02*
X202790000Y-63310000D01*
X191640000Y-64460000D02*
X201640000Y-64460000D01*
X182825635Y-67400000D02*
X183975635Y-68550000D01*
X187550000Y-68550000D02*
X191640000Y-64460000D01*
X181914365Y-67400000D02*
X182825635Y-67400000D01*
X181270000Y-68044365D02*
X181914365Y-67400000D01*
X178300000Y-71925635D02*
X181270000Y-68955635D01*
X178300000Y-73955635D02*
X178300000Y-71925635D01*
X181270000Y-68955635D02*
X181270000Y-68044365D01*
X178540000Y-79700000D02*
X178540000Y-74195635D01*
X176300000Y-81940000D02*
X178540000Y-79700000D01*
X178540000Y-74195635D02*
X178300000Y-73955635D01*
X176300000Y-98620000D02*
X176300000Y-81940000D01*
X183975635Y-68550000D02*
X187550000Y-68550000D01*
X174000000Y-100920000D02*
X176300000Y-98620000D01*
%TO.N,/P4*%
X210410000Y-65315635D02*
X210410000Y-63310000D01*
X208705635Y-67020000D02*
X210410000Y-65315635D01*
X207286346Y-67020000D02*
X208705635Y-67020000D01*
X205266346Y-65000000D02*
X207286346Y-67020000D01*
X192469670Y-65000000D02*
X205266346Y-65000000D01*
X186469670Y-71000000D02*
X192469670Y-65000000D01*
X183314365Y-71000000D02*
X186469670Y-71000000D01*
X181080000Y-80920000D02*
X181080000Y-73234365D01*
X178500000Y-83500000D02*
X181080000Y-80920000D01*
X181080000Y-73234365D02*
X183314365Y-71000000D01*
%TO.N,/SW4A*%
X193620000Y-77000000D02*
X195170000Y-78550000D01*
X183860000Y-78073654D02*
X184933654Y-77000000D01*
X181950000Y-80936346D02*
X183860000Y-79026346D01*
X181950000Y-89850000D02*
X181950000Y-80936346D01*
X183860000Y-79026346D02*
X183860000Y-78073654D01*
X184933654Y-77000000D02*
X193620000Y-77000000D01*
X178500000Y-93300000D02*
X181950000Y-89850000D01*
%TO.N,/FS1_L*%
X185175000Y-78715000D02*
X185010000Y-78550000D01*
X185175000Y-109825000D02*
X185175000Y-78715000D01*
X184000000Y-111000000D02*
X185175000Y-109825000D01*
%TO.N,/FS2_L*%
X187550000Y-89550000D02*
X187550000Y-78550000D01*
X206540000Y-99000000D02*
X197000000Y-99000000D01*
X197000000Y-99000000D02*
X187550000Y-89550000D01*
X218540000Y-111000000D02*
X206540000Y-99000000D01*
%TO.N,/SW3A*%
X203095000Y-83402968D02*
X203095000Y-88690000D01*
X198242032Y-78550000D02*
X203095000Y-83402968D01*
X203095000Y-88690000D02*
X201785000Y-90000000D01*
X201785000Y-90000000D02*
X196800000Y-90000000D01*
X196800000Y-90000000D02*
X193500000Y-93300000D01*
X197710000Y-78550000D02*
X198242032Y-78550000D01*
%TO.N,/SW2A*%
X201800000Y-80100000D02*
X200250000Y-78550000D01*
X209900000Y-91900000D02*
X209900000Y-84300000D01*
X209900000Y-84300000D02*
X205700000Y-80100000D01*
X208500000Y-93300000D02*
X209900000Y-91900000D01*
X205700000Y-80100000D02*
X201800000Y-80100000D01*
%TO.N,/SW1A*%
X203940000Y-79700000D02*
X202790000Y-78550000D01*
X209900000Y-79700000D02*
X203940000Y-79700000D01*
X223500000Y-93300000D02*
X209900000Y-79700000D01*
%TO.N,/+5V*%
X194350000Y-73750000D02*
X195450000Y-72650000D01*
X194350000Y-76105635D02*
X194350000Y-73750000D01*
X195244365Y-77000000D02*
X194350000Y-76105635D01*
X195246346Y-77000000D02*
X195244365Y-77000000D01*
X196320000Y-81465000D02*
X196320000Y-78073654D01*
X196320000Y-78073654D02*
X195246346Y-77000000D01*
X202270000Y-87415000D02*
X196320000Y-81465000D01*
X202270000Y-87640000D02*
X202270000Y-87415000D01*
D27*
%TO.N,Net-(LED1-A)*%
X174855000Y-111080000D02*
X174000000Y-111080000D01*
X181435000Y-104500000D02*
X174855000Y-111080000D01*
%TO.N,Net-(LED2-A)*%
X225160000Y-111160000D02*
X228000000Y-111160000D01*
X218500000Y-104500000D02*
X225160000Y-111160000D01*
%TO.N,/P3*%
X223110000Y-58890000D02*
X223500000Y-58500000D01*
X223110000Y-63310000D02*
X223110000Y-58890000D01*
%TO.N,/BUFFER_IN*%
X198250000Y-69790000D02*
X205615000Y-77155000D01*
X205615000Y-77155000D02*
X214095000Y-77155000D01*
X214095000Y-77155000D02*
X215490000Y-78550000D01*
X198250000Y-69790000D02*
X198250000Y-67250000D01*
%TO.N,Net-(U1A-+)*%
X198250000Y-72850000D02*
X198250000Y-72330000D01*
X195450000Y-75650000D02*
X198250000Y-72850000D01*
X188350000Y-69650000D02*
X195450000Y-69650000D01*
X185350000Y-72650000D02*
X188350000Y-69650000D01*
X185290000Y-72650000D02*
X185350000Y-72650000D01*
X198130000Y-72330000D02*
X198250000Y-72330000D01*
X195450000Y-69650000D02*
X198130000Y-72330000D01*
%TO.N,/IN*%
X181345000Y-62844009D02*
X183189009Y-61000000D01*
X186000000Y-61000000D02*
X188500000Y-58500000D01*
X181345000Y-66555000D02*
X181345000Y-62844009D01*
X179400000Y-68500000D02*
X181345000Y-66555000D01*
X183189009Y-61000000D02*
X186000000Y-61000000D01*
%TO.N,Net-(C2-Pad2)*%
X183250000Y-69650000D02*
X185290000Y-69650000D01*
X179400000Y-73500000D02*
X183250000Y-69650000D01*
%TO.N,/IN*%
X176370000Y-68500000D02*
X179400000Y-68500000D01*
%TO.N,Net-(U1A-+)*%
X184440000Y-73500000D02*
X185290000Y-72650000D01*
X182370000Y-73500000D02*
X184440000Y-73500000D01*
%TO.N,Net-(C7-Pad1)*%
X222425000Y-68425000D02*
X223500000Y-69500000D01*
X211020000Y-69500000D02*
X212095000Y-68425000D01*
X212095000Y-68425000D02*
X222425000Y-68425000D01*
%TO.N,/BUFFER_OUT*%
X223390280Y-77250000D02*
X221870000Y-77250000D01*
X221870000Y-77250000D02*
X220570000Y-78550000D01*
X224645000Y-75995280D02*
X223390280Y-77250000D01*
X224645000Y-72174720D02*
X224645000Y-75995280D01*
X221970280Y-69500000D02*
X224645000Y-72174720D01*
X221180000Y-69500000D02*
X221970280Y-69500000D01*
%TO.N,Net-(C7-Pad1)*%
X226550000Y-72550000D02*
X223500000Y-69500000D01*
X228500000Y-72550000D02*
X226550000Y-72550000D01*
%TO.N,/+5V*%
X222545000Y-76575000D02*
X211995000Y-76575000D01*
X223570000Y-75550000D02*
X222545000Y-76575000D01*
X211995000Y-76575000D02*
X210920000Y-75500000D01*
%TO.N,Net-(U1B-+)*%
X221210000Y-72550000D02*
X221160000Y-72500000D01*
X223500000Y-72550000D02*
X221210000Y-72550000D01*
X221080000Y-72580000D02*
X221160000Y-72500000D01*
X221080000Y-75500000D02*
X221080000Y-72580000D01*
X219155000Y-73575000D02*
X221080000Y-75500000D01*
X207165000Y-73575000D02*
X219155000Y-73575000D01*
X205870000Y-74870000D02*
X207165000Y-73575000D01*
%TO.N,Net-(U1B--)*%
X205870000Y-72330000D02*
X205870000Y-69790000D01*
X210920000Y-66500000D02*
X207630000Y-69790000D01*
X207630000Y-69790000D02*
X205870000Y-69790000D01*
%TO.N,Net-(C9-Pad1)*%
X223520000Y-66500000D02*
X223570000Y-66550000D01*
X221080000Y-66500000D02*
X223520000Y-66500000D01*
%TO.N,/OUT*%
X228570000Y-64820000D02*
X228570000Y-66550000D01*
X226750000Y-59593324D02*
X226750000Y-63000000D01*
X223731676Y-56575000D02*
X226750000Y-59593324D01*
X215200000Y-56575000D02*
X223731676Y-56575000D01*
X213275000Y-58500000D02*
X215200000Y-56575000D01*
X226750000Y-63000000D02*
X228570000Y-64820000D01*
X209049999Y-65120001D02*
X209049999Y-62725001D01*
X209049999Y-62725001D02*
X213275000Y-58500000D01*
X208250000Y-65920000D02*
X209049999Y-65120001D01*
%TD*%
%TA.AperFunction,Conductor*%
%TO.N,GND*%
G36*
X214228297Y-56520185D02*
G01*
X214274052Y-56572989D01*
X214283996Y-56642147D01*
X214254971Y-56705703D01*
X214248943Y-56712176D01*
X213981352Y-56979767D01*
X213847938Y-57113181D01*
X213786615Y-57146666D01*
X213760257Y-57149500D01*
X212377129Y-57149500D01*
X212377123Y-57149501D01*
X212317516Y-57155908D01*
X212182671Y-57206202D01*
X212182664Y-57206206D01*
X212067455Y-57292452D01*
X212067452Y-57292455D01*
X211981206Y-57407664D01*
X211981202Y-57407671D01*
X211931997Y-57539598D01*
X211890126Y-57595532D01*
X211824661Y-57619949D01*
X211756388Y-57605097D01*
X211728134Y-57583946D01*
X211606082Y-57461894D01*
X211412578Y-57326399D01*
X211198492Y-57226570D01*
X211198486Y-57226567D01*
X210985000Y-57169364D01*
X210985000Y-58066988D01*
X210927993Y-58034075D01*
X210800826Y-58000000D01*
X210669174Y-58000000D01*
X210542007Y-58034075D01*
X210485000Y-58066988D01*
X210485000Y-57169364D01*
X210484999Y-57169364D01*
X210271513Y-57226567D01*
X210271507Y-57226570D01*
X210057422Y-57326399D01*
X210057420Y-57326400D01*
X209863926Y-57461886D01*
X209863920Y-57461891D01*
X209696891Y-57628920D01*
X209696886Y-57628926D01*
X209561400Y-57822420D01*
X209561399Y-57822422D01*
X209461570Y-58036507D01*
X209461567Y-58036513D01*
X209404364Y-58249999D01*
X209404364Y-58250000D01*
X210301988Y-58250000D01*
X210269075Y-58307007D01*
X210235000Y-58434174D01*
X210235000Y-58565826D01*
X210269075Y-58692993D01*
X210301988Y-58750000D01*
X209404364Y-58750000D01*
X209461567Y-58963486D01*
X209461570Y-58963492D01*
X209561399Y-59177578D01*
X209696894Y-59371082D01*
X209863917Y-59538105D01*
X210057421Y-59673600D01*
X210271507Y-59773429D01*
X210271516Y-59773433D01*
X210485000Y-59830634D01*
X210485000Y-58933012D01*
X210542007Y-58965925D01*
X210669174Y-59000000D01*
X210800826Y-59000000D01*
X210927993Y-58965925D01*
X210985000Y-58933012D01*
X210985000Y-59848616D01*
X210996345Y-59864154D01*
X211000498Y-59933900D01*
X210967336Y-59993781D01*
X208784515Y-62176603D01*
X208723192Y-62210088D01*
X208653500Y-62205104D01*
X208625711Y-62190497D01*
X208547834Y-62135967D01*
X208547830Y-62135965D01*
X208516752Y-62121473D01*
X208333663Y-62036097D01*
X208333659Y-62036096D01*
X208333655Y-62036094D01*
X208105413Y-61974938D01*
X208105403Y-61974936D01*
X207870001Y-61954341D01*
X207869999Y-61954341D01*
X207634596Y-61974936D01*
X207634586Y-61974938D01*
X207406344Y-62036094D01*
X207406335Y-62036098D01*
X207192171Y-62135964D01*
X207192169Y-62135965D01*
X206998597Y-62271505D01*
X206831505Y-62438597D01*
X206701575Y-62624158D01*
X206646998Y-62667783D01*
X206577500Y-62674977D01*
X206515145Y-62643454D01*
X206498425Y-62624158D01*
X206368494Y-62438597D01*
X206201402Y-62271506D01*
X206201395Y-62271501D01*
X206007834Y-62135967D01*
X206007830Y-62135965D01*
X205976752Y-62121473D01*
X205793663Y-62036097D01*
X205793659Y-62036096D01*
X205793655Y-62036094D01*
X205565413Y-61974938D01*
X205565403Y-61974936D01*
X205330001Y-61954341D01*
X205329999Y-61954341D01*
X205094596Y-61974936D01*
X205094586Y-61974938D01*
X204866344Y-62036094D01*
X204866335Y-62036098D01*
X204652171Y-62135964D01*
X204652169Y-62135965D01*
X204458597Y-62271505D01*
X204291505Y-62438597D01*
X204161575Y-62624158D01*
X204106998Y-62667783D01*
X204037500Y-62674977D01*
X203975145Y-62643454D01*
X203958425Y-62624158D01*
X203828494Y-62438597D01*
X203661402Y-62271506D01*
X203661395Y-62271501D01*
X203467834Y-62135967D01*
X203467830Y-62135965D01*
X203436752Y-62121473D01*
X203253663Y-62036097D01*
X203253659Y-62036096D01*
X203253655Y-62036094D01*
X203025413Y-61974938D01*
X203025403Y-61974936D01*
X202790001Y-61954341D01*
X202789999Y-61954341D01*
X202554596Y-61974936D01*
X202554586Y-61974938D01*
X202326344Y-62036094D01*
X202326335Y-62036098D01*
X202112171Y-62135964D01*
X202112169Y-62135965D01*
X201918597Y-62271505D01*
X201751505Y-62438597D01*
X201621575Y-62624158D01*
X201566998Y-62667783D01*
X201497500Y-62674977D01*
X201435145Y-62643454D01*
X201418425Y-62624158D01*
X201288494Y-62438597D01*
X201121402Y-62271506D01*
X201121395Y-62271501D01*
X200927834Y-62135967D01*
X200927830Y-62135965D01*
X200896752Y-62121473D01*
X200713663Y-62036097D01*
X200713659Y-62036096D01*
X200713655Y-62036094D01*
X200485413Y-61974938D01*
X200485403Y-61974936D01*
X200250001Y-61954341D01*
X200249999Y-61954341D01*
X200014596Y-61974936D01*
X200014586Y-61974938D01*
X199786344Y-62036094D01*
X199786335Y-62036098D01*
X199572171Y-62135964D01*
X199572169Y-62135965D01*
X199378597Y-62271505D01*
X199211505Y-62438597D01*
X199081575Y-62624158D01*
X199026998Y-62667783D01*
X198957500Y-62674977D01*
X198895145Y-62643454D01*
X198878425Y-62624158D01*
X198748494Y-62438597D01*
X198581402Y-62271506D01*
X198581395Y-62271501D01*
X198387834Y-62135967D01*
X198387830Y-62135965D01*
X198356752Y-62121473D01*
X198173663Y-62036097D01*
X198173659Y-62036096D01*
X198173655Y-62036094D01*
X197945413Y-61974938D01*
X197945403Y-61974936D01*
X197710001Y-61954341D01*
X197709999Y-61954341D01*
X197474596Y-61974936D01*
X197474586Y-61974938D01*
X197246344Y-62036094D01*
X197246335Y-62036098D01*
X197032171Y-62135964D01*
X197032169Y-62135965D01*
X196838597Y-62271505D01*
X196671505Y-62438597D01*
X196541575Y-62624158D01*
X196486998Y-62667783D01*
X196417500Y-62674977D01*
X196355145Y-62643454D01*
X196338425Y-62624158D01*
X196208494Y-62438597D01*
X196041402Y-62271506D01*
X196041395Y-62271501D01*
X195847834Y-62135967D01*
X195847830Y-62135965D01*
X195816752Y-62121473D01*
X195633663Y-62036097D01*
X195633659Y-62036096D01*
X195633655Y-62036094D01*
X195405413Y-61974938D01*
X195405403Y-61974936D01*
X195170001Y-61954341D01*
X195169999Y-61954341D01*
X194934596Y-61974936D01*
X194934586Y-61974938D01*
X194706344Y-62036094D01*
X194706335Y-62036098D01*
X194492171Y-62135964D01*
X194492169Y-62135965D01*
X194298597Y-62271505D01*
X194131505Y-62438597D01*
X194001575Y-62624158D01*
X193946998Y-62667783D01*
X193877500Y-62674977D01*
X193815145Y-62643454D01*
X193798425Y-62624158D01*
X193668494Y-62438597D01*
X193501402Y-62271506D01*
X193501395Y-62271501D01*
X193307834Y-62135967D01*
X193307830Y-62135965D01*
X193276752Y-62121473D01*
X193093663Y-62036097D01*
X193093659Y-62036096D01*
X193093655Y-62036094D01*
X192865413Y-61974938D01*
X192865403Y-61974936D01*
X192630001Y-61954341D01*
X192629999Y-61954341D01*
X192394596Y-61974936D01*
X192394586Y-61974938D01*
X192166344Y-62036094D01*
X192166335Y-62036098D01*
X191952171Y-62135964D01*
X191952169Y-62135965D01*
X191758597Y-62271505D01*
X191591505Y-62438597D01*
X191461575Y-62624158D01*
X191406998Y-62667783D01*
X191337500Y-62674977D01*
X191275145Y-62643454D01*
X191258425Y-62624158D01*
X191128494Y-62438597D01*
X190961402Y-62271506D01*
X190961395Y-62271501D01*
X190767834Y-62135967D01*
X190767830Y-62135965D01*
X190736752Y-62121473D01*
X190553663Y-62036097D01*
X190553659Y-62036096D01*
X190553655Y-62036094D01*
X190325413Y-61974938D01*
X190325403Y-61974936D01*
X190090001Y-61954341D01*
X190089999Y-61954341D01*
X189854596Y-61974936D01*
X189854586Y-61974938D01*
X189626344Y-62036094D01*
X189626335Y-62036098D01*
X189412171Y-62135964D01*
X189412169Y-62135965D01*
X189218597Y-62271505D01*
X189051505Y-62438597D01*
X188921575Y-62624158D01*
X188866998Y-62667783D01*
X188797500Y-62674977D01*
X188735145Y-62643454D01*
X188718425Y-62624158D01*
X188588494Y-62438597D01*
X188421402Y-62271506D01*
X188421395Y-62271501D01*
X188227834Y-62135967D01*
X188227830Y-62135965D01*
X188196752Y-62121473D01*
X188013663Y-62036097D01*
X188013659Y-62036096D01*
X188013655Y-62036094D01*
X187785413Y-61974938D01*
X187785403Y-61974936D01*
X187550001Y-61954341D01*
X187549999Y-61954341D01*
X187314596Y-61974936D01*
X187314586Y-61974938D01*
X187086344Y-62036094D01*
X187086335Y-62036098D01*
X186872171Y-62135964D01*
X186872169Y-62135965D01*
X186678597Y-62271505D01*
X186511505Y-62438597D01*
X186381575Y-62624158D01*
X186326998Y-62667783D01*
X186257500Y-62674977D01*
X186195145Y-62643454D01*
X186178425Y-62624158D01*
X186048494Y-62438597D01*
X185881402Y-62271506D01*
X185881395Y-62271501D01*
X185687834Y-62135967D01*
X185687830Y-62135965D01*
X185656752Y-62121473D01*
X185473663Y-62036097D01*
X185473659Y-62036096D01*
X185473655Y-62036094D01*
X185245413Y-61974938D01*
X185245403Y-61974936D01*
X185010001Y-61954341D01*
X185009999Y-61954341D01*
X184774596Y-61974936D01*
X184774586Y-61974938D01*
X184546344Y-62036094D01*
X184546335Y-62036098D01*
X184332171Y-62135964D01*
X184332169Y-62135965D01*
X184138597Y-62271505D01*
X183971505Y-62438597D01*
X183841575Y-62624158D01*
X183786998Y-62667783D01*
X183717500Y-62674977D01*
X183655145Y-62643454D01*
X183638425Y-62624158D01*
X183508494Y-62438597D01*
X183341402Y-62271506D01*
X183341395Y-62271501D01*
X183147832Y-62135966D01*
X183116752Y-62121473D01*
X183064313Y-62075300D01*
X183045162Y-62008106D01*
X183065378Y-61941225D01*
X183081467Y-61921421D01*
X183391072Y-61611816D01*
X183452393Y-61578334D01*
X183478751Y-61575500D01*
X186075764Y-61575500D01*
X186075766Y-61575500D01*
X186222135Y-61536281D01*
X186353365Y-61460515D01*
X187927061Y-59886817D01*
X187988384Y-59853333D01*
X188014742Y-59850499D01*
X189397871Y-59850499D01*
X189397872Y-59850499D01*
X189457483Y-59844091D01*
X189592331Y-59793796D01*
X189707546Y-59707546D01*
X189793796Y-59592331D01*
X189843002Y-59460401D01*
X189884872Y-59404468D01*
X189950337Y-59380050D01*
X190018610Y-59394901D01*
X190046865Y-59416053D01*
X190168917Y-59538105D01*
X190362421Y-59673600D01*
X190576507Y-59773429D01*
X190576516Y-59773433D01*
X190790000Y-59830634D01*
X190790000Y-58933012D01*
X190847007Y-58965925D01*
X190974174Y-59000000D01*
X191105826Y-59000000D01*
X191232993Y-58965925D01*
X191290000Y-58933012D01*
X191290000Y-59830633D01*
X191503483Y-59773433D01*
X191503492Y-59773429D01*
X191717578Y-59673600D01*
X191911082Y-59538105D01*
X192078105Y-59371082D01*
X192213600Y-59177578D01*
X192313429Y-58963492D01*
X192313432Y-58963486D01*
X192370636Y-58750000D01*
X191473012Y-58750000D01*
X191505925Y-58692993D01*
X191540000Y-58565826D01*
X191540000Y-58499995D01*
X194244592Y-58499995D01*
X194244592Y-58500004D01*
X194264196Y-58761620D01*
X194264197Y-58761625D01*
X194322576Y-59017402D01*
X194322578Y-59017411D01*
X194322580Y-59017416D01*
X194418432Y-59261643D01*
X194549614Y-59488857D01*
X194632132Y-59592331D01*
X194713198Y-59693985D01*
X194879852Y-59848616D01*
X194905521Y-59872433D01*
X195122296Y-60020228D01*
X195122301Y-60020230D01*
X195122302Y-60020231D01*
X195122303Y-60020232D01*
X195247843Y-60080688D01*
X195358673Y-60134061D01*
X195358674Y-60134061D01*
X195358677Y-60134063D01*
X195609385Y-60211396D01*
X195868818Y-60250500D01*
X196131182Y-60250500D01*
X196390615Y-60211396D01*
X196641323Y-60134063D01*
X196877704Y-60020228D01*
X197094479Y-59872433D01*
X197272184Y-59707547D01*
X197286801Y-59693985D01*
X197286801Y-59693983D01*
X197286805Y-59693981D01*
X197450386Y-59488857D01*
X197581568Y-59261643D01*
X197677420Y-59017416D01*
X197735802Y-58761630D01*
X197740946Y-58692993D01*
X197755408Y-58500004D01*
X197755408Y-58499995D01*
X199244592Y-58499995D01*
X199244592Y-58500004D01*
X199264196Y-58761620D01*
X199264197Y-58761625D01*
X199322576Y-59017402D01*
X199322578Y-59017411D01*
X199322580Y-59017416D01*
X199418432Y-59261643D01*
X199549614Y-59488857D01*
X199632132Y-59592331D01*
X199713198Y-59693985D01*
X199879852Y-59848616D01*
X199905521Y-59872433D01*
X200122296Y-60020228D01*
X200122301Y-60020230D01*
X200122302Y-60020231D01*
X200122303Y-60020232D01*
X200247843Y-60080688D01*
X200358673Y-60134061D01*
X200358674Y-60134061D01*
X200358677Y-60134063D01*
X200609385Y-60211396D01*
X200868818Y-60250500D01*
X201131182Y-60250500D01*
X201390615Y-60211396D01*
X201641323Y-60134063D01*
X201877704Y-60020228D01*
X202094479Y-59872433D01*
X202272184Y-59707547D01*
X202286801Y-59693985D01*
X202286801Y-59693983D01*
X202286805Y-59693981D01*
X202450386Y-59488857D01*
X202581568Y-59261643D01*
X202677420Y-59017416D01*
X202735802Y-58761630D01*
X202740946Y-58692993D01*
X202755408Y-58500004D01*
X202755408Y-58499995D01*
X202735803Y-58238379D01*
X202735802Y-58238374D01*
X202735802Y-58238370D01*
X202677420Y-57982584D01*
X202581568Y-57738357D01*
X202450386Y-57511143D01*
X202286805Y-57306019D01*
X202286804Y-57306018D01*
X202286801Y-57306014D01*
X202174867Y-57202155D01*
X204250000Y-57202155D01*
X204250000Y-58250000D01*
X205427058Y-58250000D01*
X205399019Y-58317694D01*
X205375000Y-58438443D01*
X205375000Y-58561557D01*
X205399019Y-58682306D01*
X205427058Y-58750000D01*
X204250000Y-58750000D01*
X204250000Y-59797844D01*
X204256401Y-59857372D01*
X204256403Y-59857379D01*
X204306645Y-59992086D01*
X204306649Y-59992093D01*
X204392809Y-60107187D01*
X204392812Y-60107190D01*
X204507906Y-60193350D01*
X204507913Y-60193354D01*
X204642620Y-60243596D01*
X204642627Y-60243598D01*
X204702155Y-60249999D01*
X204702172Y-60250000D01*
X205750000Y-60250000D01*
X205750000Y-59072941D01*
X205817694Y-59100981D01*
X205938443Y-59125000D01*
X206061557Y-59125000D01*
X206182306Y-59100981D01*
X206250000Y-59072941D01*
X206250000Y-60250000D01*
X207297828Y-60250000D01*
X207297844Y-60249999D01*
X207357372Y-60243598D01*
X207357379Y-60243596D01*
X207492086Y-60193354D01*
X207492093Y-60193350D01*
X207607187Y-60107190D01*
X207607190Y-60107187D01*
X207693350Y-59992093D01*
X207693354Y-59992086D01*
X207743596Y-59857379D01*
X207743598Y-59857372D01*
X207749999Y-59797844D01*
X207750000Y-59797827D01*
X207750000Y-58750000D01*
X206572942Y-58750000D01*
X206600981Y-58682306D01*
X206625000Y-58561557D01*
X206625000Y-58438443D01*
X206600981Y-58317694D01*
X206572942Y-58250000D01*
X207750000Y-58250000D01*
X207750000Y-57202172D01*
X207749999Y-57202155D01*
X207743598Y-57142627D01*
X207743596Y-57142620D01*
X207693354Y-57007913D01*
X207693350Y-57007906D01*
X207607190Y-56892812D01*
X207607187Y-56892809D01*
X207492093Y-56806649D01*
X207492086Y-56806645D01*
X207357379Y-56756403D01*
X207357372Y-56756401D01*
X207297844Y-56750000D01*
X206250000Y-56750000D01*
X206250000Y-57927058D01*
X206182306Y-57899019D01*
X206061557Y-57875000D01*
X205938443Y-57875000D01*
X205817694Y-57899019D01*
X205750000Y-57927058D01*
X205750000Y-56750000D01*
X204702155Y-56750000D01*
X204642627Y-56756401D01*
X204642620Y-56756403D01*
X204507913Y-56806645D01*
X204507906Y-56806649D01*
X204392812Y-56892809D01*
X204392809Y-56892812D01*
X204306649Y-57007906D01*
X204306645Y-57007913D01*
X204256403Y-57142620D01*
X204256401Y-57142627D01*
X204250000Y-57202155D01*
X202174867Y-57202155D01*
X202094479Y-57127567D01*
X202073379Y-57113181D01*
X201877704Y-56979772D01*
X201877700Y-56979770D01*
X201877697Y-56979768D01*
X201877696Y-56979767D01*
X201641325Y-56865938D01*
X201641327Y-56865938D01*
X201390623Y-56788606D01*
X201390619Y-56788605D01*
X201390615Y-56788604D01*
X201265823Y-56769794D01*
X201131187Y-56749500D01*
X201131182Y-56749500D01*
X200868818Y-56749500D01*
X200868812Y-56749500D01*
X200707247Y-56773853D01*
X200609385Y-56788604D01*
X200609382Y-56788605D01*
X200609376Y-56788606D01*
X200358673Y-56865938D01*
X200122303Y-56979767D01*
X200122302Y-56979768D01*
X199905520Y-57127567D01*
X199713198Y-57306014D01*
X199549614Y-57511143D01*
X199418432Y-57738356D01*
X199322582Y-57982578D01*
X199322576Y-57982597D01*
X199264197Y-58238374D01*
X199264196Y-58238379D01*
X199244592Y-58499995D01*
X197755408Y-58499995D01*
X197735803Y-58238379D01*
X197735802Y-58238374D01*
X197735802Y-58238370D01*
X197677420Y-57982584D01*
X197581568Y-57738357D01*
X197450386Y-57511143D01*
X197286805Y-57306019D01*
X197286804Y-57306018D01*
X197286801Y-57306014D01*
X197094479Y-57127567D01*
X197073379Y-57113181D01*
X196877704Y-56979772D01*
X196877700Y-56979770D01*
X196877697Y-56979768D01*
X196877696Y-56979767D01*
X196641325Y-56865938D01*
X196641327Y-56865938D01*
X196390623Y-56788606D01*
X196390619Y-56788605D01*
X196390615Y-56788604D01*
X196265823Y-56769794D01*
X196131187Y-56749500D01*
X196131182Y-56749500D01*
X195868818Y-56749500D01*
X195868812Y-56749500D01*
X195707247Y-56773853D01*
X195609385Y-56788604D01*
X195609382Y-56788605D01*
X195609376Y-56788606D01*
X195358673Y-56865938D01*
X195122303Y-56979767D01*
X195122302Y-56979768D01*
X194905520Y-57127567D01*
X194713198Y-57306014D01*
X194549614Y-57511143D01*
X194418432Y-57738356D01*
X194322582Y-57982578D01*
X194322576Y-57982597D01*
X194264197Y-58238374D01*
X194264196Y-58238379D01*
X194244592Y-58499995D01*
X191540000Y-58499995D01*
X191540000Y-58434174D01*
X191505925Y-58307007D01*
X191473012Y-58250000D01*
X192370636Y-58250000D01*
X192370635Y-58249999D01*
X192313432Y-58036513D01*
X192313429Y-58036507D01*
X192213600Y-57822422D01*
X192213599Y-57822420D01*
X192078113Y-57628926D01*
X192078108Y-57628920D01*
X191911082Y-57461894D01*
X191717578Y-57326399D01*
X191503492Y-57226570D01*
X191503486Y-57226567D01*
X191290000Y-57169364D01*
X191290000Y-58066988D01*
X191232993Y-58034075D01*
X191105826Y-58000000D01*
X190974174Y-58000000D01*
X190847007Y-58034075D01*
X190790000Y-58066988D01*
X190790000Y-57169364D01*
X190789999Y-57169364D01*
X190576513Y-57226567D01*
X190576507Y-57226570D01*
X190362422Y-57326399D01*
X190362420Y-57326400D01*
X190168926Y-57461886D01*
X190046865Y-57583947D01*
X189985542Y-57617431D01*
X189915850Y-57612447D01*
X189859917Y-57570575D01*
X189843002Y-57539598D01*
X189793797Y-57407671D01*
X189793793Y-57407664D01*
X189707547Y-57292455D01*
X189707544Y-57292452D01*
X189592335Y-57206206D01*
X189592328Y-57206202D01*
X189457482Y-57155908D01*
X189457483Y-57155908D01*
X189397883Y-57149501D01*
X189397881Y-57149500D01*
X189397873Y-57149500D01*
X189397864Y-57149500D01*
X187602129Y-57149500D01*
X187602123Y-57149501D01*
X187542516Y-57155908D01*
X187407671Y-57206202D01*
X187407664Y-57206206D01*
X187292455Y-57292452D01*
X187292452Y-57292455D01*
X187206206Y-57407664D01*
X187206202Y-57407671D01*
X187155908Y-57542517D01*
X187149501Y-57602116D01*
X187149500Y-57602135D01*
X187149500Y-58985257D01*
X187129815Y-59052296D01*
X187113181Y-59072938D01*
X185797939Y-60388181D01*
X185736616Y-60421666D01*
X185710258Y-60424500D01*
X185054603Y-60424500D01*
X184987564Y-60404815D01*
X184941809Y-60352011D01*
X184931865Y-60282853D01*
X184960890Y-60219297D01*
X184985552Y-60199421D01*
X184984989Y-60198669D01*
X185107187Y-60107190D01*
X185107190Y-60107187D01*
X185193350Y-59992093D01*
X185193354Y-59992086D01*
X185243596Y-59857379D01*
X185243598Y-59857372D01*
X185249999Y-59797844D01*
X185250000Y-59797827D01*
X185250000Y-58750000D01*
X184072942Y-58750000D01*
X184100981Y-58682306D01*
X184125000Y-58561557D01*
X184125000Y-58438443D01*
X184100981Y-58317694D01*
X184072942Y-58250000D01*
X185250000Y-58250000D01*
X185250000Y-57202172D01*
X185249999Y-57202155D01*
X185243598Y-57142627D01*
X185243596Y-57142620D01*
X185193354Y-57007913D01*
X185193350Y-57007906D01*
X185107190Y-56892812D01*
X185107187Y-56892809D01*
X184992093Y-56806649D01*
X184992086Y-56806645D01*
X184857379Y-56756403D01*
X184857372Y-56756401D01*
X184797844Y-56750000D01*
X183750000Y-56750000D01*
X183750000Y-57927058D01*
X183682306Y-57899019D01*
X183561557Y-57875000D01*
X183438443Y-57875000D01*
X183317694Y-57899019D01*
X183250000Y-57927058D01*
X183250000Y-56750000D01*
X182202155Y-56750000D01*
X182142627Y-56756401D01*
X182142620Y-56756403D01*
X182007913Y-56806645D01*
X182007906Y-56806649D01*
X181892812Y-56892809D01*
X181892809Y-56892812D01*
X181806649Y-57007906D01*
X181806645Y-57007913D01*
X181756403Y-57142620D01*
X181756401Y-57142627D01*
X181750000Y-57202155D01*
X181750000Y-58250000D01*
X182927058Y-58250000D01*
X182899019Y-58317694D01*
X182875000Y-58438443D01*
X182875000Y-58561557D01*
X182899019Y-58682306D01*
X182927058Y-58750000D01*
X181750000Y-58750000D01*
X181750000Y-59797844D01*
X181756401Y-59857372D01*
X181756403Y-59857379D01*
X181806645Y-59992086D01*
X181806649Y-59992093D01*
X181892809Y-60107187D01*
X181892812Y-60107190D01*
X182007906Y-60193350D01*
X182007913Y-60193354D01*
X182142620Y-60243596D01*
X182142627Y-60243598D01*
X182202155Y-60249999D01*
X182202172Y-60250000D01*
X182874272Y-60250000D01*
X182941311Y-60269685D01*
X182987066Y-60322489D01*
X182997010Y-60391647D01*
X182967985Y-60455203D01*
X182936272Y-60481387D01*
X182835647Y-60539483D01*
X182835641Y-60539487D01*
X181040193Y-62334935D01*
X180978870Y-62368420D01*
X180909178Y-62363436D01*
X180864831Y-62334935D01*
X180801402Y-62271506D01*
X180801395Y-62271501D01*
X180607834Y-62135967D01*
X180607830Y-62135965D01*
X180576752Y-62121473D01*
X180393663Y-62036097D01*
X180393659Y-62036096D01*
X180393655Y-62036094D01*
X180165413Y-61974938D01*
X180165403Y-61974936D01*
X179930001Y-61954341D01*
X179929999Y-61954341D01*
X179694596Y-61974936D01*
X179694586Y-61974938D01*
X179466344Y-62036094D01*
X179466335Y-62036098D01*
X179252171Y-62135964D01*
X179252169Y-62135965D01*
X179058597Y-62271505D01*
X178891508Y-62438594D01*
X178761269Y-62624595D01*
X178706692Y-62668219D01*
X178637193Y-62675412D01*
X178574839Y-62643890D01*
X178558119Y-62624595D01*
X178504925Y-62548626D01*
X177913787Y-63139765D01*
X177902518Y-63097708D01*
X177830110Y-62972292D01*
X177727708Y-62869890D01*
X177602292Y-62797482D01*
X177560234Y-62786212D01*
X178151372Y-62195073D01*
X178067576Y-62136398D01*
X177853492Y-62036570D01*
X177853483Y-62036566D01*
X177625326Y-61975432D01*
X177625315Y-61975430D01*
X177390002Y-61954843D01*
X177389998Y-61954843D01*
X177154684Y-61975430D01*
X177154673Y-61975432D01*
X176926516Y-62036566D01*
X176926507Y-62036570D01*
X176712423Y-62136399D01*
X176712421Y-62136400D01*
X176628627Y-62195073D01*
X176628626Y-62195073D01*
X177219766Y-62786212D01*
X177177708Y-62797482D01*
X177052292Y-62869890D01*
X176949890Y-62972292D01*
X176877482Y-63097708D01*
X176866212Y-63139765D01*
X176275073Y-62548626D01*
X176275073Y-62548627D01*
X176216400Y-62632421D01*
X176216399Y-62632423D01*
X176116570Y-62846507D01*
X176116566Y-62846516D01*
X176055432Y-63074673D01*
X176055430Y-63074684D01*
X176034843Y-63309998D01*
X176034843Y-63310001D01*
X176055430Y-63545315D01*
X176055432Y-63545326D01*
X176116566Y-63773483D01*
X176116570Y-63773492D01*
X176216398Y-63987576D01*
X176275073Y-64071372D01*
X176866212Y-63480233D01*
X176877482Y-63522292D01*
X176949890Y-63647708D01*
X177052292Y-63750110D01*
X177177708Y-63822518D01*
X177219766Y-63833787D01*
X176628626Y-64424926D01*
X176712417Y-64483598D01*
X176712421Y-64483600D01*
X176926507Y-64583429D01*
X176926516Y-64583433D01*
X177154673Y-64644567D01*
X177154684Y-64644569D01*
X177389998Y-64665157D01*
X177390002Y-64665157D01*
X177625315Y-64644569D01*
X177625326Y-64644567D01*
X177853483Y-64583433D01*
X177853492Y-64583429D01*
X178067580Y-64483599D01*
X178151371Y-64424925D01*
X177560233Y-63833787D01*
X177602292Y-63822518D01*
X177727708Y-63750110D01*
X177830110Y-63647708D01*
X177902518Y-63522292D01*
X177913787Y-63480233D01*
X178504925Y-64071371D01*
X178558120Y-63995404D01*
X178612697Y-63951780D01*
X178682196Y-63944588D01*
X178744550Y-63976111D01*
X178761268Y-63995404D01*
X178891505Y-64181401D01*
X179058599Y-64348495D01*
X179131442Y-64399500D01*
X179252165Y-64484032D01*
X179252167Y-64484033D01*
X179252170Y-64484035D01*
X179466337Y-64583903D01*
X179694592Y-64645063D01*
X179875777Y-64660915D01*
X179929999Y-64665659D01*
X179930000Y-64665659D01*
X179930001Y-64665659D01*
X179984223Y-64660915D01*
X180165408Y-64645063D01*
X180393663Y-64583903D01*
X180593095Y-64490905D01*
X180662173Y-64480414D01*
X180725957Y-64508934D01*
X180764196Y-64567410D01*
X180769500Y-64603288D01*
X180769500Y-66265257D01*
X180749815Y-66332296D01*
X180733181Y-66352938D01*
X179870589Y-67215529D01*
X179809266Y-67249014D01*
X179750815Y-67247623D01*
X179626697Y-67214366D01*
X179626693Y-67214365D01*
X179626692Y-67214365D01*
X179626691Y-67214364D01*
X179626686Y-67214364D01*
X179400002Y-67194532D01*
X179399998Y-67194532D01*
X179173313Y-67214364D01*
X179173302Y-67214366D01*
X178953511Y-67273258D01*
X178953502Y-67273261D01*
X178747267Y-67369431D01*
X178747265Y-67369432D01*
X178560858Y-67499954D01*
X178399954Y-67660858D01*
X178269432Y-67847265D01*
X178268700Y-67848836D01*
X178266802Y-67852904D01*
X178220633Y-67905343D01*
X178154421Y-67924500D01*
X177615579Y-67924500D01*
X177548540Y-67904815D01*
X177503197Y-67852904D01*
X177500568Y-67847266D01*
X177370047Y-67660861D01*
X177370045Y-67660858D01*
X177209141Y-67499954D01*
X177022734Y-67369432D01*
X177022732Y-67369431D01*
X176816497Y-67273261D01*
X176816488Y-67273258D01*
X176596697Y-67214366D01*
X176596693Y-67214365D01*
X176596692Y-67214365D01*
X176596691Y-67214364D01*
X176596686Y-67214364D01*
X176370002Y-67194532D01*
X176369998Y-67194532D01*
X176143313Y-67214364D01*
X176143302Y-67214366D01*
X175923511Y-67273258D01*
X175923502Y-67273261D01*
X175717267Y-67369431D01*
X175717265Y-67369432D01*
X175530858Y-67499954D01*
X175369954Y-67660858D01*
X175239432Y-67847265D01*
X175239431Y-67847267D01*
X175143261Y-68053502D01*
X175143258Y-68053511D01*
X175084366Y-68273302D01*
X175084364Y-68273313D01*
X175064532Y-68499998D01*
X175064532Y-68500001D01*
X175084364Y-68726686D01*
X175084366Y-68726697D01*
X175143258Y-68946488D01*
X175143261Y-68946497D01*
X175239431Y-69152732D01*
X175239432Y-69152734D01*
X175369954Y-69339141D01*
X175530858Y-69500045D01*
X175530861Y-69500047D01*
X175717266Y-69630568D01*
X175923504Y-69726739D01*
X176143308Y-69785635D01*
X176295808Y-69798977D01*
X176369998Y-69805468D01*
X176370000Y-69805468D01*
X176370002Y-69805468D01*
X176444192Y-69798977D01*
X176596692Y-69785635D01*
X176816496Y-69726739D01*
X177022734Y-69630568D01*
X177209139Y-69500047D01*
X177370047Y-69339139D01*
X177500568Y-69152734D01*
X177503197Y-69147095D01*
X177549367Y-69094657D01*
X177615579Y-69075500D01*
X178154421Y-69075500D01*
X178221460Y-69095185D01*
X178266802Y-69147095D01*
X178268390Y-69150500D01*
X178269432Y-69152734D01*
X178399954Y-69339141D01*
X178560858Y-69500045D01*
X178560861Y-69500047D01*
X178747266Y-69630568D01*
X178953504Y-69726739D01*
X179173308Y-69785635D01*
X179292272Y-69796043D01*
X179357341Y-69821495D01*
X179398320Y-69878086D01*
X179402198Y-69947848D01*
X179369146Y-70007252D01*
X177931286Y-71445113D01*
X177819481Y-71556917D01*
X177819477Y-71556922D01*
X177772415Y-71638438D01*
X177772415Y-71638439D01*
X177740423Y-71693849D01*
X177735865Y-71710860D01*
X177699499Y-71846578D01*
X177699499Y-71846580D01*
X177699499Y-72014681D01*
X177699500Y-72014694D01*
X177699500Y-72738963D01*
X177679815Y-72806002D01*
X177627011Y-72851757D01*
X177557853Y-72861701D01*
X177494297Y-72832676D01*
X177473926Y-72810088D01*
X177449025Y-72774526D01*
X176770000Y-73453551D01*
X176770000Y-73447339D01*
X176742741Y-73345606D01*
X176690080Y-73254394D01*
X176615606Y-73179920D01*
X176524394Y-73127259D01*
X176422661Y-73100000D01*
X176416445Y-73100000D01*
X177095472Y-72420974D01*
X177022478Y-72369863D01*
X176816331Y-72273735D01*
X176816317Y-72273730D01*
X176596610Y-72214860D01*
X176596599Y-72214858D01*
X176370002Y-72195034D01*
X176369998Y-72195034D01*
X176143400Y-72214858D01*
X176143389Y-72214860D01*
X175923682Y-72273730D01*
X175923673Y-72273734D01*
X175717516Y-72369866D01*
X175717512Y-72369868D01*
X175644526Y-72420973D01*
X175644526Y-72420974D01*
X176323553Y-73100000D01*
X176317339Y-73100000D01*
X176215606Y-73127259D01*
X176124394Y-73179920D01*
X176049920Y-73254394D01*
X175997259Y-73345606D01*
X175970000Y-73447339D01*
X175970000Y-73453552D01*
X175290974Y-72774526D01*
X175290973Y-72774526D01*
X175239868Y-72847512D01*
X175239866Y-72847516D01*
X175143734Y-73053673D01*
X175143730Y-73053682D01*
X175084860Y-73273389D01*
X175084858Y-73273400D01*
X175065034Y-73499997D01*
X175065034Y-73500002D01*
X175084858Y-73726599D01*
X175084860Y-73726610D01*
X175143730Y-73946317D01*
X175143735Y-73946331D01*
X175239863Y-74152478D01*
X175290974Y-74225472D01*
X175970000Y-73546446D01*
X175970000Y-73552661D01*
X175997259Y-73654394D01*
X176049920Y-73745606D01*
X176124394Y-73820080D01*
X176215606Y-73872741D01*
X176317339Y-73900000D01*
X176323553Y-73900000D01*
X175644526Y-74579025D01*
X175717513Y-74630132D01*
X175717521Y-74630136D01*
X175923668Y-74726264D01*
X175923682Y-74726269D01*
X176143389Y-74785139D01*
X176143400Y-74785141D01*
X176369998Y-74804966D01*
X176370002Y-74804966D01*
X176596599Y-74785141D01*
X176596610Y-74785139D01*
X176816317Y-74726269D01*
X176816331Y-74726264D01*
X177022478Y-74630136D01*
X177095471Y-74579024D01*
X176416447Y-73900000D01*
X176422661Y-73900000D01*
X176524394Y-73872741D01*
X176615606Y-73820080D01*
X176690080Y-73745606D01*
X176742741Y-73654394D01*
X176770000Y-73552661D01*
X176770000Y-73546447D01*
X177449024Y-74225471D01*
X177500133Y-74152482D01*
X177502805Y-74146753D01*
X177548974Y-74094310D01*
X177616167Y-74075154D01*
X177683049Y-74095365D01*
X177728387Y-74148528D01*
X177734965Y-74167053D01*
X177740422Y-74187419D01*
X177769358Y-74237535D01*
X177769359Y-74237539D01*
X177769360Y-74237539D01*
X177819124Y-74323735D01*
X177819479Y-74324349D01*
X177819481Y-74324352D01*
X177903181Y-74408052D01*
X177936666Y-74469375D01*
X177939500Y-74495733D01*
X177939500Y-77075500D01*
X177919815Y-77142539D01*
X177867011Y-77188294D01*
X177815500Y-77199500D01*
X176492129Y-77199500D01*
X176492123Y-77199501D01*
X176432516Y-77205908D01*
X176297671Y-77256202D01*
X176297664Y-77256206D01*
X176182455Y-77342452D01*
X176182452Y-77342455D01*
X176096206Y-77457664D01*
X176096202Y-77457671D01*
X176045908Y-77592517D01*
X176039501Y-77652116D01*
X176039500Y-77652135D01*
X176039500Y-79447870D01*
X176039501Y-79447876D01*
X176045908Y-79507483D01*
X176096202Y-79642328D01*
X176096206Y-79642335D01*
X176182452Y-79757544D01*
X176182455Y-79757547D01*
X176297664Y-79843793D01*
X176297671Y-79843797D01*
X176432517Y-79894091D01*
X176432516Y-79894091D01*
X176439444Y-79894835D01*
X176492127Y-79900500D01*
X177190903Y-79900499D01*
X177257941Y-79920183D01*
X177303696Y-79972987D01*
X177313640Y-80042146D01*
X177284615Y-80105702D01*
X177278583Y-80112180D01*
X175931286Y-81459478D01*
X175819481Y-81571282D01*
X175819479Y-81571285D01*
X175794420Y-81614689D01*
X175786084Y-81629129D01*
X175769361Y-81658094D01*
X175769359Y-81658096D01*
X175740425Y-81708209D01*
X175740424Y-81708210D01*
X175727511Y-81756401D01*
X175699499Y-81860943D01*
X175699499Y-81860945D01*
X175699499Y-82029046D01*
X175699500Y-82029059D01*
X175699500Y-98319902D01*
X175679815Y-98386941D01*
X175663181Y-98407583D01*
X174442705Y-99628058D01*
X174381382Y-99661543D01*
X174322931Y-99660152D01*
X174226697Y-99634366D01*
X174226693Y-99634365D01*
X174226692Y-99634365D01*
X174226691Y-99634364D01*
X174226686Y-99634364D01*
X174000002Y-99614532D01*
X173999998Y-99614532D01*
X173773313Y-99634364D01*
X173773302Y-99634366D01*
X173553511Y-99693258D01*
X173553502Y-99693261D01*
X173347267Y-99789431D01*
X173347265Y-99789432D01*
X173160858Y-99919954D01*
X172999954Y-100080858D01*
X172869432Y-100267265D01*
X172869431Y-100267267D01*
X172773261Y-100473502D01*
X172773258Y-100473511D01*
X172714366Y-100693302D01*
X172714364Y-100693313D01*
X172694532Y-100919998D01*
X172694532Y-100920001D01*
X172714364Y-101146686D01*
X172714366Y-101146697D01*
X172773258Y-101366488D01*
X172773261Y-101366497D01*
X172869431Y-101572732D01*
X172869432Y-101572734D01*
X172999954Y-101759141D01*
X173160858Y-101920045D01*
X173160861Y-101920047D01*
X173347266Y-102050568D01*
X173553504Y-102146739D01*
X173773308Y-102205635D01*
X173935230Y-102219801D01*
X173999998Y-102225468D01*
X174000000Y-102225468D01*
X174000002Y-102225468D01*
X174056673Y-102220509D01*
X174226692Y-102205635D01*
X174446496Y-102146739D01*
X174652734Y-102050568D01*
X174839139Y-101920047D01*
X175000047Y-101759139D01*
X175130568Y-101572734D01*
X175226739Y-101366496D01*
X175285635Y-101146692D01*
X175305468Y-100920000D01*
X175285635Y-100693308D01*
X175259847Y-100597066D01*
X175261510Y-100527217D01*
X175291939Y-100477294D01*
X176668713Y-99100521D01*
X176668716Y-99100520D01*
X176780520Y-98988716D01*
X176830639Y-98901904D01*
X176859577Y-98851785D01*
X176871669Y-98806655D01*
X176908034Y-98746995D01*
X176970881Y-98716466D01*
X177040256Y-98724761D01*
X177094134Y-98769246D01*
X177097171Y-98773959D01*
X177201160Y-98943653D01*
X177201161Y-98943656D01*
X177201164Y-98943659D01*
X177364776Y-99135224D01*
X177513066Y-99261875D01*
X177556343Y-99298838D01*
X177556346Y-99298839D01*
X177771140Y-99430466D01*
X178003889Y-99526873D01*
X178248852Y-99585683D01*
X178500000Y-99605449D01*
X178751148Y-99585683D01*
X178996111Y-99526873D01*
X179228859Y-99430466D01*
X179443659Y-99298836D01*
X179635224Y-99135224D01*
X179798836Y-98943659D01*
X179930466Y-98728859D01*
X180026873Y-98496111D01*
X180085683Y-98251148D01*
X180105449Y-98000000D01*
X180085683Y-97748852D01*
X180026873Y-97503889D01*
X179930466Y-97271141D01*
X179930466Y-97271140D01*
X179798839Y-97056346D01*
X179798838Y-97056343D01*
X179705739Y-96947339D01*
X179635224Y-96864776D01*
X179505983Y-96754394D01*
X179443656Y-96701161D01*
X179443653Y-96701160D01*
X179228859Y-96569533D01*
X178996110Y-96473126D01*
X178751151Y-96414317D01*
X178500000Y-96394551D01*
X178248848Y-96414317D01*
X178003889Y-96473126D01*
X177771140Y-96569533D01*
X177556346Y-96701160D01*
X177556343Y-96701161D01*
X177364776Y-96864776D01*
X177201161Y-97056343D01*
X177201160Y-97056346D01*
X177130227Y-97172098D01*
X177078415Y-97218973D01*
X177009486Y-97230396D01*
X176945323Y-97202738D01*
X176906298Y-97144783D01*
X176900500Y-97107308D01*
X176900500Y-94192691D01*
X176920185Y-94125652D01*
X176972989Y-94079897D01*
X177042147Y-94069953D01*
X177105703Y-94098978D01*
X177130227Y-94127901D01*
X177201160Y-94243654D01*
X177201161Y-94243656D01*
X177201164Y-94243659D01*
X177364776Y-94435224D01*
X177513066Y-94561875D01*
X177556343Y-94598838D01*
X177556346Y-94598839D01*
X177771140Y-94730466D01*
X178003889Y-94826873D01*
X178248852Y-94885683D01*
X178500000Y-94905449D01*
X178751148Y-94885683D01*
X178996111Y-94826873D01*
X179228859Y-94730466D01*
X179443659Y-94598836D01*
X179635224Y-94435224D01*
X179798836Y-94243659D01*
X179930466Y-94028859D01*
X180026873Y-93796111D01*
X180085683Y-93551148D01*
X180105449Y-93300000D01*
X180085683Y-93048852D01*
X180026873Y-92803889D01*
X180005412Y-92752077D01*
X180005412Y-92752076D01*
X179997943Y-92682606D01*
X180029218Y-92620127D01*
X180032263Y-92616971D01*
X182430520Y-90218716D01*
X182509577Y-90081785D01*
X182550501Y-89929057D01*
X182550501Y-89770942D01*
X182550501Y-89763347D01*
X182550500Y-89763329D01*
X182550500Y-85374000D01*
X182570185Y-85306961D01*
X182622989Y-85261206D01*
X182674500Y-85250000D01*
X183250000Y-85250000D01*
X183250000Y-84072941D01*
X183317694Y-84100981D01*
X183438443Y-84125000D01*
X183561557Y-84125000D01*
X183682306Y-84100981D01*
X183750000Y-84072941D01*
X183750000Y-85250000D01*
X184450500Y-85250000D01*
X184517539Y-85269685D01*
X184563294Y-85322489D01*
X184574500Y-85374000D01*
X184574500Y-102976000D01*
X184554815Y-103043039D01*
X184502011Y-103088794D01*
X184450500Y-103100000D01*
X184225000Y-103100000D01*
X184225000Y-104124722D01*
X184148694Y-104080667D01*
X184034244Y-104050000D01*
X183915756Y-104050000D01*
X183801306Y-104080667D01*
X183725000Y-104124722D01*
X183725000Y-103100000D01*
X183027155Y-103100000D01*
X182967627Y-103106401D01*
X182967620Y-103106403D01*
X182832913Y-103156645D01*
X182832906Y-103156649D01*
X182717812Y-103242809D01*
X182717809Y-103242812D01*
X182631649Y-103357906D01*
X182631646Y-103357911D01*
X182602924Y-103434920D01*
X182561052Y-103490853D01*
X182495588Y-103515270D01*
X182427315Y-103500418D01*
X182395514Y-103475571D01*
X182386784Y-103466087D01*
X182386779Y-103466083D01*
X182386777Y-103466081D01*
X182203634Y-103323535D01*
X182203628Y-103323531D01*
X181999504Y-103213064D01*
X181999495Y-103213061D01*
X181779984Y-103137702D01*
X181592404Y-103106401D01*
X181551049Y-103099500D01*
X181318951Y-103099500D01*
X181277596Y-103106401D01*
X181090015Y-103137702D01*
X180870504Y-103213061D01*
X180870495Y-103213064D01*
X180666371Y-103323531D01*
X180666365Y-103323535D01*
X180483222Y-103466081D01*
X180483219Y-103466084D01*
X180483216Y-103466086D01*
X180483216Y-103466087D01*
X180458791Y-103492620D01*
X180326016Y-103636852D01*
X180199075Y-103831151D01*
X180105842Y-104043699D01*
X180048866Y-104268691D01*
X180048864Y-104268702D01*
X180029700Y-104499993D01*
X180029700Y-104500006D01*
X180048864Y-104731297D01*
X180048866Y-104731305D01*
X180100464Y-104935058D01*
X180097839Y-105004879D01*
X180067939Y-105053180D01*
X175027834Y-110093285D01*
X174966511Y-110126770D01*
X174896819Y-110121786D01*
X174852472Y-110093285D01*
X174839141Y-110079954D01*
X174652734Y-109949432D01*
X174652732Y-109949431D01*
X174446497Y-109853261D01*
X174446488Y-109853258D01*
X174226697Y-109794366D01*
X174226693Y-109794365D01*
X174226692Y-109794365D01*
X174226691Y-109794364D01*
X174226686Y-109794364D01*
X174000002Y-109774532D01*
X173999998Y-109774532D01*
X173773313Y-109794364D01*
X173773302Y-109794366D01*
X173553511Y-109853258D01*
X173553502Y-109853261D01*
X173347267Y-109949431D01*
X173347265Y-109949432D01*
X173160858Y-110079954D01*
X172999954Y-110240858D01*
X172869432Y-110427265D01*
X172869431Y-110427267D01*
X172773261Y-110633502D01*
X172773258Y-110633511D01*
X172714366Y-110853302D01*
X172714364Y-110853313D01*
X172694532Y-111079998D01*
X172694532Y-111080001D01*
X172714364Y-111306686D01*
X172714366Y-111306697D01*
X172773258Y-111526488D01*
X172773261Y-111526497D01*
X172869431Y-111732732D01*
X172869432Y-111732734D01*
X172999954Y-111919141D01*
X173160858Y-112080045D01*
X173178410Y-112092335D01*
X173347266Y-112210568D01*
X173459961Y-112263118D01*
X173512399Y-112309290D01*
X173531551Y-112376484D01*
X173511335Y-112443365D01*
X173458170Y-112488700D01*
X173407555Y-112499500D01*
X172124500Y-112499500D01*
X172057461Y-112479815D01*
X172011706Y-112427011D01*
X172000500Y-112375500D01*
X172000500Y-84780697D01*
X172020185Y-84713658D01*
X172072989Y-84667903D01*
X172142147Y-84657959D01*
X172205703Y-84686984D01*
X172209737Y-84690885D01*
X172209793Y-84690825D01*
X172325133Y-84797844D01*
X172405521Y-84872433D01*
X172622296Y-85020228D01*
X172622301Y-85020230D01*
X172622302Y-85020231D01*
X172622303Y-85020232D01*
X172747843Y-85080688D01*
X172858673Y-85134061D01*
X172858674Y-85134061D01*
X172858677Y-85134063D01*
X173109385Y-85211396D01*
X173368818Y-85250500D01*
X173631182Y-85250500D01*
X173890615Y-85211396D01*
X174141323Y-85134063D01*
X174377704Y-85020228D01*
X174594479Y-84872433D01*
X174765598Y-84713658D01*
X174786801Y-84693985D01*
X174786801Y-84693983D01*
X174786805Y-84693981D01*
X174950386Y-84488857D01*
X175081568Y-84261643D01*
X175177420Y-84017416D01*
X175235802Y-83761630D01*
X175236674Y-83750000D01*
X175255408Y-83500004D01*
X175255408Y-83499995D01*
X175235803Y-83238379D01*
X175235802Y-83238374D01*
X175235802Y-83238370D01*
X175177420Y-82982584D01*
X175081568Y-82738357D01*
X174950386Y-82511143D01*
X174786805Y-82306019D01*
X174786804Y-82306018D01*
X174786801Y-82306014D01*
X174594479Y-82127567D01*
X174377704Y-81979772D01*
X174377700Y-81979770D01*
X174377697Y-81979768D01*
X174377696Y-81979767D01*
X174141325Y-81865938D01*
X174141327Y-81865938D01*
X173890623Y-81788606D01*
X173890619Y-81788605D01*
X173890615Y-81788604D01*
X173759983Y-81768914D01*
X173631187Y-81749500D01*
X173631182Y-81749500D01*
X173368818Y-81749500D01*
X173368812Y-81749500D01*
X173207247Y-81773853D01*
X173109385Y-81788604D01*
X173109382Y-81788605D01*
X173109376Y-81788606D01*
X172858673Y-81865938D01*
X172622303Y-81979767D01*
X172622302Y-81979768D01*
X172405520Y-82127567D01*
X172209793Y-82309175D01*
X172208482Y-82307762D01*
X172155370Y-82339398D01*
X172085540Y-82337023D01*
X172028080Y-82297272D01*
X172001233Y-82232766D01*
X172000500Y-82219302D01*
X172000500Y-74198489D01*
X172020185Y-74131450D01*
X172072989Y-74085695D01*
X172142147Y-74075751D01*
X172205703Y-74104776D01*
X172236882Y-74146085D01*
X172239863Y-74152478D01*
X172290974Y-74225472D01*
X172970000Y-73546446D01*
X172970000Y-73552661D01*
X172997259Y-73654394D01*
X173049920Y-73745606D01*
X173124394Y-73820080D01*
X173215606Y-73872741D01*
X173317339Y-73900000D01*
X173323553Y-73900000D01*
X172644526Y-74579025D01*
X172717513Y-74630132D01*
X172717521Y-74630136D01*
X172923668Y-74726264D01*
X172923682Y-74726269D01*
X173143389Y-74785139D01*
X173143400Y-74785141D01*
X173369998Y-74804966D01*
X173370002Y-74804966D01*
X173596599Y-74785141D01*
X173596610Y-74785139D01*
X173816317Y-74726269D01*
X173816331Y-74726264D01*
X174022478Y-74630136D01*
X174095471Y-74579024D01*
X173416447Y-73900000D01*
X173422661Y-73900000D01*
X173524394Y-73872741D01*
X173615606Y-73820080D01*
X173690080Y-73745606D01*
X173742741Y-73654394D01*
X173770000Y-73552661D01*
X173770000Y-73546447D01*
X174449024Y-74225471D01*
X174500136Y-74152478D01*
X174596264Y-73946331D01*
X174596269Y-73946317D01*
X174655139Y-73726610D01*
X174655141Y-73726599D01*
X174674966Y-73500002D01*
X174674966Y-73499997D01*
X174655141Y-73273400D01*
X174655139Y-73273389D01*
X174596269Y-73053682D01*
X174596264Y-73053668D01*
X174500136Y-72847521D01*
X174500132Y-72847513D01*
X174449025Y-72774526D01*
X173770000Y-73453551D01*
X173770000Y-73447339D01*
X173742741Y-73345606D01*
X173690080Y-73254394D01*
X173615606Y-73179920D01*
X173524394Y-73127259D01*
X173422661Y-73100000D01*
X173416445Y-73100000D01*
X174095472Y-72420974D01*
X174022478Y-72369863D01*
X173816331Y-72273735D01*
X173816317Y-72273730D01*
X173596610Y-72214860D01*
X173596599Y-72214858D01*
X173370002Y-72195034D01*
X173369998Y-72195034D01*
X173143400Y-72214858D01*
X173143389Y-72214860D01*
X172923682Y-72273730D01*
X172923673Y-72273734D01*
X172717516Y-72369866D01*
X172717512Y-72369868D01*
X172644526Y-72420973D01*
X172644526Y-72420974D01*
X173323553Y-73100000D01*
X173317339Y-73100000D01*
X173215606Y-73127259D01*
X173124394Y-73179920D01*
X173049920Y-73254394D01*
X172997259Y-73345606D01*
X172970000Y-73447339D01*
X172970000Y-73453552D01*
X172290974Y-72774526D01*
X172290973Y-72774526D01*
X172239868Y-72847512D01*
X172239867Y-72847514D01*
X172236881Y-72853919D01*
X172190707Y-72906357D01*
X172123513Y-72925507D01*
X172056632Y-72905289D01*
X172011299Y-72852123D01*
X172000500Y-72801511D01*
X172000500Y-69199669D01*
X172020185Y-69132630D01*
X172072989Y-69086875D01*
X172142147Y-69076931D01*
X172205703Y-69105956D01*
X172236881Y-69147265D01*
X172239432Y-69152734D01*
X172249039Y-69166454D01*
X172369954Y-69339141D01*
X172530858Y-69500045D01*
X172530861Y-69500047D01*
X172717266Y-69630568D01*
X172923504Y-69726739D01*
X173143308Y-69785635D01*
X173295808Y-69798977D01*
X173369998Y-69805468D01*
X173370000Y-69805468D01*
X173370002Y-69805468D01*
X173444192Y-69798977D01*
X173596692Y-69785635D01*
X173816496Y-69726739D01*
X174022734Y-69630568D01*
X174209139Y-69500047D01*
X174370047Y-69339139D01*
X174500568Y-69152734D01*
X174596739Y-68946496D01*
X174655635Y-68726692D01*
X174675468Y-68500000D01*
X174674708Y-68491318D01*
X174661194Y-68336851D01*
X174655635Y-68273308D01*
X174596739Y-68053504D01*
X174500568Y-67847266D01*
X174370047Y-67660861D01*
X174370045Y-67660858D01*
X174209141Y-67499954D01*
X174022734Y-67369432D01*
X174022732Y-67369431D01*
X173816497Y-67273261D01*
X173816488Y-67273258D01*
X173596697Y-67214366D01*
X173596693Y-67214365D01*
X173596692Y-67214365D01*
X173596691Y-67214364D01*
X173596686Y-67214364D01*
X173370002Y-67194532D01*
X173369998Y-67194532D01*
X173143313Y-67214364D01*
X173143302Y-67214366D01*
X172923511Y-67273258D01*
X172923502Y-67273261D01*
X172717267Y-67369431D01*
X172717265Y-67369432D01*
X172530858Y-67499954D01*
X172369954Y-67660858D01*
X172239432Y-67847265D01*
X172239431Y-67847267D01*
X172236882Y-67852735D01*
X172190709Y-67905174D01*
X172123516Y-67924326D01*
X172056635Y-67904110D01*
X172011300Y-67850944D01*
X172000500Y-67800330D01*
X172000500Y-65480102D01*
X172020185Y-65413063D01*
X172072989Y-65367308D01*
X172142147Y-65357364D01*
X172205703Y-65386389D01*
X172223762Y-65405786D01*
X172292454Y-65497546D01*
X172295671Y-65499954D01*
X172407664Y-65583793D01*
X172407671Y-65583797D01*
X172542517Y-65634091D01*
X172542516Y-65634091D01*
X172549444Y-65634835D01*
X172602127Y-65640500D01*
X174397872Y-65640499D01*
X174457483Y-65634091D01*
X174592331Y-65583796D01*
X174707546Y-65497546D01*
X174793796Y-65382331D01*
X174844091Y-65247483D01*
X174850500Y-65187873D01*
X174850499Y-63392128D01*
X174844091Y-63332517D01*
X174835692Y-63309999D01*
X174793797Y-63197671D01*
X174793793Y-63197664D01*
X174707547Y-63082455D01*
X174707544Y-63082452D01*
X174592335Y-62996206D01*
X174592328Y-62996202D01*
X174460401Y-62946997D01*
X174404467Y-62905126D01*
X174380050Y-62839662D01*
X174394902Y-62771389D01*
X174416053Y-62743133D01*
X174538108Y-62621078D01*
X174673600Y-62427578D01*
X174773429Y-62213492D01*
X174773432Y-62213486D01*
X174830636Y-62000000D01*
X173933012Y-62000000D01*
X173965925Y-61942993D01*
X174000000Y-61815826D01*
X174000000Y-61684174D01*
X173965925Y-61557007D01*
X173933012Y-61500000D01*
X174830636Y-61500000D01*
X174830635Y-61499999D01*
X174773432Y-61286513D01*
X174773429Y-61286507D01*
X174673600Y-61072422D01*
X174673599Y-61072420D01*
X174538113Y-60878926D01*
X174538108Y-60878920D01*
X174371082Y-60711894D01*
X174177578Y-60576399D01*
X173963492Y-60476570D01*
X173963485Y-60476567D01*
X173877936Y-60453644D01*
X173818276Y-60417278D01*
X173787747Y-60354431D01*
X173796042Y-60285056D01*
X173840528Y-60231178D01*
X173886304Y-60213306D01*
X173886103Y-60212425D01*
X173890599Y-60211398D01*
X173890615Y-60211396D01*
X174141323Y-60134063D01*
X174377704Y-60020228D01*
X174594479Y-59872433D01*
X174772184Y-59707547D01*
X174786801Y-59693985D01*
X174786801Y-59693983D01*
X174786805Y-59693981D01*
X174950386Y-59488857D01*
X175081568Y-59261643D01*
X175177420Y-59017416D01*
X175235802Y-58761630D01*
X175240946Y-58692993D01*
X175255408Y-58500004D01*
X175255408Y-58499995D01*
X176744592Y-58499995D01*
X176744592Y-58500004D01*
X176764196Y-58761620D01*
X176764197Y-58761625D01*
X176822576Y-59017402D01*
X176822578Y-59017411D01*
X176822580Y-59017416D01*
X176918432Y-59261643D01*
X177049614Y-59488857D01*
X177132132Y-59592331D01*
X177213198Y-59693985D01*
X177379852Y-59848616D01*
X177405521Y-59872433D01*
X177622296Y-60020228D01*
X177622301Y-60020230D01*
X177622302Y-60020231D01*
X177622303Y-60020232D01*
X177747843Y-60080688D01*
X177858673Y-60134061D01*
X177858674Y-60134061D01*
X177858677Y-60134063D01*
X178109385Y-60211396D01*
X178368818Y-60250500D01*
X178631182Y-60250500D01*
X178890615Y-60211396D01*
X179141323Y-60134063D01*
X179377704Y-60020228D01*
X179594479Y-59872433D01*
X179772184Y-59707547D01*
X179786801Y-59693985D01*
X179786801Y-59693983D01*
X179786805Y-59693981D01*
X179950386Y-59488857D01*
X180081568Y-59261643D01*
X180177420Y-59017416D01*
X180235802Y-58761630D01*
X180240946Y-58692993D01*
X180255408Y-58500004D01*
X180255408Y-58499995D01*
X180235803Y-58238379D01*
X180235802Y-58238374D01*
X180235802Y-58238370D01*
X180177420Y-57982584D01*
X180081568Y-57738357D01*
X179950386Y-57511143D01*
X179786805Y-57306019D01*
X179786804Y-57306018D01*
X179786801Y-57306014D01*
X179594479Y-57127567D01*
X179573379Y-57113181D01*
X179377704Y-56979772D01*
X179377700Y-56979770D01*
X179377697Y-56979768D01*
X179377696Y-56979767D01*
X179141325Y-56865938D01*
X179141327Y-56865938D01*
X178890623Y-56788606D01*
X178890619Y-56788605D01*
X178890615Y-56788604D01*
X178765823Y-56769794D01*
X178631187Y-56749500D01*
X178631182Y-56749500D01*
X178368818Y-56749500D01*
X178368812Y-56749500D01*
X178207247Y-56773853D01*
X178109385Y-56788604D01*
X178109382Y-56788605D01*
X178109376Y-56788606D01*
X177858673Y-56865938D01*
X177622303Y-56979767D01*
X177622302Y-56979768D01*
X177405520Y-57127567D01*
X177213198Y-57306014D01*
X177049614Y-57511143D01*
X176918432Y-57738356D01*
X176822582Y-57982578D01*
X176822576Y-57982597D01*
X176764197Y-58238374D01*
X176764196Y-58238379D01*
X176744592Y-58499995D01*
X175255408Y-58499995D01*
X175235803Y-58238379D01*
X175235802Y-58238374D01*
X175235802Y-58238370D01*
X175177420Y-57982584D01*
X175081568Y-57738357D01*
X174950386Y-57511143D01*
X174786805Y-57306019D01*
X174786804Y-57306018D01*
X174786801Y-57306014D01*
X174594479Y-57127567D01*
X174573379Y-57113181D01*
X174377704Y-56979772D01*
X174377700Y-56979770D01*
X174377697Y-56979768D01*
X174377696Y-56979767D01*
X174141325Y-56865938D01*
X174141327Y-56865938D01*
X173890623Y-56788606D01*
X173890619Y-56788605D01*
X173890615Y-56788604D01*
X173765823Y-56769794D01*
X173631187Y-56749500D01*
X173631182Y-56749500D01*
X173368818Y-56749500D01*
X173368812Y-56749500D01*
X173207247Y-56773853D01*
X173109385Y-56788604D01*
X173109382Y-56788605D01*
X173109376Y-56788606D01*
X172858673Y-56865938D01*
X172622303Y-56979767D01*
X172622302Y-56979768D01*
X172405520Y-57127567D01*
X172209793Y-57309175D01*
X172208482Y-57307762D01*
X172155370Y-57339398D01*
X172085540Y-57337023D01*
X172028080Y-57297272D01*
X172001233Y-57232766D01*
X172000500Y-57219302D01*
X172000500Y-56624500D01*
X172020185Y-56557461D01*
X172072989Y-56511706D01*
X172124500Y-56500500D01*
X214161258Y-56500500D01*
X214228297Y-56520185D01*
G37*
%TD.AperFunction*%
%TA.AperFunction,Conductor*%
G36*
X184225000Y-105900000D02*
G01*
X184450500Y-105900000D01*
X184517539Y-105919685D01*
X184563294Y-105972489D01*
X184574500Y-106024000D01*
X184574500Y-109524901D01*
X184554815Y-109591940D01*
X184538181Y-109612582D01*
X184537582Y-109613181D01*
X184476259Y-109646666D01*
X184449901Y-109649500D01*
X183102129Y-109649500D01*
X183102123Y-109649501D01*
X183042516Y-109655908D01*
X182907671Y-109706202D01*
X182907664Y-109706206D01*
X182792455Y-109792452D01*
X182792452Y-109792455D01*
X182706206Y-109907664D01*
X182706202Y-109907671D01*
X182656997Y-110039598D01*
X182615126Y-110095532D01*
X182549661Y-110119949D01*
X182481388Y-110105097D01*
X182453134Y-110083946D01*
X182331082Y-109961894D01*
X182137578Y-109826399D01*
X181923492Y-109726570D01*
X181923486Y-109726567D01*
X181710000Y-109669364D01*
X181710000Y-110566988D01*
X181652993Y-110534075D01*
X181525826Y-110500000D01*
X181394174Y-110500000D01*
X181267007Y-110534075D01*
X181210000Y-110566988D01*
X181210000Y-109669364D01*
X181209999Y-109669364D01*
X180996513Y-109726567D01*
X180996507Y-109726570D01*
X180782422Y-109826399D01*
X180782420Y-109826400D01*
X180588926Y-109961886D01*
X180588920Y-109961891D01*
X180421891Y-110128920D01*
X180421886Y-110128926D01*
X180286400Y-110322420D01*
X180286399Y-110322422D01*
X180186570Y-110536507D01*
X180186567Y-110536513D01*
X180129364Y-110749999D01*
X180129364Y-110750000D01*
X181026988Y-110750000D01*
X180994075Y-110807007D01*
X180960000Y-110934174D01*
X180960000Y-111065826D01*
X180994075Y-111192993D01*
X181026988Y-111250000D01*
X180129364Y-111250000D01*
X180186567Y-111463486D01*
X180186570Y-111463492D01*
X180286399Y-111677578D01*
X180421894Y-111871082D01*
X180588917Y-112038105D01*
X180782421Y-112173600D01*
X180974393Y-112263118D01*
X181026832Y-112309290D01*
X181045984Y-112376484D01*
X181025768Y-112443365D01*
X180972603Y-112488700D01*
X180921988Y-112499500D01*
X174592445Y-112499500D01*
X174525406Y-112479815D01*
X174479651Y-112427011D01*
X174469707Y-112357853D01*
X174498732Y-112294297D01*
X174540038Y-112263119D01*
X174652734Y-112210568D01*
X174839139Y-112080047D01*
X175000047Y-111919139D01*
X175130568Y-111732734D01*
X175221306Y-111538145D01*
X175246003Y-111502875D01*
X180883840Y-105865037D01*
X180945161Y-105831554D01*
X181011781Y-105835438D01*
X181090019Y-105862298D01*
X181318951Y-105900500D01*
X181318952Y-105900500D01*
X181551048Y-105900500D01*
X181551049Y-105900500D01*
X181779981Y-105862298D01*
X181999503Y-105786936D01*
X182203626Y-105676470D01*
X182386784Y-105533913D01*
X182395511Y-105524432D01*
X182455394Y-105488441D01*
X182525232Y-105490538D01*
X182582850Y-105530060D01*
X182602924Y-105565080D01*
X182631645Y-105642086D01*
X182631649Y-105642093D01*
X182717809Y-105757187D01*
X182717812Y-105757190D01*
X182832906Y-105843350D01*
X182832913Y-105843354D01*
X182967620Y-105893596D01*
X182967627Y-105893598D01*
X183027155Y-105899999D01*
X183027172Y-105900000D01*
X183725000Y-105900000D01*
X183725000Y-104875277D01*
X183801306Y-104919333D01*
X183915756Y-104950000D01*
X184034244Y-104950000D01*
X184148694Y-104919333D01*
X184225000Y-104875277D01*
X184225000Y-105900000D01*
G37*
%TD.AperFunction*%
%TA.AperFunction,Conductor*%
G36*
X186364855Y-79216546D02*
G01*
X186381575Y-79235842D01*
X186511505Y-79421401D01*
X186678599Y-79588495D01*
X186760499Y-79645842D01*
X186872165Y-79724032D01*
X186872167Y-79724033D01*
X186872170Y-79724035D01*
X186877898Y-79726706D01*
X186930339Y-79772872D01*
X186949500Y-79839090D01*
X186949500Y-89463330D01*
X186949499Y-89463348D01*
X186949499Y-89629054D01*
X186949498Y-89629054D01*
X186990423Y-89781785D01*
X187019358Y-89831900D01*
X187019359Y-89831904D01*
X187019360Y-89831904D01*
X187069479Y-89918714D01*
X187069481Y-89918717D01*
X187188349Y-90037585D01*
X187188355Y-90037590D01*
X193351815Y-96201050D01*
X193385300Y-96262373D01*
X193380316Y-96332065D01*
X193338444Y-96387998D01*
X193273865Y-96412348D01*
X193248852Y-96414317D01*
X193248848Y-96414318D01*
X193003889Y-96473126D01*
X192771140Y-96569533D01*
X192556346Y-96701160D01*
X192556343Y-96701161D01*
X192364776Y-96864776D01*
X192201161Y-97056343D01*
X192201160Y-97056346D01*
X192069533Y-97271140D01*
X191973126Y-97503889D01*
X191914317Y-97748848D01*
X191894551Y-98000000D01*
X191914317Y-98251151D01*
X191973126Y-98496110D01*
X192069533Y-98728859D01*
X192201160Y-98943653D01*
X192201161Y-98943656D01*
X192201164Y-98943659D01*
X192364776Y-99135224D01*
X192513066Y-99261875D01*
X192556343Y-99298838D01*
X192556346Y-99298839D01*
X192771140Y-99430466D01*
X193003889Y-99526873D01*
X193248852Y-99585683D01*
X193500000Y-99605449D01*
X193751148Y-99585683D01*
X193996111Y-99526873D01*
X194228859Y-99430466D01*
X194443659Y-99298836D01*
X194635224Y-99135224D01*
X194798836Y-98943659D01*
X194930466Y-98728859D01*
X195026873Y-98496111D01*
X195085683Y-98251148D01*
X195087651Y-98226134D01*
X195112532Y-98160850D01*
X195168762Y-98119378D01*
X195238488Y-98114889D01*
X195298949Y-98148184D01*
X196515139Y-99364374D01*
X196515149Y-99364385D01*
X196519479Y-99368715D01*
X196519480Y-99368716D01*
X196631284Y-99480520D01*
X196711572Y-99526873D01*
X196718095Y-99530639D01*
X196718097Y-99530641D01*
X196756151Y-99552611D01*
X196768215Y-99559577D01*
X196920943Y-99600500D01*
X197079057Y-99600500D01*
X206239903Y-99600500D01*
X206306942Y-99620185D01*
X206327583Y-99636818D01*
X216213682Y-109522918D01*
X216247166Y-109584239D01*
X216250000Y-109610597D01*
X216250000Y-110566988D01*
X216192993Y-110534075D01*
X216065826Y-110500000D01*
X215934174Y-110500000D01*
X215807007Y-110534075D01*
X215750000Y-110566988D01*
X215750000Y-109669364D01*
X215749999Y-109669364D01*
X215536513Y-109726567D01*
X215536507Y-109726570D01*
X215322422Y-109826399D01*
X215322420Y-109826400D01*
X215128926Y-109961886D01*
X215128920Y-109961891D01*
X214961891Y-110128920D01*
X214961886Y-110128926D01*
X214826400Y-110322420D01*
X214826399Y-110322422D01*
X214726570Y-110536507D01*
X214726567Y-110536513D01*
X214669364Y-110749999D01*
X214669364Y-110750000D01*
X215566988Y-110750000D01*
X215534075Y-110807007D01*
X215500000Y-110934174D01*
X215500000Y-111065826D01*
X215534075Y-111192993D01*
X215566988Y-111250000D01*
X214669364Y-111250000D01*
X214726567Y-111463486D01*
X214726570Y-111463492D01*
X214826399Y-111677578D01*
X214961894Y-111871082D01*
X215128917Y-112038105D01*
X215322421Y-112173600D01*
X215514393Y-112263118D01*
X215566832Y-112309290D01*
X215585984Y-112376484D01*
X215565768Y-112443365D01*
X215512603Y-112488700D01*
X215461988Y-112499500D01*
X185190103Y-112499500D01*
X185123064Y-112479815D01*
X185077309Y-112427011D01*
X185067365Y-112357853D01*
X185096390Y-112294297D01*
X185115792Y-112276234D01*
X185203510Y-112210567D01*
X185207546Y-112207546D01*
X185293796Y-112092331D01*
X185344091Y-111957483D01*
X185350500Y-111897873D01*
X185350499Y-110550095D01*
X185370184Y-110483057D01*
X185386813Y-110462420D01*
X185533506Y-110315728D01*
X185533511Y-110315724D01*
X185543714Y-110305520D01*
X185543716Y-110305520D01*
X185655520Y-110193716D01*
X185708398Y-110102128D01*
X185712207Y-110095532D01*
X185734574Y-110056790D01*
X185734575Y-110056789D01*
X185734575Y-110056787D01*
X185734577Y-110056785D01*
X185775501Y-109904057D01*
X185775501Y-109745943D01*
X185775501Y-109738348D01*
X185775500Y-109738330D01*
X185775500Y-104999997D01*
X199695034Y-104999997D01*
X199695034Y-105000002D01*
X199714858Y-105226599D01*
X199714860Y-105226610D01*
X199773730Y-105446317D01*
X199773735Y-105446331D01*
X199869863Y-105652478D01*
X199920974Y-105725472D01*
X200600000Y-105046446D01*
X200600000Y-105052661D01*
X200627259Y-105154394D01*
X200679920Y-105245606D01*
X200754394Y-105320080D01*
X200845606Y-105372741D01*
X200947339Y-105400000D01*
X200953553Y-105400000D01*
X200274526Y-106079025D01*
X200347513Y-106130132D01*
X200347521Y-106130136D01*
X200553668Y-106226264D01*
X200553682Y-106226269D01*
X200773389Y-106285139D01*
X200773400Y-106285141D01*
X200999998Y-106304966D01*
X201000002Y-106304966D01*
X201226599Y-106285141D01*
X201226610Y-106285139D01*
X201446317Y-106226269D01*
X201446331Y-106226264D01*
X201652478Y-106130136D01*
X201725471Y-106079024D01*
X201046447Y-105400000D01*
X201052661Y-105400000D01*
X201154394Y-105372741D01*
X201245606Y-105320080D01*
X201320080Y-105245606D01*
X201372741Y-105154394D01*
X201400000Y-105052661D01*
X201400000Y-105046447D01*
X202079024Y-105725471D01*
X202130136Y-105652478D01*
X202226264Y-105446331D01*
X202226269Y-105446317D01*
X202285139Y-105226610D01*
X202285141Y-105226599D01*
X202304966Y-105000002D01*
X202304966Y-104999997D01*
X202285141Y-104773400D01*
X202285139Y-104773389D01*
X202226269Y-104553682D01*
X202226264Y-104553668D01*
X202130136Y-104347521D01*
X202130132Y-104347513D01*
X202079025Y-104274526D01*
X201400000Y-104953551D01*
X201400000Y-104947339D01*
X201372741Y-104845606D01*
X201320080Y-104754394D01*
X201245606Y-104679920D01*
X201154394Y-104627259D01*
X201052661Y-104600000D01*
X201046445Y-104600000D01*
X201725472Y-103920974D01*
X201652478Y-103869863D01*
X201446331Y-103773735D01*
X201446317Y-103773730D01*
X201226610Y-103714860D01*
X201226599Y-103714858D01*
X201000002Y-103695034D01*
X200999998Y-103695034D01*
X200773400Y-103714858D01*
X200773389Y-103714860D01*
X200553682Y-103773730D01*
X200553673Y-103773734D01*
X200347516Y-103869866D01*
X200347512Y-103869868D01*
X200274526Y-103920973D01*
X200274526Y-103920974D01*
X200953553Y-104600000D01*
X200947339Y-104600000D01*
X200845606Y-104627259D01*
X200754394Y-104679920D01*
X200679920Y-104754394D01*
X200627259Y-104845606D01*
X200600000Y-104947339D01*
X200600000Y-104953552D01*
X199920974Y-104274526D01*
X199920973Y-104274526D01*
X199869868Y-104347512D01*
X199869866Y-104347516D01*
X199773734Y-104553673D01*
X199773730Y-104553682D01*
X199714860Y-104773389D01*
X199714858Y-104773400D01*
X199695034Y-104999997D01*
X185775500Y-104999997D01*
X185775500Y-100652135D01*
X199699500Y-100652135D01*
X199699500Y-102347870D01*
X199699501Y-102347876D01*
X199705908Y-102407483D01*
X199756202Y-102542328D01*
X199756206Y-102542335D01*
X199842452Y-102657544D01*
X199842455Y-102657547D01*
X199957664Y-102743793D01*
X199957671Y-102743797D01*
X200092517Y-102794091D01*
X200092516Y-102794091D01*
X200099444Y-102794835D01*
X200152127Y-102800500D01*
X201847872Y-102800499D01*
X201907483Y-102794091D01*
X202042331Y-102743796D01*
X202157546Y-102657546D01*
X202243796Y-102542331D01*
X202294091Y-102407483D01*
X202300500Y-102347873D01*
X202300499Y-100652128D01*
X202294091Y-100592517D01*
X202279539Y-100553502D01*
X202243797Y-100457671D01*
X202243793Y-100457664D01*
X202157547Y-100342455D01*
X202157544Y-100342452D01*
X202042335Y-100256206D01*
X202042328Y-100256202D01*
X201907482Y-100205908D01*
X201907483Y-100205908D01*
X201847883Y-100199501D01*
X201847881Y-100199500D01*
X201847873Y-100199500D01*
X201847864Y-100199500D01*
X200152129Y-100199500D01*
X200152123Y-100199501D01*
X200092516Y-100205908D01*
X199957671Y-100256202D01*
X199957664Y-100256206D01*
X199842455Y-100342452D01*
X199842452Y-100342455D01*
X199756206Y-100457664D01*
X199756202Y-100457671D01*
X199705908Y-100592517D01*
X199699501Y-100652116D01*
X199699501Y-100652123D01*
X199699500Y-100652135D01*
X185775500Y-100652135D01*
X185775500Y-79727197D01*
X185795185Y-79660158D01*
X185828375Y-79625623D01*
X185881401Y-79588495D01*
X186048495Y-79421401D01*
X186178425Y-79235842D01*
X186233002Y-79192217D01*
X186302500Y-79185023D01*
X186364855Y-79216546D01*
G37*
%TD.AperFunction*%
%TA.AperFunction,Conductor*%
G36*
X225425703Y-72240029D02*
G01*
X225432181Y-72246061D01*
X226089485Y-72903365D01*
X226196635Y-73010515D01*
X226311005Y-73076547D01*
X226327865Y-73086281D01*
X226474233Y-73125500D01*
X226474234Y-73125500D01*
X227254421Y-73125500D01*
X227321460Y-73145185D01*
X227366802Y-73197095D01*
X227369431Y-73202732D01*
X227369432Y-73202734D01*
X227499954Y-73389141D01*
X227660858Y-73550045D01*
X227660861Y-73550047D01*
X227847266Y-73680568D01*
X228053504Y-73776739D01*
X228053509Y-73776740D01*
X228053511Y-73776741D01*
X228092799Y-73787268D01*
X228273308Y-73835635D01*
X228435230Y-73849801D01*
X228499998Y-73855468D01*
X228500000Y-73855468D01*
X228500002Y-73855468D01*
X228556673Y-73850509D01*
X228726692Y-73835635D01*
X228946496Y-73776739D01*
X229152734Y-73680568D01*
X229339139Y-73550047D01*
X229500047Y-73389139D01*
X229630568Y-73202734D01*
X229726739Y-72996496D01*
X229755725Y-72888317D01*
X229792090Y-72828657D01*
X229854936Y-72798128D01*
X229924312Y-72806422D01*
X229978190Y-72850908D01*
X229999465Y-72917459D01*
X229999500Y-72920411D01*
X229999500Y-74980181D01*
X229979815Y-75047220D01*
X229927011Y-75092975D01*
X229857853Y-75102919D01*
X229794297Y-75073894D01*
X229763118Y-75032586D01*
X229700134Y-74897517D01*
X229700132Y-74897513D01*
X229649025Y-74824526D01*
X228970000Y-75503551D01*
X228970000Y-75497339D01*
X228942741Y-75395606D01*
X228890080Y-75304394D01*
X228815606Y-75229920D01*
X228724394Y-75177259D01*
X228622661Y-75150000D01*
X228616445Y-75150000D01*
X229295472Y-74470974D01*
X229222478Y-74419863D01*
X229016331Y-74323735D01*
X229016317Y-74323730D01*
X228796610Y-74264860D01*
X228796599Y-74264858D01*
X228570002Y-74245034D01*
X228569998Y-74245034D01*
X228343400Y-74264858D01*
X228343389Y-74264860D01*
X228123682Y-74323730D01*
X228123673Y-74323734D01*
X227917516Y-74419866D01*
X227917512Y-74419868D01*
X227844526Y-74470973D01*
X227844526Y-74470974D01*
X228523553Y-75150000D01*
X228517339Y-75150000D01*
X228415606Y-75177259D01*
X228324394Y-75229920D01*
X228249920Y-75304394D01*
X228197259Y-75395606D01*
X228170000Y-75497339D01*
X228170000Y-75503552D01*
X227490974Y-74824526D01*
X227490973Y-74824526D01*
X227439868Y-74897512D01*
X227439866Y-74897516D01*
X227343734Y-75103673D01*
X227343730Y-75103682D01*
X227284860Y-75323389D01*
X227284858Y-75323400D01*
X227265034Y-75549997D01*
X227265034Y-75550002D01*
X227284858Y-75776599D01*
X227284860Y-75776610D01*
X227343730Y-75996317D01*
X227343735Y-75996331D01*
X227439863Y-76202478D01*
X227490974Y-76275472D01*
X228170000Y-75596446D01*
X228170000Y-75602661D01*
X228197259Y-75704394D01*
X228249920Y-75795606D01*
X228324394Y-75870080D01*
X228415606Y-75922741D01*
X228517339Y-75950000D01*
X228523553Y-75950000D01*
X227844526Y-76629025D01*
X227917513Y-76680132D01*
X227917521Y-76680136D01*
X228123668Y-76776264D01*
X228123682Y-76776269D01*
X228343389Y-76835139D01*
X228343400Y-76835141D01*
X228569998Y-76854966D01*
X228570002Y-76854966D01*
X228796599Y-76835141D01*
X228796610Y-76835139D01*
X229016317Y-76776269D01*
X229016331Y-76776264D01*
X229222478Y-76680136D01*
X229295471Y-76629024D01*
X228616447Y-75950000D01*
X228622661Y-75950000D01*
X228724394Y-75922741D01*
X228815606Y-75870080D01*
X228890080Y-75795606D01*
X228942741Y-75704394D01*
X228970000Y-75602661D01*
X228970000Y-75596447D01*
X229649024Y-76275471D01*
X229700136Y-76202478D01*
X229763118Y-76067414D01*
X229809290Y-76014974D01*
X229876483Y-75995822D01*
X229943365Y-76016038D01*
X229988699Y-76069203D01*
X229999500Y-76119818D01*
X229999500Y-81633636D01*
X229979815Y-81700675D01*
X229927011Y-81746430D01*
X229862244Y-81756925D01*
X229797844Y-81750000D01*
X228750000Y-81750000D01*
X228750000Y-82927058D01*
X228682306Y-82899019D01*
X228561557Y-82875000D01*
X228438443Y-82875000D01*
X228317694Y-82899019D01*
X228250000Y-82927058D01*
X228250000Y-81750000D01*
X227202155Y-81750000D01*
X227142627Y-81756401D01*
X227142620Y-81756403D01*
X227007913Y-81806645D01*
X227007906Y-81806649D01*
X226892812Y-81892809D01*
X226892809Y-81892812D01*
X226806649Y-82007906D01*
X226806645Y-82007913D01*
X226756403Y-82142620D01*
X226756401Y-82142627D01*
X226750000Y-82202155D01*
X226750000Y-83250000D01*
X227927058Y-83250000D01*
X227899019Y-83317694D01*
X227875000Y-83438443D01*
X227875000Y-83561557D01*
X227899019Y-83682306D01*
X227927058Y-83750000D01*
X226750000Y-83750000D01*
X226750000Y-84797844D01*
X226756401Y-84857372D01*
X226756403Y-84857379D01*
X226806645Y-84992086D01*
X226806649Y-84992093D01*
X226892809Y-85107187D01*
X226892812Y-85107190D01*
X227007906Y-85193350D01*
X227007913Y-85193354D01*
X227142620Y-85243596D01*
X227142627Y-85243598D01*
X227202155Y-85249999D01*
X227202172Y-85250000D01*
X228250000Y-85250000D01*
X228250000Y-84072941D01*
X228317694Y-84100981D01*
X228438443Y-84125000D01*
X228561557Y-84125000D01*
X228682306Y-84100981D01*
X228750000Y-84072941D01*
X228750000Y-85250000D01*
X229797828Y-85250000D01*
X229797839Y-85249999D01*
X229862242Y-85243074D01*
X229931002Y-85255478D01*
X229982140Y-85303087D01*
X229999500Y-85366363D01*
X229999500Y-112375500D01*
X229979815Y-112442539D01*
X229927011Y-112488294D01*
X229875500Y-112499500D01*
X228747625Y-112499500D01*
X228680586Y-112479815D01*
X228634831Y-112427011D01*
X228624887Y-112357853D01*
X228653912Y-112294297D01*
X228676498Y-112273927D01*
X228839139Y-112160047D01*
X229000047Y-111999139D01*
X229130568Y-111812734D01*
X229226739Y-111606496D01*
X229285635Y-111386692D01*
X229305468Y-111160000D01*
X229285635Y-110933308D01*
X229226739Y-110713504D01*
X229130568Y-110507266D01*
X229000047Y-110320861D01*
X229000045Y-110320858D01*
X228839141Y-110159954D01*
X228652734Y-110029432D01*
X228652732Y-110029431D01*
X228446497Y-109933261D01*
X228446488Y-109933258D01*
X228226697Y-109874366D01*
X228226693Y-109874365D01*
X228226692Y-109874365D01*
X228226691Y-109874364D01*
X228226686Y-109874364D01*
X228000002Y-109854532D01*
X227999998Y-109854532D01*
X227773313Y-109874364D01*
X227773302Y-109874366D01*
X227553511Y-109933258D01*
X227553502Y-109933261D01*
X227347267Y-110029431D01*
X227347265Y-110029432D01*
X227160858Y-110159954D01*
X226999954Y-110320858D01*
X226869432Y-110507265D01*
X226868272Y-110509752D01*
X226866802Y-110512904D01*
X226820633Y-110565343D01*
X226754421Y-110584500D01*
X225449742Y-110584500D01*
X225382703Y-110564815D01*
X225362061Y-110548181D01*
X219867060Y-105053180D01*
X219833575Y-104991857D01*
X219834536Y-104935058D01*
X219886131Y-104731317D01*
X219886131Y-104731316D01*
X219886134Y-104731305D01*
X219890908Y-104673694D01*
X219905300Y-104500006D01*
X219905300Y-104499993D01*
X219886135Y-104268702D01*
X219886133Y-104268691D01*
X219829157Y-104043699D01*
X219735924Y-103831151D01*
X219608983Y-103636852D01*
X219608980Y-103636849D01*
X219608979Y-103636847D01*
X219451784Y-103466087D01*
X219451779Y-103466083D01*
X219451777Y-103466081D01*
X219268634Y-103323535D01*
X219268628Y-103323531D01*
X219064504Y-103213064D01*
X219064495Y-103213061D01*
X218844984Y-103137702D01*
X218657404Y-103106401D01*
X218616049Y-103099500D01*
X218383951Y-103099500D01*
X218342596Y-103106401D01*
X218155015Y-103137702D01*
X217935504Y-103213061D01*
X217935495Y-103213064D01*
X217731371Y-103323531D01*
X217731365Y-103323535D01*
X217548222Y-103466081D01*
X217548215Y-103466087D01*
X217539484Y-103475572D01*
X217479595Y-103511561D01*
X217409757Y-103509458D01*
X217352143Y-103469932D01*
X217332075Y-103434918D01*
X217303355Y-103357915D01*
X217303350Y-103357906D01*
X217217190Y-103242812D01*
X217217187Y-103242809D01*
X217102093Y-103156649D01*
X217102086Y-103156645D01*
X216967379Y-103106403D01*
X216967372Y-103106401D01*
X216907844Y-103100000D01*
X216210000Y-103100000D01*
X216210000Y-104124722D01*
X216133694Y-104080667D01*
X216019244Y-104050000D01*
X215900756Y-104050000D01*
X215786306Y-104080667D01*
X215710000Y-104124722D01*
X215710000Y-103100000D01*
X215012155Y-103100000D01*
X214952627Y-103106401D01*
X214952620Y-103106403D01*
X214817913Y-103156645D01*
X214817906Y-103156649D01*
X214702812Y-103242809D01*
X214702809Y-103242812D01*
X214616649Y-103357906D01*
X214616645Y-103357913D01*
X214566403Y-103492620D01*
X214566401Y-103492627D01*
X214560000Y-103552155D01*
X214560000Y-104250000D01*
X215584722Y-104250000D01*
X215540667Y-104326306D01*
X215510000Y-104440756D01*
X215510000Y-104559244D01*
X215540667Y-104673694D01*
X215584722Y-104750000D01*
X214560000Y-104750000D01*
X214560000Y-105447844D01*
X214566401Y-105507372D01*
X214566403Y-105507379D01*
X214616645Y-105642086D01*
X214616649Y-105642093D01*
X214702809Y-105757187D01*
X214702812Y-105757190D01*
X214817906Y-105843350D01*
X214817913Y-105843354D01*
X214952620Y-105893596D01*
X214952627Y-105893598D01*
X215012155Y-105899999D01*
X215012172Y-105900000D01*
X215710000Y-105900000D01*
X215710000Y-104875277D01*
X215786306Y-104919333D01*
X215900756Y-104950000D01*
X216019244Y-104950000D01*
X216133694Y-104919333D01*
X216210000Y-104875277D01*
X216210000Y-105900000D01*
X216907828Y-105900000D01*
X216907844Y-105899999D01*
X216967372Y-105893598D01*
X216967379Y-105893596D01*
X217102086Y-105843354D01*
X217102093Y-105843350D01*
X217217187Y-105757190D01*
X217217190Y-105757187D01*
X217303350Y-105642093D01*
X217303355Y-105642084D01*
X217332075Y-105565081D01*
X217373945Y-105509147D01*
X217439409Y-105484729D01*
X217507682Y-105499580D01*
X217539484Y-105524428D01*
X217548216Y-105533913D01*
X217548219Y-105533915D01*
X217548222Y-105533918D01*
X217731365Y-105676464D01*
X217731371Y-105676468D01*
X217731374Y-105676470D01*
X217935497Y-105786936D01*
X218049487Y-105826068D01*
X218155015Y-105862297D01*
X218155017Y-105862297D01*
X218155019Y-105862298D01*
X218383951Y-105900500D01*
X218383952Y-105900500D01*
X218616048Y-105900500D01*
X218616049Y-105900500D01*
X218844981Y-105862298D01*
X218923217Y-105835438D01*
X218993013Y-105832289D01*
X219051159Y-105865039D01*
X224699485Y-111513365D01*
X224806635Y-111620515D01*
X224867231Y-111655500D01*
X224867232Y-111655501D01*
X224905471Y-111677578D01*
X224937865Y-111696281D01*
X225084233Y-111735500D01*
X225084234Y-111735500D01*
X226754421Y-111735500D01*
X226821460Y-111755185D01*
X226866802Y-111807095D01*
X226869431Y-111812732D01*
X226869432Y-111812734D01*
X226999954Y-111999141D01*
X227160858Y-112160045D01*
X227160861Y-112160047D01*
X227323499Y-112273926D01*
X227367123Y-112328501D01*
X227374317Y-112397999D01*
X227342795Y-112460354D01*
X227282565Y-112495769D01*
X227252375Y-112499500D01*
X219730103Y-112499500D01*
X219663064Y-112479815D01*
X219617309Y-112427011D01*
X219607365Y-112357853D01*
X219636390Y-112294297D01*
X219655792Y-112276234D01*
X219743510Y-112210567D01*
X219747546Y-112207546D01*
X219833796Y-112092331D01*
X219884091Y-111957483D01*
X219890500Y-111897873D01*
X219890499Y-110102128D01*
X219884091Y-110042517D01*
X219883002Y-110039598D01*
X219833797Y-109907671D01*
X219833793Y-109907664D01*
X219747547Y-109792455D01*
X219747544Y-109792452D01*
X219632335Y-109706206D01*
X219632328Y-109706202D01*
X219497482Y-109655908D01*
X219497483Y-109655908D01*
X219437883Y-109649501D01*
X219437881Y-109649500D01*
X219437873Y-109649500D01*
X219437865Y-109649500D01*
X218090098Y-109649500D01*
X218023059Y-109629815D01*
X218002417Y-109613181D01*
X209389234Y-100999998D01*
X226694532Y-100999998D01*
X226694532Y-101000001D01*
X226714364Y-101226686D01*
X226714366Y-101226697D01*
X226773258Y-101446488D01*
X226773261Y-101446497D01*
X226869431Y-101652732D01*
X226869432Y-101652734D01*
X226999954Y-101839141D01*
X227160858Y-102000045D01*
X227160861Y-102000047D01*
X227347266Y-102130568D01*
X227553504Y-102226739D01*
X227773308Y-102285635D01*
X227935230Y-102299801D01*
X227999998Y-102305468D01*
X228000000Y-102305468D01*
X228000002Y-102305468D01*
X228056673Y-102300509D01*
X228226692Y-102285635D01*
X228446496Y-102226739D01*
X228652734Y-102130568D01*
X228839139Y-102000047D01*
X229000047Y-101839139D01*
X229130568Y-101652734D01*
X229226739Y-101446496D01*
X229285635Y-101226692D01*
X229305468Y-101000000D01*
X229285635Y-100773308D01*
X229226739Y-100553504D01*
X229130568Y-100347266D01*
X229000047Y-100160861D01*
X229000045Y-100160858D01*
X228839141Y-99999954D01*
X228652734Y-99869432D01*
X228652732Y-99869431D01*
X228446497Y-99773261D01*
X228446488Y-99773258D01*
X228226697Y-99714366D01*
X228226693Y-99714365D01*
X228226692Y-99714365D01*
X228226691Y-99714364D01*
X228226686Y-99714364D01*
X228000002Y-99694532D01*
X227999998Y-99694532D01*
X227773313Y-99714364D01*
X227773302Y-99714366D01*
X227553511Y-99773258D01*
X227553502Y-99773261D01*
X227347267Y-99869431D01*
X227347265Y-99869432D01*
X227160858Y-99999954D01*
X226999954Y-100160858D01*
X226869432Y-100347265D01*
X226869431Y-100347267D01*
X226773261Y-100553502D01*
X226773258Y-100553511D01*
X226714366Y-100773302D01*
X226714364Y-100773313D01*
X226694532Y-100999998D01*
X209389234Y-100999998D01*
X208189188Y-99799952D01*
X208155703Y-99738629D01*
X208160687Y-99668937D01*
X208202559Y-99613004D01*
X208268023Y-99588587D01*
X208286588Y-99588652D01*
X208500000Y-99605449D01*
X208751148Y-99585683D01*
X208996111Y-99526873D01*
X209228859Y-99430466D01*
X209443659Y-99298836D01*
X209635224Y-99135224D01*
X209798836Y-98943659D01*
X209930466Y-98728859D01*
X210026873Y-98496111D01*
X210085683Y-98251148D01*
X210105449Y-98000000D01*
X221894551Y-98000000D01*
X221914317Y-98251151D01*
X221973126Y-98496110D01*
X222069533Y-98728859D01*
X222201160Y-98943653D01*
X222201161Y-98943656D01*
X222201164Y-98943659D01*
X222364776Y-99135224D01*
X222513066Y-99261875D01*
X222556343Y-99298838D01*
X222556346Y-99298839D01*
X222771140Y-99430466D01*
X223003889Y-99526873D01*
X223248852Y-99585683D01*
X223500000Y-99605449D01*
X223751148Y-99585683D01*
X223996111Y-99526873D01*
X224228859Y-99430466D01*
X224443659Y-99298836D01*
X224635224Y-99135224D01*
X224798836Y-98943659D01*
X224930466Y-98728859D01*
X225026873Y-98496111D01*
X225085683Y-98251148D01*
X225105449Y-98000000D01*
X225085683Y-97748852D01*
X225026873Y-97503889D01*
X224930466Y-97271141D01*
X224930466Y-97271140D01*
X224798839Y-97056346D01*
X224798838Y-97056343D01*
X224705739Y-96947339D01*
X224635224Y-96864776D01*
X224505983Y-96754394D01*
X224443656Y-96701161D01*
X224443653Y-96701160D01*
X224228859Y-96569533D01*
X223996110Y-96473126D01*
X223751151Y-96414317D01*
X223500000Y-96394551D01*
X223248848Y-96414317D01*
X223003889Y-96473126D01*
X222771140Y-96569533D01*
X222556346Y-96701160D01*
X222556343Y-96701161D01*
X222364776Y-96864776D01*
X222201161Y-97056343D01*
X222201160Y-97056346D01*
X222069533Y-97271140D01*
X221973126Y-97503889D01*
X221914317Y-97748848D01*
X221894551Y-98000000D01*
X210105449Y-98000000D01*
X210085683Y-97748852D01*
X210026873Y-97503889D01*
X209930466Y-97271141D01*
X209930466Y-97271140D01*
X209798839Y-97056346D01*
X209798838Y-97056343D01*
X209705739Y-96947339D01*
X209635224Y-96864776D01*
X209505983Y-96754394D01*
X209443656Y-96701161D01*
X209443653Y-96701160D01*
X209228859Y-96569533D01*
X208996110Y-96473126D01*
X208751151Y-96414317D01*
X208500000Y-96394551D01*
X208248848Y-96414317D01*
X208003889Y-96473126D01*
X207771140Y-96569533D01*
X207556346Y-96701160D01*
X207556343Y-96701161D01*
X207364776Y-96864776D01*
X207201161Y-97056343D01*
X207201160Y-97056346D01*
X207069533Y-97271140D01*
X206973126Y-97503889D01*
X206914317Y-97748848D01*
X206914317Y-97748852D01*
X206894551Y-98000000D01*
X206914317Y-98251148D01*
X206914318Y-98251151D01*
X206914318Y-98251152D01*
X206914318Y-98251153D01*
X206924025Y-98291587D01*
X206920534Y-98361370D01*
X206879869Y-98418187D01*
X206814943Y-98443999D01*
X206771358Y-98440308D01*
X206649226Y-98407583D01*
X206619057Y-98399499D01*
X206460943Y-98399499D01*
X206453347Y-98399499D01*
X206453331Y-98399500D01*
X204384154Y-98399500D01*
X204317115Y-98379815D01*
X204271360Y-98327011D01*
X204261416Y-98257853D01*
X204290441Y-98194297D01*
X204331749Y-98163118D01*
X204402480Y-98130135D01*
X204475471Y-98079024D01*
X203796447Y-97400000D01*
X203802661Y-97400000D01*
X203904394Y-97372741D01*
X203995606Y-97320080D01*
X204070080Y-97245606D01*
X204122741Y-97154394D01*
X204150000Y-97052661D01*
X204150000Y-97046447D01*
X204829024Y-97725471D01*
X204880136Y-97652478D01*
X204976264Y-97446331D01*
X204976269Y-97446317D01*
X205035139Y-97226610D01*
X205035141Y-97226599D01*
X205054966Y-97000002D01*
X205054966Y-96999997D01*
X205035141Y-96773400D01*
X205035139Y-96773389D01*
X204976269Y-96553682D01*
X204976264Y-96553668D01*
X204880136Y-96347521D01*
X204880132Y-96347513D01*
X204829025Y-96274526D01*
X204150000Y-96953551D01*
X204150000Y-96947339D01*
X204122741Y-96845606D01*
X204070080Y-96754394D01*
X203995606Y-96679920D01*
X203904394Y-96627259D01*
X203802661Y-96600000D01*
X203796445Y-96600000D01*
X204475472Y-95920974D01*
X204402478Y-95869863D01*
X204196331Y-95773735D01*
X204196317Y-95773730D01*
X203976610Y-95714860D01*
X203976599Y-95714858D01*
X203750002Y-95695034D01*
X203749998Y-95695034D01*
X203523400Y-95714858D01*
X203523389Y-95714860D01*
X203303682Y-95773730D01*
X203303673Y-95773734D01*
X203097516Y-95869866D01*
X203097512Y-95869868D01*
X203024526Y-95920973D01*
X203024526Y-95920974D01*
X203703553Y-96600000D01*
X203697339Y-96600000D01*
X203595606Y-96627259D01*
X203504394Y-96679920D01*
X203429920Y-96754394D01*
X203377259Y-96845606D01*
X203350000Y-96947339D01*
X203350000Y-96953552D01*
X202670974Y-96274526D01*
X202670973Y-96274526D01*
X202619868Y-96347512D01*
X202619866Y-96347516D01*
X202523734Y-96553673D01*
X202523730Y-96553682D01*
X202464860Y-96773389D01*
X202464858Y-96773400D01*
X202445034Y-96999997D01*
X202445034Y-97000002D01*
X202464858Y-97226599D01*
X202464860Y-97226610D01*
X202523730Y-97446317D01*
X202523735Y-97446331D01*
X202619863Y-97652478D01*
X202670974Y-97725472D01*
X203350000Y-97046446D01*
X203350000Y-97052661D01*
X203377259Y-97154394D01*
X203429920Y-97245606D01*
X203504394Y-97320080D01*
X203595606Y-97372741D01*
X203697339Y-97400000D01*
X203703553Y-97400000D01*
X203024526Y-98079025D01*
X203097513Y-98130132D01*
X203097517Y-98130134D01*
X203168251Y-98163118D01*
X203220690Y-98209290D01*
X203239842Y-98276484D01*
X203219626Y-98343365D01*
X203166461Y-98388699D01*
X203115846Y-98399500D01*
X198884154Y-98399500D01*
X198817115Y-98379815D01*
X198771360Y-98327011D01*
X198761416Y-98257853D01*
X198790441Y-98194297D01*
X198831749Y-98163118D01*
X198902480Y-98130135D01*
X198975471Y-98079024D01*
X198296447Y-97400000D01*
X198302661Y-97400000D01*
X198404394Y-97372741D01*
X198495606Y-97320080D01*
X198570080Y-97245606D01*
X198622741Y-97154394D01*
X198650000Y-97052661D01*
X198650000Y-97046447D01*
X199329024Y-97725471D01*
X199380136Y-97652478D01*
X199476264Y-97446331D01*
X199476269Y-97446317D01*
X199535139Y-97226610D01*
X199535141Y-97226599D01*
X199554966Y-97000002D01*
X199554966Y-96999997D01*
X199535141Y-96773400D01*
X199535139Y-96773389D01*
X199476269Y-96553682D01*
X199476264Y-96553668D01*
X199380136Y-96347521D01*
X199380132Y-96347513D01*
X199329025Y-96274526D01*
X198650000Y-96953551D01*
X198650000Y-96947339D01*
X198622741Y-96845606D01*
X198570080Y-96754394D01*
X198495606Y-96679920D01*
X198404394Y-96627259D01*
X198302661Y-96600000D01*
X198296445Y-96600000D01*
X198975472Y-95920974D01*
X198902478Y-95869863D01*
X198696331Y-95773735D01*
X198696317Y-95773730D01*
X198476610Y-95714860D01*
X198476599Y-95714858D01*
X198250002Y-95695034D01*
X198249998Y-95695034D01*
X198023400Y-95714858D01*
X198023389Y-95714860D01*
X197803682Y-95773730D01*
X197803673Y-95773734D01*
X197597516Y-95869866D01*
X197597512Y-95869868D01*
X197524526Y-95920973D01*
X197524526Y-95920974D01*
X198203553Y-96600000D01*
X198197339Y-96600000D01*
X198095606Y-96627259D01*
X198004394Y-96679920D01*
X197929920Y-96754394D01*
X197877259Y-96845606D01*
X197850000Y-96947339D01*
X197850000Y-96953552D01*
X197170974Y-96274526D01*
X197170973Y-96274526D01*
X197119868Y-96347512D01*
X197119866Y-96347516D01*
X197023734Y-96553673D01*
X197023730Y-96553682D01*
X196964860Y-96773389D01*
X196964858Y-96773400D01*
X196945034Y-96999997D01*
X196945034Y-97000002D01*
X196964858Y-97226599D01*
X196964860Y-97226610D01*
X197023730Y-97446317D01*
X197023735Y-97446331D01*
X197119863Y-97652478D01*
X197170974Y-97725472D01*
X197850000Y-97046446D01*
X197850000Y-97052661D01*
X197877259Y-97154394D01*
X197929920Y-97245606D01*
X198004394Y-97320080D01*
X198095606Y-97372741D01*
X198197339Y-97400000D01*
X198203553Y-97400000D01*
X197524526Y-98079025D01*
X197597513Y-98130132D01*
X197597517Y-98130134D01*
X197668251Y-98163118D01*
X197720690Y-98209290D01*
X197739842Y-98276484D01*
X197719626Y-98343365D01*
X197666461Y-98388699D01*
X197615846Y-98399500D01*
X197300097Y-98399500D01*
X197233058Y-98379815D01*
X197212416Y-98363181D01*
X193894626Y-95045391D01*
X193861141Y-94984068D01*
X193866125Y-94914376D01*
X193907997Y-94858443D01*
X193953362Y-94837136D01*
X193996107Y-94826874D01*
X193996107Y-94826873D01*
X193996111Y-94826873D01*
X194228859Y-94730466D01*
X194443659Y-94598836D01*
X194635224Y-94435224D01*
X194798836Y-94243659D01*
X194930466Y-94028859D01*
X195026873Y-93796111D01*
X195085683Y-93551148D01*
X195105449Y-93300000D01*
X195085683Y-93048852D01*
X195026873Y-92803889D01*
X195005412Y-92752077D01*
X195005412Y-92752076D01*
X194997943Y-92682606D01*
X195029218Y-92620127D01*
X195032263Y-92616971D01*
X197012417Y-90636819D01*
X197073740Y-90603334D01*
X197100098Y-90600500D01*
X197614665Y-90600500D01*
X197681704Y-90620185D01*
X197727459Y-90672989D01*
X197737403Y-90742147D01*
X197708378Y-90805703D01*
X197667071Y-90836881D01*
X197639101Y-90849923D01*
X197597267Y-90869431D01*
X197597265Y-90869432D01*
X197410858Y-90999954D01*
X197249954Y-91160858D01*
X197119432Y-91347265D01*
X197119431Y-91347267D01*
X197023261Y-91553502D01*
X197023258Y-91553511D01*
X196964366Y-91773302D01*
X196964364Y-91773313D01*
X196944532Y-91999998D01*
X196944532Y-92000001D01*
X196964364Y-92226686D01*
X196964366Y-92226697D01*
X197023258Y-92446488D01*
X197023261Y-92446497D01*
X197119431Y-92652732D01*
X197119432Y-92652734D01*
X197249954Y-92839141D01*
X197410858Y-93000045D01*
X197410861Y-93000047D01*
X197597266Y-93130568D01*
X197803504Y-93226739D01*
X198023308Y-93285635D01*
X198185230Y-93299801D01*
X198249998Y-93305468D01*
X198250000Y-93305468D01*
X198250002Y-93305468D01*
X198312499Y-93300000D01*
X198476692Y-93285635D01*
X198696496Y-93226739D01*
X198902734Y-93130568D01*
X199089139Y-93000047D01*
X199250047Y-92839139D01*
X199380568Y-92652734D01*
X199476739Y-92446496D01*
X199535635Y-92226692D01*
X199555366Y-92001164D01*
X199555468Y-92000001D01*
X199555468Y-91999998D01*
X202444532Y-91999998D01*
X202444532Y-92000001D01*
X202464364Y-92226686D01*
X202464366Y-92226697D01*
X202523258Y-92446488D01*
X202523261Y-92446497D01*
X202619431Y-92652732D01*
X202619432Y-92652734D01*
X202749954Y-92839141D01*
X202910858Y-93000045D01*
X202910861Y-93000047D01*
X203097266Y-93130568D01*
X203303504Y-93226739D01*
X203523308Y-93285635D01*
X203685230Y-93299801D01*
X203749998Y-93305468D01*
X203750000Y-93305468D01*
X203750002Y-93305468D01*
X203812499Y-93300000D01*
X203976692Y-93285635D01*
X204196496Y-93226739D01*
X204402734Y-93130568D01*
X204589139Y-93000047D01*
X204750047Y-92839139D01*
X204880568Y-92652734D01*
X204976739Y-92446496D01*
X205035635Y-92226692D01*
X205055366Y-92001164D01*
X205055468Y-92000001D01*
X205055468Y-91999998D01*
X205044054Y-91869534D01*
X205035635Y-91773308D01*
X204976739Y-91553504D01*
X204880568Y-91347266D01*
X204750047Y-91160861D01*
X204750045Y-91160858D01*
X204589141Y-90999954D01*
X204402734Y-90869432D01*
X204402732Y-90869431D01*
X204196497Y-90773261D01*
X204196488Y-90773258D01*
X203976697Y-90714366D01*
X203976693Y-90714365D01*
X203976692Y-90714365D01*
X203976691Y-90714364D01*
X203976686Y-90714364D01*
X203750002Y-90694532D01*
X203749998Y-90694532D01*
X203523313Y-90714364D01*
X203523302Y-90714366D01*
X203303511Y-90773258D01*
X203303502Y-90773261D01*
X203097267Y-90869431D01*
X203097265Y-90869432D01*
X202910858Y-90999954D01*
X202749954Y-91160858D01*
X202619432Y-91347265D01*
X202619431Y-91347267D01*
X202523261Y-91553502D01*
X202523258Y-91553511D01*
X202464366Y-91773302D01*
X202464364Y-91773313D01*
X202444532Y-91999998D01*
X199555468Y-91999998D01*
X199544054Y-91869534D01*
X199535635Y-91773308D01*
X199476739Y-91553504D01*
X199380568Y-91347266D01*
X199250047Y-91160861D01*
X199250045Y-91160858D01*
X199089141Y-90999954D01*
X198902734Y-90869432D01*
X198902732Y-90869431D01*
X198891644Y-90864260D01*
X198832929Y-90836881D01*
X198780491Y-90790710D01*
X198761339Y-90723516D01*
X198781555Y-90656635D01*
X198834720Y-90611300D01*
X198885335Y-90600500D01*
X201698331Y-90600500D01*
X201698347Y-90600501D01*
X201705943Y-90600501D01*
X201864054Y-90600501D01*
X201864057Y-90600501D01*
X202016785Y-90559577D01*
X202066904Y-90530639D01*
X202153716Y-90480520D01*
X202265520Y-90368716D01*
X202265520Y-90368714D01*
X202275728Y-90358507D01*
X202275729Y-90358504D01*
X203575520Y-89058716D01*
X203654577Y-88921784D01*
X203695501Y-88769057D01*
X203695501Y-88610942D01*
X203695501Y-88603347D01*
X203695500Y-88603329D01*
X203695500Y-83323912D01*
X203695500Y-83323911D01*
X203680576Y-83268215D01*
X203654577Y-83171183D01*
X203625639Y-83121063D01*
X203575520Y-83034252D01*
X203463716Y-82922448D01*
X203463715Y-82922447D01*
X203459385Y-82918117D01*
X203459374Y-82918107D01*
X201365008Y-80823741D01*
X201331523Y-80762418D01*
X201336507Y-80692726D01*
X201378379Y-80636793D01*
X201443843Y-80612376D01*
X201512116Y-80627228D01*
X201514688Y-80628672D01*
X201518095Y-80630639D01*
X201518097Y-80630641D01*
X201556151Y-80652611D01*
X201568215Y-80659577D01*
X201720943Y-80700501D01*
X201720946Y-80700501D01*
X201886653Y-80700501D01*
X201886669Y-80700500D01*
X205399903Y-80700500D01*
X205466942Y-80720185D01*
X205487584Y-80736819D01*
X206289084Y-81538319D01*
X206322569Y-81599642D01*
X206317585Y-81669334D01*
X206285213Y-81712575D01*
X206286319Y-81713681D01*
X206278631Y-81721368D01*
X206275713Y-81725267D01*
X206274150Y-81725849D01*
X206250000Y-81750000D01*
X206250000Y-82927058D01*
X206182306Y-82899019D01*
X206061557Y-82875000D01*
X205938443Y-82875000D01*
X205817694Y-82899019D01*
X205750000Y-82927058D01*
X205750000Y-81750000D01*
X204702155Y-81750000D01*
X204642627Y-81756401D01*
X204642620Y-81756403D01*
X204507913Y-81806645D01*
X204507906Y-81806649D01*
X204392812Y-81892809D01*
X204392809Y-81892812D01*
X204306649Y-82007906D01*
X204306645Y-82007913D01*
X204256403Y-82142620D01*
X204256401Y-82142627D01*
X204250000Y-82202155D01*
X204250000Y-83250000D01*
X205427058Y-83250000D01*
X205399019Y-83317694D01*
X205375000Y-83438443D01*
X205375000Y-83561557D01*
X205399019Y-83682306D01*
X205427058Y-83750000D01*
X204250000Y-83750000D01*
X204250000Y-84797844D01*
X204256401Y-84857372D01*
X204256403Y-84857379D01*
X204306645Y-84992086D01*
X204306649Y-84992093D01*
X204392809Y-85107187D01*
X204392812Y-85107190D01*
X204507906Y-85193350D01*
X204507913Y-85193354D01*
X204642620Y-85243596D01*
X204642627Y-85243598D01*
X204702155Y-85249999D01*
X204702172Y-85250000D01*
X205750000Y-85250000D01*
X205750000Y-84072941D01*
X205817694Y-84100981D01*
X205938443Y-84125000D01*
X206061557Y-84125000D01*
X206182306Y-84100981D01*
X206250000Y-84072941D01*
X206250000Y-85250000D01*
X207297828Y-85250000D01*
X207297844Y-85249999D01*
X207357372Y-85243598D01*
X207357379Y-85243596D01*
X207492086Y-85193354D01*
X207492093Y-85193350D01*
X207607187Y-85107190D01*
X207607190Y-85107187D01*
X207693350Y-84992093D01*
X207693354Y-84992086D01*
X207743596Y-84857379D01*
X207743598Y-84857372D01*
X207749999Y-84797844D01*
X207750000Y-84797827D01*
X207750000Y-83750000D01*
X206572942Y-83750000D01*
X206600981Y-83682306D01*
X206625000Y-83561557D01*
X206625000Y-83438443D01*
X206600981Y-83317694D01*
X206572942Y-83250000D01*
X207750000Y-83250000D01*
X207786319Y-83213681D01*
X207788174Y-83215536D01*
X207822489Y-83185803D01*
X207891647Y-83175859D01*
X207955203Y-83204884D01*
X207961681Y-83210916D01*
X209263181Y-84512416D01*
X209296666Y-84573739D01*
X209299500Y-84600097D01*
X209299500Y-87013756D01*
X209279815Y-87080795D01*
X209227011Y-87126550D01*
X209157853Y-87136494D01*
X209128047Y-87128317D01*
X208995956Y-87073603D01*
X208751072Y-87014812D01*
X208500000Y-86995052D01*
X208248927Y-87014812D01*
X208004043Y-87073603D01*
X207771368Y-87169980D01*
X207556637Y-87301567D01*
X207555818Y-87302266D01*
X208214242Y-87960690D01*
X208168426Y-87979668D01*
X208053776Y-88056274D01*
X207956274Y-88153776D01*
X207879668Y-88268426D01*
X207860690Y-88314242D01*
X207202266Y-87655818D01*
X207201567Y-87656637D01*
X207069980Y-87871368D01*
X206973603Y-88104043D01*
X206914812Y-88348927D01*
X206895052Y-88600000D01*
X206914812Y-88851072D01*
X206973603Y-89095956D01*
X207069980Y-89328631D01*
X207201568Y-89543362D01*
X207202266Y-89544179D01*
X207860689Y-88885755D01*
X207879668Y-88931574D01*
X207956274Y-89046224D01*
X208053776Y-89143726D01*
X208168426Y-89220332D01*
X208214242Y-89239309D01*
X207555819Y-89897732D01*
X207555819Y-89897733D01*
X207556634Y-89898429D01*
X207771368Y-90030019D01*
X208004043Y-90126396D01*
X208248927Y-90185187D01*
X208500000Y-90204947D01*
X208751072Y-90185187D01*
X208995956Y-90126396D01*
X209128047Y-90071682D01*
X209197516Y-90064213D01*
X209259995Y-90095488D01*
X209295648Y-90155576D01*
X209299500Y-90186243D01*
X209299500Y-91599902D01*
X209279815Y-91666941D01*
X209263181Y-91687584D01*
X209183056Y-91767708D01*
X209121732Y-91801192D01*
X209052041Y-91796207D01*
X209047923Y-91794587D01*
X208996113Y-91773127D01*
X208751151Y-91714317D01*
X208500000Y-91694551D01*
X208248848Y-91714317D01*
X208003889Y-91773126D01*
X207771140Y-91869533D01*
X207556346Y-92001160D01*
X207556343Y-92001161D01*
X207364776Y-92164776D01*
X207201161Y-92356343D01*
X207201160Y-92356346D01*
X207069533Y-92571140D01*
X206973126Y-92803889D01*
X206914317Y-93048848D01*
X206894551Y-93300000D01*
X206914317Y-93551151D01*
X206973126Y-93796110D01*
X207069533Y-94028859D01*
X207201160Y-94243653D01*
X207201161Y-94243656D01*
X207201164Y-94243659D01*
X207364776Y-94435224D01*
X207513066Y-94561875D01*
X207556343Y-94598838D01*
X207556346Y-94598839D01*
X207771140Y-94730466D01*
X208003889Y-94826873D01*
X208248852Y-94885683D01*
X208500000Y-94905449D01*
X208751148Y-94885683D01*
X208996111Y-94826873D01*
X209228859Y-94730466D01*
X209443659Y-94598836D01*
X209635224Y-94435224D01*
X209798836Y-94243659D01*
X209930466Y-94028859D01*
X210026873Y-93796111D01*
X210085683Y-93551148D01*
X210105449Y-93300000D01*
X210085683Y-93048852D01*
X210026873Y-92803889D01*
X210005410Y-92752073D01*
X209997942Y-92682607D01*
X210029216Y-92620128D01*
X210032263Y-92616970D01*
X210258506Y-92390728D01*
X210258511Y-92390724D01*
X210268714Y-92380520D01*
X210268716Y-92380520D01*
X210380520Y-92268716D01*
X210383424Y-92263684D01*
X210440520Y-92164793D01*
X210440523Y-92164784D01*
X210440529Y-92164776D01*
X210459577Y-92131785D01*
X210500501Y-91979057D01*
X210500501Y-91820943D01*
X210500501Y-91813348D01*
X210500500Y-91813330D01*
X210500500Y-84389059D01*
X210500501Y-84389046D01*
X210500501Y-84220945D01*
X210500501Y-84220943D01*
X210459577Y-84068215D01*
X210422195Y-84003468D01*
X210380520Y-83931284D01*
X210268716Y-83819480D01*
X210268715Y-83819479D01*
X210264385Y-83815149D01*
X210264374Y-83815139D01*
X206961416Y-80512181D01*
X206927931Y-80450858D01*
X206932915Y-80381166D01*
X206974787Y-80325233D01*
X207040251Y-80300816D01*
X207049097Y-80300500D01*
X209599903Y-80300500D01*
X209666942Y-80320185D01*
X209687584Y-80336819D01*
X221967707Y-92616942D01*
X222001192Y-92678265D01*
X221996208Y-92747957D01*
X221994588Y-92752073D01*
X221973127Y-92803886D01*
X221973127Y-92803887D01*
X221914317Y-93048848D01*
X221894551Y-93300000D01*
X221914317Y-93551151D01*
X221973126Y-93796110D01*
X222069533Y-94028859D01*
X222201160Y-94243653D01*
X222201161Y-94243656D01*
X222201164Y-94243659D01*
X222364776Y-94435224D01*
X222513066Y-94561875D01*
X222556343Y-94598838D01*
X222556346Y-94598839D01*
X222771140Y-94730466D01*
X223003889Y-94826873D01*
X223248852Y-94885683D01*
X223500000Y-94905449D01*
X223751148Y-94885683D01*
X223996111Y-94826873D01*
X224228859Y-94730466D01*
X224443659Y-94598836D01*
X224635224Y-94435224D01*
X224798836Y-94243659D01*
X224930466Y-94028859D01*
X225026873Y-93796111D01*
X225085683Y-93551148D01*
X225105449Y-93300000D01*
X225085683Y-93048852D01*
X225026873Y-92803889D01*
X225005412Y-92752077D01*
X224930466Y-92571140D01*
X224798839Y-92356346D01*
X224798838Y-92356343D01*
X224723991Y-92268709D01*
X224635224Y-92164776D01*
X224508571Y-92056604D01*
X224443656Y-92001161D01*
X224443653Y-92001160D01*
X224228859Y-91869533D01*
X223996110Y-91773126D01*
X223751151Y-91714317D01*
X223500000Y-91694551D01*
X223248848Y-91714317D01*
X223003887Y-91773127D01*
X223003886Y-91773127D01*
X222952073Y-91794588D01*
X222882604Y-91802055D01*
X222820125Y-91770779D01*
X222816942Y-91767707D01*
X219649235Y-88600000D01*
X221895052Y-88600000D01*
X221914812Y-88851072D01*
X221973603Y-89095956D01*
X222069980Y-89328631D01*
X222201568Y-89543362D01*
X222202266Y-89544179D01*
X222860689Y-88885755D01*
X222879668Y-88931574D01*
X222956274Y-89046224D01*
X223053776Y-89143726D01*
X223168426Y-89220332D01*
X223214242Y-89239309D01*
X222555819Y-89897732D01*
X222555819Y-89897733D01*
X222556634Y-89898429D01*
X222771368Y-90030019D01*
X223004043Y-90126396D01*
X223248927Y-90185187D01*
X223500000Y-90204947D01*
X223751072Y-90185187D01*
X223995956Y-90126396D01*
X224228631Y-90030019D01*
X224443361Y-89898432D01*
X224443363Y-89898430D01*
X224444180Y-89897732D01*
X223785757Y-89239309D01*
X223831574Y-89220332D01*
X223946224Y-89143726D01*
X224043726Y-89046224D01*
X224120332Y-88931574D01*
X224139309Y-88885757D01*
X224797732Y-89544180D01*
X224798430Y-89543363D01*
X224798432Y-89543361D01*
X224930019Y-89328631D01*
X225026396Y-89095956D01*
X225085187Y-88851072D01*
X225104947Y-88600000D01*
X225085187Y-88348927D01*
X225026396Y-88104043D01*
X224930019Y-87871368D01*
X224798429Y-87656634D01*
X224797733Y-87655819D01*
X224797732Y-87655819D01*
X224139309Y-88314242D01*
X224120332Y-88268426D01*
X224043726Y-88153776D01*
X223946224Y-88056274D01*
X223831574Y-87979668D01*
X223785755Y-87960689D01*
X224444179Y-87302266D01*
X224443362Y-87301568D01*
X224228631Y-87169980D01*
X223995956Y-87073603D01*
X223751072Y-87014812D01*
X223500000Y-86995052D01*
X223248927Y-87014812D01*
X223004043Y-87073603D01*
X222771368Y-87169980D01*
X222556637Y-87301567D01*
X222555818Y-87302266D01*
X223214242Y-87960690D01*
X223168426Y-87979668D01*
X223053776Y-88056274D01*
X222956274Y-88153776D01*
X222879668Y-88268426D01*
X222860690Y-88314242D01*
X222202266Y-87655818D01*
X222201567Y-87656637D01*
X222069980Y-87871368D01*
X221973603Y-88104043D01*
X221914812Y-88348927D01*
X221895052Y-88600000D01*
X219649235Y-88600000D01*
X214549230Y-83499995D01*
X216744592Y-83499995D01*
X216744592Y-83500004D01*
X216764196Y-83761620D01*
X216764197Y-83761625D01*
X216822576Y-84017402D01*
X216822577Y-84017404D01*
X216822580Y-84017416D01*
X216918432Y-84261643D01*
X217049614Y-84488857D01*
X217129640Y-84589206D01*
X217213198Y-84693985D01*
X217389289Y-84857372D01*
X217405521Y-84872433D01*
X217622296Y-85020228D01*
X217622301Y-85020230D01*
X217622302Y-85020231D01*
X217622303Y-85020232D01*
X217747843Y-85080688D01*
X217858673Y-85134061D01*
X217858674Y-85134061D01*
X217858677Y-85134063D01*
X218109385Y-85211396D01*
X218368818Y-85250500D01*
X218631182Y-85250500D01*
X218890615Y-85211396D01*
X219141323Y-85134063D01*
X219377704Y-85020228D01*
X219594479Y-84872433D01*
X219765598Y-84713658D01*
X219786801Y-84693985D01*
X219786801Y-84693983D01*
X219786805Y-84693981D01*
X219950386Y-84488857D01*
X220081568Y-84261643D01*
X220177420Y-84017416D01*
X220235802Y-83761630D01*
X220236674Y-83750000D01*
X220255408Y-83500004D01*
X220255408Y-83499995D01*
X221744592Y-83499995D01*
X221744592Y-83500004D01*
X221764196Y-83761620D01*
X221764197Y-83761625D01*
X221822576Y-84017402D01*
X221822577Y-84017404D01*
X221822580Y-84017416D01*
X221918432Y-84261643D01*
X222049614Y-84488857D01*
X222129640Y-84589206D01*
X222213198Y-84693985D01*
X222389289Y-84857372D01*
X222405521Y-84872433D01*
X222622296Y-85020228D01*
X222622301Y-85020230D01*
X222622302Y-85020231D01*
X222622303Y-85020232D01*
X222747843Y-85080688D01*
X222858673Y-85134061D01*
X222858674Y-85134061D01*
X222858677Y-85134063D01*
X223109385Y-85211396D01*
X223368818Y-85250500D01*
X223631182Y-85250500D01*
X223890615Y-85211396D01*
X224141323Y-85134063D01*
X224377704Y-85020228D01*
X224594479Y-84872433D01*
X224765598Y-84713658D01*
X224786801Y-84693985D01*
X224786801Y-84693983D01*
X224786805Y-84693981D01*
X224950386Y-84488857D01*
X225081568Y-84261643D01*
X225177420Y-84017416D01*
X225235802Y-83761630D01*
X225236674Y-83750000D01*
X225255408Y-83500004D01*
X225255408Y-83499995D01*
X225235803Y-83238379D01*
X225235802Y-83238374D01*
X225235802Y-83238370D01*
X225177420Y-82982584D01*
X225081568Y-82738357D01*
X224950386Y-82511143D01*
X224786805Y-82306019D01*
X224786804Y-82306018D01*
X224786801Y-82306014D01*
X224594479Y-82127567D01*
X224377704Y-81979772D01*
X224377700Y-81979770D01*
X224377697Y-81979768D01*
X224377696Y-81979767D01*
X224141325Y-81865938D01*
X224141327Y-81865938D01*
X223890623Y-81788606D01*
X223890619Y-81788605D01*
X223890615Y-81788604D01*
X223759983Y-81768914D01*
X223631187Y-81749500D01*
X223631182Y-81749500D01*
X223368818Y-81749500D01*
X223368812Y-81749500D01*
X223207247Y-81773853D01*
X223109385Y-81788604D01*
X223109382Y-81788605D01*
X223109376Y-81788606D01*
X222858673Y-81865938D01*
X222622303Y-81979767D01*
X222622302Y-81979768D01*
X222405520Y-82127567D01*
X222213198Y-82306014D01*
X222049614Y-82511143D01*
X221918432Y-82738356D01*
X221822582Y-82982578D01*
X221822576Y-82982597D01*
X221764197Y-83238374D01*
X221764196Y-83238379D01*
X221744592Y-83499995D01*
X220255408Y-83499995D01*
X220235803Y-83238379D01*
X220235802Y-83238374D01*
X220235802Y-83238370D01*
X220177420Y-82982584D01*
X220081568Y-82738357D01*
X219950386Y-82511143D01*
X219786805Y-82306019D01*
X219786804Y-82306018D01*
X219786801Y-82306014D01*
X219594479Y-82127567D01*
X219377704Y-81979772D01*
X219377700Y-81979770D01*
X219377697Y-81979768D01*
X219377696Y-81979767D01*
X219141325Y-81865938D01*
X219141327Y-81865938D01*
X218890623Y-81788606D01*
X218890619Y-81788605D01*
X218890615Y-81788604D01*
X218759983Y-81768914D01*
X218631187Y-81749500D01*
X218631182Y-81749500D01*
X218368818Y-81749500D01*
X218368812Y-81749500D01*
X218207247Y-81773853D01*
X218109385Y-81788604D01*
X218109382Y-81788605D01*
X218109376Y-81788606D01*
X217858673Y-81865938D01*
X217622303Y-81979767D01*
X217622302Y-81979768D01*
X217405520Y-82127567D01*
X217213198Y-82306014D01*
X217049614Y-82511143D01*
X216918432Y-82738356D01*
X216822582Y-82982578D01*
X216822576Y-82982597D01*
X216764197Y-83238374D01*
X216764196Y-83238379D01*
X216744592Y-83499995D01*
X214549230Y-83499995D01*
X210998526Y-79949291D01*
X210965041Y-79887968D01*
X210970025Y-79818276D01*
X211011897Y-79762343D01*
X211033800Y-79749229D01*
X211087830Y-79724035D01*
X211281401Y-79588495D01*
X211448495Y-79421401D01*
X211578425Y-79235842D01*
X211633002Y-79192217D01*
X211702500Y-79185023D01*
X211764855Y-79216546D01*
X211781575Y-79235842D01*
X211911505Y-79421401D01*
X212078599Y-79588495D01*
X212160499Y-79645842D01*
X212272165Y-79724032D01*
X212272167Y-79724033D01*
X212272170Y-79724035D01*
X212486337Y-79823903D01*
X212486343Y-79823904D01*
X212486344Y-79823905D01*
X212514499Y-79831449D01*
X212714592Y-79885063D01*
X212891034Y-79900500D01*
X212949999Y-79905659D01*
X212950000Y-79905659D01*
X212950001Y-79905659D01*
X213008966Y-79900500D01*
X213185408Y-79885063D01*
X213413663Y-79823903D01*
X213627830Y-79724035D01*
X213821401Y-79588495D01*
X213988495Y-79421401D01*
X214118425Y-79235842D01*
X214173002Y-79192217D01*
X214242500Y-79185023D01*
X214304855Y-79216546D01*
X214321575Y-79235842D01*
X214451505Y-79421401D01*
X214618599Y-79588495D01*
X214700499Y-79645842D01*
X214812165Y-79724032D01*
X214812167Y-79724033D01*
X214812170Y-79724035D01*
X215026337Y-79823903D01*
X215026343Y-79823904D01*
X215026344Y-79823905D01*
X215054499Y-79831449D01*
X215254592Y-79885063D01*
X215431034Y-79900500D01*
X215489999Y-79905659D01*
X215490000Y-79905659D01*
X215490001Y-79905659D01*
X215548966Y-79900500D01*
X215725408Y-79885063D01*
X215953663Y-79823903D01*
X216167830Y-79724035D01*
X216361401Y-79588495D01*
X216528495Y-79421401D01*
X216658425Y-79235842D01*
X216713002Y-79192217D01*
X216782500Y-79185023D01*
X216844855Y-79216546D01*
X216861575Y-79235842D01*
X216991505Y-79421401D01*
X217158599Y-79588495D01*
X217240499Y-79645842D01*
X217352165Y-79724032D01*
X217352167Y-79724033D01*
X217352170Y-79724035D01*
X217566337Y-79823903D01*
X217566343Y-79823904D01*
X217566344Y-79823905D01*
X217594499Y-79831449D01*
X217794592Y-79885063D01*
X217971034Y-79900500D01*
X218029999Y-79905659D01*
X218030000Y-79905659D01*
X218030001Y-79905659D01*
X218088966Y-79900500D01*
X218265408Y-79885063D01*
X218493663Y-79823903D01*
X218707830Y-79724035D01*
X218901401Y-79588495D01*
X219068495Y-79421401D01*
X219198425Y-79235842D01*
X219253002Y-79192217D01*
X219322500Y-79185023D01*
X219384855Y-79216546D01*
X219401575Y-79235842D01*
X219531505Y-79421401D01*
X219698599Y-79588495D01*
X219780499Y-79645842D01*
X219892165Y-79724032D01*
X219892167Y-79724033D01*
X219892170Y-79724035D01*
X220106337Y-79823903D01*
X220106343Y-79823904D01*
X220106344Y-79823905D01*
X220134499Y-79831449D01*
X220334592Y-79885063D01*
X220511034Y-79900500D01*
X220569999Y-79905659D01*
X220570000Y-79905659D01*
X220570001Y-79905659D01*
X220628966Y-79900500D01*
X220805408Y-79885063D01*
X221033663Y-79823903D01*
X221247830Y-79724035D01*
X221441401Y-79588495D01*
X221608495Y-79421401D01*
X221738425Y-79235842D01*
X221793002Y-79192217D01*
X221862500Y-79185023D01*
X221924855Y-79216546D01*
X221941575Y-79235842D01*
X222071505Y-79421401D01*
X222238599Y-79588495D01*
X222320499Y-79645842D01*
X222432165Y-79724032D01*
X222432167Y-79724033D01*
X222432170Y-79724035D01*
X222646337Y-79823903D01*
X222646343Y-79823904D01*
X222646344Y-79823905D01*
X222674499Y-79831449D01*
X222874592Y-79885063D01*
X223051034Y-79900500D01*
X223109999Y-79905659D01*
X223110000Y-79905659D01*
X223110001Y-79905659D01*
X223168966Y-79900500D01*
X223345408Y-79885063D01*
X223573663Y-79823903D01*
X223787830Y-79724035D01*
X223981401Y-79588495D01*
X224148495Y-79421401D01*
X224278730Y-79235405D01*
X224333307Y-79191781D01*
X224402805Y-79184587D01*
X224465160Y-79216110D01*
X224481879Y-79235405D01*
X224535072Y-79311372D01*
X224535073Y-79311372D01*
X225126212Y-78720233D01*
X225137482Y-78762292D01*
X225209890Y-78887708D01*
X225312292Y-78990110D01*
X225437708Y-79062518D01*
X225479766Y-79073787D01*
X224888626Y-79664926D01*
X224972417Y-79723598D01*
X224972421Y-79723600D01*
X225186507Y-79823429D01*
X225186516Y-79823433D01*
X225414673Y-79884567D01*
X225414684Y-79884569D01*
X225649998Y-79905157D01*
X225650002Y-79905157D01*
X225885315Y-79884569D01*
X225885326Y-79884567D01*
X226113483Y-79823433D01*
X226113492Y-79823429D01*
X226327580Y-79723599D01*
X226411371Y-79664925D01*
X225820233Y-79073787D01*
X225862292Y-79062518D01*
X225987708Y-78990110D01*
X226090110Y-78887708D01*
X226162518Y-78762292D01*
X226173787Y-78720233D01*
X226764925Y-79311371D01*
X226823599Y-79227580D01*
X226923429Y-79013492D01*
X226923433Y-79013483D01*
X226984567Y-78785326D01*
X226984569Y-78785315D01*
X227005157Y-78550001D01*
X227005157Y-78549998D01*
X226984569Y-78314684D01*
X226984567Y-78314673D01*
X226923433Y-78086516D01*
X226923429Y-78086507D01*
X226823601Y-77872424D01*
X226764925Y-77788626D01*
X226173787Y-78379765D01*
X226162518Y-78337708D01*
X226090110Y-78212292D01*
X225987708Y-78109890D01*
X225862292Y-78037482D01*
X225820234Y-78026212D01*
X226411372Y-77435073D01*
X226327576Y-77376398D01*
X226113492Y-77276570D01*
X226113483Y-77276566D01*
X225885326Y-77215432D01*
X225885315Y-77215430D01*
X225650002Y-77194843D01*
X225649998Y-77194843D01*
X225414684Y-77215430D01*
X225414673Y-77215432D01*
X225186516Y-77276566D01*
X225186507Y-77276570D01*
X224972423Y-77376399D01*
X224972421Y-77376400D01*
X224888627Y-77435073D01*
X224888626Y-77435073D01*
X225479766Y-78026212D01*
X225437708Y-78037482D01*
X225312292Y-78109890D01*
X225209890Y-78212292D01*
X225137482Y-78337708D01*
X225126212Y-78379765D01*
X224535073Y-77788626D01*
X224535072Y-77788627D01*
X224481880Y-77864595D01*
X224427303Y-77908220D01*
X224357805Y-77915414D01*
X224295450Y-77883891D01*
X224278730Y-77864595D01*
X224148493Y-77678596D01*
X224049709Y-77579812D01*
X224016224Y-77518489D01*
X224021208Y-77448797D01*
X224049709Y-77404450D01*
X224476388Y-76977771D01*
X225105515Y-76348645D01*
X225181281Y-76217415D01*
X225220500Y-76071047D01*
X225220500Y-75919514D01*
X225220500Y-72333742D01*
X225240185Y-72266703D01*
X225292989Y-72220948D01*
X225362147Y-72211004D01*
X225425703Y-72240029D01*
G37*
%TD.AperFunction*%
%TA.AperFunction,Conductor*%
G36*
X193984855Y-79216546D02*
G01*
X194001575Y-79235842D01*
X194131505Y-79421401D01*
X194298599Y-79588495D01*
X194380499Y-79645842D01*
X194492165Y-79724032D01*
X194492167Y-79724033D01*
X194492170Y-79724035D01*
X194706337Y-79823903D01*
X194706343Y-79823904D01*
X194706344Y-79823905D01*
X194734499Y-79831449D01*
X194934592Y-79885063D01*
X195111034Y-79900500D01*
X195169999Y-79905659D01*
X195170000Y-79905659D01*
X195170001Y-79905659D01*
X195228966Y-79900500D01*
X195405408Y-79885063D01*
X195559417Y-79843797D01*
X195563407Y-79842728D01*
X195633257Y-79844391D01*
X195691119Y-79883554D01*
X195718623Y-79947782D01*
X195719500Y-79962503D01*
X195719500Y-81378330D01*
X195719499Y-81378348D01*
X195719499Y-81544054D01*
X195719498Y-81544054D01*
X195719499Y-81544057D01*
X195742294Y-81629131D01*
X195740632Y-81698979D01*
X195701470Y-81756842D01*
X195641005Y-81783837D01*
X195609390Y-81788603D01*
X195609376Y-81788606D01*
X195358673Y-81865938D01*
X195122303Y-81979767D01*
X195122302Y-81979768D01*
X194905520Y-82127567D01*
X194713198Y-82306014D01*
X194549614Y-82511143D01*
X194418432Y-82738356D01*
X194322582Y-82982578D01*
X194322576Y-82982597D01*
X194264197Y-83238374D01*
X194264196Y-83238379D01*
X194244592Y-83499995D01*
X194244592Y-83500004D01*
X194264196Y-83761620D01*
X194264197Y-83761625D01*
X194322576Y-84017402D01*
X194322577Y-84017404D01*
X194322580Y-84017416D01*
X194418432Y-84261643D01*
X194549614Y-84488857D01*
X194629640Y-84589206D01*
X194713198Y-84693985D01*
X194889289Y-84857372D01*
X194905521Y-84872433D01*
X195122296Y-85020228D01*
X195122301Y-85020230D01*
X195122302Y-85020231D01*
X195122303Y-85020232D01*
X195247843Y-85080688D01*
X195358673Y-85134061D01*
X195358674Y-85134061D01*
X195358677Y-85134063D01*
X195609385Y-85211396D01*
X195868818Y-85250500D01*
X196131182Y-85250500D01*
X196390615Y-85211396D01*
X196641323Y-85134063D01*
X196877704Y-85020228D01*
X197094479Y-84872433D01*
X197265598Y-84713658D01*
X197286801Y-84693985D01*
X197286801Y-84693983D01*
X197286805Y-84693981D01*
X197450386Y-84488857D01*
X197581568Y-84261643D01*
X197677420Y-84017416D01*
X197691748Y-83954643D01*
X197725857Y-83893665D01*
X197787518Y-83860807D01*
X197857156Y-83866502D01*
X197900320Y-83894555D01*
X200280635Y-86274871D01*
X200314120Y-86336194D01*
X200309136Y-86405886D01*
X200267264Y-86461819D01*
X200201800Y-86486236D01*
X200145501Y-86477113D01*
X200029127Y-86428909D01*
X200029119Y-86428907D01*
X199831007Y-86389500D01*
X199831003Y-86389500D01*
X199628997Y-86389500D01*
X199628992Y-86389500D01*
X199430880Y-86428907D01*
X199430872Y-86428909D01*
X199244247Y-86506212D01*
X199244237Y-86506217D01*
X199076281Y-86618441D01*
X198933441Y-86761281D01*
X198821217Y-86929237D01*
X198821212Y-86929247D01*
X198743909Y-87115872D01*
X198743907Y-87115880D01*
X198704500Y-87313992D01*
X198704500Y-87966007D01*
X198743907Y-88164119D01*
X198743909Y-88164127D01*
X198821212Y-88350752D01*
X198821217Y-88350762D01*
X198933441Y-88518718D01*
X199076281Y-88661558D01*
X199244237Y-88773782D01*
X199244241Y-88773784D01*
X199244244Y-88773786D01*
X199430873Y-88851091D01*
X199596777Y-88884091D01*
X199628992Y-88890499D01*
X199628996Y-88890500D01*
X199628997Y-88890500D01*
X199831004Y-88890500D01*
X199831005Y-88890499D01*
X200029127Y-88851091D01*
X200215756Y-88773786D01*
X200296562Y-88719792D01*
X200363234Y-88698917D01*
X200430614Y-88717401D01*
X200434340Y-88719795D01*
X200514479Y-88773343D01*
X200514486Y-88773347D01*
X200701016Y-88850609D01*
X200701025Y-88850612D01*
X200750000Y-88860353D01*
X200750000Y-88005865D01*
X200752383Y-87981671D01*
X200752782Y-87979668D01*
X200755500Y-87966003D01*
X200755500Y-87925830D01*
X200769745Y-87940075D01*
X200855255Y-87989444D01*
X200950630Y-88015000D01*
X201049370Y-88015000D01*
X201144745Y-87989444D01*
X201230255Y-87940075D01*
X201244500Y-87925830D01*
X201244500Y-88437870D01*
X201244501Y-88437874D01*
X201249290Y-88482421D01*
X201250000Y-88495675D01*
X201250000Y-88860352D01*
X201298974Y-88850611D01*
X201298978Y-88850610D01*
X201379333Y-88817326D01*
X201448802Y-88809857D01*
X201494725Y-88829845D01*
X201494888Y-88829547D01*
X201498220Y-88831366D01*
X201501095Y-88832618D01*
X201502668Y-88833795D01*
X201502670Y-88833797D01*
X201573869Y-88860352D01*
X201637517Y-88884091D01*
X201697127Y-88890500D01*
X201745901Y-88890499D01*
X201812938Y-88910182D01*
X201858694Y-88962985D01*
X201868639Y-89032144D01*
X201839616Y-89095700D01*
X201833583Y-89102180D01*
X201723636Y-89212128D01*
X201572582Y-89363182D01*
X201511262Y-89396666D01*
X201484903Y-89399500D01*
X196886670Y-89399500D01*
X196886654Y-89399499D01*
X196879058Y-89399499D01*
X196720943Y-89399499D01*
X196644579Y-89419961D01*
X196568214Y-89440423D01*
X196568209Y-89440426D01*
X196431290Y-89519475D01*
X196431282Y-89519481D01*
X194183055Y-91767707D01*
X194121732Y-91801192D01*
X194052040Y-91796208D01*
X194047922Y-91794587D01*
X193996113Y-91773127D01*
X193751151Y-91714317D01*
X193500000Y-91694551D01*
X193248848Y-91714317D01*
X193003889Y-91773126D01*
X192771140Y-91869533D01*
X192556346Y-92001160D01*
X192556343Y-92001161D01*
X192364776Y-92164776D01*
X192201161Y-92356343D01*
X192201160Y-92356346D01*
X192069533Y-92571140D01*
X191973127Y-92803888D01*
X191962863Y-92846640D01*
X191928071Y-92907232D01*
X191866045Y-92939395D01*
X191796476Y-92932919D01*
X191754608Y-92905373D01*
X188186819Y-89337584D01*
X188153334Y-89276261D01*
X188150500Y-89249903D01*
X188150500Y-88600000D01*
X191895052Y-88600000D01*
X191914812Y-88851072D01*
X191973603Y-89095956D01*
X192069980Y-89328631D01*
X192201568Y-89543362D01*
X192202266Y-89544179D01*
X192860689Y-88885755D01*
X192879668Y-88931574D01*
X192956274Y-89046224D01*
X193053776Y-89143726D01*
X193168426Y-89220332D01*
X193214242Y-89239309D01*
X192555819Y-89897732D01*
X192555819Y-89897733D01*
X192556634Y-89898429D01*
X192771368Y-90030019D01*
X193004043Y-90126396D01*
X193248927Y-90185187D01*
X193500000Y-90204947D01*
X193751072Y-90185187D01*
X193995956Y-90126396D01*
X194228631Y-90030019D01*
X194443361Y-89898432D01*
X194443363Y-89898430D01*
X194444180Y-89897732D01*
X193785757Y-89239309D01*
X193831574Y-89220332D01*
X193946224Y-89143726D01*
X194043726Y-89046224D01*
X194120332Y-88931574D01*
X194139309Y-88885757D01*
X194797732Y-89544180D01*
X194798430Y-89543363D01*
X194798432Y-89543361D01*
X194930019Y-89328631D01*
X195026396Y-89095956D01*
X195085187Y-88851072D01*
X195104947Y-88600000D01*
X195085187Y-88348927D01*
X195026396Y-88104043D01*
X194930019Y-87871368D01*
X194798429Y-87656634D01*
X194797733Y-87655819D01*
X194797732Y-87655819D01*
X194139309Y-88314242D01*
X194120332Y-88268426D01*
X194043726Y-88153776D01*
X193946224Y-88056274D01*
X193831574Y-87979668D01*
X193785755Y-87960689D01*
X194444179Y-87302266D01*
X194443362Y-87301568D01*
X194228631Y-87169980D01*
X193995956Y-87073603D01*
X193751072Y-87014812D01*
X193500000Y-86995052D01*
X193248927Y-87014812D01*
X193004043Y-87073603D01*
X192771368Y-87169980D01*
X192556637Y-87301567D01*
X192555818Y-87302266D01*
X193214242Y-87960690D01*
X193168426Y-87979668D01*
X193053776Y-88056274D01*
X192956274Y-88153776D01*
X192879668Y-88268426D01*
X192860690Y-88314242D01*
X192202266Y-87655818D01*
X192201567Y-87656637D01*
X192069980Y-87871368D01*
X191973603Y-88104043D01*
X191914812Y-88348927D01*
X191895052Y-88600000D01*
X188150500Y-88600000D01*
X188150500Y-79839090D01*
X188170185Y-79772051D01*
X188222101Y-79726706D01*
X188227830Y-79724035D01*
X188421401Y-79588495D01*
X188588495Y-79421401D01*
X188718425Y-79235842D01*
X188773002Y-79192217D01*
X188842500Y-79185023D01*
X188904855Y-79216546D01*
X188921575Y-79235842D01*
X189051505Y-79421401D01*
X189218599Y-79588495D01*
X189300499Y-79645842D01*
X189412165Y-79724032D01*
X189412167Y-79724033D01*
X189412170Y-79724035D01*
X189626337Y-79823903D01*
X189626343Y-79823904D01*
X189626344Y-79823905D01*
X189654499Y-79831449D01*
X189854592Y-79885063D01*
X190031034Y-79900500D01*
X190089999Y-79905659D01*
X190090000Y-79905659D01*
X190090001Y-79905659D01*
X190148966Y-79900500D01*
X190325408Y-79885063D01*
X190553663Y-79823903D01*
X190767830Y-79724035D01*
X190961401Y-79588495D01*
X191128495Y-79421401D01*
X191258425Y-79235842D01*
X191313002Y-79192217D01*
X191382500Y-79185023D01*
X191444855Y-79216546D01*
X191461575Y-79235842D01*
X191591505Y-79421401D01*
X191758599Y-79588495D01*
X191840499Y-79645842D01*
X191952165Y-79724032D01*
X191952167Y-79724033D01*
X191952170Y-79724035D01*
X192166337Y-79823903D01*
X192166343Y-79823904D01*
X192166344Y-79823905D01*
X192194499Y-79831449D01*
X192394592Y-79885063D01*
X192571034Y-79900500D01*
X192629999Y-79905659D01*
X192630000Y-79905659D01*
X192630001Y-79905659D01*
X192688966Y-79900500D01*
X192865408Y-79885063D01*
X193093663Y-79823903D01*
X193307830Y-79724035D01*
X193501401Y-79588495D01*
X193668495Y-79421401D01*
X193798425Y-79235842D01*
X193853002Y-79192217D01*
X193922500Y-79185023D01*
X193984855Y-79216546D01*
G37*
%TD.AperFunction*%
%TA.AperFunction,Conductor*%
G36*
X181268834Y-81682914D02*
G01*
X181324767Y-81724786D01*
X181349184Y-81790250D01*
X181349500Y-81799096D01*
X181349500Y-89549901D01*
X181329815Y-89616940D01*
X181313181Y-89637582D01*
X179183055Y-91767707D01*
X179121732Y-91801192D01*
X179052040Y-91796208D01*
X179047922Y-91794587D01*
X178996113Y-91773127D01*
X178751151Y-91714317D01*
X178500000Y-91694551D01*
X178248848Y-91714317D01*
X178003889Y-91773126D01*
X177771140Y-91869533D01*
X177556346Y-92001160D01*
X177556343Y-92001161D01*
X177364776Y-92164776D01*
X177201161Y-92356343D01*
X177201160Y-92356346D01*
X177130227Y-92472098D01*
X177078415Y-92518973D01*
X177009486Y-92530396D01*
X176945323Y-92502738D01*
X176906298Y-92444783D01*
X176900500Y-92407308D01*
X176900500Y-89491734D01*
X176920185Y-89424695D01*
X176972989Y-89378940D01*
X177042147Y-89368996D01*
X177105703Y-89398021D01*
X177130227Y-89426944D01*
X177201568Y-89543362D01*
X177202266Y-89544179D01*
X177860689Y-88885755D01*
X177879668Y-88931574D01*
X177956274Y-89046224D01*
X178053776Y-89143726D01*
X178168426Y-89220332D01*
X178214242Y-89239309D01*
X177555819Y-89897732D01*
X177555819Y-89897733D01*
X177556634Y-89898429D01*
X177771368Y-90030019D01*
X178004043Y-90126396D01*
X178248927Y-90185187D01*
X178500000Y-90204947D01*
X178751072Y-90185187D01*
X178995956Y-90126396D01*
X179228631Y-90030019D01*
X179443361Y-89898432D01*
X179443363Y-89898430D01*
X179444180Y-89897732D01*
X178785757Y-89239309D01*
X178831574Y-89220332D01*
X178946224Y-89143726D01*
X179043726Y-89046224D01*
X179120332Y-88931574D01*
X179139309Y-88885757D01*
X179797732Y-89544180D01*
X179798430Y-89543363D01*
X179798432Y-89543361D01*
X179930019Y-89328631D01*
X180026396Y-89095956D01*
X180085187Y-88851072D01*
X180104947Y-88600000D01*
X180085187Y-88348927D01*
X180026396Y-88104043D01*
X179930019Y-87871368D01*
X179798429Y-87656634D01*
X179797733Y-87655819D01*
X179797732Y-87655819D01*
X179139309Y-88314242D01*
X179120332Y-88268426D01*
X179043726Y-88153776D01*
X178946224Y-88056274D01*
X178831574Y-87979668D01*
X178785755Y-87960689D01*
X179444179Y-87302266D01*
X179443362Y-87301568D01*
X179228631Y-87169980D01*
X178995956Y-87073603D01*
X178751072Y-87014812D01*
X178500000Y-86995052D01*
X178248927Y-87014812D01*
X178004043Y-87073603D01*
X177771368Y-87169980D01*
X177556637Y-87301567D01*
X177555818Y-87302266D01*
X178214242Y-87960690D01*
X178168426Y-87979668D01*
X178053776Y-88056274D01*
X177956274Y-88153776D01*
X177879668Y-88268426D01*
X177860690Y-88314242D01*
X177202266Y-87655818D01*
X177201567Y-87656637D01*
X177130227Y-87773055D01*
X177078415Y-87819930D01*
X177009486Y-87831353D01*
X176945323Y-87803696D01*
X176906298Y-87745740D01*
X176900500Y-87708265D01*
X176900500Y-84656245D01*
X176920185Y-84589206D01*
X176972989Y-84543451D01*
X177042147Y-84533507D01*
X177105703Y-84562532D01*
X177121443Y-84578928D01*
X177129640Y-84589206D01*
X177213198Y-84693985D01*
X177389289Y-84857372D01*
X177405521Y-84872433D01*
X177622296Y-85020228D01*
X177622301Y-85020230D01*
X177622302Y-85020231D01*
X177622303Y-85020232D01*
X177747843Y-85080688D01*
X177858673Y-85134061D01*
X177858674Y-85134061D01*
X177858677Y-85134063D01*
X178109385Y-85211396D01*
X178368818Y-85250500D01*
X178631182Y-85250500D01*
X178890615Y-85211396D01*
X179141323Y-85134063D01*
X179377704Y-85020228D01*
X179594479Y-84872433D01*
X179765598Y-84713658D01*
X179786801Y-84693985D01*
X179786801Y-84693983D01*
X179786805Y-84693981D01*
X179950386Y-84488857D01*
X180081568Y-84261643D01*
X180177420Y-84017416D01*
X180235802Y-83761630D01*
X180236674Y-83750000D01*
X180255408Y-83500004D01*
X180255408Y-83499995D01*
X180235803Y-83238379D01*
X180235802Y-83238374D01*
X180235802Y-83238370D01*
X180177420Y-82982584D01*
X180119488Y-82834976D01*
X180113320Y-82765384D01*
X180145758Y-82703500D01*
X180147174Y-82702059D01*
X181137820Y-81711413D01*
X181199142Y-81677930D01*
X181268834Y-81682914D01*
G37*
%TD.AperFunction*%
%TA.AperFunction,Conductor*%
G36*
X184201031Y-79637062D02*
G01*
X184228820Y-79651669D01*
X184332165Y-79724032D01*
X184332167Y-79724033D01*
X184332170Y-79724035D01*
X184502905Y-79803650D01*
X184555344Y-79849822D01*
X184574500Y-79916032D01*
X184574500Y-81626000D01*
X184554815Y-81693039D01*
X184502011Y-81738794D01*
X184450500Y-81750000D01*
X183750000Y-81750000D01*
X183750000Y-82927058D01*
X183682306Y-82899019D01*
X183561557Y-82875000D01*
X183438443Y-82875000D01*
X183317694Y-82899019D01*
X183250000Y-82927058D01*
X183250000Y-81750000D01*
X182674500Y-81750000D01*
X182607461Y-81730315D01*
X182561706Y-81677511D01*
X182550500Y-81626000D01*
X182550500Y-81236442D01*
X182570185Y-81169403D01*
X182586814Y-81148766D01*
X184070018Y-79665561D01*
X184131339Y-79632078D01*
X184201031Y-79637062D01*
G37*
%TD.AperFunction*%
%TA.AperFunction,Conductor*%
G36*
X199741084Y-72097166D02*
G01*
X199756039Y-72109919D01*
X204779224Y-77133104D01*
X204812709Y-77194427D01*
X204807725Y-77264119D01*
X204765853Y-77320052D01*
X204743949Y-77333166D01*
X204652176Y-77375961D01*
X204652169Y-77375965D01*
X204458597Y-77511505D01*
X204291505Y-77678597D01*
X204161575Y-77864158D01*
X204106998Y-77907783D01*
X204037500Y-77914977D01*
X203975145Y-77883454D01*
X203958425Y-77864158D01*
X203828494Y-77678597D01*
X203661402Y-77511506D01*
X203661395Y-77511501D01*
X203467834Y-77375967D01*
X203467830Y-77375965D01*
X203403096Y-77345779D01*
X203253663Y-77276097D01*
X203253659Y-77276096D01*
X203253655Y-77276094D01*
X203025413Y-77214938D01*
X203025403Y-77214936D01*
X202790001Y-77194341D01*
X202789999Y-77194341D01*
X202554596Y-77214936D01*
X202554586Y-77214938D01*
X202326344Y-77276094D01*
X202326335Y-77276098D01*
X202112171Y-77375964D01*
X202112169Y-77375965D01*
X201918597Y-77511505D01*
X201751505Y-77678597D01*
X201621575Y-77864158D01*
X201566998Y-77907783D01*
X201497500Y-77914977D01*
X201435145Y-77883454D01*
X201418425Y-77864158D01*
X201288494Y-77678597D01*
X201121402Y-77511506D01*
X201121395Y-77511501D01*
X200927834Y-77375967D01*
X200927830Y-77375965D01*
X200863096Y-77345779D01*
X200713663Y-77276097D01*
X200713659Y-77276096D01*
X200713655Y-77276094D01*
X200485413Y-77214938D01*
X200485403Y-77214936D01*
X200250001Y-77194341D01*
X200249999Y-77194341D01*
X200014596Y-77214936D01*
X200014586Y-77214938D01*
X199786344Y-77276094D01*
X199786335Y-77276098D01*
X199572171Y-77375964D01*
X199572169Y-77375965D01*
X199378597Y-77511505D01*
X199211505Y-77678597D01*
X199081575Y-77864158D01*
X199026998Y-77907783D01*
X198957500Y-77914977D01*
X198895145Y-77883454D01*
X198878425Y-77864158D01*
X198748494Y-77678597D01*
X198581402Y-77511506D01*
X198581395Y-77511501D01*
X198387834Y-77375967D01*
X198387830Y-77375965D01*
X198323096Y-77345779D01*
X198173663Y-77276097D01*
X198173659Y-77276096D01*
X198173655Y-77276094D01*
X197945413Y-77214938D01*
X197945403Y-77214936D01*
X197710001Y-77194341D01*
X197709999Y-77194341D01*
X197474596Y-77214936D01*
X197474586Y-77214938D01*
X197246344Y-77276094D01*
X197246335Y-77276098D01*
X197032171Y-77375964D01*
X197032169Y-77375965D01*
X196838597Y-77511505D01*
X196810523Y-77539580D01*
X196749200Y-77573065D01*
X196679508Y-77568081D01*
X196635161Y-77539580D01*
X196073352Y-76977771D01*
X196039867Y-76916448D01*
X196044851Y-76846756D01*
X196086723Y-76790823D01*
X196099046Y-76782695D01*
X196102713Y-76780577D01*
X196102734Y-76780568D01*
X196289139Y-76650047D01*
X196450047Y-76489139D01*
X196580568Y-76302734D01*
X196676739Y-76096496D01*
X196735635Y-75876692D01*
X196755468Y-75650000D01*
X196735635Y-75423308D01*
X196702375Y-75299179D01*
X196704038Y-75229333D01*
X196734466Y-75179412D01*
X196781805Y-75132073D01*
X196843126Y-75098591D01*
X196912818Y-75103576D01*
X196968751Y-75145448D01*
X196989258Y-75187663D01*
X197023731Y-75316320D01*
X197023734Y-75316326D01*
X197119865Y-75522482D01*
X197250342Y-75708820D01*
X197411179Y-75869657D01*
X197597517Y-76000134D01*
X197803673Y-76096265D01*
X197803682Y-76096269D01*
X197999999Y-76148872D01*
X198000000Y-76148871D01*
X198000000Y-75185686D01*
X198004394Y-75190080D01*
X198095606Y-75242741D01*
X198197339Y-75270000D01*
X198302661Y-75270000D01*
X198404394Y-75242741D01*
X198495606Y-75190080D01*
X198500000Y-75185686D01*
X198500000Y-76148872D01*
X198696317Y-76096269D01*
X198696326Y-76096265D01*
X198902482Y-76000134D01*
X199088820Y-75869657D01*
X199249657Y-75708820D01*
X199380134Y-75522482D01*
X199476265Y-75316326D01*
X199476269Y-75316317D01*
X199528872Y-75120000D01*
X198565686Y-75120000D01*
X198570080Y-75115606D01*
X198622741Y-75024394D01*
X198650000Y-74922661D01*
X198650000Y-74817339D01*
X198622741Y-74715606D01*
X198570080Y-74624394D01*
X198565686Y-74620000D01*
X199528872Y-74620000D01*
X199528872Y-74619999D01*
X199476269Y-74423682D01*
X199476265Y-74423673D01*
X199380134Y-74217517D01*
X199249657Y-74031179D01*
X199088820Y-73870342D01*
X198902482Y-73739865D01*
X198844133Y-73712657D01*
X198791694Y-73666484D01*
X198772542Y-73599291D01*
X198792758Y-73532410D01*
X198844129Y-73487895D01*
X198902734Y-73460568D01*
X199089139Y-73330047D01*
X199250047Y-73169139D01*
X199380568Y-72982734D01*
X199476739Y-72776496D01*
X199535635Y-72556692D01*
X199555468Y-72330000D01*
X199553611Y-72308780D01*
X199544830Y-72208407D01*
X199558597Y-72139907D01*
X199607212Y-72089724D01*
X199675240Y-72073791D01*
X199741084Y-72097166D01*
G37*
%TD.AperFunction*%
%TA.AperFunction,Conductor*%
G36*
X194271460Y-70245185D02*
G01*
X194316802Y-70297095D01*
X194319432Y-70302734D01*
X194449954Y-70489141D01*
X194610858Y-70650045D01*
X194610861Y-70650047D01*
X194797266Y-70780568D01*
X195003504Y-70876739D01*
X195003509Y-70876740D01*
X195003511Y-70876741D01*
X195056415Y-70890916D01*
X195223308Y-70935635D01*
X195385230Y-70949801D01*
X195449998Y-70955468D01*
X195450000Y-70955468D01*
X195450002Y-70955468D01*
X195506673Y-70950509D01*
X195676692Y-70935635D01*
X195800815Y-70902376D01*
X195870665Y-70904039D01*
X195920590Y-70934470D01*
X196444185Y-71458065D01*
X196477670Y-71519388D01*
X196472686Y-71589080D01*
X196430814Y-71645013D01*
X196365350Y-71669430D01*
X196297077Y-71654578D01*
X196285381Y-71647321D01*
X196102734Y-71519432D01*
X196102732Y-71519431D01*
X195896497Y-71423261D01*
X195896488Y-71423258D01*
X195676697Y-71364366D01*
X195676693Y-71364365D01*
X195676692Y-71364365D01*
X195676691Y-71364364D01*
X195676686Y-71364364D01*
X195450002Y-71344532D01*
X195449998Y-71344532D01*
X195223313Y-71364364D01*
X195223302Y-71364366D01*
X195003511Y-71423258D01*
X195003502Y-71423261D01*
X194797267Y-71519431D01*
X194797265Y-71519432D01*
X194610858Y-71649954D01*
X194449954Y-71810858D01*
X194319432Y-71997265D01*
X194319431Y-71997267D01*
X194223261Y-72203502D01*
X194223258Y-72203511D01*
X194164366Y-72423302D01*
X194164364Y-72423313D01*
X194144532Y-72649998D01*
X194144532Y-72650001D01*
X194164364Y-72876686D01*
X194164366Y-72876697D01*
X194190152Y-72972931D01*
X194188489Y-73042781D01*
X194158058Y-73092705D01*
X193981286Y-73269478D01*
X193869481Y-73381282D01*
X193869477Y-73381287D01*
X193823706Y-73460567D01*
X193823706Y-73460568D01*
X193790423Y-73518214D01*
X193781193Y-73552661D01*
X193749499Y-73670943D01*
X193749499Y-73670945D01*
X193749499Y-73839046D01*
X193749500Y-73839059D01*
X193749500Y-76018965D01*
X193749499Y-76018983D01*
X193749499Y-76184689D01*
X193749498Y-76184689D01*
X193749499Y-76184692D01*
X193765231Y-76243407D01*
X193763569Y-76313255D01*
X193724407Y-76371118D01*
X193660179Y-76398622D01*
X193645457Y-76399499D01*
X193533347Y-76399499D01*
X193533331Y-76399500D01*
X186569535Y-76399500D01*
X186502496Y-76379815D01*
X186456741Y-76327011D01*
X186446797Y-76257853D01*
X186457153Y-76223095D01*
X186516265Y-76096326D01*
X186516269Y-76096317D01*
X186575139Y-75876610D01*
X186575141Y-75876599D01*
X186594966Y-75650002D01*
X186594966Y-75649997D01*
X186575141Y-75423400D01*
X186575139Y-75423389D01*
X186516269Y-75203682D01*
X186516264Y-75203668D01*
X186420136Y-74997521D01*
X186420132Y-74997513D01*
X186369025Y-74924526D01*
X185690000Y-75603553D01*
X185690000Y-75597339D01*
X185662741Y-75495606D01*
X185610080Y-75404394D01*
X185535606Y-75329920D01*
X185444394Y-75277259D01*
X185342661Y-75250000D01*
X185336445Y-75250000D01*
X186015472Y-74570974D01*
X185942478Y-74519863D01*
X185736331Y-74423735D01*
X185736317Y-74423730D01*
X185516610Y-74364860D01*
X185516599Y-74364858D01*
X185290002Y-74345034D01*
X185289998Y-74345034D01*
X185063400Y-74364858D01*
X185063389Y-74364860D01*
X184843682Y-74423730D01*
X184843673Y-74423734D01*
X184637516Y-74519866D01*
X184637512Y-74519868D01*
X184564526Y-74570973D01*
X184564526Y-74570974D01*
X185243553Y-75250000D01*
X185237339Y-75250000D01*
X185135606Y-75277259D01*
X185044394Y-75329920D01*
X184969920Y-75404394D01*
X184917259Y-75495606D01*
X184890000Y-75597339D01*
X184890000Y-75603552D01*
X184210974Y-74924526D01*
X184210973Y-74924526D01*
X184159868Y-74997512D01*
X184159866Y-74997516D01*
X184063734Y-75203673D01*
X184063730Y-75203682D01*
X184004860Y-75423389D01*
X184004858Y-75423400D01*
X183985034Y-75649997D01*
X183985034Y-75650002D01*
X184004858Y-75876599D01*
X184004860Y-75876610D01*
X184063730Y-76096317D01*
X184063735Y-76096331D01*
X184159863Y-76302478D01*
X184210974Y-76375472D01*
X184890000Y-75696446D01*
X184890000Y-75702661D01*
X184917259Y-75804394D01*
X184969920Y-75895606D01*
X185044394Y-75970080D01*
X185135606Y-76022741D01*
X185237339Y-76050000D01*
X185243553Y-76050000D01*
X184929800Y-76363752D01*
X184868477Y-76397237D01*
X184858316Y-76399009D01*
X184854602Y-76399498D01*
X184854598Y-76399499D01*
X184854597Y-76399499D01*
X184778233Y-76419961D01*
X184701864Y-76440424D01*
X184701863Y-76440425D01*
X184651750Y-76469359D01*
X184651749Y-76469360D01*
X184617491Y-76489139D01*
X184564939Y-76519479D01*
X184564936Y-76519481D01*
X183544838Y-77539580D01*
X183483515Y-77573065D01*
X183413823Y-77568081D01*
X183369476Y-77539580D01*
X183341402Y-77511506D01*
X183341395Y-77511501D01*
X183147834Y-77375967D01*
X183147830Y-77375965D01*
X183083096Y-77345779D01*
X182933663Y-77276097D01*
X182933659Y-77276096D01*
X182933655Y-77276094D01*
X182705413Y-77214938D01*
X182705403Y-77214936D01*
X182470001Y-77194341D01*
X182469999Y-77194341D01*
X182234596Y-77214936D01*
X182234586Y-77214938D01*
X182006344Y-77276094D01*
X182006335Y-77276097D01*
X181908975Y-77321498D01*
X181864040Y-77342452D01*
X181856905Y-77345779D01*
X181787828Y-77356271D01*
X181724044Y-77327751D01*
X181685804Y-77269275D01*
X181680500Y-77233397D01*
X181680500Y-74808065D01*
X181700185Y-74741026D01*
X181752989Y-74695271D01*
X181822147Y-74685327D01*
X181856903Y-74695682D01*
X181923504Y-74726739D01*
X182143308Y-74785635D01*
X182305230Y-74799801D01*
X182369998Y-74805468D01*
X182370000Y-74805468D01*
X182370002Y-74805468D01*
X182426673Y-74800509D01*
X182596692Y-74785635D01*
X182816496Y-74726739D01*
X183022734Y-74630568D01*
X183209139Y-74500047D01*
X183370047Y-74339139D01*
X183500568Y-74152734D01*
X183503197Y-74147095D01*
X183549367Y-74094657D01*
X183615579Y-74075500D01*
X184515764Y-74075500D01*
X184515766Y-74075500D01*
X184662135Y-74036281D01*
X184793365Y-73960515D01*
X184819409Y-73934470D01*
X184880731Y-73900985D01*
X184939183Y-73902375D01*
X185063308Y-73935635D01*
X185225230Y-73949801D01*
X185289998Y-73955468D01*
X185290000Y-73955468D01*
X185290002Y-73955468D01*
X185346673Y-73950509D01*
X185516692Y-73935635D01*
X185736496Y-73876739D01*
X185942734Y-73780568D01*
X186129139Y-73650047D01*
X186290047Y-73489139D01*
X186420568Y-73302734D01*
X186516739Y-73096496D01*
X186575635Y-72876692D01*
X186595468Y-72650000D01*
X186590139Y-72589095D01*
X186586719Y-72550000D01*
X186575635Y-72423308D01*
X186555055Y-72346503D01*
X186556718Y-72276654D01*
X186587147Y-72226731D01*
X188552061Y-70261819D01*
X188613384Y-70228334D01*
X188639742Y-70225500D01*
X194204421Y-70225500D01*
X194271460Y-70245185D01*
G37*
%TD.AperFunction*%
%TA.AperFunction,Conductor*%
G36*
X224464855Y-63976546D02*
G01*
X224481575Y-63995842D01*
X224506065Y-64030818D01*
X224611505Y-64181401D01*
X224778599Y-64348495D01*
X224851442Y-64399500D01*
X224972165Y-64484032D01*
X224972167Y-64484033D01*
X224972170Y-64484035D01*
X225186337Y-64583903D01*
X225414592Y-64645063D01*
X225595777Y-64660915D01*
X225649999Y-64665659D01*
X225650000Y-64665659D01*
X225650001Y-64665659D01*
X225704223Y-64660915D01*
X225885408Y-64645063D01*
X226113663Y-64583903D01*
X226327830Y-64484035D01*
X226521401Y-64348495D01*
X226688495Y-64181401D01*
X226780425Y-64050110D01*
X226834997Y-64006490D01*
X226904495Y-63999296D01*
X226966850Y-64030818D01*
X226969677Y-64033557D01*
X227958181Y-65022061D01*
X227991666Y-65083384D01*
X227994500Y-65109742D01*
X227994500Y-65304420D01*
X227974815Y-65371459D01*
X227922907Y-65416801D01*
X227917268Y-65419430D01*
X227917264Y-65419432D01*
X227730858Y-65549954D01*
X227569954Y-65710858D01*
X227439432Y-65897265D01*
X227439431Y-65897267D01*
X227343261Y-66103502D01*
X227343258Y-66103511D01*
X227284366Y-66323302D01*
X227284364Y-66323313D01*
X227264532Y-66549998D01*
X227264532Y-66550001D01*
X227284364Y-66776686D01*
X227284366Y-66776697D01*
X227343258Y-66996488D01*
X227343261Y-66996497D01*
X227439431Y-67202732D01*
X227439432Y-67202734D01*
X227569954Y-67389141D01*
X227730858Y-67550045D01*
X227730861Y-67550047D01*
X227917266Y-67680568D01*
X228123504Y-67776739D01*
X228343308Y-67835635D01*
X228501786Y-67849500D01*
X228569998Y-67855468D01*
X228570000Y-67855468D01*
X228570002Y-67855468D01*
X228638214Y-67849500D01*
X228796692Y-67835635D01*
X229016496Y-67776739D01*
X229222734Y-67680568D01*
X229409139Y-67550047D01*
X229570047Y-67389139D01*
X229700568Y-67202734D01*
X229763118Y-67068593D01*
X229809290Y-67016156D01*
X229876484Y-66997004D01*
X229943365Y-67017220D01*
X229988700Y-67070385D01*
X229999500Y-67121000D01*
X229999500Y-69131519D01*
X229979815Y-69198558D01*
X229927011Y-69244313D01*
X229857853Y-69254257D01*
X229794297Y-69225232D01*
X229756523Y-69166454D01*
X229755725Y-69163613D01*
X229726268Y-69053679D01*
X229726264Y-69053668D01*
X229630136Y-68847521D01*
X229630132Y-68847513D01*
X229579025Y-68774526D01*
X228900000Y-69453551D01*
X228900000Y-69447339D01*
X228872741Y-69345606D01*
X228820080Y-69254394D01*
X228745606Y-69179920D01*
X228654394Y-69127259D01*
X228552661Y-69100000D01*
X228546445Y-69100000D01*
X229225472Y-68420974D01*
X229152478Y-68369863D01*
X228946331Y-68273735D01*
X228946317Y-68273730D01*
X228726610Y-68214860D01*
X228726599Y-68214858D01*
X228500002Y-68195034D01*
X228499998Y-68195034D01*
X228273400Y-68214858D01*
X228273389Y-68214860D01*
X228053682Y-68273730D01*
X228053673Y-68273734D01*
X227847516Y-68369866D01*
X227847512Y-68369868D01*
X227774526Y-68420973D01*
X227774526Y-68420974D01*
X228453553Y-69100000D01*
X228447339Y-69100000D01*
X228345606Y-69127259D01*
X228254394Y-69179920D01*
X228179920Y-69254394D01*
X228127259Y-69345606D01*
X228100000Y-69447339D01*
X228100000Y-69453552D01*
X227420974Y-68774526D01*
X227420973Y-68774526D01*
X227369868Y-68847512D01*
X227369866Y-68847516D01*
X227273734Y-69053673D01*
X227273730Y-69053682D01*
X227214860Y-69273389D01*
X227214858Y-69273400D01*
X227195034Y-69499997D01*
X227195034Y-69500002D01*
X227214858Y-69726599D01*
X227214860Y-69726610D01*
X227273730Y-69946317D01*
X227273735Y-69946331D01*
X227369863Y-70152478D01*
X227420974Y-70225472D01*
X228100000Y-69546446D01*
X228100000Y-69552661D01*
X228127259Y-69654394D01*
X228179920Y-69745606D01*
X228254394Y-69820080D01*
X228345606Y-69872741D01*
X228447339Y-69900000D01*
X228453553Y-69900000D01*
X227774526Y-70579025D01*
X227847513Y-70630132D01*
X227847521Y-70630136D01*
X228053668Y-70726264D01*
X228053682Y-70726269D01*
X228273389Y-70785139D01*
X228273400Y-70785141D01*
X228499998Y-70804966D01*
X228500002Y-70804966D01*
X228726599Y-70785141D01*
X228726610Y-70785139D01*
X228946317Y-70726269D01*
X228946331Y-70726264D01*
X229152478Y-70630136D01*
X229225471Y-70579024D01*
X228546447Y-69900000D01*
X228552661Y-69900000D01*
X228654394Y-69872741D01*
X228745606Y-69820080D01*
X228820080Y-69745606D01*
X228872741Y-69654394D01*
X228900000Y-69552661D01*
X228900000Y-69546447D01*
X229579024Y-70225471D01*
X229630136Y-70152478D01*
X229726264Y-69946331D01*
X229726269Y-69946317D01*
X229755725Y-69836387D01*
X229792090Y-69776726D01*
X229854937Y-69746197D01*
X229924312Y-69754492D01*
X229978190Y-69798977D01*
X229999465Y-69865529D01*
X229999500Y-69868480D01*
X229999500Y-72179588D01*
X229979815Y-72246627D01*
X229927011Y-72292382D01*
X229857853Y-72302326D01*
X229794297Y-72273301D01*
X229756523Y-72214523D01*
X229755725Y-72211681D01*
X229726741Y-72103511D01*
X229726738Y-72103502D01*
X229724617Y-72098954D01*
X229630568Y-71897266D01*
X229526340Y-71748412D01*
X229500045Y-71710858D01*
X229339141Y-71549954D01*
X229152734Y-71419432D01*
X229152732Y-71419431D01*
X228946497Y-71323261D01*
X228946488Y-71323258D01*
X228726697Y-71264366D01*
X228726693Y-71264365D01*
X228726692Y-71264365D01*
X228726691Y-71264364D01*
X228726686Y-71264364D01*
X228500002Y-71244532D01*
X228499998Y-71244532D01*
X228273313Y-71264364D01*
X228273302Y-71264366D01*
X228053511Y-71323258D01*
X228053502Y-71323261D01*
X227847267Y-71419431D01*
X227847265Y-71419432D01*
X227660858Y-71549954D01*
X227499954Y-71710858D01*
X227369432Y-71897265D01*
X227368272Y-71899752D01*
X227366802Y-71902904D01*
X227320633Y-71955343D01*
X227254421Y-71974500D01*
X226839742Y-71974500D01*
X226772703Y-71954815D01*
X226752061Y-71938181D01*
X224784470Y-69970590D01*
X224750985Y-69909267D01*
X224752376Y-69850815D01*
X224756242Y-69836387D01*
X224785635Y-69726692D01*
X224805468Y-69500000D01*
X224785635Y-69273308D01*
X224726739Y-69053504D01*
X224630568Y-68847266D01*
X224500047Y-68660861D01*
X224500045Y-68660858D01*
X224339141Y-68499954D01*
X224152734Y-68369432D01*
X224152732Y-68369431D01*
X223946497Y-68273261D01*
X223946488Y-68273258D01*
X223726697Y-68214366D01*
X223726693Y-68214365D01*
X223726692Y-68214365D01*
X223726691Y-68214364D01*
X223726686Y-68214364D01*
X223500002Y-68194532D01*
X223499998Y-68194532D01*
X223273313Y-68214364D01*
X223273299Y-68214367D01*
X223149182Y-68247623D01*
X223079333Y-68245960D01*
X223029409Y-68215529D01*
X222778367Y-67964487D01*
X222778365Y-67964485D01*
X222708808Y-67924326D01*
X222647136Y-67888719D01*
X222573950Y-67869109D01*
X222500766Y-67849500D01*
X221813344Y-67849500D01*
X221746305Y-67829815D01*
X221700550Y-67777011D01*
X221690606Y-67707853D01*
X221719631Y-67644297D01*
X221742221Y-67623925D01*
X221747111Y-67620501D01*
X221919139Y-67500047D01*
X222080047Y-67339139D01*
X222210568Y-67152734D01*
X222210571Y-67152726D01*
X222210758Y-67152460D01*
X222265335Y-67108834D01*
X222334833Y-67101640D01*
X222397188Y-67133162D01*
X222424716Y-67171176D01*
X222439431Y-67202733D01*
X222569954Y-67389141D01*
X222730858Y-67550045D01*
X222730861Y-67550047D01*
X222917266Y-67680568D01*
X223123504Y-67776739D01*
X223343308Y-67835635D01*
X223501786Y-67849500D01*
X223569998Y-67855468D01*
X223570000Y-67855468D01*
X223570002Y-67855468D01*
X223638214Y-67849500D01*
X223796692Y-67835635D01*
X224016496Y-67776739D01*
X224222734Y-67680568D01*
X224409139Y-67550047D01*
X224570047Y-67389139D01*
X224700568Y-67202734D01*
X224796739Y-66996496D01*
X224855635Y-66776692D01*
X224875468Y-66550000D01*
X224855635Y-66323308D01*
X224796739Y-66103504D01*
X224700568Y-65897266D01*
X224602839Y-65757693D01*
X224570045Y-65710858D01*
X224409141Y-65549954D01*
X224222734Y-65419432D01*
X224222732Y-65419431D01*
X224016497Y-65323261D01*
X224016488Y-65323258D01*
X223796697Y-65264366D01*
X223796693Y-65264365D01*
X223796692Y-65264365D01*
X223796691Y-65264364D01*
X223796686Y-65264364D01*
X223570002Y-65244532D01*
X223569998Y-65244532D01*
X223343313Y-65264364D01*
X223343302Y-65264366D01*
X223123511Y-65323258D01*
X223123502Y-65323261D01*
X222917267Y-65419431D01*
X222917265Y-65419432D01*
X222730858Y-65549954D01*
X222569954Y-65710858D01*
X222457387Y-65871623D01*
X222402811Y-65915248D01*
X222355812Y-65924500D01*
X222325579Y-65924500D01*
X222258540Y-65904815D01*
X222213197Y-65852904D01*
X222210568Y-65847266D01*
X222080047Y-65660861D01*
X222080045Y-65660858D01*
X221919141Y-65499954D01*
X221732734Y-65369432D01*
X221732732Y-65369431D01*
X221526497Y-65273261D01*
X221526488Y-65273258D01*
X221306697Y-65214366D01*
X221306693Y-65214365D01*
X221306692Y-65214365D01*
X221306691Y-65214364D01*
X221306686Y-65214364D01*
X221080002Y-65194532D01*
X221079998Y-65194532D01*
X220853313Y-65214364D01*
X220853302Y-65214366D01*
X220633511Y-65273258D01*
X220633502Y-65273261D01*
X220427267Y-65369431D01*
X220427265Y-65369432D01*
X220240858Y-65499954D01*
X220079954Y-65660858D01*
X219949432Y-65847265D01*
X219949431Y-65847267D01*
X219853261Y-66053502D01*
X219853258Y-66053511D01*
X219794366Y-66273302D01*
X219794364Y-66273313D01*
X219774532Y-66499998D01*
X219774532Y-66500001D01*
X219794364Y-66726686D01*
X219794366Y-66726697D01*
X219853258Y-66946488D01*
X219853261Y-66946497D01*
X219949431Y-67152732D01*
X219949432Y-67152734D01*
X220079954Y-67339141D01*
X220240858Y-67500045D01*
X220261211Y-67514296D01*
X220412887Y-67620500D01*
X220417779Y-67623925D01*
X220461404Y-67678501D01*
X220468598Y-67748000D01*
X220437076Y-67810355D01*
X220376846Y-67845769D01*
X220346656Y-67849500D01*
X212019234Y-67849500D01*
X211872863Y-67888719D01*
X211811192Y-67924326D01*
X211767652Y-67949464D01*
X211741638Y-67964483D01*
X211741636Y-67964484D01*
X211490589Y-68215530D01*
X211429266Y-68249014D01*
X211370815Y-68247623D01*
X211246697Y-68214366D01*
X211246693Y-68214365D01*
X211246692Y-68214365D01*
X211246691Y-68214364D01*
X211246686Y-68214364D01*
X211020002Y-68194532D01*
X211019998Y-68194532D01*
X210793313Y-68214364D01*
X210793302Y-68214366D01*
X210573511Y-68273258D01*
X210573502Y-68273261D01*
X210367267Y-68369431D01*
X210367265Y-68369432D01*
X210180858Y-68499954D01*
X210019954Y-68660858D01*
X209889432Y-68847265D01*
X209889431Y-68847267D01*
X209793261Y-69053502D01*
X209793258Y-69053511D01*
X209734366Y-69273302D01*
X209734364Y-69273313D01*
X209714532Y-69499998D01*
X209714532Y-69500001D01*
X209734364Y-69726686D01*
X209734366Y-69726697D01*
X209793258Y-69946488D01*
X209793261Y-69946497D01*
X209889431Y-70152732D01*
X209889432Y-70152734D01*
X210019954Y-70339141D01*
X210180858Y-70500045D01*
X210180861Y-70500047D01*
X210367266Y-70630568D01*
X210573504Y-70726739D01*
X210793308Y-70785635D01*
X210955230Y-70799801D01*
X211019998Y-70805468D01*
X211020000Y-70805468D01*
X211020002Y-70805468D01*
X211076673Y-70800509D01*
X211246692Y-70785635D01*
X211466496Y-70726739D01*
X211672734Y-70630568D01*
X211859139Y-70500047D01*
X212020047Y-70339139D01*
X212150568Y-70152734D01*
X212246739Y-69946496D01*
X212305635Y-69726692D01*
X212325468Y-69500000D01*
X212305635Y-69273308D01*
X212274361Y-69156591D01*
X212276024Y-69086744D01*
X212315186Y-69028881D01*
X212379415Y-69001377D01*
X212394136Y-69000500D01*
X219805863Y-69000500D01*
X219872902Y-69020185D01*
X219918657Y-69072989D01*
X219928601Y-69142147D01*
X219925638Y-69156593D01*
X219894366Y-69273302D01*
X219894364Y-69273313D01*
X219874532Y-69499998D01*
X219874532Y-69500001D01*
X219894364Y-69726686D01*
X219894366Y-69726697D01*
X219953258Y-69946488D01*
X219953261Y-69946497D01*
X220049431Y-70152732D01*
X220049432Y-70152734D01*
X220179954Y-70339141D01*
X220340858Y-70500045D01*
X220340861Y-70500047D01*
X220527266Y-70630568D01*
X220733504Y-70726739D01*
X220953308Y-70785635D01*
X221115230Y-70799801D01*
X221179998Y-70805468D01*
X221180000Y-70805468D01*
X221180002Y-70805468D01*
X221236673Y-70800509D01*
X221406692Y-70785635D01*
X221626496Y-70726739D01*
X221832734Y-70630568D01*
X222014670Y-70503175D01*
X222080873Y-70480850D01*
X222148640Y-70497860D01*
X222173471Y-70517071D01*
X222877922Y-71221522D01*
X222911407Y-71282845D01*
X222906423Y-71352537D01*
X222864551Y-71408470D01*
X222851667Y-71416212D01*
X222851961Y-71416721D01*
X222847268Y-71419430D01*
X222660858Y-71549954D01*
X222499952Y-71710860D01*
X222449078Y-71783516D01*
X222394501Y-71827141D01*
X222325003Y-71834333D01*
X222262648Y-71802811D01*
X222245929Y-71783515D01*
X222216963Y-71742147D01*
X222160047Y-71660861D01*
X222160045Y-71660858D01*
X221999141Y-71499954D01*
X221812734Y-71369432D01*
X221812732Y-71369431D01*
X221606497Y-71273261D01*
X221606488Y-71273258D01*
X221386697Y-71214366D01*
X221386693Y-71214365D01*
X221386692Y-71214365D01*
X221386691Y-71214364D01*
X221386686Y-71214364D01*
X221160002Y-71194532D01*
X221159998Y-71194532D01*
X220933313Y-71214364D01*
X220933302Y-71214366D01*
X220713511Y-71273258D01*
X220713502Y-71273261D01*
X220507267Y-71369431D01*
X220507265Y-71369432D01*
X220320858Y-71499954D01*
X220159954Y-71660858D01*
X220029432Y-71847265D01*
X220029431Y-71847267D01*
X219933261Y-72053502D01*
X219933258Y-72053511D01*
X219890026Y-72214860D01*
X219876283Y-72266152D01*
X219874367Y-72273301D01*
X219874364Y-72273313D01*
X219854532Y-72499998D01*
X219854532Y-72500000D01*
X219874364Y-72726686D01*
X219874366Y-72726697D01*
X219933258Y-72946488D01*
X219933261Y-72946497D01*
X220029431Y-73152732D01*
X220029432Y-73152734D01*
X220159954Y-73339141D01*
X220320857Y-73500044D01*
X220320860Y-73500046D01*
X220320861Y-73500047D01*
X220451623Y-73591606D01*
X220495248Y-73646182D01*
X220504500Y-73693181D01*
X220504500Y-73811258D01*
X220484815Y-73878297D01*
X220432011Y-73924052D01*
X220362853Y-73933996D01*
X220299297Y-73904971D01*
X220292819Y-73898939D01*
X219508367Y-73114487D01*
X219508365Y-73114485D01*
X219403052Y-73053682D01*
X219377136Y-73038719D01*
X219303950Y-73019109D01*
X219230766Y-72999500D01*
X212373619Y-72999500D01*
X212306580Y-72979815D01*
X212260825Y-72927011D01*
X212250881Y-72857853D01*
X212253844Y-72843407D01*
X212285139Y-72726609D01*
X212285141Y-72726599D01*
X212304966Y-72500000D01*
X212304966Y-72499997D01*
X212285141Y-72273400D01*
X212285139Y-72273389D01*
X212226269Y-72053682D01*
X212226264Y-72053668D01*
X212130136Y-71847521D01*
X212130132Y-71847513D01*
X212079025Y-71774526D01*
X211400000Y-72453551D01*
X211400000Y-72447339D01*
X211372741Y-72345606D01*
X211320080Y-72254394D01*
X211245606Y-72179920D01*
X211154394Y-72127259D01*
X211052661Y-72100000D01*
X211046445Y-72100000D01*
X211725472Y-71420974D01*
X211652478Y-71369863D01*
X211446331Y-71273735D01*
X211446317Y-71273730D01*
X211226610Y-71214860D01*
X211226599Y-71214858D01*
X211000002Y-71195034D01*
X210999998Y-71195034D01*
X210773400Y-71214858D01*
X210773389Y-71214860D01*
X210553682Y-71273730D01*
X210553673Y-71273734D01*
X210347516Y-71369866D01*
X210347512Y-71369868D01*
X210274526Y-71420973D01*
X210274526Y-71420974D01*
X210953553Y-72100000D01*
X210947339Y-72100000D01*
X210845606Y-72127259D01*
X210754394Y-72179920D01*
X210679920Y-72254394D01*
X210627259Y-72345606D01*
X210600000Y-72447339D01*
X210600000Y-72453552D01*
X209920974Y-71774526D01*
X209920973Y-71774526D01*
X209869868Y-71847512D01*
X209869866Y-71847516D01*
X209773734Y-72053673D01*
X209773730Y-72053682D01*
X209714860Y-72273389D01*
X209714858Y-72273400D01*
X209695034Y-72499997D01*
X209695034Y-72500000D01*
X209714858Y-72726599D01*
X209714860Y-72726609D01*
X209746156Y-72843407D01*
X209744493Y-72913256D01*
X209705331Y-72971119D01*
X209641102Y-72998623D01*
X209626381Y-72999500D01*
X207187391Y-72999500D01*
X207120352Y-72979815D01*
X207074597Y-72927011D01*
X207064653Y-72857853D01*
X207075009Y-72823095D01*
X207076415Y-72820080D01*
X207096739Y-72776496D01*
X207155635Y-72556692D01*
X207175468Y-72330000D01*
X207173611Y-72308780D01*
X207168124Y-72246061D01*
X207155635Y-72103308D01*
X207100427Y-71897267D01*
X207096741Y-71883511D01*
X207096738Y-71883502D01*
X207079956Y-71847513D01*
X207000568Y-71677266D01*
X206870047Y-71490861D01*
X206870045Y-71490858D01*
X206709141Y-71329954D01*
X206522735Y-71199432D01*
X206522731Y-71199430D01*
X206517093Y-71196801D01*
X206464654Y-71150627D01*
X206445500Y-71084420D01*
X206445500Y-71035579D01*
X206465185Y-70968540D01*
X206517095Y-70923197D01*
X206522734Y-70920568D01*
X206709139Y-70790047D01*
X206870047Y-70629139D01*
X207000568Y-70442734D01*
X207003197Y-70437095D01*
X207049367Y-70384657D01*
X207115579Y-70365500D01*
X207705764Y-70365500D01*
X207705766Y-70365500D01*
X207852135Y-70326281D01*
X207983365Y-70250515D01*
X210449411Y-67784467D01*
X210510732Y-67750984D01*
X210569179Y-67752374D01*
X210693308Y-67785635D01*
X210855230Y-67799801D01*
X210919998Y-67805468D01*
X210920000Y-67805468D01*
X210920002Y-67805468D01*
X210976673Y-67800509D01*
X211146692Y-67785635D01*
X211366496Y-67726739D01*
X211572734Y-67630568D01*
X211759139Y-67500047D01*
X211920047Y-67339139D01*
X212050568Y-67152734D01*
X212146739Y-66946496D01*
X212205635Y-66726692D01*
X212225468Y-66500000D01*
X212205635Y-66273308D01*
X212146739Y-66053504D01*
X212050568Y-65847266D01*
X211920047Y-65660861D01*
X211920045Y-65660858D01*
X211759141Y-65499954D01*
X211572734Y-65369432D01*
X211572732Y-65369431D01*
X211366497Y-65273261D01*
X211366488Y-65273258D01*
X211146697Y-65214366D01*
X211146688Y-65214364D01*
X211123689Y-65212352D01*
X211058621Y-65186897D01*
X211017644Y-65130305D01*
X211010500Y-65088824D01*
X211010500Y-64599090D01*
X211030185Y-64532051D01*
X211082101Y-64486706D01*
X211087830Y-64484035D01*
X211281401Y-64348495D01*
X211448495Y-64181401D01*
X211578425Y-63995842D01*
X211633002Y-63952217D01*
X211702500Y-63945023D01*
X211764855Y-63976546D01*
X211781575Y-63995842D01*
X211806065Y-64030818D01*
X211911505Y-64181401D01*
X212078599Y-64348495D01*
X212151442Y-64399500D01*
X212272165Y-64484032D01*
X212272167Y-64484033D01*
X212272170Y-64484035D01*
X212486337Y-64583903D01*
X212714592Y-64645063D01*
X212895777Y-64660915D01*
X212949999Y-64665659D01*
X212950000Y-64665659D01*
X212950001Y-64665659D01*
X213004223Y-64660915D01*
X213185408Y-64645063D01*
X213413663Y-64583903D01*
X213627830Y-64484035D01*
X213821401Y-64348495D01*
X213988495Y-64181401D01*
X214118425Y-63995842D01*
X214173002Y-63952217D01*
X214242500Y-63945023D01*
X214304855Y-63976546D01*
X214321575Y-63995842D01*
X214346065Y-64030818D01*
X214451505Y-64181401D01*
X214618599Y-64348495D01*
X214691442Y-64399500D01*
X214812165Y-64484032D01*
X214812167Y-64484033D01*
X214812170Y-64484035D01*
X215026337Y-64583903D01*
X215254592Y-64645063D01*
X215435777Y-64660915D01*
X215489999Y-64665659D01*
X215490000Y-64665659D01*
X215490001Y-64665659D01*
X215544223Y-64660915D01*
X215725408Y-64645063D01*
X215953663Y-64583903D01*
X216167830Y-64484035D01*
X216361401Y-64348495D01*
X216528495Y-64181401D01*
X216658425Y-63995842D01*
X216713002Y-63952217D01*
X216782500Y-63945023D01*
X216844855Y-63976546D01*
X216861575Y-63995842D01*
X216886065Y-64030818D01*
X216991505Y-64181401D01*
X217158599Y-64348495D01*
X217231442Y-64399500D01*
X217352165Y-64484032D01*
X217352167Y-64484033D01*
X217352170Y-64484035D01*
X217566337Y-64583903D01*
X217794592Y-64645063D01*
X217975777Y-64660915D01*
X218029999Y-64665659D01*
X218030000Y-64665659D01*
X218030001Y-64665659D01*
X218084223Y-64660915D01*
X218265408Y-64645063D01*
X218493663Y-64583903D01*
X218707830Y-64484035D01*
X218901401Y-64348495D01*
X219068495Y-64181401D01*
X219198425Y-63995842D01*
X219253002Y-63952217D01*
X219322500Y-63945023D01*
X219384855Y-63976546D01*
X219401575Y-63995842D01*
X219426065Y-64030818D01*
X219531505Y-64181401D01*
X219698599Y-64348495D01*
X219771442Y-64399500D01*
X219892165Y-64484032D01*
X219892167Y-64484033D01*
X219892170Y-64484035D01*
X220106337Y-64583903D01*
X220334592Y-64645063D01*
X220515777Y-64660915D01*
X220569999Y-64665659D01*
X220570000Y-64665659D01*
X220570001Y-64665659D01*
X220624223Y-64660915D01*
X220805408Y-64645063D01*
X221033663Y-64583903D01*
X221247830Y-64484035D01*
X221441401Y-64348495D01*
X221608495Y-64181401D01*
X221738425Y-63995842D01*
X221793002Y-63952217D01*
X221862500Y-63945023D01*
X221924855Y-63976546D01*
X221941575Y-63995842D01*
X221966065Y-64030818D01*
X222071505Y-64181401D01*
X222238599Y-64348495D01*
X222311442Y-64399500D01*
X222432165Y-64484032D01*
X222432167Y-64484033D01*
X222432170Y-64484035D01*
X222646337Y-64583903D01*
X222874592Y-64645063D01*
X223055777Y-64660915D01*
X223109999Y-64665659D01*
X223110000Y-64665659D01*
X223110001Y-64665659D01*
X223164223Y-64660915D01*
X223345408Y-64645063D01*
X223573663Y-64583903D01*
X223787830Y-64484035D01*
X223981401Y-64348495D01*
X224148495Y-64181401D01*
X224278425Y-63995842D01*
X224333002Y-63952217D01*
X224402500Y-63945023D01*
X224464855Y-63976546D01*
G37*
%TD.AperFunction*%
%TA.AperFunction,Conductor*%
G36*
X188904855Y-63976546D02*
G01*
X188921575Y-63995842D01*
X188946065Y-64030818D01*
X189051505Y-64181401D01*
X189218599Y-64348495D01*
X189291442Y-64399500D01*
X189412165Y-64484032D01*
X189412167Y-64484033D01*
X189412170Y-64484035D01*
X189626337Y-64583903D01*
X189854592Y-64645063D01*
X190035777Y-64660915D01*
X190089999Y-64665659D01*
X190090000Y-64665659D01*
X190090001Y-64665659D01*
X190135845Y-64661648D01*
X190293184Y-64647882D01*
X190361683Y-64661648D01*
X190411866Y-64710263D01*
X190427800Y-64778292D01*
X190404425Y-64844136D01*
X190391672Y-64859091D01*
X187337584Y-67913181D01*
X187276261Y-67946666D01*
X187249903Y-67949500D01*
X186991067Y-67949500D01*
X186924028Y-67929815D01*
X186878273Y-67877011D01*
X186868329Y-67807853D01*
X186874885Y-67782168D01*
X186884090Y-67757485D01*
X186884091Y-67757483D01*
X186884790Y-67750984D01*
X186890500Y-67697873D01*
X186890499Y-65402128D01*
X186884091Y-65342517D01*
X186858260Y-65273261D01*
X186833797Y-65207671D01*
X186833793Y-65207664D01*
X186747547Y-65092455D01*
X186747544Y-65092452D01*
X186632335Y-65006206D01*
X186632328Y-65006202D01*
X186497482Y-64955908D01*
X186497483Y-64955908D01*
X186437883Y-64949501D01*
X186437881Y-64949500D01*
X186437873Y-64949500D01*
X186437864Y-64949500D01*
X184142129Y-64949500D01*
X184142123Y-64949501D01*
X184082516Y-64955908D01*
X183947671Y-65006202D01*
X183947664Y-65006206D01*
X183832455Y-65092452D01*
X183832452Y-65092455D01*
X183746206Y-65207664D01*
X183746202Y-65207671D01*
X183695908Y-65342517D01*
X183691192Y-65386389D01*
X183689501Y-65402123D01*
X183689500Y-65402135D01*
X183689500Y-67115268D01*
X183669815Y-67182307D01*
X183617011Y-67228062D01*
X183547853Y-67238006D01*
X183484297Y-67208981D01*
X183477819Y-67202949D01*
X183313225Y-67038355D01*
X183313223Y-67038352D01*
X183194352Y-66919481D01*
X183194351Y-66919480D01*
X183085127Y-66856420D01*
X183085126Y-66856419D01*
X183057418Y-66840422D01*
X183001516Y-66825443D01*
X182904692Y-66799499D01*
X182746578Y-66799499D01*
X182738982Y-66799499D01*
X182738966Y-66799500D01*
X182036888Y-66799500D01*
X181969849Y-66779815D01*
X181924094Y-66727011D01*
X181914150Y-66657853D01*
X181917113Y-66643408D01*
X181920499Y-66630769D01*
X181920500Y-66630767D01*
X181920500Y-66479234D01*
X181920500Y-64722503D01*
X181940185Y-64655464D01*
X181992989Y-64609709D01*
X182062147Y-64599765D01*
X182076593Y-64602728D01*
X182099852Y-64608960D01*
X182234592Y-64645063D01*
X182415777Y-64660915D01*
X182469999Y-64665659D01*
X182470000Y-64665659D01*
X182470001Y-64665659D01*
X182524223Y-64660915D01*
X182705408Y-64645063D01*
X182933663Y-64583903D01*
X183147830Y-64484035D01*
X183341401Y-64348495D01*
X183508495Y-64181401D01*
X183638425Y-63995842D01*
X183693002Y-63952217D01*
X183762500Y-63945023D01*
X183824855Y-63976546D01*
X183841575Y-63995842D01*
X183866065Y-64030818D01*
X183971505Y-64181401D01*
X184138599Y-64348495D01*
X184211442Y-64399500D01*
X184332165Y-64484032D01*
X184332167Y-64484033D01*
X184332170Y-64484035D01*
X184546337Y-64583903D01*
X184774592Y-64645063D01*
X184955777Y-64660915D01*
X185009999Y-64665659D01*
X185010000Y-64665659D01*
X185010001Y-64665659D01*
X185064223Y-64660915D01*
X185245408Y-64645063D01*
X185473663Y-64583903D01*
X185687830Y-64484035D01*
X185881401Y-64348495D01*
X186048495Y-64181401D01*
X186178425Y-63995842D01*
X186233002Y-63952217D01*
X186302500Y-63945023D01*
X186364855Y-63976546D01*
X186381575Y-63995842D01*
X186406065Y-64030818D01*
X186511505Y-64181401D01*
X186678599Y-64348495D01*
X186751442Y-64399500D01*
X186872165Y-64484032D01*
X186872167Y-64484033D01*
X186872170Y-64484035D01*
X187086337Y-64583903D01*
X187314592Y-64645063D01*
X187495777Y-64660915D01*
X187549999Y-64665659D01*
X187550000Y-64665659D01*
X187550001Y-64665659D01*
X187604223Y-64660915D01*
X187785408Y-64645063D01*
X188013663Y-64583903D01*
X188227830Y-64484035D01*
X188421401Y-64348495D01*
X188588495Y-64181401D01*
X188718425Y-63995842D01*
X188773002Y-63952217D01*
X188842500Y-63945023D01*
X188904855Y-63976546D01*
G37*
%TD.AperFunction*%
%TA.AperFunction,Conductor*%
G36*
X228750000Y-60250000D02*
G01*
X229797828Y-60250000D01*
X229797839Y-60249999D01*
X229862242Y-60243074D01*
X229931002Y-60255478D01*
X229982140Y-60303087D01*
X229999500Y-60366363D01*
X229999500Y-65978999D01*
X229979815Y-66046038D01*
X229927011Y-66091793D01*
X229857853Y-66101737D01*
X229794297Y-66072712D01*
X229763118Y-66031404D01*
X229727913Y-65955908D01*
X229700568Y-65897266D01*
X229602839Y-65757693D01*
X229570045Y-65710858D01*
X229409141Y-65549954D01*
X229222735Y-65419432D01*
X229222731Y-65419430D01*
X229217093Y-65416801D01*
X229164654Y-65370627D01*
X229145500Y-65304420D01*
X229145500Y-64744236D01*
X229145500Y-64744234D01*
X229106281Y-64597865D01*
X229030515Y-64466635D01*
X228923365Y-64359485D01*
X227361819Y-62797939D01*
X227328334Y-62736616D01*
X227325500Y-62710258D01*
X227325500Y-60374000D01*
X227345185Y-60306961D01*
X227397989Y-60261206D01*
X227449500Y-60250000D01*
X228250000Y-60250000D01*
X228250000Y-59072941D01*
X228317694Y-59100981D01*
X228438443Y-59125000D01*
X228561557Y-59125000D01*
X228682306Y-59100981D01*
X228750000Y-59072941D01*
X228750000Y-60250000D01*
G37*
%TD.AperFunction*%
%TA.AperFunction,Conductor*%
G36*
X229942539Y-56520185D02*
G01*
X229988294Y-56572989D01*
X229999500Y-56624500D01*
X229999500Y-56633636D01*
X229979815Y-56700675D01*
X229927011Y-56746430D01*
X229862244Y-56756925D01*
X229797844Y-56750000D01*
X228750000Y-56750000D01*
X228750000Y-57927058D01*
X228682306Y-57899019D01*
X228561557Y-57875000D01*
X228438443Y-57875000D01*
X228317694Y-57899019D01*
X228250000Y-57927058D01*
X228250000Y-56750000D01*
X227202155Y-56750000D01*
X227142627Y-56756401D01*
X227142620Y-56756403D01*
X227007913Y-56806645D01*
X227007906Y-56806649D01*
X226892812Y-56892809D01*
X226892809Y-56892812D01*
X226806649Y-57007906D01*
X226806645Y-57007913D01*
X226756403Y-57142620D01*
X226756401Y-57142627D01*
X226750000Y-57202155D01*
X226750000Y-58250000D01*
X227927058Y-58250000D01*
X227899019Y-58317694D01*
X227875000Y-58438443D01*
X227875000Y-58561557D01*
X227899019Y-58682306D01*
X227927058Y-58750000D01*
X226771918Y-58750000D01*
X226704879Y-58730315D01*
X226684237Y-58713681D01*
X224682737Y-56712181D01*
X224649252Y-56650858D01*
X224654236Y-56581166D01*
X224696108Y-56525233D01*
X224761572Y-56500816D01*
X224770418Y-56500500D01*
X229875500Y-56500500D01*
X229942539Y-56520185D01*
G37*
%TD.AperFunction*%
%TD*%
M02*
