%TF.GenerationSoftware,KiCad,Pcbnew,8.0.7*%
%TF.CreationDate,2025-02-19T13:31:19-05:00*%
%TF.ProjectId,OD1,4f44312e-6b69-4636-9164-5f7063625858,rev?*%
%TF.SameCoordinates,Original*%
%TF.FileFunction,Soldermask,Top*%
%TF.FilePolarity,Negative*%
%FSLAX46Y46*%
G04 Gerber Fmt 4.6, Leading zero omitted, Abs format (unit mm)*
G04 Created by KiCad (PCBNEW 8.0.7) date 2025-02-19 13:31:19*
%MOMM*%
%LPD*%
G01*
G04 APERTURE LIST*
%ADD10R,2.500000X2.500000*%
%ADD11C,2.500000*%
%ADD12C,2.200000*%
%ADD13R,2.200000X2.200000*%
%ADD14O,2.200000X2.200000*%
%ADD15C,1.600000*%
%ADD16O,1.600000X1.600000*%
%ADD17R,1.600000X1.600000*%
%ADD18R,1.050000X1.500000*%
%ADD19O,1.050000X1.500000*%
%ADD20R,1.700000X1.700000*%
%ADD21O,1.700000X1.700000*%
%ADD22C,1.700000*%
%ADD23R,1.800000X1.800000*%
%ADD24C,1.800000*%
G04 APERTURE END LIST*
D10*
%TO.C,RV1*%
X183500000Y-58500000D03*
D11*
X178500000Y-58500000D03*
X173500000Y-58500000D03*
%TD*%
D10*
%TO.C,RV3*%
X228500000Y-58500000D03*
D11*
X223500000Y-58500000D03*
X218500000Y-58500000D03*
%TD*%
D12*
%TO.C,SW3*%
X193500000Y-98000000D03*
X193500000Y-93300000D03*
X193500000Y-88600000D03*
%TD*%
D10*
%TO.C,RV5*%
X206000000Y-83500000D03*
D11*
X201000000Y-83500000D03*
X196000000Y-83500000D03*
%TD*%
D12*
%TO.C,SW2*%
X208500000Y-98000000D03*
X208500000Y-93300000D03*
X208500000Y-88600000D03*
%TD*%
D13*
%TO.C,D1*%
X185290000Y-66550000D03*
D14*
X195450000Y-66550000D03*
%TD*%
D15*
%TO.C,R11*%
X211000000Y-72500000D03*
D16*
X221160000Y-72500000D03*
%TD*%
D10*
%TO.C,RV6*%
X228500000Y-83500000D03*
D11*
X223500000Y-83500000D03*
X218500000Y-83500000D03*
%TD*%
D15*
%TO.C,C15*%
X198250000Y-97000000D03*
X198250000Y-92000000D03*
%TD*%
D17*
%TO.C,C13*%
X201000000Y-101500000D03*
D15*
X201000000Y-105000000D03*
%TD*%
%TO.C,C8*%
X228500000Y-72550000D03*
X223500000Y-72550000D03*
%TD*%
D10*
%TO.C,RV2*%
X206000000Y-58500000D03*
D11*
X201000000Y-58500000D03*
X196000000Y-58500000D03*
%TD*%
D15*
%TO.C,C7*%
X223500000Y-69500000D03*
X228500000Y-69500000D03*
%TD*%
%TO.C,C9*%
X223570000Y-66550000D03*
X228570000Y-66550000D03*
%TD*%
D12*
%TO.C,SW4*%
X178500000Y-98000000D03*
X178500000Y-93300000D03*
X178500000Y-88600000D03*
%TD*%
D18*
%TO.C,U2*%
X202270000Y-87640000D03*
D19*
X201000000Y-87640000D03*
X199730000Y-87640000D03*
%TD*%
D20*
%TO.C,J_OUT1*%
X213275000Y-58500000D03*
D21*
X210735000Y-58500000D03*
%TD*%
D20*
%TO.C,A1*%
X177390000Y-78550000D03*
D22*
X179930000Y-78550000D03*
X182470000Y-78550000D03*
X185010000Y-78550000D03*
X187550000Y-78550000D03*
X190090000Y-78550000D03*
X192630000Y-78550000D03*
X195170000Y-78550000D03*
X197710000Y-78550000D03*
X200250000Y-78550000D03*
X202790000Y-78550000D03*
X205330000Y-78550000D03*
X207870000Y-78550000D03*
X210410000Y-78550000D03*
X212950000Y-78550000D03*
X215490000Y-78550000D03*
X218030000Y-78550000D03*
X220570000Y-78550000D03*
X223110000Y-78550000D03*
X225650000Y-78550000D03*
X225650000Y-63310000D03*
X223110000Y-63310000D03*
X220570000Y-63310000D03*
X218030000Y-63310000D03*
X215490000Y-63310000D03*
X212950000Y-63310000D03*
X210410000Y-63310000D03*
X207870000Y-63310000D03*
X205330000Y-63310000D03*
X202790000Y-63310000D03*
X200250000Y-63310000D03*
X197710000Y-63310000D03*
X195170000Y-63310000D03*
X192630000Y-63310000D03*
X190090000Y-63310000D03*
X187550000Y-63310000D03*
X185010000Y-63310000D03*
X182470000Y-63310000D03*
X179930000Y-63310000D03*
X177390000Y-63310000D03*
%TD*%
D15*
%TO.C,R1*%
X174000000Y-111080000D03*
D16*
X174000000Y-100920000D03*
%TD*%
D15*
%TO.C,R3*%
X185290000Y-69650000D03*
D16*
X195450000Y-69650000D03*
%TD*%
D15*
%TO.C,C3*%
X182370000Y-73500000D03*
X182370000Y-68500000D03*
%TD*%
D10*
%TO.C,RV4*%
X183500000Y-83500000D03*
D11*
X178500000Y-83500000D03*
X173500000Y-83500000D03*
%TD*%
D20*
%TO.C,FS1*%
X184000000Y-111000000D03*
D21*
X181460000Y-111000000D03*
%TD*%
D15*
%TO.C,C16*%
X203750000Y-97000000D03*
X203750000Y-92000000D03*
%TD*%
%TO.C,R12*%
X210920000Y-66500000D03*
D16*
X221080000Y-66500000D03*
%TD*%
D23*
%TO.C,LED2*%
X215960000Y-104500000D03*
D24*
X218500000Y-104500000D03*
%TD*%
D15*
%TO.C,C14*%
X173370000Y-73500000D03*
X173370000Y-68500000D03*
%TD*%
D23*
%TO.C,LED1*%
X183975000Y-104500000D03*
D24*
X181435000Y-104500000D03*
%TD*%
D15*
%TO.C,C1*%
X176370000Y-68500000D03*
X176370000Y-73500000D03*
%TD*%
D20*
%TO.C,FS2*%
X218540000Y-111000000D03*
D21*
X216000000Y-111000000D03*
%TD*%
D15*
%TO.C,C2*%
X179400000Y-68500000D03*
X179400000Y-73500000D03*
%TD*%
D20*
%TO.C,PWR1*%
X173500000Y-64290000D03*
D21*
X173500000Y-61750000D03*
%TD*%
D17*
%TO.C,U1*%
X198250000Y-67250000D03*
D16*
X198250000Y-69790000D03*
X198250000Y-72330000D03*
X198250000Y-74870000D03*
X205870000Y-74870000D03*
X205870000Y-72330000D03*
X205870000Y-69790000D03*
X205870000Y-67250000D03*
%TD*%
D15*
%TO.C,C17*%
X228570000Y-75550000D03*
X223570000Y-75550000D03*
%TD*%
D20*
%TO.C,J_IN1*%
X188500000Y-58500000D03*
D21*
X191040000Y-58500000D03*
%TD*%
D15*
%TO.C,R4*%
X185290000Y-72650000D03*
D16*
X195450000Y-72650000D03*
%TD*%
%TO.C,R13*%
X208250000Y-65920000D03*
D15*
X208250000Y-76080000D03*
%TD*%
%TO.C,R2*%
X228000000Y-111160000D03*
D16*
X228000000Y-101000000D03*
%TD*%
D15*
%TO.C,R9*%
X221180000Y-69500000D03*
D16*
X211020000Y-69500000D03*
%TD*%
D12*
%TO.C,SW1*%
X223500000Y-98000000D03*
X223500000Y-93300000D03*
X223500000Y-88600000D03*
%TD*%
D16*
%TO.C,R10*%
X210920000Y-75500000D03*
D15*
X221080000Y-75500000D03*
%TD*%
%TO.C,R5*%
X185290000Y-75650000D03*
D16*
X195450000Y-75650000D03*
%TD*%
M02*
