<svg id="Layer_1" data-name="Layer 1" xmlns="http://www.w3.org/2000/svg" viewBox="0 0 1270 290"><defs><style>.cls-1{fill:#f74b02;}</style></defs><path class="cls-1" d="M1151,85.51h-20.09a126,126,0,0,0-113.43,71.19l-27.54,57a26,26,0,0,1-24.7,15.08,26.49,26.49,0,0,1-24.08-16.43L871.47,51A72,72,0,0,0,804.91,7c-29.47,0-55.06,16.46-67,43.33l-56.4,127.2a86.7,86.7,0,0,1-79.15,51.31H505.86c-8.37,0-16.59-3.86-21-11a22.64,22.64,0,0,1-1.68-21,23.44,23.44,0,0,1,8.7-10.49,22.51,22.51,0,0,1,12.63-3.82l126.79.08a18.13,18.13,0,0,0,18.15-18.06l.11-26.66c.24-43-20.34-82.78-57-108-21.24-14.6-46.37-21.87-72.14-21.87A155.79,155.79,0,0,0,377,103L327,210.64l-.35.79c-6.27,14.74-20,16.2-24,16.3S284.91,227,278,212.64l-27.61-57.09A126,126,0,0,0,136.94,84.42h-18.5c-14.66,0-27.8,11-28.56,25.62a27.07,27.07,0,0,0,27,28.53H137a71.82,71.82,0,0,1,64.65,40.55l27.61,57.09a80.91,80.91,0,0,0,147.11-3.15l49.95-107.69.4-.89a101.6,101.6,0,0,1,93.56-62.25,73,73,0,0,1,38.3,10.27c20.88,12.74,33.75,33.2,36.38,56l-90.39-.06a76.41,76.41,0,0,0-42.74,12.95,77.28,77.28,0,0,0-14.63,116.12c15,16.76,37.1,25.48,59.61,25.48h95.61A140.91,140.91,0,0,0,731,199.52L787.43,72.3c4.49-10.11,13.5-10.9,17.22-11.15a18.17,18.17,0,0,1,17.11,11.32l69.6,161.25A80.09,80.09,0,0,0,963.91,283c32,1,60.78-16.72,74.75-45.65l27.55-57.05a71.81,71.81,0,0,1,64.67-40.59h18.56c14.66,0,27.8-11,28.56-25.62A27.07,27.07,0,0,0,1151,85.51Z"/><path class="cls-1" d="M46.35,84.42h-9.8a27.08,27.08,0,0,0,0,54.15h9.8a27.08,27.08,0,1,0,0-54.15Z"/><path class="cls-1" d="M1233.45,84.42h-9.8a27.08,27.08,0,1,0,0,54.15h9.8a27.08,27.08,0,0,0,0-54.15Z"/></svg>