<svg id="Layer_1" data-name="Layer 1" xmlns="http://www.w3.org/2000/svg" viewBox="0 0 1440 494.39"><defs><style>.cls-1{fill:#fff;}</style></defs><polygon class="cls-1" points="41.13 357.28 91.07 357.28 91.07 337.76 41.13 337.76 41.13 314.56 97.68 314.56 97.68 294.58 16.39 294.58 16.39 402.16 99.68 402.16 99.68 382.18 41.13 382.18 41.13 357.28"/><polygon class="cls-1" points="193.57 359.84 140.1 294.58 119.5 294.58 119.5 402.16 144.09 402.16 144.09 336.89 197.57 402.16 218.16 402.16 218.16 294.58 193.57 294.58 193.57 359.84"/><polygon class="cls-1" points="231.54 314.87 265.96 314.87 265.96 402.16 290.86 402.16 290.86 314.87 325.28 314.87 325.28 294.58 231.54 294.58 231.54 314.87"/><path class="cls-1" d="M410.11,367.5a35.7,35.7,0,0,0,16.14-13.21q5.69-8.69,5.68-20.83,0-12-5.68-20.75a36.4,36.4,0,0,0-16.14-13.44q-10.46-4.69-24.9-4.69H338.65V402.16H363.7V372h21.51c.37,0,.71,0,1.08,0l20.9,30.17h26.74l-24-34.6ZM401,319.71q5.85,4.83,5.84,13.75T401,347.29q-5.84,4.92-17.21,4.92H363.7V314.87h20.13Q395.2,314.87,401,319.71Z"/><path class="cls-1" d="M545.81,308.41a55.94,55.94,0,0,0-18.67-11.6,65.45,65.45,0,0,0-23.44-4.07,64.3,64.3,0,0,0-23.43,4.14,57.08,57.08,0,0,0-18.68,11.69,53.06,53.06,0,0,0-12.37,17.59,58.3,58.3,0,0,0,0,44.34,52.88,52.88,0,0,0,12.37,17.67,57,57,0,0,0,18.75,11.68,68.67,68.67,0,0,0,46.8.08,56.13,56.13,0,0,0,18.67-11.61,52.36,52.36,0,0,0,12.37-17.75,58.68,58.68,0,0,0,0-44.49A52.74,52.74,0,0,0,545.81,308.41Zm-11,53.87a33.26,33.26,0,0,1-7.15,10.91A32.28,32.28,0,0,1,517,380.41,34.14,34.14,0,0,1,503.7,383a34.72,34.72,0,0,1-13.37-2.54,31.29,31.29,0,0,1-10.68-7.22,34,34,0,0,1-7.07-10.91,39.36,39.36,0,0,1,0-27.82,34,34,0,0,1,7.07-10.91,31.29,31.29,0,0,1,10.68-7.22,34.54,34.54,0,0,1,13.37-2.54A34,34,0,0,1,517,316.33a32.28,32.28,0,0,1,10.68,7.22,33.26,33.26,0,0,1,7.15,10.91,39.36,39.36,0,0,1,0,27.82Z"/><path class="cls-1" d="M652.77,299.27q-10.46-4.69-24.9-4.69H581.31V402.16h25.05V372.49h21.51q14.45,0,24.9-4.76a37.24,37.24,0,0,0,16.14-13.44q5.69-8.69,5.68-20.83,0-12-5.68-20.75A36.51,36.51,0,0,0,652.77,299.27Zm-9.07,48q-5.84,4.92-17.21,4.92H606.36V314.87h20.13q11.37,0,17.21,4.84t5.84,13.75Q649.54,342.37,643.7,347.29Z"/><rect class="cls-1" x="692.26" y="294.58" width="25.05" height="107.58"/><path class="cls-1" d="M770.79,323.47a32.28,32.28,0,0,1,10.91-7.14,36.53,36.53,0,0,1,13.83-2.54A34.33,34.33,0,0,1,810.36,317a36.57,36.57,0,0,1,12.22,9.53l16.14-14.76a49.12,49.12,0,0,0-19.06-14.21,68.33,68.33,0,0,0-48.49-.77,55,55,0,0,0-18.59,11.6,53.41,53.41,0,0,0-12.3,17.67,59,59,0,0,0,0,44.57A53.77,53.77,0,0,0,771,399.93,64.49,64.49,0,0,0,794.15,404a63.63,63.63,0,0,0,25.51-4.92,49.9,49.9,0,0,0,19.06-14.29L822.58,370a37.45,37.45,0,0,1-12.22,9.6A33.54,33.54,0,0,1,795.53,383a36.72,36.72,0,0,1-13.83-2.54,32,32,0,0,1-18.06-18.06,39.92,39.92,0,0,1,0-28A32.41,32.41,0,0,1,770.79,323.47Z"/><path class="cls-1" d="M932.46,294.58l-47.8,107.58h25.52l9.58-23.06h49.83l9.59,23.06h26.12L957.05,294.58Zm-4.84,65.62,17.06-41,17.05,41Z"/><path class="cls-1" d="M1086.14,354.05q0,15.22-6.3,22.06T1062.16,383q-11.22,0-17.52-6.84t-6.3-22.06V294.58h-25v60.09q0,23.82,12.91,36.57T1062,404q22.74,0,35.65-12.76t12.91-36.57V294.58h-24.43Z"/><path class="cls-1" d="M1215.07,301.27q-13.36-6.69-30.89-6.69h-48.87V402.16h48.87q17.52,0,30.89-6.69a50.85,50.85,0,0,0,20.9-18.75q7.53-12.06,7.53-28.35T1236,320A50.76,50.76,0,0,0,1215.07,301.27Zm-1.15,64.85a29.46,29.46,0,0,1-12.29,11.68,40.42,40.42,0,0,1-18.68,4.07h-22.59v-67H1183a40.29,40.29,0,0,1,18.68,4.07,29.53,29.53,0,0,1,12.29,11.6,38.32,38.32,0,0,1,0,35.58Z"/><rect class="cls-1" x="1262.25" y="294.58" width="25.05" height="107.58"/><path class="cls-1" d="M1419.23,326.08a52.74,52.74,0,0,0-12.37-17.67,55.94,55.94,0,0,0-18.67-11.6,65.38,65.38,0,0,0-23.44-4.07,64.3,64.3,0,0,0-23.43,4.14,57,57,0,0,0-18.67,11.69,53.09,53.09,0,0,0-12.38,17.59,58.42,58.42,0,0,0,0,44.34,52.91,52.91,0,0,0,12.38,17.67,56.81,56.81,0,0,0,18.74,11.68,68.67,68.67,0,0,0,46.8.08,56.13,56.13,0,0,0,18.67-11.61,52.36,52.36,0,0,0,12.37-17.75,58.68,58.68,0,0,0,0-44.49Zm-23.36,36.2a33.4,33.4,0,0,1-7.14,10.91,32.49,32.49,0,0,1-10.68,7.22,34.19,34.19,0,0,1-13.3,2.54,34.76,34.76,0,0,1-13.37-2.54,31.29,31.29,0,0,1-10.68-7.22,34,34,0,0,1-7.07-10.91,39.5,39.5,0,0,1,0-27.82,34,34,0,0,1,7.07-10.91,31.29,31.29,0,0,1,10.68-7.22,34.57,34.57,0,0,1,13.37-2.54,34,34,0,0,1,13.3,2.54,32.49,32.49,0,0,1,10.68,7.22,33.4,33.4,0,0,1,7.14,10.91,39.36,39.36,0,0,1,0,27.82Z"/><path class="cls-1" d="M365.38,462.77a26.12,26.12,0,0,0-5.08-2q-2.74-.78-5.52-1.45a45.12,45.12,0,0,1-5.11-1.51,9.51,9.51,0,0,1-3.74-2.35,5.58,5.58,0,0,1-1.42-4,6.67,6.67,0,0,1,1.18-3.89,7.88,7.88,0,0,1,3.65-2.75,16.42,16.42,0,0,1,6.28-1,21.72,21.72,0,0,1,5.89.85,20.08,20.08,0,0,1,5.77,2.65l1.51-3.56a20.48,20.48,0,0,0-6-2.75,25.9,25.9,0,0,0-7.07-1,21,21,0,0,0-8.82,1.6,11.65,11.65,0,0,0-5.1,4.22,10.68,10.68,0,0,0-1.66,5.77,9.51,9.51,0,0,0,1.42,5.47,10.56,10.56,0,0,0,3.75,3.35,23.58,23.58,0,0,0,5.1,2q2.78.76,5.56,1.42a41.22,41.22,0,0,1,5.07,1.54,9.76,9.76,0,0,1,3.71,2.39,5.54,5.54,0,0,1,1.42,4,6.39,6.39,0,0,1-1.18,3.75,7.92,7.92,0,0,1-3.68,2.69,17.93,17.93,0,0,1-6.49,1,21.45,21.45,0,0,1-7.94-1.48,17.7,17.7,0,0,1-6-3.65l-1.76,3.44a17.41,17.41,0,0,0,6.68,4,26.85,26.85,0,0,0,9,1.54,21.44,21.44,0,0,0,8.9-1.6,11.83,11.83,0,0,0,5.17-4.23,10.31,10.31,0,0,0,1.69-5.71,9.24,9.24,0,0,0-1.42-5.37A10.41,10.41,0,0,0,365.38,462.77Z"/><polygon class="cls-1" points="373.01 444.21 387.87 444.21 387.87 482.62 392.34 482.62 392.34 444.21 407.2 444.21 407.2 440.34 373.01 440.34 373.01 444.21"/><polygon class="cls-1" points="418.79 463.05 440.66 463.05 440.66 459.24 418.79 459.24 418.79 444.21 443.31 444.21 443.31 440.34 414.32 440.34 414.32 482.62 444.22 482.62 444.22 478.75 418.79 478.75 418.79 463.05"/><path class="cls-1" d="M479.79,442.06a22.58,22.58,0,0,0-9.24-1.72H454.73v42.27h4.47V469.27h11.35a22.24,22.24,0,0,0,9.24-1.75,13.47,13.47,0,0,0,5.95-5,13.88,13.88,0,0,0,2.08-7.7,14.15,14.15,0,0,0-2.08-7.82A13.33,13.33,0,0,0,479.79,442.06Zm.27,20.54q-3.29,2.75-9.63,2.74H459.2V444.21h11.23q6.35,0,9.63,2.77a9.69,9.69,0,0,1,3.29,7.85A9.55,9.55,0,0,1,480.06,462.6Z"/><rect class="cls-1" x="513.91" y="440.34" width="4.47" height="42.28"/><polygon class="cls-1" points="563.07 474.63 535.83 440.34 532.15 440.34 532.15 482.62 536.62 482.62 536.62 448.33 563.79 482.62 567.48 482.62 567.48 440.34 563.07 440.34 563.07 474.63"/><polygon class="cls-1" points="574.61 444.21 589.46 444.21 589.46 482.62 593.93 482.62 593.93 444.21 608.79 444.21 608.79 440.34 574.61 440.34 574.61 444.21"/><path class="cls-1" d="M649.64,446.08a21,21,0,0,0-7-4.5,25.28,25.28,0,0,0-17.7,0,20.91,20.91,0,0,0-11.68,11.35,22.7,22.7,0,0,0,0,17.09,20.82,20.82,0,0,0,11.71,11.36,25.19,25.19,0,0,0,17.67,0,21.28,21.28,0,0,0,7-4.5,20.71,20.71,0,0,0,4.65-6.83,23,23,0,0,0,0-17.15A20.56,20.56,0,0,0,649.64,446.08Zm.51,22.37a17,17,0,0,1-3.71,5.56,16.47,16.47,0,0,1-5.62,3.68,18.55,18.55,0,0,1-7,1.3,18.87,18.87,0,0,1-7.07-1.3,16.72,16.72,0,0,1-9.42-9.27,18.88,18.88,0,0,1,0-13.92,16.87,16.87,0,0,1,9.42-9.24,19.07,19.07,0,0,1,7.07-1.3,18.75,18.75,0,0,1,7,1.3,16.64,16.64,0,0,1,5.62,3.69,17.06,17.06,0,0,1,3.71,5.55,19,19,0,0,1,0,13.95Z"/><polygon class="cls-1" points="708.73 440.34 694.24 464.05 679.75 440.34 674.98 440.34 691.88 468.01 691.88 482.62 696.3 482.62 696.3 468.01 713.21 440.34 708.73 440.34"/><path class="cls-1" d="M752.67,446.08a20.91,20.91,0,0,0-7-4.5,23.64,23.64,0,0,0-8.81-1.6,23.89,23.89,0,0,0-8.88,1.6,20.64,20.64,0,0,0-7,4.53,20.85,20.85,0,0,0-4.66,6.82,22.82,22.82,0,0,0,0,17.09A20.88,20.88,0,0,0,728,481.38a24.17,24.17,0,0,0,8.85,1.6,23.84,23.84,0,0,0,8.81-1.6,21.23,21.23,0,0,0,7-4.5,20.71,20.71,0,0,0,4.65-6.83,23,23,0,0,0,0-17.15A20.56,20.56,0,0,0,752.67,446.08Zm.51,22.37a17,17,0,0,1-3.71,5.56,16.47,16.47,0,0,1-5.62,3.68,18.55,18.55,0,0,1-7,1.3,18.84,18.84,0,0,1-7.07-1.3,16.72,16.72,0,0,1-9.42-9.27,18.88,18.88,0,0,1,0-13.92,16.87,16.87,0,0,1,9.42-9.24,19,19,0,0,1,7.07-1.3,18.75,18.75,0,0,1,7,1.3,16.64,16.64,0,0,1,5.62,3.69,17.06,17.06,0,0,1,3.71,5.55,19,19,0,0,1,0,13.95Z"/><path class="cls-1" d="M799,464.38q0,7.49-3.38,11.05T786,479q-6.16,0-9.54-3.56t-3.39-11.05v-24h-4.47v24.22q0,9.12,4.66,13.77T786,483q8.09,0,12.71-4.65t4.62-13.77V440.34H799Z"/><path class="cls-1" d="M841.9,467.49a13.29,13.29,0,0,0,6-5,13.88,13.88,0,0,0,2.09-7.7,14.15,14.15,0,0,0-2.09-7.82,13.33,13.33,0,0,0-6-4.95,22.55,22.55,0,0,0-9.24-1.72H816.84v42.27h4.47v-13.4h11.35a26.79,26.79,0,0,0,3.34-.29l9.71,13.69h4.89L840.19,468C840.75,467.82,841.38,467.72,841.9,467.49Zm-9.36-2.09H821.31V444.21h11.23q6.35,0,9.64,2.77a10.94,10.94,0,0,1,0,15.64Q838.88,465.41,832.54,465.4Z"/><path class="cls-1" d="M898.58,462.77a26,26,0,0,0-5.07-2q-2.76-.78-5.53-1.45a44.93,44.93,0,0,1-5.1-1.51,9.55,9.55,0,0,1-3.75-2.35,5.63,5.63,0,0,1-1.42-4,6.74,6.74,0,0,1,1.18-3.89,7.91,7.91,0,0,1,3.66-2.75,16.39,16.39,0,0,1,6.28-1,21.71,21.71,0,0,1,5.88.85,20,20,0,0,1,5.77,2.65l1.51-3.56a20.37,20.37,0,0,0-6-2.75,25.82,25.82,0,0,0-7.06-1,20.92,20.92,0,0,0-8.82,1.6,11.54,11.54,0,0,0-5.1,4.22,10.6,10.6,0,0,0-1.67,5.77,9.59,9.59,0,0,0,1.42,5.47,10.56,10.56,0,0,0,3.75,3.35,23.58,23.58,0,0,0,5.1,2q2.77.76,5.56,1.42a41.22,41.22,0,0,1,5.07,1.54,9.76,9.76,0,0,1,3.71,2.39,5.55,5.55,0,0,1,1.43,4,6.47,6.47,0,0,1-1.18,3.75,8,8,0,0,1-3.69,2.69,17.89,17.89,0,0,1-6.49,1,21.45,21.45,0,0,1-7.94-1.48,17.7,17.7,0,0,1-6-3.65l-1.75,3.44a17.29,17.29,0,0,0,6.67,4,26.85,26.85,0,0,0,9,1.54,21.52,21.52,0,0,0,8.91-1.6,11.8,11.8,0,0,0,5.16-4.23,10.31,10.31,0,0,0,1.69-5.71,9.24,9.24,0,0,0-1.42-5.37A10.41,10.41,0,0,0,898.58,462.77Z"/><path class="cls-1" d="M947.8,446.08a21,21,0,0,0-7-4.5,25.25,25.25,0,0,0-17.69,0,20.69,20.69,0,0,0-7,4.53,21,21,0,0,0-4.65,6.82,22.82,22.82,0,0,0,0,17.09,20.8,20.8,0,0,0,11.72,11.36,25.17,25.17,0,0,0,17.66,0,21.33,21.33,0,0,0,7-4.5,20.71,20.71,0,0,0,4.65-6.83,23,23,0,0,0,0-17.15A20.56,20.56,0,0,0,947.8,446.08Zm.51,22.37A17,17,0,0,1,944.6,474a16.47,16.47,0,0,1-5.62,3.68,18.61,18.61,0,0,1-7,1.3,18.82,18.82,0,0,1-7.06-1.3,16.72,16.72,0,0,1-9.42-9.27,18.88,18.88,0,0,1,0-13.92,16.87,16.87,0,0,1,9.42-9.24,19,19,0,0,1,7.06-1.3,18.8,18.8,0,0,1,7,1.3A16.64,16.64,0,0,1,944.6,449a17.06,17.06,0,0,1,3.71,5.55,19,19,0,0,1,0,13.95Z"/><path class="cls-1" d="M994.15,464.38q0,7.49-3.38,11.05t-9.6,3.56q-6.17,0-9.55-3.56t-3.38-11.05v-24h-4.47v24.22q0,9.12,4.65,13.77T981.17,483q8.08,0,12.71-4.65t4.62-13.77V440.34h-4.35Z"/><polygon class="cls-1" points="1042.89 474.63 1015.65 440.34 1011.97 440.34 1011.97 482.62 1016.43 482.62 1016.43 448.33 1043.61 482.62 1047.3 482.62 1047.3 440.34 1042.89 440.34 1042.89 474.63"/><path class="cls-1" d="M1098.09,450.48a19.71,19.71,0,0,0-7.95-7.45,25,25,0,0,0-11.86-2.69h-17.21v42.27h17.21a25.09,25.09,0,0,0,11.86-2.68,19.8,19.8,0,0,0,7.95-7.46,22.7,22.7,0,0,0,0-22Zm-3.87,20a16,16,0,0,1-6.43,6.09,20.34,20.34,0,0,1-9.75,2.21h-12.51V444.21H1078a20.45,20.45,0,0,1,9.75,2.2,16.09,16.09,0,0,1,6.43,6.07,18.7,18.7,0,0,1,0,18Z"/><path class="cls-1" d="M1116.35,71.72h-15.43a96.76,96.76,0,0,0-87.13,54.68l-21.16,43.82a20,20,0,0,1-19,11.58,20.34,20.34,0,0,1-18.5-12.62l-53.51-124a56,56,0,0,0-102.58-.51l-43.32,97.71a66.6,66.6,0,0,1-60.81,39.41H620.8c-6.43,0-12.75-3-16.14-8.42a17.4,17.4,0,0,1-1.28-16.12,18.05,18.05,0,0,1,6.68-8.06,17.3,17.3,0,0,1,9.7-2.93l97.4.06a13.92,13.92,0,0,0,13.94-13.87l.09-20.48c.18-33-15.63-63.59-43.83-83A97.37,97.37,0,0,0,632,12.24,119.65,119.65,0,0,0,521.79,85.16l-38.36,82.68-.27.61A20.26,20.26,0,0,1,464.71,181c-3.08,0-13.64-.54-19-11.58l-21.21-43.86A96.79,96.79,0,0,0,337.4,70.88H323.19c-11.26,0-21.35,8.43-21.94,19.68A20.79,20.79,0,0,0,322,112.47h15.39a55.17,55.17,0,0,1,49.67,31.15l21.21,43.86a62.15,62.15,0,0,0,113-2.42l38.38-82.72.3-.69a78.07,78.07,0,0,1,71.88-47.82,56.06,56.06,0,0,1,29.41,7.89c16,9.79,25.93,25.5,28,43l-69.44,0a58.63,58.63,0,0,0-32.82,10,59.36,59.36,0,0,0-11.24,89.2c11.54,12.88,28.49,19.58,45.79,19.58h73.44a108.24,108.24,0,0,0,98.82-64.12l43.33-97.74c3.45-7.76,10.37-8.37,13.23-8.55a13.92,13.92,0,0,1,13.14,8.69l53.47,123.87a61.51,61.51,0,0,0,55.73,37.81c24.62.79,46.69-12.84,57.42-35.07l21.16-43.82a55.18,55.18,0,0,1,49.68-31.18h14.26c11.26,0,21.35-8.43,21.94-19.68A20.79,20.79,0,0,0,1116.35,71.72Z"/><path class="cls-1" d="M267.82,70.88h-7.53a20.8,20.8,0,1,0,0,41.59h7.53a20.8,20.8,0,0,0,0-41.59Z"/><path class="cls-1" d="M1179.71,70.88h-7.53a20.8,20.8,0,0,0,0,41.59h7.53a20.8,20.8,0,1,0,0-41.59Z"/></svg>