<svg id="Layer_1" data-name="Layer 1" xmlns="http://www.w3.org/2000/svg" viewBox="0 0 1430 410"><defs><style>.cls-1{fill:#fff;}.cls-2{fill:#f74b02;}</style></defs><polygon class="cls-1" points="36.13 354.58 86.07 354.58 86.07 335.06 36.13 335.06 36.13 311.85 92.68 311.85 92.68 291.87 11.39 291.87 11.39 399.45 94.68 399.45 94.68 379.47 36.13 379.47 36.13 354.58"/><polygon class="cls-1" points="188.57 357.14 135.1 291.87 114.5 291.87 114.5 399.45 139.09 399.45 139.09 334.19 192.57 399.45 213.16 399.45 213.16 291.87 188.57 291.87 188.57 357.14"/><polygon class="cls-1" points="226.54 312.16 260.96 312.16 260.96 399.45 285.86 399.45 285.86 312.16 320.28 312.16 320.28 291.87 226.54 291.87 226.54 312.16"/><path class="cls-1" d="M405.11,364.8a35.72,35.72,0,0,0,16.14-13.22q5.69-8.68,5.68-20.82T421.25,310a36.48,36.48,0,0,0-16.14-13.45q-10.46-4.68-24.9-4.69H333.65V399.45H358.7V369.33h21.51c.37,0,.71,0,1.08-.05l20.9,30.17h26.74l-24-34.6ZM396,317q5.85,4.85,5.84,13.76T396,344.59q-5.84,4.92-17.21,4.91H358.7V312.16h20.13Q390.2,312.16,396,317Z"/><path class="cls-1" d="M540.81,305.71a56.13,56.13,0,0,0-18.67-11.61A65.45,65.45,0,0,0,498.7,290a64.09,64.09,0,0,0-23.43,4.15,57.06,57.06,0,0,0-18.68,11.68,53.1,53.1,0,0,0-12.37,17.6,58.27,58.27,0,0,0,0,44.33,52.78,52.78,0,0,0,12.37,17.67,56.63,56.63,0,0,0,18.75,11.68,68.51,68.51,0,0,0,46.8.08,55.94,55.94,0,0,0,18.67-11.6,52.56,52.56,0,0,0,12.37-17.75,58.68,58.68,0,0,0,0-44.49A52.74,52.74,0,0,0,540.81,305.71Zm-11,53.86a33.16,33.16,0,0,1-7.15,10.91A32.13,32.13,0,0,1,512,377.7a34,34,0,0,1-13.29,2.54,34.54,34.54,0,0,1-13.37-2.54,31.15,31.15,0,0,1-10.68-7.22,33.92,33.92,0,0,1-7.07-10.91,39.36,39.36,0,0,1,0-27.82,34.14,34.14,0,0,1,7.07-10.91,31.29,31.29,0,0,1,10.68-7.22,34.72,34.72,0,0,1,13.37-2.54A34.14,34.14,0,0,1,512,313.62a32.28,32.28,0,0,1,10.68,7.22,33.37,33.37,0,0,1,7.15,10.91,39.36,39.36,0,0,1,0,27.82Z"/><path class="cls-1" d="M647.77,296.56q-10.46-4.68-24.9-4.69H576.31V399.45h25.05V369.79h21.51q14.45,0,24.9-4.77a37.17,37.17,0,0,0,16.14-13.44q5.69-8.68,5.68-20.82T663.91,310A36.59,36.59,0,0,0,647.77,296.56Zm-9.07,48q-5.84,4.92-17.21,4.91H601.36V312.16h20.13q11.37,0,17.21,4.84t5.84,13.76Q644.54,339.67,638.7,344.59Z"/><rect class="cls-1" x="687.26" y="291.87" width="25.05" height="107.58"/><path class="cls-1" d="M765.79,320.77a32.16,32.16,0,0,1,10.91-7.15,36.72,36.72,0,0,1,13.83-2.54,34.33,34.33,0,0,1,14.83,3.23,36.57,36.57,0,0,1,12.22,9.53l16.14-14.75a49.24,49.24,0,0,0-19.06-14.22,68.33,68.33,0,0,0-48.49-.77,55.18,55.18,0,0,0-18.59,11.61,53.41,53.41,0,0,0-12.3,17.67,59,59,0,0,0,0,44.57A53.72,53.72,0,0,0,766,397.22a64.49,64.49,0,0,0,23.13,4.08,63.81,63.81,0,0,0,25.51-4.92,49.93,49.93,0,0,0,19.06-14.3l-16.14-14.75a37.45,37.45,0,0,1-12.22,9.6,33.54,33.54,0,0,1-14.83,3.31,36.53,36.53,0,0,1-13.83-2.54,31.94,31.94,0,0,1-18.06-18.05,39.92,39.92,0,0,1,0-28A32.31,32.31,0,0,1,765.79,320.77Z"/><path class="cls-1" d="M927.46,291.87l-47.8,107.58h25.52l9.58-23.05h49.83l9.59,23.05h26.12L952.05,291.87Zm-4.84,65.63,17.06-41,17.05,41Z"/><path class="cls-1" d="M1081.14,351.35q0,15.21-6.3,22t-17.68,6.84q-11.22,0-17.52-6.84t-6.3-22V291.87h-25V352q0,23.82,12.91,36.58T1057,401.3q22.74,0,35.65-12.76T1105.57,352V291.87h-24.43Z"/><path class="cls-1" d="M1210.07,298.56q-13.36-6.69-30.89-6.69h-48.87V399.45h48.87q17.52,0,30.89-6.69A50.76,50.76,0,0,0,1231,374q7.53-12.07,7.53-28.36T1231,317.31A50.85,50.85,0,0,0,1210.07,298.56Zm-1.15,64.85a29.4,29.4,0,0,1-12.29,11.68,40.29,40.29,0,0,1-18.68,4.07h-22.59v-67H1178a40.42,40.42,0,0,1,18.68,4.07,29.65,29.65,0,0,1,12.29,11.6,38.32,38.32,0,0,1,0,35.58Z"/><rect class="cls-1" x="1257.25" y="291.87" width="25.05" height="107.58"/><path class="cls-1" d="M1414.23,323.38a52.74,52.74,0,0,0-12.37-17.67,56.13,56.13,0,0,0-18.67-11.61,65.38,65.38,0,0,0-23.44-4.07,64.09,64.09,0,0,0-23.43,4.15,57,57,0,0,0-18.67,11.68,53.13,53.13,0,0,0-12.38,17.6,58.4,58.4,0,0,0,0,44.33,52.81,52.81,0,0,0,12.38,17.67,56.49,56.49,0,0,0,18.74,11.68,68.51,68.51,0,0,0,46.8.08,55.94,55.94,0,0,0,18.67-11.6,52.56,52.56,0,0,0,12.37-17.75,58.68,58.68,0,0,0,0-44.49Zm-23.36,36.19a33.29,33.29,0,0,1-7.14,10.91,32.33,32.33,0,0,1-10.68,7.22,34,34,0,0,1-13.3,2.54,34.57,34.57,0,0,1-13.37-2.54,31.15,31.15,0,0,1-10.68-7.22,33.92,33.92,0,0,1-7.07-10.91,39.5,39.5,0,0,1,0-27.82,34.14,34.14,0,0,1,7.07-10.91,31.29,31.29,0,0,1,10.68-7.22,34.76,34.76,0,0,1,13.37-2.54,34.19,34.19,0,0,1,13.3,2.54,32.49,32.49,0,0,1,10.68,7.22,33.5,33.5,0,0,1,7.14,10.91,39.36,39.36,0,0,1,0,27.82Z"/><path class="cls-2" d="M1111.35,69h-15.43a96.75,96.75,0,0,0-87.13,54.69l-21.16,43.81a20,20,0,0,1-19,11.58,20.32,20.32,0,0,1-18.5-12.61l-53.51-124A56,56,0,0,0,794.07,42l-43.32,97.7a66.61,66.61,0,0,1-60.81,39.42H615.8c-6.43,0-12.75-3-16.14-8.43a17.4,17.4,0,0,1-1.28-16.12,18,18,0,0,1,6.68-8,17.31,17.31,0,0,1,9.7-2.94l97.4.07a13.93,13.93,0,0,0,13.94-13.87l.09-20.49c.18-33-15.63-63.59-43.83-83A97.38,97.38,0,0,0,627,9.53,119.65,119.65,0,0,0,516.79,82.45l-38.36,82.68-.27.61a20.29,20.29,0,0,1-18.45,12.52c-3.08,0-13.64-.55-19-11.59l-21.21-43.86A96.79,96.79,0,0,0,332.4,68.17H318.19c-11.26,0-21.35,8.44-21.94,19.68A20.8,20.8,0,0,0,317,109.77h15.39a55.17,55.17,0,0,1,49.67,31.15l21.21,43.85a62.15,62.15,0,0,0,113-2.41l38.38-82.73.3-.69a78,78,0,0,1,71.88-47.81A56,56,0,0,1,656.26,59c16,9.78,25.93,25.5,28,43l-69.44,0A58.7,58.7,0,0,0,582,111.93a59.37,59.37,0,0,0-11.24,89.21c11.54,12.87,28.49,19.57,45.79,19.57h73.44a108.24,108.24,0,0,0,98.82-64.12l43.33-97.73c3.45-7.77,10.37-8.37,13.23-8.56A13.94,13.94,0,0,1,858.46,59l53.47,123.87a61.54,61.54,0,0,0,55.73,37.82c24.62.78,46.69-12.85,57.42-35.07l21.16-43.83a55.17,55.17,0,0,1,49.68-31.17h14.26c11.26,0,21.35-8.44,21.94-19.68A20.8,20.8,0,0,0,1111.35,69Z"/><path class="cls-2" d="M262.82,68.17h-7.53a20.8,20.8,0,1,0,0,41.6h7.53a20.8,20.8,0,0,0,0-41.6Z"/><path class="cls-2" d="M1174.71,68.17h-7.53a20.8,20.8,0,0,0,0,41.6h7.53a20.8,20.8,0,0,0,0-41.6Z"/></svg>